<?xml version="1.0" encoding="UTF-8" standalone="no"?>
<!-- Created with Inkscape (http://www.inkscape.org/) -->

<svg
   width="300mm"
   height="100mm"
   viewBox="0 0 300 100"
   version="1.1"
   id="svg1"
   inkscape:version="1.3.2 (091e20e, 2023-11-25, custom)"
   sodipodi:docname="form.svg"
   xmlns:inkscape="http://www.inkscape.org/namespaces/inkscape"
   xmlns:sodipodi="http://sodipodi.sourceforge.net/DTD/sodipodi-0.dtd"
   xmlns="http://www.w3.org/2000/svg"
   xmlns:svg="http://www.w3.org/2000/svg">
  <sodipodi:namedview
     id="namedview1"
     pagecolor="#ffffff"
     bordercolor="#666666"
     borderopacity="1.0"
     inkscape:showpageshadow="2"
     inkscape:pageopacity="0.0"
     inkscape:pagecheckerboard="0"
     inkscape:deskcolor="#d1d1d1"
     inkscape:document-units="mm"
     inkscape:zoom="3.0680976"
     inkscape:cx="172.09361"
     inkscape:cy="172.58251"
     inkscape:window-width="1920"
     inkscape:window-height="1057"
     inkscape:window-x="-8"
     inkscape:window-y="-8"
     inkscape:window-maximized="1"
     inkscape:current-layer="layer1" />
  <defs
     id="defs1">
    <marker
       style="overflow:visible"
       id="Dot"
       refX="0"
       refY="0"
       orient="auto"
       inkscape:stockid="Dot"
       markerWidth="1"
       markerHeight="1"
       viewBox="0 0 1 1"
       inkscape:isstock="true"
       inkscape:collect="always"
       preserveAspectRatio="xMidYMid">
      <path
         transform="scale(0.5)"
         style="fill:context-stroke;fill-rule:evenodd;stroke:none"
         d="M 5,0 C 5,2.76 2.76,5 0,5 -2.76,5 -5,2.76 -5,0 c 0,-2.76 2.3,-5 5,-5 2.76,0 5,2.24 5,5 z"
         sodipodi:nodetypes="sssss"
         id="path17" />
    </marker>
    <marker
       style="overflow:visible"
       id="DartArrow"
       refX="0"
       refY="0"
       orient="auto-start-reverse"
       inkscape:stockid="Dart arrow"
       markerWidth="1"
       markerHeight="1"
       viewBox="0 0 1 1"
       inkscape:isstock="true"
       inkscape:collect="always"
       preserveAspectRatio="xMidYMid">
      <path
         style="fill:context-stroke;fill-rule:evenodd;stroke:none"
         d="M 0,0 5,-5 -12.5,0 5,5 Z"
         transform="scale(-0.5)"
         id="path6" />
    </marker>
  </defs>
  <g
     inkscape:label="Ebene 1"
     inkscape:groupmode="layer"
     id="layer1">
    <path
       style="fill:#ffcc00;fill-opacity:1;stroke:#ffcc00;stroke-width:0.448;stroke-dasharray:none;stroke-opacity:1"
       d="m 222.10973,94.502846 c -0.17007,-0.06709 -0.44854,-0.148414 -0.61878,-0.18058 -0.17026,-0.0322 -0.51815,-0.125347 -0.7731,-0.20707 -0.25494,-0.08173 -0.73026,-0.223019 -1.05625,-0.313982 -0.32599,-0.091 -0.77824,-0.220919 -1.00503,-0.288794 -2.43613,-0.728984 -2.32115,-0.686362 -3.73661,-1.38515 -0.46772,-0.230902 -1.03595,-0.50421 -1.26271,-0.607363 -0.22678,-0.103164 -0.9403,-0.444337 -1.58561,-0.758221 -0.64529,-0.313885 -1.18139,-0.570685 -1.19128,-0.570685 -0.01,0 -0.5399,-0.253107 -1.17776,-0.562447 -0.63788,-0.309351 -1.52815,-0.730524 -1.9784,-0.935947 -0.45026,-0.205412 -0.90527,-0.427839 -1.01114,-0.49426 -0.20511,-0.128707 -0.46899,-0.560638 -0.48467,-0.793359 -0.004,-0.07247 -0.0458,-0.22023 -0.0911,-0.328412 -0.0452,-0.108192 -0.0822,-0.238579 -0.0822,-0.289752 0,-0.05126 -0.0541,-0.135545 -0.12008,-0.187504 -0.0661,-0.05201 -0.11045,-0.123376 -0.0987,-0.15873 0.0119,-0.03543 -0.0247,-0.162671 -0.0811,-0.282946 -0.0564,-0.120275 -0.30351,-0.67093 -0.54918,-1.223696 -0.57309,-1.289374 -0.55451,-1.246946 -0.74551,-1.700802 -0.0895,-0.212594 -0.20689,-0.490921 -0.26091,-0.618476 -0.054,-0.127565 -0.16997,-0.405881 -0.25768,-0.618476 -0.0877,-0.212595 -0.20369,-0.490921 -0.2577,-0.618476 -0.054,-0.127555 -0.17,-0.405881 -0.2577,-0.618476 -0.0877,-0.212606 -0.20395,-0.490911 -0.2583,-0.618476 -0.0543,-0.127555 -0.25109,-0.591415 -0.43719,-1.030787 -0.18612,-0.439383 -0.35948,-0.845253 -0.3853,-0.90195 -0.0611,-0.134102 -0.35028,-0.803729 -0.72363,-1.675032 -0.16395,-0.382686 -0.46503,-1.078481 -0.66903,-1.546196 -0.5583,-1.280027 -0.86121,-1.978299 -1.11789,-2.576982 -0.12762,-0.297642 -0.2631,-0.61074 -0.30106,-0.69578 -0.038,-0.08505 -0.29414,-0.676459 -0.56928,-1.314266 -0.27514,-0.6378 -0.67338,-1.519127 -0.88495,-1.958504 -0.21158,-0.439369 -0.49016,-1.019198 -0.61908,-1.288486 -0.12892,-0.269296 -0.59183,-1.220203 -1.02869,-2.113131 -0.43687,-0.892921 -0.91453,-1.878611 -1.06143,-2.190433 -0.49655,-1.053921 -0.93923,-1.902108 -1.65435,-3.169688 -0.39182,-0.69449 -0.8864,-1.575826 -1.09907,-1.958504 -0.2127,-0.382678 -0.40472,-0.718969 -0.42676,-0.747328 -0.022,-0.02835 -0.37576,-0.654547 -0.78609,-1.391561 -0.69897,-1.255397 -1.0384,-1.845341 -1.67546,-2.911994 -0.41696,-0.698125 -0.38649,-0.67561 -0.54591,-0.403557 -0.0749,0.127722 -0.13611,0.281514 -0.13611,0.341753 0,0.181873 0.14938,0.527879 0.9277,2.14916 0.28428,0.592169 0.71485,1.471324 2.53678,5.179735 0.45263,0.92127 1.01018,2.069311 1.23903,2.551213 0.22887,0.481893 0.6756,1.398006 0.99274,2.035813 0.31713,0.637808 0.68767,1.391571 0.82342,1.675033 0.13574,0.283471 0.48999,1.01405 0.78721,1.623499 0.58366,1.196758 1.26833,2.603356 1.94429,3.994321 0.23416,0.481893 0.65165,1.340028 0.92773,1.906965 0.27609,0.566938 0.65886,1.355494 0.85062,1.752351 0.88226,1.825977 1.8495,3.791515 2.90399,5.901288 0.63048,1.261429 1.41897,2.856418 1.75218,3.544417 0.33324,0.688009 0.67433,1.328873 0.75797,1.424143 0.0837,0.0953 0.15212,0.193373 0.15212,0.217969 0,0.02466 0.11596,0.225722 0.25769,0.446931 0.14174,0.221199 0.2577,0.41539 0.2577,0.431511 0,0.07064 -0.176,-0.127318 -0.34826,-0.391688 -0.10301,-0.158062 -0.26147,-0.371723 -0.35217,-0.474801 -0.0907,-0.103056 -0.24052,-0.346611 -0.33296,-0.541179 -0.0924,-0.194557 -0.42245,-0.875588 -0.73337,-1.513394 -0.31091,-0.637795 -0.76165,-1.565515 -1.00164,-2.061573 -0.23999,-0.496069 -0.79159,-1.62092 -1.2258,-2.499674 -0.43421,-0.878755 -0.9859,-2.003605 -1.22601,-2.499674 -0.24011,-0.496069 -0.69153,-1.423789 -1.00317,-2.061584 -0.56193,-1.150017 -1.10024,-2.255333 -1.92014,-3.942784 -0.23417,-0.481893 -0.78413,-1.60675 -1.22217,-2.499669 -0.43804,-0.892921 -0.98133,-2.012064 -1.20732,-2.486974 -0.22598,-0.474902 -0.70197,-1.44901 -1.05774,-2.164657 -0.35576,-0.715665 -0.74003,-1.498334 -0.85393,-1.739281 -0.446,-0.943445 -1.25193,-2.598485 -2.86111,-5.87552 -1.49827,-3.051176 -1.6806,-3.444298 -2.31858,-4.99934 -0.42646,-1.03953 -0.56202,-1.390858 -0.87348,-2.263899 -0.15601,-0.437263 -0.36022,-0.959098 -0.4538,-1.159642 -0.24213,-0.518886 -0.28566,-0.711134 -0.23211,-1.025068 0.10008,-0.586943 0.16173,-0.90506 0.2566,-1.323835 0.0546,-0.240946 0.17123,-0.785974 0.25922,-1.211185 0.088,-0.425202 0.21829,-1.039808 0.28955,-1.365795 0.0712,-0.325986 0.17219,-0.789844 0.2243,-1.030798 0.0521,-0.240938 0.15488,-0.704804 0.22839,-1.030782 0.12742,-0.565003 0.19243,-0.871424 0.36349,-1.713696 0.11351,-0.55876 0.26841,-1.272659 0.44038,-2.02957 0.0845,-0.372163 0.15376,-0.713056 0.15376,-0.757554 0,-0.04453 0.0579,-0.264166 0.12865,-0.488172 0.1168,-0.369729 0.1558,-0.430559 0.42312,-0.659791 0.83472,-0.715788 1.23533,-1.088699 1.87013,-1.740838 0.81512,-0.837386 1.47386,-1.423199 3.22359,-2.866773 0.70434,-0.581108 2.1146,-1.752342 3.13391,-2.602746 1.69254,-1.412085 3.40973,-2.843989 3.66746,-3.058212 0.0567,-0.04713 0.39301,-0.326413 0.74733,-0.620606 0.35429,-0.294202 0.94569,-0.786157 1.3142,-1.093238 1.60402,-1.336631 4.91382,-4.086309 6.26032,-5.20087 2.12752,-1.761029 5.38648,-4.472852 6.16099,-5.1266 0.36836,-0.310943 1.08723,-0.914548 1.59748,-1.34135 0.51023,-0.426793 0.98569,-0.825247 1.05655,-0.885433 0.0709,-0.06018 0.2912,-0.243869 0.48963,-0.408158 0.19843,-0.164299 0.5811,-0.488258 0.85041,-0.719917 1.182,-1.0167893 2.16196,-1.7930672 2.44813,-1.9392861 0.17008,-0.086871 0.64257,-0.3797114 1.04996,-0.650695 l 0.74074,-0.4926939 1.99086,-0.040781 c 1.09499,-0.022431 2.48952,-0.065484 3.09899,-0.095723 0.60945,-0.03026 2.15564,-0.069049 3.43598,-0.086354 2.54476,-0.034352 2.5715,-0.032608 4.24342,0.2734441 0.5244,0.096003 1.46373,0.2572599 2.08735,0.3583539 1.37897,0.2235282 2.24075,0.4051836 2.46244,0.5190783 0.17364,0.089197 0.80459,0.5093811 1.25254,0.8341336 0.22865,0.1657672 2.42425,1.7150611 3.48835,2.4615111 0.20515,0.143905 0.77888,0.548115 1.27495,0.898242 0.49606,0.350127 1.12227,0.790418 1.39155,0.978404 1.09883,0.767086 1.84781,1.292877 2.16467,1.519562 0.51251,0.366659 2.13583,1.509117 3.40738,2.398046 0.62851,0.439386 1.29599,0.907973 1.48331,1.041313 0.18731,0.133338 0.52612,0.371494 0.75291,0.529226 0.22678,0.157741 0.58625,0.410131 0.79885,0.560872 0.21262,0.150749 0.58949,0.417036 0.83752,0.591761 0.24804,0.174716 0.64233,0.452752 0.87617,0.617841 0.64947,0.458492 2.25316,1.584471 3.00219,2.107888 0.36852,0.257515 0.82077,0.575954 1.00503,0.707649 0.18425,0.131696 0.62492,0.442717 0.97925,0.691168 0.35433,0.248451 1.05013,0.738631 1.54619,1.089298 0.49607,0.350667 1.28462,0.902843 1.75235,1.227056 0.46771,0.324213 1.03594,0.723247 1.26272,0.886754 l 0.41232,0.297289 0.34463,0.714352 c 0.40056,0.830229 0.86654,1.824608 0.86654,1.849131 0,0.0094 0.1531,0.337649 0.34024,0.729588 0.18712,0.39193 0.4567,0.967724 0.59905,1.279537 0.14236,0.311821 0.40673,0.876893 0.58749,1.255727 0.18077,0.378816 0.32865,0.695576 0.32865,0.70389 0,0.0087 0.15362,0.33617 0.34139,0.728562 0.83282,1.740445 0.82325,1.711792 1.46293,4.372759 0.17718,0.737014 0.46022,1.885056 0.62899,2.551204 0.16878,0.666157 0.34845,1.396728 0.39928,1.623508 0.0509,0.226772 0.12282,0.520695 0.15996,0.653165 0.0727,0.259044 0.0543,0.384965 -0.23439,1.614576 -0.0666,0.283463 -0.17963,0.782113 -0.25124,1.1081 -0.2963,1.348925 -0.72021,3.254834 -0.83113,3.736622 -0.3577,1.553999 -0.78826,3.482875 -1.02965,4.612793 -0.0999,0.467726 -0.2155,0.989561 -0.25683,1.159651 -0.11067,0.455125 -0.82081,3.62791 -1.03246,4.612793 -0.10052,0.467726 -0.21741,0.989561 -0.25974,1.159642 -0.0424,0.17008 -0.15787,0.691916 -0.2567,1.159642 -0.0989,0.467719 -0.20173,0.931575 -0.22861,1.03079 -0.0517,0.190796 -0.50344,2.19692 -0.8066,3.582004 -0.0993,0.453551 -0.20268,0.917408 -0.22979,1.030798 -0.0271,0.113381 -0.10986,0.484467 -0.18383,0.824629 -0.074,0.340161 -0.17609,0.804018 -0.22694,1.03079 -0.0509,0.22678 -0.1513,0.679036 -0.22321,1.005023 -0.0719,0.325983 -0.16449,0.731862 -0.20569,0.901942 -0.08,0.330398 -0.17011,0.733405 -0.50065,2.240122 -0.25965,1.183573 -0.3372,1.430562 -0.51035,1.625357 -0.0756,0.08507 -0.20257,0.256789 -0.28217,0.381652 -0.0796,0.124873 -0.42612,0.568617 -0.77006,0.986107 -0.34394,0.41749 -0.66585,0.81397 -0.71539,0.88107 -0.0496,0.06709 -0.32205,0.411901 -0.60558,0.766233 -0.28355,0.354342 -0.95041,1.188687 -1.4819,1.854136 -1.11263,1.393001 -1.00005,1.288071 -3.90018,3.634841 -0.64353,0.520729 -1.32403,1.085114 -2.85607,2.368749 -0.57652,0.483028 -1.15635,0.953855 -1.2885,1.046272 -0.13215,0.09239 -0.27505,0.213779 -0.31757,0.26969 -0.0738,0.09703 -0.77926,0.285057 -1.44311,0.384624 -0.27639,0.04146 -1.46624,0.26059 -2.01005,0.370172 -0.2126,0.04286 -0.69965,0.132702 -1.08233,0.199673 -0.38269,0.06698 -1.12486,0.203786 -1.64926,0.304053 -0.52442,0.100256 -1.2782,0.241907 -1.67504,0.314778 -0.39686,0.0729 -0.95349,0.176154 -1.23695,0.229545 -0.28349,0.05341 -0.90967,0.169445 -1.39158,0.25792 -0.4819,0.08852 -1.10809,0.204443 -1.39156,0.257705 -0.52304,0.09832 -1.70068,0.315575 -2.96353,0.546853 -0.38268,0.0701 -0.99731,0.184015 -1.3658,0.253193 -0.36851,0.06914 -0.99472,0.184704 -1.39158,0.256746 -0.67868,0.123205 -1.04751,0.191252 -2.75736,0.508787 -0.38268,0.07107 -1.03209,0.19039 -1.44311,0.265157 -0.41103,0.07473 -0.97925,0.17961 -1.26272,0.23299 -0.28347,0.05341 -0.90967,0.168917 -1.39158,0.256747 -0.48188,0.08776 -1.10809,0.203247 -1.39156,0.256509 -0.28347,0.0533 -0.90968,0.169219 -1.39158,0.257694 -1.35669,0.249079 -2.69451,0.500979 -4.69011,0.883116 -1.45325,0.278294 -1.47881,0.280103 -1.85543,0.131388 z m 1.2528,-0.135255 c 0.27477,-0.05567 0.95182,-0.183379 1.50456,-0.283851 0.55278,-0.100471 1.29495,-0.238676 1.64928,-0.307154 0.35434,-0.06849 0.98055,-0.186276 1.39158,-0.261775 0.41102,-0.07549 1.03723,-0.191252 1.39156,-0.25721 1.33527,-0.248562 2.10938,-0.390848 2.80892,-0.516314 0.39685,-0.07118 1.01145,-0.185651 1.3658,-0.254387 0.35434,-0.0687 0.99214,-0.185986 1.41734,-0.260537 0.42519,-0.07452 1.06299,-0.190562 1.41733,-0.257823 0.35435,-0.0672 0.98054,-0.183617 1.39158,-0.258588 0.41101,-0.07495 1.03722,-0.190272 1.39156,-0.25624 0.35435,-0.06591 0.98053,-0.181926 1.39158,-0.257694 0.41102,-0.0757 1.03722,-0.191639 1.39156,-0.257468 0.83222,-0.154627 1.84506,-0.342185 2.78313,-0.515409 0.41105,-0.07592 1.03725,-0.191962 1.39159,-0.25792 0.35433,-0.06601 0.98053,-0.181926 1.39155,-0.257694 0.70133,-0.129289 1.09643,-0.20313 2.75739,-0.515302 0.83161,-0.156307 3.17635,-0.59289 4.27779,-0.796525 1.15718,-0.21393 1.14602,-0.211163 1.23037,-0.304699 0.0417,-0.04631 0.15656,-0.316211 0.25503,-0.599674 0.16154,-0.465088 0.42761,-1.181946 0.68318,-1.840708 0.0518,-0.133628 0.0823,-0.254894 0.0677,-0.269464 -0.0146,-0.01454 -0.40774,-0.07301 -0.87371,-0.129763 -0.46597,-0.05675 -1.00957,-0.12707 -1.208,-0.156167 -0.19842,-0.02908 -0.69708,-0.08723 -1.1081,-0.129266 -0.41104,-0.042 -1.02563,-0.111747 -1.36581,-0.154994 -0.34015,-0.04318 -0.93157,-0.113555 -1.31426,-0.156242 -1.31736,-0.146982 -2.91229,-0.33441 -3.06661,-0.360406 -0.085,-0.01421 -0.59527,-0.07247 -1.13386,-0.129094 -0.5386,-0.05664 -1.44311,-0.160345 -2.01004,-0.230363 -0.56695,-0.07 -1.55264,-0.185038 -2.19044,-0.255616 -0.63781,-0.07053 -1.6467,-0.186857 -2.24198,-0.258415 -3.38382,-0.406786 -3.36074,-0.404783 -3.99432,-0.345373 -0.32598,0.03058 -0.83623,0.102626 -1.13388,0.160184 -0.5672,0.109636 -1.3256,0.239657 -2.57697,0.441763 -0.41104,0.06633 -1.01405,0.167657 -1.34004,0.225032 -0.32598,0.0574 -0.93819,0.163932 -1.36046,0.23676 -0.95145,0.164093 -1.2673,0.254539 -1.59998,0.458142 -0.24265,0.148499 -1.03847,0.683206 -1.57503,1.058246 -0.12758,0.08917 -0.63781,0.437003 -1.1339,0.772985 -0.83525,0.565721 -1.63783,1.112273 -3.0666,2.08843 -0.3118,0.213036 -0.98615,0.672427 -1.49854,1.020868 -0.51237,0.348431 -1.03421,0.704658 -1.15964,0.791604 -0.1254,0.08701 -0.56432,0.385281 -0.97536,0.662929 -0.41101,0.277659 -0.75312,0.531218 -0.7602,0.56347 -0.007,0.03231 0.67732,0.470548 1.5209,0.974014 0.84358,0.503467 1.69593,1.023615 1.89407,1.155865 0.93594,0.624625 1.06178,0.656166 1.92234,0.481843 z m -1.69087,-0.154035 c 0,-0.0645 -0.28304,-0.256466 -1.15966,-0.786499 -0.39684,-0.239969 -1.1485,-0.695149 -1.67033,-1.011543 -0.52182,-0.316394 -0.96747,-0.575261 -0.99035,-0.575261 -0.0229,0 -0.27483,0.163285 -0.55989,0.362839 -0.52526,0.367695 -0.71822,0.477353 -0.65233,0.370764 0.0355,-0.0575 0.61247,-0.463536 0.93522,-0.658244 0.0996,-0.06009 0.1589,-0.129127 0.13856,-0.161283 -0.0368,-0.05815 -1.1036,-0.704022 -1.73637,-1.051171 -0.19841,-0.10886 -0.5695,-0.282613 -0.82462,-0.386132 -2.09699,-0.850896 -5.81424,-2.345154 -6.93208,-2.786572 -0.7512,-0.296623 -1.50496,-0.594344 -1.67504,-0.661583 -0.17009,-0.0672 -0.32852,-0.10381 -0.35207,-0.0812 -0.0236,0.02251 0.003,0.130764 0.0586,0.240432 0.0557,0.109678 0.17662,0.39004 0.26853,0.623042 0.0958,0.242854 0.21377,0.453102 0.27643,0.492676 0.0601,0.03801 0.3876,0.193018 0.72776,0.344576 0.34017,0.151536 0.97797,0.448062 1.41735,0.658934 0.43938,0.210883 1.22793,0.588162 1.75234,0.838426 0.52443,0.250263 1.23841,0.59597 1.58667,0.768247 0.34823,0.172255 0.64265,0.313206 0.65423,0.313206 0.0117,0 0.55001,0.257554 1.1965,0.572343 1.47631,0.718872 2.15558,1.025391 2.27237,1.025391 0.0502,0 0.1435,0.03661 0.20731,0.0813 0.0638,0.04469 0.37802,0.158374 0.69821,0.252589 0.3202,0.09423 0.68886,0.207523 0.81923,0.251793 0.13038,0.04426 0.74326,0.220133 1.36196,0.390816 0.61871,0.170694 1.33364,0.378626 1.58876,0.462072 0.512,0.167464 0.59271,0.182454 0.59271,0.110121 z m -2.6234,-3.313999 c 0.59317,-0.40389 1.59425,-1.086547 2.22461,-1.517013 1.11064,-0.758458 2.57019,-1.751436 4.4584,-3.033186 1.44476,-0.980733 2.50766,-1.693941 2.6171,-1.756087 0.0975,-0.05535 0.0978,-0.063 0.0105,-0.231925 -0.0496,-0.09606 -0.35582,-0.557407 -0.68045,-1.025122 -0.32462,-0.467726 -0.69421,-1.001162 -0.82131,-1.185414 -0.12709,-0.184251 -0.35246,-0.508959 -0.50082,-0.721564 -0.14836,-0.212595 -0.4515,-0.658277 -0.67364,-0.990393 -0.27113,-0.405386 -0.42754,-0.594785 -0.47585,-0.576242 -0.0396,0.01518 -0.17224,0.147757 -0.2948,0.29462 -0.12257,0.146852 -0.51584,0.603292 -0.87393,1.014321 -0.77843,0.893475 -0.81748,0.938671 -1.48868,1.722425 -0.28936,0.337866 -0.66064,0.766943 -0.82504,0.953489 -0.16441,0.186535 -0.61975,0.710247 -1.01183,1.16379 -0.39209,0.453554 -0.72637,0.83624 -0.74283,0.850411 -0.0164,0.01422 -0.2941,0.338869 -0.61698,0.721554 -0.32288,0.382686 -0.70438,0.823576 -0.84778,0.979765 -0.14339,0.156199 -0.75373,0.856506 -1.35629,1.556254 -0.60256,0.699736 -1.11861,1.286498 -1.14676,1.30389 -0.1319,0.08152 -0.009,-0.08453 0.50286,-0.678361 0.30472,-0.353664 0.78674,-0.917371 1.07114,-1.252674 0.49609,-0.584889 1.08855,-1.265856 2.35152,-2.702804 0.32151,-0.365779 0.79328,-0.913429 1.0484,-1.217008 0.25513,-0.30358 0.74584,-0.874017 1.09049,-1.267665 1.46225,-1.670121 2.85183,-3.280585 3.0457,-3.529847 0.0534,-0.0686 0.0379,-0.118756 -0.0918,-0.297936 -0.20286,-0.280039 -0.4525,-0.434774 -1.87967,-1.165072 -0.65198,-0.333623 -1.39416,-0.716708 -1.64928,-0.851316 -0.25512,-0.134597 -0.92771,-0.482974 -1.49464,-0.774169 -0.56694,-0.291185 -1.05399,-0.546122 -1.08233,-0.566518 -0.0283,-0.02035 -0.63137,-0.333246 -1.34003,-0.695192 -0.70867,-0.361934 -1.35808,-0.698325 -1.44311,-0.747538 -0.085,-0.04921 -0.68805,-0.362279 -1.34003,-0.69572 -0.65198,-0.33344 -1.32457,-0.681096 -1.49464,-0.772586 -0.17008,-0.09153 -0.77312,-0.404525 -1.34005,-0.695655 -0.56697,-0.291128 -1.43669,-0.743349 -1.93277,-1.004927 -0.49607,-0.261582 -1.49336,-0.779052 -2.21619,-1.149929 -0.72285,-0.370876 -1.65056,-0.850343 -2.0616,-1.065488 -0.41102,-0.215135 -1.00703,-0.522651 -1.32445,-0.683358 l -0.57712,-0.292193 -0.53097,0.06531 c -0.29204,0.03591 -0.69335,0.09661 -0.89176,0.134896 -0.19844,0.03826 -0.82463,0.143696 -1.39158,0.234223 -1.86799,0.298264 -2.39251,0.39 -2.42698,0.424464 -0.0316,0.03156 0.0427,0.253747 0.21083,0.631033 0.31536,0.707708 0.86818,1.972892 0.90925,2.080925 0.028,0.07357 0.0824,0.203648 0.12089,0.289115 0.0385,0.08548 0.14294,0.325136 0.23202,0.532584 0.0891,0.207458 0.46451,1.077188 0.83429,1.932737 0.3698,0.855548 1.02988,2.39049 1.46686,3.410971 0.43699,1.020481 0.81679,1.901809 0.84398,1.958506 0.0272,0.05664 0.16273,0.369807 0.30121,0.695784 0.66476,1.565095 1.78701,4.162096 1.99336,4.612797 0.039,0.08507 0.16461,0.373102 0.27928,0.640132 0.20329,0.473379 0.33033,0.674129 0.42664,0.674129 0.0677,0 2.77687,1.077543 3.57011,1.419954 0.085,0.03672 0.66486,0.267397 1.2885,0.512621 0.62364,0.245234 1.20345,0.477116 1.2885,0.515301 0.085,0.03812 0.30536,0.127458 0.48961,0.19837 0.18426,0.07086 0.76409,0.306067 1.2885,0.52256 0.5244,0.216493 1.13902,0.466853 1.3658,0.556362 0.22676,0.08949 0.44033,0.189841 0.47456,0.222976 0.0342,0.03317 0.2314,0.153529 0.4381,0.267536 0.20669,0.113997 0.60776,0.34786 0.89123,0.519696 0.28347,0.171835 0.5464,0.301468 0.5843,0.288083 0.0379,-0.01335 0.55424,-0.354784 1.14741,-0.758663 z m 37.19933,-2.967088 c 0.13149,-0.108311 1.07664,-0.891074 2.10035,-1.739461 2.66453,-2.208253 2.85583,-2.365916 3.51894,-2.900096 0.79131,-0.637493 1.24264,-1.03631 1.24264,-1.098122 0,-0.0504 -0.53096,-0.964021 -0.85674,-1.474208 -0.095,-0.148812 -0.19837,-0.270584 -0.22964,-0.270584 -0.0313,0 -1.2095,1.153851 -2.61826,2.564103 l -2.56143,2.564092 -0.19596,0.5049 c -0.42598,1.097476 -0.73732,2.046313 -0.67146,2.046313 0.0179,0 0.14006,-0.08863 0.27156,-0.196937 z m 3.12,-5.025807 2.61948,-2.594212 -0.23249,-0.38219 c -0.12786,-0.210215 -0.32572,-0.532952 -0.43968,-0.717214 -0.11395,-0.184252 -0.38224,-0.624905 -0.59618,-0.979248 -0.21397,-0.354332 -0.50371,-0.829789 -0.64388,-1.056556 -0.14019,-0.226777 -0.38761,-0.632658 -0.54983,-0.90195 -0.31252,-0.518812 -1.04264,-1.707499 -1.23464,-2.010045 -0.063,-0.09918 -0.35242,-0.574669 -0.64327,-1.056566 -0.29083,-0.481887 -0.58067,-0.957347 -0.64405,-1.056562 -0.14828,-0.232033 -0.7971,-1.288411 -1.45617,-2.370822 -0.2848,-0.467719 -0.76754,-1.256275 -1.0728,-1.752343 -0.50982,-0.828524 -0.85797,-1.397831 -1.86313,-3.046636 -0.20067,-0.329179 -0.38177,-0.653878 -0.40244,-0.721553 -0.0793,-0.259748 -0.15821,-0.298993 -0.45348,-0.225675 -0.14723,0.03653 -0.42942,0.08157 -0.62705,0.10004 -0.35397,0.03305 -0.36443,0.03835 -0.69632,0.353084 -0.18533,0.175734 -1.14845,1.097803 -2.14031,2.04904 -0.99186,0.951246 -2.0121,1.925119 -2.26723,2.164171 -0.25512,0.239058 -0.70737,0.668896 -1.00502,0.95521 -0.29763,0.286307 -0.7267,0.692055 -0.95349,0.90166 -0.22676,0.209605 -0.76021,0.718796 -1.18541,1.131523 -0.95089,0.923022 -2.50931,2.402915 -3.60776,3.425981 -0.45355,0.422433 -1.04496,0.986689 -1.31427,1.253891 -0.26929,0.267214 -0.58819,0.566819 -0.70866,0.665794 -0.19819,0.162811 -0.21905,0.201869 -0.21905,0.410307 0,0.126715 -0.0566,0.964656 -0.12578,1.862105 -0.14807,1.920902 -0.235,3.241667 -0.235,3.570725 v 0.236167 l 0.39942,0.03123 c 0.2197,0.01723 1.15322,0.124077 2.07448,0.237568 0.92129,0.11348 2.22009,0.266211 2.88623,0.339395 0.66614,0.07312 1.77939,0.2023 2.4739,0.28691 0.6945,0.08464 1.88893,0.223352 2.65428,0.308306 0.76537,0.08496 1.85543,0.211604 2.42238,0.281471 1.01954,0.12566 1.86449,0.223988 3.96855,0.461814 2.49743,0.2823 3.17702,0.374523 3.19733,0.433923 0.002,0.0032 1.18064,-1.161916 2.62134,-2.588743 z m -29.7073,1.353997 c 0.98721,-0.179115 1.97653,-0.35109 3.06661,-0.533081 1.43829,-0.24013 2.36866,-0.398903 2.912,-0.49693 0.29762,-0.05363 0.62233,-0.104133 0.72154,-0.111994 l 0.1804,-0.01432 0.0376,-0.644257 c 0.0206,-0.354321 0.0841,-1.247257 0.14094,-1.984264 0.14368,-1.862504 0.22688,-3.21958 0.1991,-3.247353 -0.0129,-0.01292 -0.33505,-0.115084 -0.71591,-0.227068 -0.38087,-0.111994 -1.05198,-0.3197 -1.49134,-0.461577 -1.57751,-0.509378 -3.28471,-1.051936 -3.93617,-1.250919 -0.76111,-0.232474 -0.63324,-0.259632 -1.31592,0.27949 -0.22316,0.176218 -0.68473,0.536559 -1.02572,0.800768 -0.6848,0.530582 -1.42861,1.27138 -1.87229,1.864679 -0.159,0.212594 -0.50322,0.624474 -0.76494,0.91526 -0.27903,0.310008 -0.46459,0.558096 -0.44861,0.59976 0.015,0.03898 0.47348,0.717268 1.01885,1.507106 0.54537,0.789827 1.08739,1.575206 1.20446,1.745286 0.90247,1.311052 1.03109,1.47466 1.13534,1.44412 0.057,-0.01669 0.48639,-0.09982 0.95411,-0.184682 z m 33.78049,-2.380433 c 0.33022,-0.393465 0.92335,-1.130407 1.62818,-2.022924 0.65915,-0.834678 0.99966,-1.258683 2.11219,-2.630179 0.50105,-0.617701 0.6489,-0.835486 0.60024,-0.884161 -0.0316,-0.03155 -0.70117,0.325925 -1.43542,0.766255 -0.27509,0.164976 -0.51098,0.29995 -0.52419,0.29995 -0.0195,0 -0.3746,0.209601 -0.95992,0.566679 -0.1684,0.102733 -0.65038,0.38177 -0.75315,0.436012 -0.0598,0.03166 -0.53529,0.468221 -1.05646,0.970234 -0.82773,0.797279 -0.93989,0.924177 -0.88677,1.003208 0.0335,0.04975 0.27692,0.454567 0.54106,0.899571 0.26416,0.445003 0.49605,0.810287 0.51533,0.811741 0.0193,0.0022 0.11779,-0.09595 0.21891,-0.216386 z m -0.41108,-2.608222 0.78881,-0.776474 -0.0416,-0.221059 c -0.0229,-0.121578 -0.35504,-1.485072 -0.73812,-3.029976 -0.38308,-1.544904 -0.83575,-3.377133 -1.00592,-4.071619 -0.33485,-1.366551 -1.29557,-5.256122 -1.99292,-8.06857 -0.23934,-0.965229 -0.43515,-1.804598 -0.43515,-1.865272 0,-0.180151 0.12613,-0.181333 -1.57196,0.01479 -0.39686,0.04583 -1.01145,0.113633 -1.36579,0.150637 -2.07288,0.216483 -3.25524,0.382485 -3.40162,0.477579 -0.31558,0.205005 -0.75997,0.596005 -0.84932,0.74725 -0.0558,0.09448 -0.13394,0.407279 -0.18233,0.729883 l -0.0847,0.564541 0.14304,0.287367 c 0.0787,0.158054 0.25825,0.472919 0.39905,0.69969 0.14082,0.226781 0.38936,0.632651 0.55232,0.901947 0.16295,0.269296 0.53267,0.87231 0.82161,1.340028 0.28892,0.467727 0.76335,1.244682 1.05427,1.726584 0.29094,0.481893 0.58123,0.957342 0.64512,1.056557 0.0639,0.09921 0.34297,0.55148 0.62014,1.005023 0.27718,0.453552 0.62803,1.027569 0.77971,1.275602 0.15168,0.248038 0.39987,0.653909 0.55155,0.901932 0.15166,0.248046 0.50265,0.822069 0.77992,1.275612 0.27728,0.453554 0.54087,0.882621 0.58571,0.953489 0.0846,0.133596 0.95973,1.570404 1.17722,1.932737 0.0681,0.113394 0.36672,0.600439 0.66365,1.082336 0.29695,0.481886 0.6685,1.090962 0.82568,1.353491 0.26983,0.450711 0.29153,0.473271 0.38927,0.404815 0.057,-0.03995 0.45848,-0.421916 0.89232,-0.848958 z m -37.53042,0.05707 c 0.78057,-0.831308 1.32907,-1.521977 1.26199,-1.589044 -0.015,-0.01497 -0.44737,0.289063 -0.96086,0.675668 -0.63761,0.480035 -0.92133,0.72346 -0.89482,0.767752 0.0737,0.122999 0.29662,0.384753 0.33018,0.387596 0.0185,0.0022 0.1371,-0.107364 0.26351,-0.241972 z m 0.0602,-0.854988 c 0.42708,-0.321434 0.89246,-0.662434 1.03419,-0.757779 0.61418,-0.413161 1.36235,-1.141812 2.11459,-2.05943 0.19754,-0.240949 0.55281,-0.653787 0.7895,-0.917425 l 0.43036,-0.479345 -0.0576,-0.319517 c -0.23113,-1.28217 -0.46077,-2.591535 -0.7001,-3.991802 -0.0715,-0.418071 -0.16425,-0.945671 -0.2062,-1.172442 -0.042,-0.226781 -0.18099,-1.026929 -0.30895,-1.778119 -0.12796,-0.751197 -0.29054,-1.690503 -0.36129,-2.087356 -0.0708,-0.396852 -0.17358,-0.988274 -0.22852,-1.31426 -0.0896,-0.531488 -0.28243,-1.638874 -0.56998,-3.272766 -0.0549,-0.311812 -0.14513,-0.833654 -0.20055,-1.159642 -0.24809,-1.459323 -0.5769,-3.299349 -0.64012,-3.581907 l -0.0691,-0.309138 -0.53717,-0.313821 c -0.29543,-0.172611 -1.20976,-0.696255 -2.03182,-1.163651 -0.82205,-0.467405 -1.71498,-0.978178 -1.98426,-1.135049 -0.2693,-0.15688 -0.63959,-0.360911 -0.82285,-0.453413 -0.30829,-0.155593 -0.34685,-0.16335 -0.51539,-0.103713 -0.20553,0.0727 -0.92627,0.427932 -2.14068,1.055008 -0.45357,0.234191 -1.61321,0.826569 -2.577,1.316384 -0.96379,0.489815 -1.92629,0.98303 -2.13889,1.096038 -0.2126,0.113007 -1.16351,0.599413 -2.11312,1.080915 -0.94963,0.481493 -2.28322,1.160086 -2.96354,1.507987 -2.80262,1.433182 -5.03932,2.550551 -5.10557,2.550551 -0.15735,0 -0.16605,0.185857 -0.0723,1.546191 0.0517,0.751189 0.13193,2.165952 0.17813,3.143912 0.0463,0.977969 0.1048,1.984906 0.13017,2.237645 0.0253,0.252738 0.0361,0.475762 0.0238,0.495624 -0.0396,0.06418 0.14267,0.179594 0.82566,0.522556 0.36851,0.185038 0.86717,0.441386 1.10811,0.569656 0.24095,0.128268 0.85556,0.447829 1.36579,0.710133 1.23446,0.634608 3.58998,1.856398 4.20049,2.178749 0.26929,0.142184 0.8839,0.460021 1.3658,0.706289 0.4819,0.246268 1.1197,0.576209 1.41734,0.733216 0.4887,0.257791 1.98505,1.034987 4.0974,2.128188 0.42521,0.220058 1.0746,0.55717 1.44311,0.749165 0.78733,0.410189 1.39565,0.724278 3.14392,1.623245 0.70866,0.364412 1.41605,0.738396 1.57196,0.831103 0.15589,0.09272 0.29354,0.169435 0.30585,0.17049 0.0123,8.72e-4 0.37178,-0.261043 0.79886,-0.582466 z M 264.3528,78.16396 c 0.20911,-0.123485 0.61213,-0.359781 0.8956,-0.525091 0.28346,-0.165309 0.81689,-0.478893 1.1854,-0.69685 0.36852,-0.217958 0.85557,-0.493614 1.08235,-0.612564 0.22676,-0.118962 0.47358,-0.274515 0.5485,-0.345685 0.14825,-0.140854 0.26224,-0.532672 0.55991,-1.924617 0.0879,-0.411029 0.2032,-0.932867 0.25625,-1.159644 0.0531,-0.226767 0.15883,-0.690627 0.23514,-1.030789 0.0763,-0.340157 0.19186,-0.850408 0.2568,-1.13387 0.24113,-1.052601 0.38824,-1.71134 0.46614,-2.087357 0.0441,-0.212597 0.13684,-0.641668 0.20619,-0.95348 0.0693,-0.311821 0.17269,-0.78727 0.22965,-1.056566 0.057,-0.269296 0.13592,-0.605588 0.17547,-0.747328 0.0396,-0.141722 0.0879,-0.362059 0.10744,-0.489624 0.0196,-0.127556 0.0774,-0.394278 0.12853,-0.592699 0.0511,-0.198431 0.16586,-0.697074 0.25495,-1.108109 0.0891,-0.411028 0.20546,-0.93287 0.25862,-1.159633 0.0531,-0.226781 0.16952,-0.748624 0.25858,-1.159642 0.16022,-0.739432 0.21026,-0.963951 0.51683,-2.319294 0.0865,-0.382677 0.21698,-0.962498 0.28983,-1.288485 0.0729,-0.325987 0.18615,-0.824637 0.25178,-1.108108 0.14348,-0.619806 0.28181,-1.239379 0.45454,-2.035813 0.32743,-1.509849 0.46113,-2.118011 0.54957,-2.499671 0.0525,-0.226772 0.1576,-0.690629 0.23344,-1.03079 0.0758,-0.340161 0.19096,-0.850404 0.25579,-1.133876 0.0649,-0.283462 0.19096,-0.851691 0.28028,-1.262718 0.0893,-0.411027 0.19718,-0.884067 0.23972,-1.051183 0.0425,-0.167132 0.10981,-0.46864 0.14947,-0.670018 0.0397,-0.201388 0.15702,-0.725639 0.2608,-1.165016 0.35778,-1.514996 0.39952,-1.880916 0.24201,-2.12182 -0.0495,-0.07566 -0.23531,-0.342361 -0.41304,-0.592709 -0.38445,-0.541531 -1.20733,-1.79744 -1.89308,-2.88927 -0.29242,-0.46557 -0.33476,-0.512398 -0.38473,-0.425559 -0.0247,0.04296 -0.4121,0.518496 -0.8609,1.056785 -0.44877,0.538278 -1.01418,1.222123 -1.25643,1.519639 -1.47049,1.805885 -1.86876,2.292665 -2.23911,2.73666 -0.22703,0.2722 -0.64471,0.780852 -0.92818,1.130336 -0.28348,0.349484 -0.8633,1.057365 -1.2885,1.57306 -1.86396,2.260664 -3.84306,4.667119 -4.18476,5.088373 -0.31142,0.383939 -0.38007,0.50399 -0.42858,0.74958 -0.0318,0.160828 -0.0784,0.36199 -0.10373,0.44703 -0.0253,0.08505 -0.18578,0.780825 -0.35665,1.546189 -0.17088,0.765364 -0.35599,1.588715 -0.41137,1.829661 -0.0554,0.240947 -0.15892,0.704803 -0.23005,1.03079 -0.0711,0.325986 -0.21168,0.966108 -0.31236,1.422485 -0.10066,0.456379 -0.18303,0.96777 -0.18303,1.136433 0,0.218693 0.16918,0.985926 0.58986,2.674916 0.32444,1.302539 0.68509,2.76254 0.80149,3.244441 0.34802,1.440914 2.77663,11.251384 2.81014,11.351597 0.0293,0.08766 0.0156,0.0925 0.44343,-0.160097 z m -27.12774,-1.231457 c 0.10556,-0.09207 0.54023,-0.50379 0.96593,-0.914829 0.42571,-0.411029 1.34084,-1.28077 2.03362,-1.932748 0.6928,-0.651977 1.62075,-1.533316 2.06209,-1.958516 0.44137,-0.425192 1.62481,-1.550037 2.62988,-2.499656 1.00508,-0.949619 2.17569,-2.06379 2.60134,-2.475938 1.32406,-1.282051 1.87102,-1.809233 2.44,-2.351809 0.30234,-0.288306 0.53345,-0.540444 0.5136,-0.560306 -0.0199,-0.01991 -0.46044,0.02426 -0.97906,0.09806 -1.49404,0.212615 -2.4175,0.338918 -3.4426,0.470875 -0.52441,0.06749 -1.38256,0.182995 -1.90697,0.25667 -1.23945,0.174106 -2.67149,0.368406 -3.60777,0.489475 -1.05168,0.136001 -2.14217,0.296011 -2.82847,0.415028 -0.32258,0.05591 -0.59445,0.10171 -0.60417,0.10171 -0.01,0 -0.27925,0.310342 -0.59892,0.689663 -0.31968,0.379313 -1.14947,1.344672 -1.84396,2.145256 -0.6945,0.800582 -1.43373,1.655674 -1.64277,1.900203 -0.20901,0.244539 -0.52483,0.606963 -0.70183,0.80538 -0.17698,0.198431 -0.69817,0.801448 -1.15815,1.340042 -0.45999,0.538584 -0.89214,1.026511 -0.96033,1.084253 -0.10551,0.08938 -0.12384,0.150707 -0.12318,0.412321 0.002,0.534728 -0.0589,0.496661 1.59695,1.010391 0.8079,0.250651 1.78199,0.558516 2.16467,0.684165 0.89794,0.294813 2.60223,0.835356 2.83468,0.899064 0.29125,0.0798 0.35328,0.06763 0.55542,-0.108754 z m -7.97713,-1.306615 c 0.50238,-0.391214 0.78705,-0.682948 0.75301,-0.771692 -0.0173,-0.04501 -0.0314,-0.138 -0.0314,-0.206543 0,-0.06849 -0.0285,-0.124636 -0.0635,-0.124636 -0.11628,0 -1.48274,1.53897 -1.48274,1.669927 0,0.03694 0.41904,-0.2512 0.82463,-0.567056 z m 1.21615,-2.017712 c 0.35238,-0.391365 1.08082,-1.232074 2.10815,-2.433102 0.28349,-0.331387 0.79757,-0.925496 1.14244,-1.320236 1.58729,-1.81686 3.17226,-3.669486 3.26119,-3.811862 0.0754,-0.120685 -0.036,-0.430663 -0.69398,-1.930962 -0.21755,-0.496067 -0.43772,-1.006319 -0.48927,-1.133876 -0.0516,-0.127564 -0.39997,-0.939314 -0.77431,-1.803884 -0.37432,-0.86458 -0.79081,-1.838679 -0.92549,-2.164665 -0.13468,-0.325987 -0.33737,-0.801445 -0.45041,-1.056566 -0.11302,-0.255121 -0.36951,-0.846535 -0.56993,-1.314262 -0.20045,-0.467718 -0.59488,-1.38384 -0.87652,-2.035813 -0.58226,-1.347933 -1.10621,-2.606573 -1.17998,-2.834675 -0.0275,-0.08505 -0.0878,-0.161958 -0.13405,-0.170924 -0.0784,-0.01522 -1.8792,1.565182 -3.15004,2.764574 -0.28109,0.26527 -0.63541,0.574177 -0.78739,0.686446 -0.15198,0.112277 -0.26509,0.222319 -0.25137,0.244529 0.0138,0.02217 0.074,0.316734 0.13389,0.654478 0.0599,0.337745 0.16554,0.927175 0.23473,1.309862 0.1676,0.926887 0.36129,2.029821 0.51138,2.911993 0.0675,0.396853 0.29925,1.730445 0.51494,2.963527 0.21569,1.23309 0.4962,2.856581 0.62333,3.60777 0.12712,0.751198 0.3098,1.794867 0.40593,2.319284 0.0962,0.524417 0.21149,1.185418 0.25631,1.46888 0.0449,0.283471 0.15066,0.898077 0.23512,1.365799 0.0844,0.46772 0.20438,1.134515 0.26646,1.481772 0.0657,0.367975 0.13712,0.631355 0.17103,0.631355 0.032,0 0.22003,-0.17975 0.41784,-0.399442 z m -29.94949,-4.885175 c 0.96379,-0.15615 2.03067,-0.330796 2.37082,-0.388105 0.34017,-0.05731 0.68805,-0.109606 0.7731,-0.116216 0.14899,-0.01157 0.15418,-0.02044 0.14267,-0.242581 -0.007,-0.126818 -0.0464,-0.810393 -0.0885,-1.519066 -0.0421,-0.708664 -0.10124,-1.856715 -0.13144,-2.551213 -0.0644,-1.483368 -0.18716,-2.961631 -0.26095,-3.143913 -0.0286,-0.07088 -0.34596,-0.36078 -0.70504,-0.644251 -0.35911,-0.283463 -0.7815,-0.633137 -0.93868,-0.777035 -0.15719,-0.143913 -0.59888,-0.519477 -0.98156,-0.834611 -0.6161,-0.50733 -1.13025,-0.934549 -2.18537,-1.815825 -0.16729,-0.139722 -0.32455,-0.241442 -0.34948,-0.226033 -0.0408,0.02522 -1.09276,1.416504 -1.35958,1.798077 -0.0595,0.08505 -0.39121,0.537304 -0.73722,1.005022 -1.02609,1.386962 -1.34695,1.844688 -1.34695,1.921432 0,0.07765 0.20771,0.512974 2.26783,4.752951 1.04961,2.160282 1.39148,2.876529 1.39148,2.915428 0,0.08969 0.1557,0.188387 0.26767,0.16968 0.0654,-0.01096 0.90744,-0.1476 1.87122,-0.303741 z m 37.11888,-2.855702 c 0.30507,-0.05992 1.71687,-0.26387 3.05626,-0.441578 1.47449,-0.195631 2.79019,-0.375643 3.37585,-0.461874 0.28346,-0.04174 0.70095,-0.09908 0.92771,-0.127426 0.22678,-0.02835 0.8414,-0.109182 1.36581,-0.179638 2.94433,-0.395583 4.10941,-0.565447 4.34053,-0.632825 0.0771,-0.02243 0.36696,-0.250521 0.64425,-0.506816 0.2773,-0.256286 0.58218,-0.520652 0.67754,-0.587473 0.21846,-0.15315 0.29906,-0.345875 0.45238,-1.081785 0.0675,-0.323978 0.16885,-0.743955 0.22525,-0.933271 0.10774,-0.361824 0.13646,-0.871092 0.0537,-0.95415 -0.0489,-0.04914 -0.46815,-1.286947 -0.69739,-2.059015 -0.0673,-0.226763 -0.22534,-0.748606 -0.35114,-1.159634 -0.12577,-0.411036 -0.27237,-0.917722 -0.32573,-1.12597 -0.0538,-0.209596 -0.13317,-0.397974 -0.17794,-0.42195 -0.0445,-0.02383 -0.31131,-0.09013 -0.5929,-0.147384 -0.2816,-0.05722 -0.87148,-0.186864 -1.31086,-0.288027 -0.43936,-0.10115 -1.0076,-0.228858 -1.26271,-0.283775 -0.25512,-0.05496 -0.73057,-0.159481 -1.05657,-0.232346 -0.32599,-0.07287 -0.80144,-0.176821 -1.05656,-0.231016 -0.25513,-0.05418 -0.66099,-0.14394 -0.90194,-0.199465 -0.24095,-0.05548 -0.67003,-0.151758 -0.95349,-0.213858 -0.28346,-0.06209 -0.75892,-0.16762 -1.05655,-0.234476 -1.12837,-0.253478 -2.46937,-0.550481 -3.02806,-0.670662 -0.87608,-0.188464 -1.67378,-0.363137 -2.33207,-0.510678 -0.326,-0.07304 -0.84783,-0.189021 -1.15963,-0.257703 -0.31182,-0.0687 -0.84526,-0.186874 -1.18542,-0.262679 -0.34016,-0.07583 -0.86201,-0.190839 -1.15965,-0.255625 -1.19534,-0.260227 -1.96155,-0.432829 -2.13954,-0.481972 -0.23965,-0.06617 -0.30507,-0.038 -0.66959,0.288463 l -0.30045,0.269079 0.066,0.220545 c 0.0586,0.195918 1.36867,3.285922 2.47519,5.838361 0.22118,0.510243 0.53457,1.240813 0.69638,1.623499 0.16182,0.382678 0.33596,0.788557 0.38701,0.901938 0.051,0.11339 0.15583,0.35692 0.23291,0.541166 0.077,0.184256 0.18255,0.427776 0.23438,0.541167 0.0518,0.11339 0.22551,0.51926 0.38592,0.901947 0.25881,0.61738 0.73137,1.70793 0.92683,2.13889 0.14298,0.315264 0.63248,1.498603 0.66624,1.610619 0.0394,0.130818 0.13975,0.143627 0.52797,0.0674 z m 14.14776,-1.943582 c 0.26041,-0.08174 0.26122,-0.08313 0.3544,-0.573525 0.096,-0.505512 0.0984,-0.506251 -0.7175,0.220614 -0.25455,0.226781 -0.4649,0.428037 -0.46743,0.447256 -0.007,0.0547 0.56173,-0.01002 0.83053,-0.09434 z m 1.11051,-1.8947 c 0.28978,-0.224023 0.33028,-0.348248 0.22156,-0.679601 -0.0269,-0.08218 -0.0746,-0.249495 -0.10594,-0.371799 -0.10285,-0.401618 -0.20606,-0.211536 -0.41209,0.758859 -0.0566,0.266722 -0.10295,0.505825 -0.10295,0.531331 0,0.05879 0.0643,0.02035 0.39943,-0.23879 z m 0.89179,-0.391434 c 0.1751,-0.03175 0.72738,-0.101215 1.22727,-0.154358 2.24843,-0.239025 4.48501,-0.505443 4.54275,-0.541124 0.0201,-0.01244 0.0654,-0.168193 0.10075,-0.346196 0.0354,-0.177995 0.11799,-0.567159 0.18365,-0.864797 0.0657,-0.297637 0.18172,-0.831072 0.25788,-1.185408 0.0762,-0.354338 0.19232,-0.876171 0.25812,-1.159642 0.0658,-0.283472 0.19308,-0.851692 0.28284,-1.26272 0.20674,-0.946663 0.38432,-1.711904 0.52381,-2.25721 0.065,-0.253799 0.0904,-0.445935 0.0628,-0.472771 -0.0257,-0.02486 -0.51046,-0.328491 -1.07742,-0.674723 -0.56693,-0.346222 -1.27431,-0.781078 -1.57195,-0.966333 -0.29763,-0.185256 -0.92384,-0.568012 -1.39156,-0.850578 -0.46772,-0.282558 -0.91727,-0.569586 -0.99901,-0.637826 -0.0817,-0.06826 -0.18307,-0.117164 -0.22521,-0.108729 -0.12756,0.02557 -0.86933,0.725223 -0.95825,0.903896 -0.0457,0.09184 -0.22376,0.810828 -0.39567,1.597723 -0.17191,0.786904 -0.34573,1.569895 -0.38628,1.739967 -0.53179,2.230435 -1.2608,5.715954 -1.2612,6.030139 -1.6e-4,0.113391 0.0681,0.373973 0.15169,0.579083 0.0836,0.205109 0.16752,0.455821 0.18653,0.557141 0.023,0.122417 0.0573,0.17549 0.10232,0.158211 0.0373,-0.01426 0.21106,-0.052 0.38618,-0.08375 z m -58.74477,-1.121379 c 0.20537,-0.276862 0.54735,-0.743336 0.75995,-1.036616 0.2126,-0.293281 0.66184,-0.907495 0.99829,-1.364926 0.33647,-0.45743 0.71915,-0.978343 0.85042,-1.157581 0.13125,-0.179247 0.28943,-0.389661 0.35148,-0.467588 0.10658,-0.133808 0.24525,-0.64379 0.44996,-1.654648 0.043,-0.212597 0.14858,-0.699647 0.23452,-1.082333 0.0859,-0.382687 0.19053,-0.878911 0.23244,-1.102734 0.0419,-0.223824 0.0885,-0.445708 0.10353,-0.493068 0.015,-0.04739 0.0863,-0.362885 0.15836,-0.701151 0.0721,-0.338275 0.18782,-0.875954 0.25723,-1.194862 0.0694,-0.318899 0.18271,-0.840734 0.25181,-1.159633 0.0691,-0.318899 0.18607,-0.858135 0.25992,-1.198297 0.41786,-1.92458 0.66098,-3.120364 0.63821,-3.13873 -0.0103,-0.0087 -0.37824,-0.09048 -0.8176,-0.182604 -0.43938,-0.09211 -1.0308,-0.220857 -1.31427,-0.286087 -1.87009,-0.430316 -3.53111,-0.798237 -4.20048,-0.930419 -0.35433,-0.07001 -0.69276,-0.14808 -0.75207,-0.173576 -0.0593,-0.02548 -0.1311,-0.03113 -0.15956,-0.01252 -0.0284,0.01861 -0.66118,1.37903 -1.40605,3.023139 -0.74486,1.644119 -1.61817,3.567593 -1.94067,4.274397 -0.32251,0.706803 -0.58638,1.330383 -0.58638,1.385753 0,0.05539 0.10019,0.254034 0.22264,0.44149 0.27129,0.41528 1.29303,2.20025 2.58478,4.515525 0.78149,1.400754 1.56013,2.777828 1.67566,2.963527 0.12193,0.196005 0.30784,0.535462 0.61391,1.120988 0.0333,0.06383 0.0831,0.115964 0.11058,0.115964 0.0275,0 0.21799,-0.226528 0.42339,-0.50339 z m 8.67788,0.06088 c 0.2223,-0.09107 2.86819,-1.412198 3.32756,-1.661475 0.16132,-0.08755 1.17021,-0.59917 2.24197,-1.136953 1.07177,-0.537784 2.41253,-1.218985 2.97945,-1.513788 0.56695,-0.29481 1.93532,-0.995257 3.04085,-1.556555 1.10552,-0.56129 2.03323,-1.038078 2.06159,-1.059514 0.12681,-0.09594 3.27179,-1.648596 3.33929,-1.648596 0.10966,0 0.17351,-0.19771 0.31632,-0.979257 0.0699,-0.382686 0.16279,-0.846543 0.20639,-1.03079 0.0436,-0.184255 0.0796,-0.386303 0.08,-0.448986 0,-0.134156 -0.0351,-0.145792 -1.25592,-0.405236 -0.8525,-0.181177 -1.53698,-0.332839 -2.53149,-0.560924 -0.3118,-0.07148 -0.83364,-0.189465 -1.15963,-0.262113 -0.32599,-0.0727 -0.84782,-0.189613 -1.15963,-0.259921 -0.31183,-0.07027 -0.77568,-0.172595 -1.0308,-0.227303 -0.25513,-0.05471 -0.77116,-0.169907 -1.14676,-0.25599 -0.37559,-0.0861 -0.99021,-0.226885 -1.36579,-0.312891 -0.37561,-0.08601 -0.84527,-0.189091 -1.0437,-0.229059 -0.19842,-0.03992 -0.72025,-0.15608 -1.15963,-0.258034 -0.43939,-0.101947 -0.94962,-0.218258 -1.13387,-0.258469 -0.18426,-0.04018 -0.6945,-0.156263 -1.13386,-0.257904 -0.43939,-0.101635 -1.00763,-0.229902 -1.26273,-0.285037 -0.97292,-0.210276 -2.00594,-0.442553 -3.42738,-0.770626 -1.31608,-0.30376 -1.62368,-0.372669 -1.69623,-0.379948 -0.0792,-0.0079 -0.14201,0.193161 -0.31129,0.997727 -0.11628,0.552541 -0.28524,1.335924 -0.51692,2.396594 -0.0867,0.396852 -0.20252,0.930288 -0.25745,1.18541 -0.055,0.255121 -0.17279,0.800157 -0.26193,1.211175 -0.23547,1.08582 -0.33448,1.547598 -0.48075,2.241975 -0.0717,0.340171 -0.20142,0.943184 -0.28838,1.340036 -0.24351,1.111518 -0.41331,1.961496 -0.41317,2.06806 9e-5,0.06088 0.23244,0.287236 0.62817,0.611997 0.34541,0.283471 0.79181,0.657522 0.99199,0.831229 0.20019,0.173716 0.59961,0.510008 0.88757,0.747328 0.83659,0.689411 1.91449,1.592314 2.28157,1.911144 0.18631,0.161828 0.36492,0.295185 0.39688,0.29635 0.0319,8.69e-4 0.14793,-0.0347 0.2577,-0.07966 z m 49.34793,-1.361335 c 0.0559,-0.269296 0.14589,-0.70996 0.19995,-0.979257 0.0541,-0.269296 0.18164,-0.849117 0.28355,-1.288494 0.10191,-0.439377 0.20884,-0.914825 0.23763,-1.056557 0.0288,-0.14174 0.0958,-0.443246 0.14897,-0.670018 0.14947,-0.637686 0.35456,-1.559939 0.43549,-1.958504 0.0403,-0.198431 0.14623,-0.681837 0.23539,-1.074237 0.0892,-0.3924 0.14721,-0.728369 0.12898,-0.746589 -0.0401,-0.04009 -0.29532,0.228503 -1.70731,1.796998 -1.74211,1.935163 -1.68537,1.859924 -1.60918,2.134298 0.54445,1.960574 1.23026,4.160547 1.39807,4.48469 0.0501,0.09676 0.0544,0.09563 0.0996,-0.02574 0.026,-0.06983 0.093,-0.347275 0.14888,-0.616571 z m -26.20851,-4.229503 c 0.12619,-0.08679 0.53645,-0.440507 0.91171,-0.785974 0.78991,-0.72724 2.45617,-2.221791 2.67249,-2.39709 0.23967,-0.194221 0.19729,-0.300602 -0.14865,-0.373103 -0.16298,-0.03418 -0.70222,-0.152714 -1.19828,-0.26346 -0.49607,-0.110739 -1.11069,-0.245695 -1.36581,-0.29989 -0.43782,-0.09302 -0.77544,-0.168567 -2.19043,-0.490215 -0.326,-0.07409 -0.84783,-0.19043 -1.15965,-0.258512 -0.31181,-0.06809 -0.82205,-0.183283 -1.13386,-0.256026 -0.79593,-0.185673 -1.71661,-0.387226 -1.76884,-0.387226 -0.0242,0 -0.10606,0.307307 -0.18194,0.682906 -0.22071,1.092707 -0.34173,1.711044 -0.34225,1.748629 0,0.01922 0.24882,0.172551 0.55356,0.340736 0.56304,0.310759 0.65633,0.363615 1.24984,0.708116 0.3701,0.21484 0.9444,0.542636 1.26271,0.720743 0.11339,0.06348 0.35692,0.202822 0.54116,0.309725 0.18426,0.1069 0.50897,0.292246 0.72156,0.411888 0.6922,0.389522 0.84698,0.477076 1.08235,0.612207 0.12755,0.07322 0.23935,0.133443 0.2484,0.133791 0.009,3.92e-4 0.11975,-0.07044 0.24593,-0.157245 z m 24.58895,-0.08696 c 0.0789,-0.106298 0.58618,-0.680324 1.1274,-1.275607 0.5412,-0.595291 1.18659,-1.31426 1.43418,-1.597732 0.24761,-0.283471 0.51791,-0.568854 0.60067,-0.63419 0.1567,-0.123695 0.35895,-0.514512 0.35895,-0.693593 0,-0.15628 0.26098,-1.390919 0.31557,-1.492951 0.0818,-0.152958 -0.005,-0.353851 -0.18667,-0.429568 -0.0915,-0.03826 -0.30291,-0.159802 -0.46977,-0.27014 -0.16687,-0.110329 -0.46571,-0.299029 -0.66415,-0.419315 -0.19842,-0.120286 -0.55792,-0.342448 -0.79886,-0.493684 -0.24094,-0.151237 -0.56565,-0.354294 -0.72156,-0.451231 -0.1559,-0.09693 -1.23436,-0.774651 -2.39659,-1.506047 -1.16222,-0.731396 -2.83211,-1.781135 -3.71085,-2.332764 -2.03281,-1.276076 -2.03232,-1.275771 -2.86045,-1.799693 -0.38268,-0.242112 -0.72252,-0.45089 -0.75521,-0.463961 -0.0752,-0.03009 -0.67567,0.489745 -2.92987,2.53662 -0.99215,0.900886 -1.90945,1.732846 -2.03849,1.848793 -0.41051,0.368911 -2.25207,2.038457 -3.13186,2.839327 -0.46708,0.425211 -1.2749,1.152763 -1.79511,1.616803 -0.52025,0.464039 -0.94587,0.862275 -0.94587,0.884963 0,0.0227 0.0754,0.05627 0.1675,0.07453 0.2396,0.04756 2.69617,0.585691 4.26489,0.934253 0.46773,0.103918 1.09394,0.240903 1.39158,0.304412 0.66443,0.141766 2.54427,0.555741 3.15679,0.695194 0.24805,0.05644 0.65392,0.148853 0.90195,0.205292 0.24803,0.05644 0.83366,0.184751 1.30139,0.285131 0.46772,0.100385 1.04753,0.227094 1.28847,0.281593 0.24096,0.05452 0.69323,0.155853 1.00503,0.225241 0.31181,0.06939 0.83367,0.185847 1.15963,0.258817 1.18645,0.265548 3.44185,0.764259 4.01807,0.88846 0.32487,0.07001 0.60124,0.137887 0.61417,0.150826 0.0645,0.06453 0.16953,0.0043 0.29907,-0.169759 z m 10.04115,-1.81704 c 0.0717,-0.113537 0.25214,-0.351257 0.40106,-0.528278 0.57917,-0.688464 2.4568,-2.966214 2.89729,-3.514702 0.25513,-0.317665 0.90454,-1.110501 1.44312,-1.761848 0.53859,-0.651348 1.22277,-1.482934 1.52042,-1.847958 0.29765,-0.365024 0.87745,-1.072201 1.2885,-1.571512 0.41102,-0.499303 0.82777,-1.011102 0.92613,-1.137328 0.22213,-0.285106 2.16295,-2.639462 2.37306,-2.878705 0.0847,-0.09641 0.15394,-0.194872 0.15394,-0.218796 0,-0.07331 -0.68258,-1.920997 -0.7344,-1.987967 -0.0492,-0.06357 -0.41557,0.171951 -1.97142,1.267511 -0.34016,0.239528 -0.76923,0.541035 -0.95349,0.670018 -0.18426,0.128991 -0.5832,0.40934 -0.88657,0.622998 -0.30336,0.213657 -0.78471,0.550827 -1.0697,0.749249 -0.28497,0.198431 -0.70076,0.488337 -0.92399,0.644251 -0.22324,0.155907 -0.64176,0.445813 -0.93004,0.644235 -0.28828,0.19843 -0.7544,0.523131 -1.0358,0.72156 -0.28142,0.198431 -0.77961,0.546324 -1.10711,0.773095 -0.32751,0.226772 -1.02093,0.713822 -1.54098,1.082333 -0.52002,0.368512 -1.18163,0.83236 -1.4702,1.03079 -0.28857,0.198431 -0.7379,0.512851 -0.99853,0.698725 -0.2606,0.185873 -0.70577,0.497485 -0.98923,0.692472 -0.28348,0.194995 -0.71255,0.491493 -0.95349,0.658887 -0.24094,0.167402 -0.66421,0.455717 -0.94061,0.640713 -0.27637,0.184986 -0.50252,0.366972 -0.50252,0.404409 0,0.03739 0.0925,0.237659 0.20545,0.444942 0.11299,0.207274 0.20575,0.417507 0.20615,0.467188 0,0.112772 0.35325,0.363884 1.44383,1.029016 1.77663,1.083541 2.72626,1.663536 3.32433,2.030352 0.34014,0.20864 0.63557,0.379669 0.65647,0.380059 0.0209,3.92e-4 0.0966,-0.09218 0.16833,-0.205709 z m -72.37294,-0.870979 c 0.0486,-0.08236 0.0884,-0.213093 0.0884,-0.290602 0,-0.135878 -0.62889,-1.391145 -1.14275,-2.280908 -0.13686,-0.236963 -0.24959,-0.446411 -0.25054,-0.46544 -0.003,-0.05235 -0.2041,-0.28407 -0.2269,-0.26093 -0.0529,0.05366 0.42407,1.31407 1.26066,3.331604 0.0655,0.158002 0.16516,0.145601 0.2711,-0.03374 z m 0.47736,-1.074375 c 0.19193,-0.404862 1.06536,-2.325694 1.51747,-3.337196 0.0507,-0.113382 0.16432,-0.362763 0.25252,-0.554185 0.0882,-0.191413 0.16035,-0.359119 0.16035,-0.372659 0,-0.02356 0.12097,-0.285106 0.67616,-1.461723 0.13837,-0.293228 0.25156,-0.542036 0.25156,-0.552916 0,-0.01087 0.0833,-0.200029 0.18515,-0.42034 0.10182,-0.220311 0.24227,-0.528122 0.31208,-0.684037 0.0698,-0.155905 0.17403,-0.371312 0.23157,-0.478675 0.10249,-0.191256 0.10516,-0.295907 0.13138,-5.166847 0.0148,-2.737155 0.007,-4.971521 -0.0173,-4.971382 -0.0243,1.47e-4 -0.16003,0.09249 -0.30176,0.205214 -0.14173,0.112729 -0.30407,0.227232 -0.36076,0.254468 -0.0567,0.02722 -0.23621,0.149419 -0.39893,0.271532 -0.1627,0.122104 -0.4144,0.303194 -0.55933,0.4024 -0.14493,0.09921 -0.52349,0.391087 -0.84122,0.648609 -0.31775,0.257512 -0.75595,0.602352 -0.97379,0.766312 -0.44988,0.338595 -0.44658,0.331682 -0.68456,1.442782 -0.25399,1.185774 -0.38673,1.809772 -0.51041,2.399341 -0.0683,0.325988 -0.18519,0.871015 -0.25958,1.211185 -0.0744,0.340153 -0.18963,0.873598 -0.25614,1.18541 -0.0665,0.311811 -0.18233,0.845246 -0.2574,1.185409 -0.13747,0.622981 -0.3549,1.646187 -0.54208,2.551213 -0.0557,0.269296 -0.14701,0.698359 -0.20292,0.95348 -0.15686,0.715865 -0.14222,0.909529 0.10731,1.419816 0.11718,0.23959 0.45004,0.82989 0.7397,1.311783 0.45019,0.748962 0.80326,1.384648 1.18083,2.12601 0.047,0.09213 0.10702,0.167507 0.13357,0.167507 0.0265,0 0.15547,-0.226137 0.28649,-0.502511 z m 41.58583,0.0034 c 0.18659,-0.16128 0.33927,-0.321021 0.33927,-0.35498 0,-0.03401 -0.11815,-0.336858 -0.2626,-0.673123 -0.14441,-0.336266 -0.31486,-0.738954 -0.37874,-0.89486 -0.0638,-0.155906 -0.40168,-0.944463 -0.75071,-1.752351 -0.97196,-2.249697 -0.98513,-2.280829 -1.04926,-2.483365 -0.0331,-0.104424 -0.0758,-0.205614 -0.0951,-0.224876 -0.0193,-0.01922 -0.41314,0.0017 -0.87529,0.04575 -0.46215,0.04444 -1.14177,0.105899 -1.51029,0.136636 -0.36851,0.03079 -0.97153,0.08987 -1.34004,0.131417 -0.36851,0.04157 -1.15689,0.122842 -1.75199,0.180655 -0.59508,0.05783 -1.09683,0.121512 -1.11499,0.141557 -0.0181,0.02 -0.0951,0.303159 -0.17087,0.629146 -0.0758,0.325988 -0.17035,0.731866 -0.21011,0.901947 -0.0397,0.170081 -0.15474,0.691924 -0.25553,1.159642 -0.10081,0.467718 -0.20399,0.938828 -0.22931,1.046905 -0.0579,0.247408 -0.12382,0.220327 1.28467,0.528122 0.60946,0.133182 1.35163,0.297411 1.64928,0.364954 0.29763,0.06757 0.7499,0.167864 1.005,0.222937 0.25513,0.05505 1.13646,0.252808 1.95852,0.439412 0.82205,0.186595 1.657,0.375903 1.85542,0.420688 0.66556,0.150228 1.44256,0.316578 1.50328,0.321839 0.0331,0.0034 0.21284,-0.126739 0.39943,-0.288028 z m 24.25098,-0.698899 c 0.1734,-0.177168 0.32915,-0.37632 0.34608,-0.442569 0.0423,-0.165167 -0.29675,-0.896859 -0.37791,-0.815706 -0.01,0.0098 -0.0885,0.328926 -0.17469,0.708987 -0.0863,0.38006 -0.16873,0.731605 -0.1834,0.781216 -0.0488,0.164985 0.0714,0.09351 0.38992,-0.231928 z m -23.55267,0.169254 c 0.0557,-0.05574 0.28184,-0.257425 0.50251,-0.448212 0.22064,-0.190795 0.80562,-0.719221 1.29993,-1.174286 0.49431,-0.455065 1.23648,-1.127605 1.64927,-1.494534 0.41277,-0.366929 1.15638,-1.03966 1.65245,-1.494951 0.49607,-0.455283 1.0991,-1.001276 1.34004,-1.213315 0.24094,-0.212032 0.58884,-0.52781 0.77308,-0.701726 0.49336,-0.465665 3.06651,-2.77775 3.30217,-2.967136 0.11139,-0.08951 0.20254,-0.195804 0.20254,-0.236207 0,-0.04044 -0.0797,-0.332222 -0.17723,-0.648503 -0.0975,-0.316282 -0.2928,-0.992518 -0.43404,-1.502761 -0.29921,-1.080881 -0.86178,-3.097014 -1.29432,-4.638569 -0.57192,-2.0383 -0.82052,-2.938256 -0.98639,-3.570984 -0.0913,-0.348276 -0.19291,-0.670028 -0.22579,-0.715004 -0.0507,-0.06931 -0.12278,0.0034 -0.47277,0.478605 -0.22714,0.308212 -0.77039,1.080159 -1.20724,1.715436 -0.43685,0.635276 -0.99141,1.440061 -1.23235,1.788414 -1.2532,1.811807 -1.91985,2.774872 -2.27704,3.28948 -0.21771,0.313655 -0.50718,0.732639 -0.64328,0.931061 -0.13611,0.198431 -0.51461,0.744563 -0.84113,1.213637 -0.32651,0.469066 -0.73282,1.055244 -0.90289,1.302617 -0.1701,0.247364 -0.50639,0.735336 -0.74734,1.084376 -0.24094,0.349041 -0.7148,1.038469 -1.05301,1.532059 -0.33819,0.493597 -0.70343,1.025007 -0.81167,1.180912 -0.10822,0.155915 -0.19679,0.326961 -0.19684,0.380104 -3e-5,0.05313 0.0569,0.227102 0.12643,0.386548 0.30332,0.695246 1.30088,3.026922 1.55421,3.632744 0.15241,0.364529 0.35963,0.851579 0.46046,1.082333 0.43377,0.992632 0.44335,1.004746 0.64024,0.807862 z m -10.4462,-1.496435 c 0.043,-0.165159 0.12668,-0.549758 0.39849,-1.829574 0.0542,-0.255121 0.16895,-0.77279 0.25503,-1.150371 0.0861,-0.377591 0.15651,-0.719084 0.15651,-0.758886 0,-0.06939 -0.45272,-0.643791 -3.06524,-3.888953 -2.09945,-2.607878 -4.68516,-5.830057 -4.9234,-6.135321 -0.12757,-0.163445 -0.42537,-0.537139 -0.66179,-0.830429 -0.23642,-0.293297 -0.63069,-0.785148 -0.87618,-1.093002 -0.24548,-0.307856 -0.68168,-0.852883 -0.96936,-1.211177 -0.28769,-0.358302 -0.71847,-0.894972 -0.9573,-1.192617 -0.23884,-0.297637 -0.47713,-0.606989 -0.52953,-0.687447 -0.11612,-0.178264 -0.0843,-0.182333 -1.23711,0.158028 -0.4819,0.14227 -0.92256,0.270566 -0.97925,0.285088 -0.0567,0.01453 -0.63652,0.1819 -1.2885,0.371921 -0.65198,0.190039 -1.28978,0.374111 -1.41733,0.409071 -0.12757,0.03496 -0.60303,0.16422 -1.05657,0.287271 -0.45354,0.123043 -0.82833,0.22572 -0.83287,0.22818 -0.004,0.0026 -0.0557,0.259574 -0.11389,0.571395 -0.0903,0.484466 -0.37845,1.828173 -0.78472,3.659304 -0.0566,0.255121 -0.15882,0.730579 -0.22716,1.056566 -0.0683,0.325986 -0.19572,0.9174 -0.28308,1.31426 -0.0874,0.396853 -0.20345,0.930288 -0.25795,1.185409 -0.0545,0.255122 -0.17047,0.788557 -0.2577,1.18541 -0.4288,1.950963 -0.72125,3.383624 -0.7214,3.534147 -1.7e-4,0.127713 0.0228,0.137514 0.63121,0.269401 0.34724,0.07531 0.99084,0.219293 1.43023,0.320056 0.43936,0.100752 0.90322,0.204952 1.03077,0.231546 0.12758,0.02661 0.80017,0.176811 1.49466,0.33383 0.6945,0.157002 1.72658,0.389114 2.29352,0.515791 0.56693,0.126686 1.34389,0.302115 1.72656,0.38986 0.3827,0.08773 1.00891,0.228511 1.39158,0.312838 0.93434,0.205884 1.36571,0.302273 2.7316,0.610372 1.44564,0.326074 2.42219,0.545506 2.98929,0.671687 0.24097,0.05358 0.70481,0.158376 1.0308,0.232817 0.32599,0.07444 0.83624,0.189386 1.13387,0.255433 1.16472,0.258452 2.2492,0.504495 2.3966,0.543732 0.24103,0.06418 0.29919,0.03826 0.34961,-0.155636 z m 33.66035,-0.888972 c -0.10069,-0.290559 -0.44549,-1.189279 -0.76616,-1.997167 -1.36577,-3.440672 -1.78197,-4.491499 -2.0005,-5.050883 -0.68342,-1.749412 -1.13246,-2.885931 -1.22178,-3.09238 -0.0552,-0.127556 -0.32331,-0.800149 -0.59579,-1.494646 -0.27248,-0.694499 -0.64608,-1.645405 -0.83021,-2.113124 -0.18413,-0.467727 -0.43524,-1.105525 -0.55801,-1.417337 -0.12275,-0.31182 -0.49187,-1.245787 -0.82023,-2.075486 -0.32839,-0.829706 -0.59706,-1.551641 -0.59706,-1.604305 0,-0.13054 -0.091,-0.192153 -0.335,-0.226851 -0.11339,-0.01609 -0.44969,-0.06452 -0.74733,-0.107525 -0.59244,-0.08557 -1.78998,-0.243554 -2.75738,-0.363667 -0.34015,-0.04218 -1.16351,-0.146766 -1.82965,-0.232294 -0.66614,-0.08557 -1.30733,-0.166732 -1.42485,-0.180446 l -0.21369,-0.02496 -0.27267,0.423481 c -0.14998,0.23292 -0.34113,0.497459 -0.42478,0.587865 -0.17572,0.189935 -0.17286,0.269026 0.0361,0.99997 0.0682,0.238356 0.20933,0.746476 0.31371,1.129162 0.10437,0.382686 0.22116,0.800149 0.25956,0.927705 0.0384,0.127566 0.15434,0.545036 0.2577,0.927714 0.10334,0.382686 0.21929,0.800158 0.25769,0.927713 0.0384,0.127566 0.15435,0.545037 0.25769,0.927715 0.10335,0.382685 0.2193,0.800157 0.2577,0.927713 0.0384,0.127565 0.15535,0.545036 0.25992,0.927714 0.10456,0.382686 0.27045,0.974099 0.36867,1.314269 0.0982,0.340154 0.21228,0.757625 0.25353,0.927715 0.1107,0.456639 0.42178,1.417224 0.52376,1.617263 0.0696,0.136583 0.29447,0.302351 1.04225,0.768356 0.52443,0.326813 1.28978,0.806784 1.70082,1.066619 0.41102,0.259826 0.94446,0.593812 1.1854,0.742187 0.24095,0.148376 0.65841,0.410759 0.92771,0.583066 0.2693,0.172307 0.70996,0.449351 0.97927,0.615658 0.26928,0.166289 0.68191,0.424027 0.91696,0.572751 0.23502,0.148714 0.81485,0.512755 1.28849,0.808992 0.47363,0.296229 1.02825,0.649922 1.23249,0.785974 0.20422,0.136062 0.38758,0.247382 0.40745,0.247382 0.0199,0 0.10788,0.05322 0.1956,0.11826 0.0877,0.06504 0.53056,0.346745 0.98413,0.626024 0.7529,0.463613 1.11481,0.690107 1.46887,0.919261 0.0709,0.04592 0.14545,0.08462 0.16577,0.0861 0.0203,0.0017 -0.0455,-0.235025 -0.1462,-0.525584 z m 0.92106,0.178377 c 0.46499,-0.308012 0.94855,-0.642869 2.635,-1.824712 0.23029,-0.161368 0.63902,-0.446865 0.90831,-0.634425 0.2693,-0.187552 0.65198,-0.456501 0.85041,-0.597666 0.19842,-0.141149 0.41874,-0.296324 0.48956,-0.344823 0.0709,-0.04852 0.48832,-0.341362 0.92772,-0.650808 0.97413,-0.686011 1.28928,-0.906347 1.8571,-1.298425 0.51592,-0.356233 0.67086,-0.464057 2.15146,-1.497274 1.68406,-1.175191 2.02854,-1.41625 2.88277,-2.017255 1.64934,-1.160391 2.71012,-1.894092 2.83424,-1.960304 0.16854,-0.08991 0.1633,-0.114129 -0.29194,-1.348534 -0.20384,-0.552767 -0.46009,-1.248552 -0.56943,-1.546189 -0.10932,-0.297646 -0.39979,-1.086202 -0.64547,-1.752351 -0.24567,-0.666148 -0.54017,-1.489499 -0.65439,-1.829652 -0.28552,-0.850143 -0.28563,-0.850412 -0.36953,-0.850412 -0.0915,0 -1.5691,-0.488651 -3.56121,-1.177687 -0.82206,-0.284341 -2.34119,-0.809811 -3.37585,-1.167704 -1.03466,-0.357902 -2.5422,-0.878597 -3.35007,-1.157112 -0.80787,-0.278496 -2.11828,-0.731074 -2.912,-1.005718 -0.79369,-0.274636 -1.94174,-0.669741 -2.55119,-0.878006 -1.0348,-0.353615 -2.9549,-1.021042 -3.33983,-1.16093 -0.0936,-0.03401 -0.17819,-0.05339 -0.18807,-0.04296 -0.0475,0.04983 -1.61063,4.17498 -1.86712,4.927178 l -0.17985,0.527461 0.10361,0.297176 c 0.057,0.163437 0.24666,0.656652 0.42152,1.096029 0.32571,0.818489 0.90369,2.278691 1.57081,3.968551 0.20703,0.524418 0.57791,1.463732 0.82418,2.087356 0.64744,1.639474 1.05927,2.683804 1.38207,3.504693 0.85739,2.180406 1.60106,4.054173 1.70804,4.303564 0.0669,0.155906 0.20357,0.503798 0.30377,0.773094 0.1002,0.269296 0.25458,0.663567 0.34307,0.876172 0.32044,0.769921 0.97937,2.481478 0.97937,2.543934 0,0.05635 0.0974,0.187664 0.1392,0.187664 0.009,0 0.25319,-0.157454 0.54374,-0.3499 z m -32.54835,-3.254406 c 0.50374,-0.05479 1.18258,-0.124809 1.50856,-0.155576 0.326,-0.03079 0.90583,-0.09051 1.28851,-0.132756 0.38267,-0.04227 1.12714,-0.110782 1.65437,-0.152298 0.52722,-0.04148 0.99106,-0.08821 1.03078,-0.103767 0.0397,-0.01556 0.16868,-0.172732 0.28658,-0.349266 0.11792,-0.176524 0.59723,-0.877589 1.06516,-1.557912 0.46796,-0.680323 0.97451,-1.418521 1.12567,-1.64043 0.15118,-0.221911 0.33285,-0.481285 0.40371,-0.576386 0.0709,-0.0951 0.22916,-0.319405 0.35175,-0.49846 0.1226,-0.179064 0.4589,-0.667114 0.74732,-1.084558 0.28845,-0.417446 0.65199,-0.946125 0.8079,-1.174843 0.33014,-0.484311 0.71543,-1.037278 0.8856,-1.271007 0.0657,-0.09021 0.24698,-0.352163 0.4029,-0.582135 0.15589,-0.229971 0.38782,-0.566803 0.51539,-0.74851 0.12755,-0.181699 0.35949,-0.518 0.51539,-0.747319 0.15591,-0.229329 0.3923,-0.572464 0.5253,-0.762529 0.49321,-0.704769 0.93227,-1.336671 1.26896,-1.826225 0.84031,-1.221856 1.31785,-1.884943 1.4281,-1.982914 0.0703,-0.06244 0.12771,-0.162168 0.12771,-0.221668 0,-0.05949 -0.27036,-1.075289 -0.60079,-2.257332 -0.79289,-2.836354 -0.88624,-3.182829 -0.94285,-3.499684 -0.0264,-0.147515 -0.0691,-0.309864 -0.0951,-0.36078 -0.0259,-0.05096 -0.12327,-0.312917 -0.21628,-0.582213 -0.093,-0.269296 -0.18745,-0.509965 -0.20985,-0.534838 -0.0233,-0.02582 -0.32364,-0.02027 -0.70166,0.01313 -0.36346,0.03209 -1.32186,0.08174 -2.12976,0.110346 -0.80787,0.02861 -1.97912,0.08635 -2.60273,0.128383 -0.62364,0.042 -1.81807,0.100374 -2.65431,0.129721 -0.83621,0.0294 -1.97267,0.0867 -2.52545,0.127487 -0.55275,0.04078 -1.3645,0.08745 -1.80387,0.103756 -0.43937,0.01635 -1.71499,0.08531 -2.83469,0.153349 -1.11969,0.068 -2.71998,0.149627 -3.55622,0.181325 -0.83624,0.03166 -1.76395,0.08131 -2.06158,0.110269 -0.29765,0.02896 -1.06016,0.06009 -1.69445,0.06931 l -1.15328,0.0167 -0.25454,0.481554 c -0.14,0.264853 -0.51089,0.980195 -0.82419,1.589645 -0.3133,0.609466 -0.70325,1.363229 -0.86654,1.675042 -0.1633,0.31182 -0.53374,1.030789 -0.82325,1.597731 -0.28949,0.566934 -0.54741,1.052827 -0.5732,1.07975 -0.0979,0.102313 -0.0375,0.251834 0.24689,0.610919 0.69542,0.878145 2.72849,3.431445 2.90129,3.643677 0.64376,0.79066 1.90446,2.352512 2.99533,3.710855 2.35331,2.930272 4.65203,5.796784 4.91364,6.127267 0.73512,0.92867 1.0161,1.242899 1.11131,1.242899 0.0553,0 0.51272,-0.04487 1.01644,-0.09963 z m -22.73252,-0.85384 c 0.0852,-0.412114 0.33979,-1.604872 0.5061,-2.370827 0.0738,-0.340161 0.20157,-0.931575 0.28384,-1.31426 0.0823,-0.382687 0.19826,-0.916113 0.25777,-1.18541 0.0595,-0.269296 0.14344,-0.663575 0.18653,-0.876179 0.11133,-0.549376 0.31875,-1.501213 0.43242,-1.984271 0.0534,-0.226772 0.1344,-0.597858 0.18012,-0.824638 0.18273,-0.906356 0.2898,-1.404841 0.35977,-1.675032 0.0403,-0.155907 0.13749,-0.573387 0.21582,-0.927715 0.2122,-0.960063 0.19794,-1.214488 -0.15734,-2.808916 -0.16421,-0.737014 -0.35342,-1.595149 -0.42045,-1.906962 -0.26167,-1.217376 -0.44025,-1.95806 -0.4822,-2.000002 -0.0241,-0.02409 -0.22866,0.102916 -0.45459,0.282297 -0.2259,0.179368 -0.90461,0.69722 -1.50824,1.150772 -0.9331,0.701107 -2.32409,1.758473 -3.78061,2.873843 -0.19399,0.148541 -0.53028,0.410879 -0.74734,0.582978 -0.21705,0.172107 -0.75413,0.581638 -1.19351,0.910086 -0.43938,0.32844 -0.83945,0.634094 -0.88907,0.679219 -0.0837,0.07618 -0.091,0.301672 -0.10162,3.135791 -0.0193,5.144115 -0.0156,7.00556 0.014,7.023831 0.0156,0.0096 0.67657,0.158054 1.4689,0.32984 0.7923,0.171776 1.9508,0.429185 2.57443,0.572011 0.62364,0.142836 1.51656,0.342301 1.98429,0.443274 0.4677,0.100967 0.86115,0.194055 0.87432,0.206874 0.013,0.01278 0.0934,0.01635 0.17835,0.0079 0.14433,-0.01426 0.15862,-0.03557 0.21835,-0.324569 z m 74.4175,-1.09522 c -0.0191,-0.106298 -0.10241,-0.448395 -0.18519,-0.760207 -0.0828,-0.31182 -0.27975,-1.100378 -0.43765,-1.752351 -0.90672,-3.743875 -1.03958,-4.252022 -1.11184,-4.252022 -0.0643,0 -1.51699,0.950794 -1.5606,1.021364 -0.0181,0.0294 0.0158,0.176925 0.0754,0.327804 0.0597,0.15088 0.14346,0.378704 0.18624,0.50626 0.0428,0.127556 0.10714,0.301507 0.14304,0.386547 0.0359,0.08505 0.12954,0.328561 0.20809,0.541167 0.0785,0.212597 0.24744,0.548897 0.37536,0.747327 0.33891,0.525679 0.53419,0.831055 0.78941,1.234465 0.12467,0.197057 0.33772,0.521757 0.47343,0.721552 0.13573,0.199796 0.41262,0.612589 0.6153,0.917314 0.20268,0.304723 0.38994,0.554053 0.4161,0.554053 0.0268,0 0.0324,-0.08452 0.0129,-0.193273 z m -3.20753,-5.948377 c 0.0619,-0.03296 0.38767,-0.241721 0.72389,-0.463858 0.33621,-0.222136 0.63193,-0.403887 0.65714,-0.403887 0.0252,0 0.0458,-0.04461 0.0458,-0.09918 0,-0.110799 -0.24328,-0.739502 -0.43374,-1.120901 -0.19187,-0.384225 -0.80321,-1.671841 -0.80321,-1.691704 0,-0.0097 -0.12469,-0.280471 -0.2771,-0.601656 -0.53647,-1.130633 -0.80525,-1.70467 -0.80525,-1.719845 0,-0.0087 -0.1358,-0.301333 -0.30182,-0.650904 -0.16597,-0.349562 -0.48072,-1.018251 -0.69942,-1.485969 -0.57537,-1.230594 -0.61832,-1.314269 -0.67448,-1.314269 -0.0842,0 -0.13398,0.815358 -0.11487,1.881202 l 0.0181,1.005015 0.31403,0.850413 c 0.1727,0.467718 0.33906,0.908382 0.36968,0.979247 0.0306,0.07088 0.17294,0.453552 0.31628,0.850414 0.56293,1.558546 0.99451,2.729711 1.15852,3.143913 0.0674,0.17008 0.16462,0.442429 0.21614,0.605214 0.10006,0.316125 0.11639,0.32943 0.29037,0.236755 z m -80.26881,-3.069335 c 0.38057,-0.252416 1.56684,-1.149215 1.61514,-1.221046 0.0209,-0.03096 0.0398,-0.149053 0.0422,-0.262443 0.004,-0.186291 0.01,-0.194987 0.0602,-0.0902 0.0308,0.06383 0.0814,0.115782 0.11247,0.115565 0.0801,-5.22e-4 1.44025,-1.011694 2.8073,-2.086956 0.21624,-0.170081 0.45115,-0.348884 0.52201,-0.397348 0.0709,-0.04844 0.51154,-0.380374 0.97926,-0.737588 0.46772,-0.357206 1.53,-1.164095 2.36063,-1.793085 2.06277,-1.562016 1.59984,-1.188956 5.06108,-4.07861 1.28978,-1.076783 2.52942,-2.109334 2.75473,-2.294536 0.22535,-0.185214 0.59643,-0.499095 0.82466,-0.697516 0.2282,-0.198431 0.50769,-0.439621 0.62108,-0.535984 0.28152,-0.239225 0.95903,-0.845517 1.33735,-1.196714 0.17155,-0.159281 0.67142,-0.608536 1.11078,-0.998345 0.43938,-0.389826 1.2696,-1.12924 1.84491,-1.643153 0.57533,-0.513911 1.3175,-1.175434 1.64927,-1.470045 1.21837,-1.081889 2.27009,-2.016985 2.96902,-2.639784 0.39408,-0.35117 0.82543,-0.731265 0.95851,-0.844656 0.13311,-0.113381 0.55379,-0.484467 0.93486,-0.824628 0.38108,-0.340163 0.97657,-0.8589707 1.32334,-1.1529033 0.61238,-0.519061 1.21989,-1.1328496 1.17035,-1.1824091 -0.0134,-0.013396 -0.054,-5.126e-4 -0.0901,0.028526 -0.0361,0.029129 -0.13524,0.068176 -0.22029,0.086698 -0.22296,0.048696 -0.46209,0.239328 -3.14085,2.5035574 -0.58689,0.496068 -1.30312,1.094438 -1.59163,1.329705 -0.28851,0.235268 -0.66903,0.555246 -0.84561,0.711056 -0.33756,0.297846 -3.27928,2.748513 -4.28678,3.571185 -0.18699,0.15268 -0.79224,0.652548 -1.34499,1.110804 -1.27647,1.058261 -3.52938,2.918238 -3.97449,3.281314 -0.18749,0.152949 -0.57018,0.470657 -0.85039,0.706012 -0.28022,0.235354 -0.74139,0.620901 -1.02488,0.856769 -0.77042,0.641054 -5.4705,4.559349 -5.75409,4.796991 -0.1353,0.113381 -0.85578,0.71763 -1.60106,1.342759 -1.39966,1.174034 -3.70468,3.08937 -4.1124,3.417183 -0.12758,0.102561 -0.32471,0.273148 -0.4381,0.379086 -0.11338,0.105931 -0.48447,0.433368 -0.82462,0.727631 -0.34017,0.294271 -0.68832,0.613779 -0.77368,0.710029 -0.30275,0.341423 -0.55245,0.664627 -0.51348,0.664627 0.0217,0 0.16949,-0.08618 0.32833,-0.191543 z m 12.69552,-2.467232 c 0.37638,-0.101678 1.44971,-0.405532 2.38515,-0.67522 0.93545,-0.269687 1.78199,-0.513051 1.88121,-0.540809 0.81679,-0.228511 1.3821,-0.428899 1.47773,-0.523809 0.0616,-0.06113 0.31379,-0.505382 0.5605,-0.987274 0.24671,-0.481893 0.62296,-1.212472 0.83609,-1.623499 0.21314,-0.411027 0.54301,-1.048835 0.73303,-1.417337 0.19004,-0.368512 0.53208,-1.029504 0.76014,-1.468881 0.22802,-0.439377 0.42902,-0.847178 0.44665,-0.906234 0.0267,-0.08936 -0.0134,-0.131948 -0.23927,-0.254017 -0.14922,-0.08061 -0.32931,-0.186352 -0.40018,-0.234876 -0.0709,-0.04852 -0.36076,-0.234042 -0.64424,-0.412271 -0.28347,-0.17823 -0.89807,-0.570919 -1.3658,-0.872652 -0.46772,-0.301733 -0.97797,-0.626945 -1.13386,-0.7227 -0.15591,-0.09574 -0.34904,-0.227432 -0.42917,-0.292636 -0.0801,-0.06523 -0.18449,-0.11807 -0.23192,-0.117486 -0.0475,5.21e-4 -0.42566,0.284696 -0.84049,0.631363 -0.41486,0.346658 -1.35416,1.128486 -2.08737,1.737379 -0.73318,0.608883 -1.623,1.352707 -1.97733,1.652926 -0.35435,0.300229 -0.91098,0.760929 -1.23695,1.023773 -0.326,0.262852 -0.60821,0.505085 -0.62716,0.538297 -0.0189,0.03322 0.0101,0.245564 0.0644,0.471901 0.0544,0.226336 0.15652,0.678244 0.22696,1.004231 0.0704,0.325987 0.25804,1.184122 0.41688,1.90697 0.15885,0.72284 0.321,1.476603 0.36034,1.675033 0.11866,0.598727 0.11609,0.592709 0.25388,0.592709 0.0695,0 0.43438,-0.08322 0.81077,-0.184881 z m 64.77387,-2.289257 c 0,-0.393644 0.0256,-1.012676 0.057,-1.375648 l 0.057,-0.659939 -0.25027,-0.220371 c -0.13762,-0.1212 -0.61476,-0.469092 -1.06026,-0.773086 -0.44551,-0.304004 -1.4544,-1.006519 -2.24197,-1.561157 -2.52348,-1.777118 -4.25955,-2.9984 -4.52434,-3.182752 -0.37753,-0.262861 -1.61614,-1.13671 -1.85542,-1.309035 -0.1134,-0.08166 -0.91353,-0.644764 -1.77812,-1.251343 -0.86458,-0.606589 -1.96085,-1.376605 -2.43617,-1.711158 -1.4803,-1.041895 -2.45585,-1.727862 -3.28475,-2.309684 -0.43936,-0.308402 -1.12969,-0.793922 -1.53403,-1.078923 -0.40436,-0.285002 -1.00736,-0.708787 -1.34004,-0.941741 -0.55039,-0.385426 -3.90494,-2.745504 -4.52186,-3.1813334 -0.14174,-0.1001367 -0.76794,-0.5448972 -1.39156,-0.9883526 -1.19369,-0.8488306 -1.54066,-1.0490264 -1.8196,-1.0498523 -0.0937,-1.917e-4 -0.26764,-0.044259 -0.38656,-0.097704 -0.11892,-0.053477 -0.37857,-0.1243392 -0.57698,-0.1575067 -0.19845,-0.033221 -0.76666,-0.1279122 -1.26273,-0.210553 -0.49606,-0.082617 -1.44507,-0.243685 -2.10889,-0.3578844 -1.30418,-0.2243714 -1.44735,-0.2389813 -1.44735,-0.1476878 0,0.060003 0.8686,1.5269963 0.9246,1.5616079 0.0443,0.027482 1.04313,-0.1086773 2.09049,-0.2848794 1.53739,-0.258661 2.24568,-0.352737 2.35396,-0.3126819 0.068,0.02522 -0.10343,0.068876 -0.50713,0.1292605 -0.33544,0.050182 -0.88821,0.1381134 -1.22837,0.1953951 -0.34017,0.057311 -0.8388,0.1344186 -1.1081,0.1714122 -1.61875,0.2223619 -1.55792,0.2041608 -1.40555,0.4202188 0.0571,0.080873 0.64822,1.0167979 1.31376,2.079799 1.28993,2.06032 3.27145,5.215807 3.46302,5.514741 0.21973,0.342856 0.37834,0.594273 0.62908,0.997101 0.13845,0.222414 0.43364,0.680862 0.656,1.018772 0.44829,0.681227 0.33725,0.585612 1.94077,1.671231 0.49606,0.335849 1.42377,0.964743 2.06158,1.397554 2.50142,1.697438 2.92165,1.975308 3.18636,2.106855 0.15091,0.07496 0.74232,0.294786 1.31427,0.488425 1.06311,0.359945 3.02244,1.034025 5.31765,1.829469 0.70869,0.245607 1.38129,0.477101 1.49467,0.51446 0.28207,0.0929 1.47332,0.505068 2.83466,0.980787 0.62365,0.217919 1.29623,0.450212 1.49468,0.516199 0.19841,0.066 0.871,0.297498 1.49464,0.514452 0.62362,0.216971 1.53974,0.533401 2.03581,0.703194 0.49606,0.169794 0.95992,0.329552 1.0308,0.354998 0.74949,0.269208 2.25045,0.753415 2.28062,0.735718 0.0213,-0.01252 0.0387,-0.344744 0.0387,-0.738379 z m -29.21009,-0.648834 c 0.19135,-0.299194 0.34791,-0.584204 0.34791,-0.633338 0,-0.04914 -0.19873,-0.447491 -0.44164,-0.885233 -0.24289,-0.437742 -0.64043,-1.190175 -0.88344,-1.672068 -0.53709,-1.065087 -0.93466,-1.778117 -0.99149,-1.778117 -0.0433,0 -0.0236,0.07618 0.37446,1.443113 0.12794,0.439376 0.29124,1.019189 0.36288,1.288486 0.43721,1.643369 0.77539,2.78301 0.82556,2.782149 0.0318,-5.13e-4 0.21443,-0.245781 0.40576,-0.544992 z m 7.7476,0.146557 c 0.0427,-0.192318 0.19741,-0.654583 0.35175,-1.051261 0.0701,-0.180081 0.21377,-0.559358 0.31933,-0.842829 0.89699,-2.408621 1.20885,-3.231607 1.26361,-3.3345 0.0518,-0.09746 0.0656,-0.08548 -0.59843,-0.523426 -0.22676,-0.149575 -0.58625,-0.393461 -0.79886,-0.541967 -0.21259,-0.148514 -0.88519,-0.606207 -1.49464,-1.017105 -0.95617,-0.644643 -3.30896,-2.243183 -3.64195,-2.474442 -0.10255,-0.07122 -0.13772,-0.06427 -0.4381,0.08697 -0.17962,0.09041 -0.51214,0.273478 -0.73892,0.406818 -0.22675,0.13334 -0.7486,0.440751 -1.15963,0.683141 -1.86079,1.097325 -2.88868,1.675581 -3.05,1.715827 -0.0759,0.01895 -0.15151,0.06956 -0.16801,0.112608 -0.0869,0.226391 0.35843,1.318672 0.85972,2.108811 0.074,0.116616 0.34788,0.638451 0.60868,1.159642 0.26079,0.5212 0.57211,1.121571 0.69183,1.334176 0.11972,0.212596 0.32778,0.595283 0.46235,0.850404 0.13454,0.255122 0.27692,0.489407 0.31634,0.520626 0.0394,0.03122 0.27464,0.07235 0.52268,0.09144 0.24803,0.01905 0.93829,0.103045 1.53392,0.186603 0.59562,0.08358 1.74394,0.234842 2.55182,0.336162 0.80789,0.101333 1.66602,0.215284 1.90696,0.253234 0.65374,0.102959 0.66332,0.102119 0.69955,-0.06096 z M 217.88345,23.22366 c 0.65198,-0.04374 1.84641,-0.104725 2.65429,-0.135487 0.80789,-0.03079 1.87477,-0.08919 2.37083,-0.129834 0.49607,-0.04069 1.55133,-0.09947 2.34504,-0.130714 0.79372,-0.03122 1.67506,-0.07852 1.95852,-0.105134 0.28347,-0.02661 1.11839,-0.07114 1.85542,-0.09901 1.95299,-0.07383 3.70365,-0.160541 3.74382,-0.185368 0.0193,-0.01182 0.91259,-0.05601 1.98528,-0.09815 1.07265,-0.04209 2.07208,-0.09165 2.22089,-0.11012 0.24892,-0.03096 0.27053,-0.04434 0.27011,-0.168132 0,-0.150706 -0.25382,-1.090821 -1.29297,-4.798902 -0.13903,-0.496052 -0.29782,-1.06428 -0.3529,-1.262711 -0.055,-0.198422 -0.26299,-0.940593 -0.46205,-1.649266 -0.71068,-2.529942 -0.97142,-3.467169 -1.24238,-4.4653323 l -0.27479,-1.0121879 -1.13785,-0.034352 c -0.62585,-0.018867 -1.63652,-0.067401 -2.24598,-0.1077286 -0.60945,-0.04035 -1.95641,-0.1088851 -2.99322,-0.1522709 -1.87788,-0.078611 -2.6436,-0.1260256 -3.85469,-0.2388596 l -0.63738,-0.0594 -0.11675,0.1488282 c -0.12277,0.1565052 -0.88959,0.8459597 -2.42984,2.1846401 -0.23563,0.204796 -0.91791,0.815489 -1.382,1.236952 -0.17167,0.155915 -0.47431,0.422081 -0.67253,0.591492 -0.19822,0.169411 -0.56913,0.496041 -0.82426,0.725857 -0.25512,0.229807 -0.8591,0.76379 -1.3422,1.186626 -1.2028,1.052791 -3.24184,2.864939 -5.09986,4.532327 -0.85356,0.765991 -1.61941,1.441879 -1.70191,1.501969 -0.18427,0.134236 -0.15554,0.179361 0.29985,0.471153 0.17563,0.112538 0.94554,0.606353 1.71089,1.097387 0.76538,0.491026 1.57713,1.005591 1.80391,1.143469 l 0.4123,0.250686 1.6235,-0.02443 c 0.89293,-0.0134 2.15693,-0.06026 2.80891,-0.104015 z m 20.06676,-1.410496 c 0.24531,-0.133565 1.01425,-0.576378 1.70874,-0.984031 0.69449,-0.407635 1.69737,-0.988344 2.22864,-1.290451 0.53125,-0.302107 0.96612,-0.568681 0.96636,-0.592395 0,-0.02366 -0.0686,-0.139671 -0.15307,-0.257695 -0.15311,-0.213997 -1.16766,-1.811721 -1.63564,-2.575815 -0.13565,-0.221493 -0.30464,-0.49418 -0.37551,-0.605962 -0.0709,-0.11179 -0.43034,-0.679853 -0.79886,-1.262371 -0.36851,-0.582516 -0.79094,-1.249143 -0.93875,-1.481385 -0.14781,-0.23225 -0.31637,-0.503442 -0.37461,-0.602658 -0.10566,-0.180012 -1.67452,-2.6866301 -2.04842,-3.2727648 -0.1622,-0.2542953 -0.2199,-0.3070811 -0.3247,-0.2970888 -0.0701,0.007 -0.39416,0.04974 -0.72016,0.095604 -0.32599,0.045918 -0.82463,0.094958 -1.10809,0.1090154 -0.28347,0.014085 -0.53286,0.041825 -0.55417,0.061747 -0.0366,0.034094 0.0425,0.3888605 0.27109,1.2161682 0.0549,0.19843 0.17148,0.627494 0.25922,0.95348 0.0877,0.325987 0.20247,0.731867 0.25497,0.901948 0.0525,0.170081 0.16535,0.56436 0.25081,0.876171 0.14941,0.545193 0.43586,1.576827 0.90871,3.272765 0.12251,0.439376 0.30888,1.111969 0.41414,1.494646 0.1053,0.382687 0.27134,0.974099 0.36897,1.31427 0.23742,0.826986 0.3236,1.140163 0.58152,2.113123 0.23292,0.878545 0.29037,1.056558 0.34096,1.056558 0.0176,0 0.23254,-0.109277 0.47785,-0.242842 z m -2.6979,-13.2080079 c 0.42521,-0.056266 0.80209,-0.1027007 0.83752,-0.1031852 0.12709,-0.00172 0.0589,-0.1799163 -0.29647,-0.7741727 -0.1985,-0.3319696 -0.38636,-0.6766096 -0.41747,-0.7658592 -0.0377,-0.1079202 -0.10156,-0.1735681 -0.1909,-0.1959874 -0.16974,-0.042611 -4.49009,0.018867 -6.06589,0.086354 -0.65198,0.027912 -1.99377,0.073227 -2.98177,0.10073 l -1.79635,0.05001 -0.26523,0.2235272 c -0.54524,0.459492 -0.92594,0.7234221 -1.05739,0.7330492 -0.28629,0.020956 -0.31596,0.027223 -0.31596,0.066959 0,0.1302781 1.25095,0.2885322 2.92874,0.3705118 2.40593,0.1175463 3.23108,0.1595667 4.59605,0.234033 2.64276,0.144174 3.78428,0.1382868 5.02512,-0.02592 z"
       id="path76" />
    <path
       style="fill:none;stroke:#ffcc00;stroke-width:0.865;stroke-linecap:butt;stroke-linejoin:miter;stroke-dasharray:none;stroke-opacity:1;marker-start:url(#Dot);marker-end:url(#DartArrow)"
       d="m 15.80718,14.101007 c 0,0 -5.057771,63.551108 155.36044,63.551108"
       id="path1"
       sodipodi:nodetypes="cc" />
  </g>
</svg>
