<?xml version="1.0" encoding="UTF-8" standalone="no"?>
<!-- Created with Inkscape (http://www.inkscape.org/) -->

<svg
   width="100mm"
   height="100mm"
   viewBox="0 0 100 100"
   version="1.1"
   id="svg1"
   inkscape:version="1.3.2 (091e20e, 2023-11-25, custom)"
   sodipodi:docname="brain.svg"
   xmlns:inkscape="http://www.inkscape.org/namespaces/inkscape"
   xmlns:sodipodi="http://sodipodi.sourceforge.net/DTD/sodipodi-0.dtd"
   xmlns="http://www.w3.org/2000/svg"
   xmlns:svg="http://www.w3.org/2000/svg">
  <sodipodi:namedview
     id="namedview1"
     pagecolor="#ffffff"
     bordercolor="#666666"
     borderopacity="1.0"
     inkscape:showpageshadow="2"
     inkscape:pageopacity="0.0"
     inkscape:pagecheckerboard="0"
     inkscape:deskcolor="#d1d1d1"
     inkscape:document-units="mm"
     inkscape:zoom="0.76702441"
     inkscape:cx="292.03764"
     inkscape:cy="170.138"
     inkscape:window-width="1920"
     inkscape:window-height="1057"
     inkscape:window-x="-8"
     inkscape:window-y="-8"
     inkscape:window-maximized="1"
     inkscape:current-layer="layer1" />
  <defs
     id="defs1" />
  <g
     inkscape:label="Ebene 1"
     inkscape:groupmode="layer"
     id="layer1">
    <path
       style="fill:#ffcc00;stroke-width:0.372595"
       d="m 20.964427,16.393393 c 0.186226,0.32252 0.211424,0.33328 0.453293,0.19361 0.169301,-0.0976 0.231374,-0.19067 0.183131,-0.27431 -0.154598,-0.26779 0.799247,-0.81764 1.056601,-0.60924 0.06711,0.0544 0.228463,0.0357 0.362529,-0.0416 0.198683,-0.11475 0.230202,-0.20373 0.177177,-0.50072 -0.03534,-0.19868 -0.03135,-0.38034 0.0089,-0.40371 0.08786,-0.0506 0.895224,0.59384 2.60662,2.08081 2.184729,1.89824 5.555485,4.31203 7.700671,5.51444 1.505386,0.84378 2.38125,1.36749 2.430923,1.45354 0.03235,0.056 0.10273,0.0355 0.170782,-0.0492 0.791172,-0.98725 2.476812,-1.96262 3.774151,-2.18419 0.842608,-0.14379 1.910011,-0.14908 2.919709,-0.0157 0.813767,0.10828 2.49771,0.60293 2.708843,0.79564 0.08835,0.0807 0.228471,0.10731 0.311475,0.0594 0.34749,-0.20062 1.09857,-1.1712 1.994751,-2.57777 1.500446,-2.35502 3.125502,-4.32584 4.474352,-5.42642 0.881411,-0.719171 2.944028,-1.914791 3.899638,-2.260091 1.04627,-0.3784 2.38401,-0.60803 3.42078,-0.58713 1.36084,0.0274 2.33431,0.31299 3.89513,1.14262 0.14658,0.0778 0.19896,0.05 0.48657,-0.25863 1.15117,-1.23533 3.06548,-1.90423 4.71436,-1.64708 0.71131,0.11104 0.7716,0.103 0.97172,-0.12907 0.31808,-0.36877 1.30737,-0.8092295 2.0512,-0.9131995 1.38484,-0.193608 3.66715,0.23276 5.30966,0.9919595 0.44325,0.20488 1.12236,0.50436 1.50914,0.66547 1.64386,0.68477 3.063,1.69528 4.60317,3.277641 1.08836,1.11816 2.00247,2.28654 2.60366,3.32783 0.18602,0.3222 0.72611,1.07126 1.20023,1.66464 0.72596,0.90857 0.97786,1.29943 1.59592,2.47644 0.92099,1.75386 1.55611,3.27676 1.79832,4.3119 0.10319,0.44126 0.264,0.98875 0.35729,1.21665 0.36526,0.89256 0.99811,3.13628 1.35293,4.79672 0.0298,0.13927 0.20424,0.93502 0.38769,1.76825 0.50828,2.30848 0.58826,3.62096 0.32345,5.30852 -0.0871,0.55501 -0.0466,0.9214 0.25486,2.29906 0.19718,0.90133 0.37613,1.96214 0.39764,2.35734 0.0862,1.58053 -0.26403,3.45773 -1.03263,5.53682 -0.25733,0.69605 -0.36423,1.1936 -0.3671,1.7084 -0.004,0.82319 -0.56289,3.00442 -1.08105,4.22373 -0.30069,0.70753 -0.82709,1.85436 -1.97625,4.30552 -0.20137,0.42949 -0.669,1.24344 -1.03917,1.80876 -0.38588,0.58928 -0.77454,1.33135 -0.91089,1.73918 -0.42848,1.28135 -1.53293,3.27855 -2.57276,4.65235 -0.26638,0.35192 -0.73843,1.00807 -1.04899,1.45814 -0.31061,0.45004 -0.83111,1.10115 -1.15672,1.44689 -0.55569,0.59004 -1.76137,1.95707 -3.91388,4.43754 -0.50754,0.58486 -1.31004,1.41299 -1.78338,1.84023 -1.04911,0.94699 -2.65569,2.00617 -3.3593,2.21474 -0.472,0.13987 -0.50215,0.16478 -0.72414,0.60134 -0.12744,0.25044 -0.25246,0.52435 -0.27782,0.60873 -0.12698,0.42228 -2.10144,2.00074 -3.02327,2.41689 -1.17536,0.53057 -2.53175,0.78449 -3.25043,0.60832 l -0.35096,-0.086 -0.20745,0.41599 c -0.30058,0.60277 -1.13018,1.30745 -2.46552,2.09433 -1.54388,0.90986 -3.13835,1.38519 -4.0828,1.21731 -0.31178,-0.0553 -0.42558,-0.0273 -0.62099,0.1536 -0.42088,0.38966 -1.23686,0.82173 -1.89397,1.003 -0.35106,0.0966 -1.11491,0.32119 -1.69753,0.49849 -1.234252,0.37561 -3.883609,0.69388 -4.731714,0.5684 -0.300573,-0.0444 -0.628049,-0.0349 -0.727736,0.0211 -0.248056,0.13968 -1.249629,0.25995 -1.797335,0.21601 -0.247873,-0.0198 -0.665988,0.0334 -0.929196,0.11828 -0.579821,0.18735 -1.636263,0.25756 -2.210831,0.14713 -0.231931,-0.0446 -1.184397,-0.0269 -2.11662,0.0394 -1.29422,0.0918 -1.900664,0.0783 -2.565055,-0.0576 -0.478557,-0.0979 -1.092802,-0.14164 -1.364992,-0.0969 -1.753749,0.28809 -3.711222,-0.0137 -5.544549,-0.85561 -0.583209,-0.26772 -1.236531,-0.49206 -1.451813,-0.49851 -0.663003,-0.0198 -1.591692,-0.36422 -2.417359,-0.89628 -0.635692,-0.40967 -1.04016,-0.57363 -2.081401,-0.84371 -0.710821,-0.1844 -1.675652,-0.5238 -2.144096,-0.75421 -0.468428,-0.23042 -1.068585,-0.50944 -1.333648,-0.62008 -0.26508,-0.11065 -0.581021,-0.31241 -0.702064,-0.4484 -0.121009,-0.13596 -0.409033,-0.34311 -0.63995,-0.46021 -0.23085,-0.11712 -0.755162,-0.42914 -1.164994,-0.69339 -0.40984,-0.26426 -1.274935,-0.7893 -1.922436,-1.16674 -1.449626,-0.8451 -2.282154,-1.4648 -3.068944,-2.28437 -0.887083,-0.92409 -1.412169,-1.62791 -1.74945,-2.34491 -0.288406,-0.61293 -0.326262,-0.65394 -1.045307,-1.12823 -1.222094,-0.80617 -1.637498,-1.31581 -3.0083853,-3.69086 -1.134216,-1.96504 -1.193469,-2.0911 -1.455788,-3.06435 -0.487297,-1.812 -0.442606,-3.38943 0.142382,-5.02639 0.484786,-1.35662 1.29654,-2.65909 2.0239193,-3.24736 0.160012,-0.12947 0.283957,-0.24755 0.275425,-0.2623 -0.0089,-0.0157 -0.26765,-0.20873 -0.57584,-0.43075 -1.0308633,-0.74292 -1.4973443,-1.2874 -2.2764833,-2.65714 -0.596423,-1.04796 -0.747279,-1.39246 -0.965355,-2.20078 -0.95412,-3.53572 -0.507024,-6.58474 1.283733,-8.75456 0.314403,-0.38094 0.842059,-0.91185 1.172563,-1.17979 0.5564803,-0.45116 0.5921733,-0.50235 0.48239,-0.6925 -0.225752,-0.39101 -0.575274,-1.58663 -0.706712,-2.41741 -0.3443,-2.17607 0.10421,-5.27577 1.1507573,-7.95331 0.39547,-1.01176 1.481094,-3.06807 2.066165,-3.91358 1.09019,-1.57548 2.701791,-3.21639 4.265532,-4.34321 1.509793,-1.08791 4.287777,-2.30785 5.369643,-2.35801 0.186316,-0.01 0.344632,-0.0377 0.351826,-0.0645 0.0067,-0.0269 -0.19717,-0.28408 -0.454407,-0.57135 -0.257088,-0.28734 -0.961721,-1.1079 -1.565886,-1.82341 -0.604166,-0.71554 -1.475498,-1.73675 -1.936283,-2.26938 -0.460852,-0.53258 -0.883723,-1.04796 -0.939858,-1.14518 -0.145558,-0.25212 0.05331,-0.8876 0.389116,-1.24375 0.241861,-0.25657 0.373415,-0.32338 0.841311,-0.42736 0.514924,-0.11457 0.582535,-0.15262 0.94597,-0.53234 0.215407,-0.22472 0.52981,-0.48834 0.698671,-0.58582 0.301272,-0.17401 0.310752,-0.17067 0.504179,0.16418 z m -1.684384,1.37088 c -0.426381,0.24618 -0.442248,0.26917 -0.319426,0.48189 0.177477,0.30735 2.074748,2.51483 3.163982,3.68133 1.032999,1.10624 2.914977,2.91815 3.701076,3.56324 0.853419,0.70035 2.860314,2.0481 3.656493,2.45556 0.613803,0.31411 0.835331,0.36827 1.404709,0.34333 0.682787,-0.0298 1.319119,-0.28728 1.482966,-0.59988 0.109508,-0.209 -0.424602,-0.91001 -1.059104,-1.39005 -0.281621,-0.21307 -0.808637,-0.62464 -1.171166,-0.91463 -0.36252,-0.28998 -0.776469,-0.61446 -0.919874,-0.72108 -0.143421,-0.10671 -0.524387,-0.40019 -0.846632,-0.6524 -0.322254,-0.2522 -0.621414,-0.46367 -0.664808,-0.4699 -0.08409,-0.0117 -0.116801,-0.0393 -2.068244,-1.70866 -2.562028,-2.19189 -2.869371,-2.46264 -3.591019,-3.16341 -0.404476,-0.39278 -0.931484,-0.94881 -1.171132,-1.23566 l -0.435795,-0.52148 -0.356907,0.29657 c -0.196313,0.16302 -0.558618,0.41301 -0.805152,0.55535 z m 2.590404,-1.13866 c -0.02661,0.0494 0.01838,0.11436 0.100227,0.14458 0.08167,0.0303 0.372907,0.3057 0.647259,0.6122 0.274369,0.3065 0.602253,0.65123 0.728643,0.76608 0.12644,0.11476 0.502815,0.461 0.83647,0.76925 2.528498,2.33591 4.964776,4.27732 6.495044,5.17568 0.561212,0.32947 1.093109,0.62315 1.18201,0.65264 0.08894,0.0294 0.486782,0.17322 0.884214,0.31934 0.48022,0.17656 0.766547,0.22621 0.853668,0.14792 0.0721,-0.0649 0.178375,-0.0926 0.236672,-0.061 0.06395,0.0343 0.104534,-0.0203 0.102963,-0.13809 -8.32e-4,-0.13418 -0.05356,-0.20634 -0.166217,-0.23172 -0.124793,-0.0281 -0.134714,-0.0198 -0.042,0.0345 0.06703,0.0394 0.102423,0.0832 0.07859,0.0969 -0.08308,0.0482 -0.919151,-0.55204 -0.944948,-0.67815 -0.0143,-0.07 -0.06628,-0.10417 -0.115861,-0.0753 -0.0494,0.0287 -0.101026,-0.0197 -0.114764,-0.10574 -0.01788,-0.11299 -0.05555,-0.11986 -0.132818,-0.0245 -0.0825,0.10182 -0.114789,0.0896 -0.137226,-0.052 -0.02162,-0.13693 -0.04832,-0.14988 -0.102232,-0.0497 -0.05439,0.10102 -0.08726,0.0832 -0.129309,-0.0703 -0.03102,-0.11299 -0.143355,-0.24831 -0.249661,-0.30055 -0.416676,-0.20486 -2.946737,-2.00933 -4.129245,-2.94503 -1.238643,-0.98011 -2.016226,-1.65898 -3.943802,-3.44318 -0.551956,-0.51089 -1.043054,-0.90609 -1.091363,-0.87819 -0.04832,0.0279 -0.08657,0.01 -0.08508,-0.0408 0.0033,-0.10338 -0.687061,0.23587 -0.761566,0.37438 z m -1.004326,10.6387 c 0.09674,0.004 0.232281,-0.0265 0.301222,-0.0697 0.08225,-0.0526 0.05289,-0.07 -0.08785,-0.0534 -0.292972,0.0346 -0.42777,0.11241 -0.213436,0.1232 z m -0.789409,0.70293 c 0.954345,-0.19127 2.691205,-0.46074 3.381359,-0.52459 0.43775,-0.0406 0.802233,-0.0973 0.809942,-0.12595 0.02096,-0.0781 -1.458449,0.0452 -2.348135,0.19558 -0.427811,0.0721 -0.921204,0.14929 -1.096419,0.17107 -0.386954,0.0483 -0.651193,0.12319 -0.880255,0.24985 -0.110989,0.0624 -0.06404,0.0736 0.133525,0.0341 z m -1.181369,0.91131 c 1.200863,-0.35021 4.066034,-0.85474 4.732695,-0.83341 0.242568,0.008 0.449101,-0.0157 0.459014,-0.0532 0.02794,-0.10435 -1.320732,-0.0608 -2.192197,0.0706 -0.66277,0.10004 -2.162634,0.45387 -2.854086,0.67341 -0.390896,0.12418 -0.521643,0.25214 -0.145401,0.14261 z m 3.126426,-1.7814 c 0.01073,0.0177 0.08983,0.0224 0.175829,0.01 0.08608,-0.0137 0.134848,-0.0624 0.108743,-0.1075 -0.02628,-0.0455 -0.105366,-0.0494 -0.17583,-0.01 -0.07044,0.0406 -0.119429,0.089 -0.108742,0.1075 z m 0.473617,-0.0219 c 0.04474,0.0117 0.120061,-0.0274 0.167355,-0.0879 0.05239,-0.0667 0.02038,-0.0751 -0.08133,-0.0219 -0.0923,0.0482 -0.130923,0.0975 -0.08617,0.10946 z m -4.695613,2.71104 c 0.04474,0.0117 0.120044,-0.0274 0.167363,-0.0879 0.05239,-0.0667 0.02038,-0.0751 -0.08133,-0.0219 -0.0923,0.0481 -0.130931,0.0974 -0.08617,0.10946 z m 0.39077,-0.11182 c 0.04474,0.0117 0.120053,-0.0274 0.167373,-0.0879 0.05239,-0.0667 0.02054,-0.0751 -0.08133,-0.0219 -0.0923,0.0482 -0.130922,0.0974 -0.08617,0.10945 z m 0.515257,-0.1385 c 0.05613,0.0303 0.186134,0.006 0.288947,-0.0534 0.25169,-0.14576 1.526301,-0.47046 2.301448,-0.58622 1.030105,-0.1538 3.321715,-0.39582 3.780321,-0.39924 0.278785,-8.3e-4 0.355327,-0.0243 0.220655,-0.0645 -0.408294,-0.12143 -2.655528,0.0374 -3.815782,0.26986 -1.910353,0.38272 -3.00337,0.71093 -2.775589,0.83348 z m -1.932266,1.27018 c 0.02927,0.006 0.220513,-0.0551 0.424917,-0.13477 0.253146,-0.0986 0.315842,-0.14732 0.196546,-0.15243 -0.159638,-0.008 -0.745558,0.26378 -0.621463,0.2873 z m 0.981747,-0.30175 c 0.09398,-0.0257 0.248098,-0.11359 0.342262,-0.19578 0.09447,-0.0817 0.01746,-0.0605 -0.170865,0.0468 -0.188504,0.10731 -0.265662,0.17419 -0.171697,0.14851 z m 1.438714,-0.51712 c 0.483639,-0.1383 1.623851,-0.41581 2.533845,-0.61656 0.909986,-0.2008 1.660242,-0.38638 1.667219,-0.41241 0.03277,-0.12261 -2.048534,0.29457 -3.277514,0.65693 -0.214001,0.0631 -0.573778,0.14968 -0.799505,0.19264 -0.225735,0.0428 -0.543798,0.15732 -0.70687,0.25437 -0.209893,0.12457 -0.03925,0.10298 0.582825,-0.0749 z m -3.305091,1.81284 c 0.04474,0.0117 0.120062,-0.0274 0.167381,-0.0879 0.05231,-0.0667 0.02037,-0.0751 -0.08133,-0.0219 -0.0923,0.0482 -0.130922,0.0975 -0.08617,0.10946 z m 0.845278,-0.31807 c 0.20319,-0.0612 0.863881,-0.29203 1.46822,-0.51302 1.539383,-0.56284 4.068953,-1.22867 4.023496,-1.05908 -0.02237,0.0832 2.221263,-0.37874 2.388186,-0.49167 0.06753,-0.046 -0.270044,-0.0538 -0.750181,-0.0175 -0.480129,0.0358 -0.83084,0.038 -0.779346,0.004 0.125816,-0.0812 1.378372,-0.28522 1.930785,-0.3139 0.243665,-0.0117 0.449683,-0.0475 0.457717,-0.0775 0.02985,-0.11162 -1.823423,0.0654 -2.492006,0.23795 -0.939076,0.24247 -2.56261,0.77539 -2.826684,0.92785 -0.118281,0.0682 -0.320241,0.11673 -0.448976,0.1075 -0.128743,-0.01 -0.684026,0.18009 -1.233953,0.42046 -0.549951,0.24032 -1.152819,0.48261 -1.339734,0.5384 -0.186949,0.0557 -0.43592,0.15693 -0.553395,0.22451 -0.144228,0.0832 -0.09369,0.0869 0.155838,0.0119 z m -1.842043,1.35832 c 0.09398,-0.0257 0.248089,-0.11358 0.342246,-0.19578 0.09437,-0.0818 0.01746,-0.0608 -0.170849,0.0468 -0.188504,0.10731 -0.265662,0.17419 -0.171622,0.1487 z m 0.798207,-0.34495 c 1.734249,-0.63735 4.244467,-1.43193 5.582156,-1.76699 0.464935,-0.11653 1.319077,-0.3302 1.898119,-0.47497 0.579026,-0.14478 1.401175,-0.30967 1.826983,-0.3664 1.11686,-0.1489 0.977122,-0.21748 -0.195041,-0.0958 -1.066197,0.11063 -3.263776,0.57819 -4.690282,0.99781 -1.227741,0.36117 -3.911377,1.35027 -4.317583,1.59135 -0.210226,0.12496 -0.249902,0.1685 -0.104393,0.11495 z m 8.621119,-4.48852 c 0.05613,0.0303 0.147555,0.0281 0.202983,-0.004 0.06079,-0.0358 0.03077,-0.0635 -0.07501,-0.0689 -0.225204,-0.0117 -0.25476,0.006 -0.12812,0.0739 z m -9.485049,5.55531 c 0.679269,-0.3255 2.213196,-0.91164 3.077567,-1.176 0.452286,-0.13829 1.426249,-0.44767 2.164355,-0.68741 1.559233,-0.50648 3.09662,-0.92951 4.509296,-1.24079 0.550218,-0.12124 1.006671,-0.24378 1.014322,-0.27237 0.0237,-0.0884 -2.249696,0.33822 -3.699222,0.69415 -1.995086,0.48992 -5.850004,1.91523 -6.958781,2.5729 -0.406622,0.24167 -0.428544,0.26295 -0.107537,0.10966 z m -0.351361,0.87015 c 0.955817,-0.41869 1.875799,-0.77428 5.351123,-2.06857 1.0936,-0.40728 2.368219,-0.79686 4.063896,-1.24207 1.591068,-0.41774 1.945181,-0.52251 1.847249,-0.54656 -0.116169,-0.0287 -1.873861,0.34361 -2.688002,0.5691 -1.517794,0.4204 -1.969148,0.5587 -3.385276,1.03728 -0.785808,0.26557 -2.107381,0.77135 -2.936841,1.12394 -2.051279,0.87205 -2.06204,0.877 -2.742415,1.26354 -0.513152,0.29108 -0.441483,0.27214 0.490291,-0.13654 z m -0.25283,0.94226 c 1.841819,-0.87373 2.979778,-1.36775 4.368969,-1.89666 0.615883,-0.23452 1.412618,-0.5403 1.77049,-0.67956 0.93827,-0.36504 2.288392,-0.8069 3.658273,-1.19728 1.684401,-0.47996 1.748427,-0.65185 0.07992,-0.21452 -2.291202,0.60044 -3.927386,1.17007 -6.729553,2.34274 -1.66366,0.69625 -2.1059,0.91262 -3.55042,1.73711 l -1.027502,0.58632 z m 11.012474,-5.84728 c 0.260631,-0.0255 0.48106,-0.0731 0.489792,-0.10554 0.02545,-0.095 -0.604032,-0.0514 -0.792078,0.0551 -0.100959,0.0567 0.02395,0.0778 0.302286,0.0506 z m -12.662952,7.6055 c -0.0099,0.0287 0.286527,-0.12399 0.657746,-0.33952 2.773377,-1.60984 6.536542,-3.26916 9.97327,-4.39748 1.960708,-0.64373 2.123614,-0.71303 1.187998,-0.50548 -1.627044,0.36095 -4.154186,1.24329 -6.252593,2.18307 -1.917114,0.8586 -5.488332,2.82136 -5.56643,3.05939 z m 4.305948,-1.7922 c 1.314636,-0.57001 7.123451,-2.67571 8.08785,-2.93183 0.402771,-0.10691 0.739328,-0.22062 0.747902,-0.25254 0.01613,-0.0603 -0.08241,-0.0362 -1.716077,0.41776 -1.326695,0.36855 -4.044927,1.29704 -5.046641,1.72384 -1.320441,0.56261 -1.34425,0.57382 -1.879923,0.88431 -0.281563,0.16302 -0.368359,0.23445 -0.193103,0.15851 z m -4.141271,2.48818 c 0.07984,-0.0245 0.763646,-0.34831 1.519665,-0.71966 0.756011,-0.37138 1.820604,-0.83429 2.365741,-1.02871 0.54517,-0.1944 2.100927,-0.78251 3.457253,-1.30695 1.35635,-0.52443 3.014771,-1.1423 3.685425,-1.37305 1.349398,-0.46423 1.825202,-0.74266 0.609088,-0.3568 -0.423296,0.13436 -1.225279,0.38668 -1.782249,0.56058 -0.829261,0.25893 -6.152782,2.2506 -7.161373,2.67927 -0.349232,0.1483 -2.887975,1.60468 -2.693807,1.54489 z m -0.738181,0.54898 c 0.07135,-0.01 0.187348,-0.0753 0.258385,-0.14398 0.07052,-0.0697 0.01231,-0.0614 -0.1296,0.0176 -0.141608,0.0801 -0.199639,0.13654 -0.128286,0.12653 z m 13.608499,-7.29356 c 0.04474,0.0117 0.120119,-0.0273 0.167397,-0.0879 0.05231,-0.0667 0.02038,-0.0751 -0.08133,-0.0219 -0.0923,0.0481 -0.130939,0.0974 -0.08617,0.10946 z m -12.719511,7.4987 -0.56226,0.40631 0.81899,-0.45453 c 0.450581,-0.2498 1.283692,-0.66999 1.851656,-0.93331 1.729184,-0.80164 6.974741,-2.963 8.663333,-3.56965 0.451621,-0.16222 0.855872,-0.33404 0.898252,-0.38182 0.127096,-0.14321 -3.387813,1.08431 -5.119059,1.7879 -3.865663,1.57105 -5.37741,2.29683 -6.550937,3.14507 z m 12.528862,-6.88829 c 0.117175,-0.0137 0.270709,-0.0584 0.341148,-0.0992 0.08075,-0.0464 0.04923,-0.0645 -0.08509,-0.0487 -0.117176,0.0137 -0.270776,0.0584 -0.341215,0.0991 -0.08075,0.0464 -0.04923,0.0645 0.08518,0.0486 z M 12.6833,39.609873 c -0.271266,0.21863 0.08459,0.0444 1.179856,-0.57739 0.862717,-0.48943 2.148196,-1.14647 2.856822,-1.45967 1.201045,-0.53072 5.775507,-2.47329 6.761129,-2.87111 0.241204,-0.0972 0.42698,-0.19695 0.413001,-0.22118 -0.06462,-0.11181 -4.993201,1.83953 -7.319598,2.89814 -0.986071,0.44876 -3.388427,1.82626 -3.891293,2.23109 z m -0.16738,0.99167 c -0.192754,0.15419 0.611508,-0.2717 1.787197,-0.94635 1.358597,-0.7792 2.713625,-1.48673 3.717618,-1.94044 1.762149,-0.79633 5.203875,-2.29121 5.779175,-2.51014 0.205327,-0.0781 0.341888,-0.15223 0.303301,-0.16478 -0.174516,-0.0561 -5.365227,2.07198 -7.271671,2.98112 -1.049399,0.50051 -3.685392,2.07648 -4.315745,2.5803 z m 37.678451,-20.95569 c -0.21712,0.25092 -0.848928,1.13349 -1.404003,1.96139 -1.592415,2.37506 -1.843731,2.63793 -4.152751,4.34329 -2.358564,1.74195 -2.685766,2.08253 -4.660777,4.85138 -1.683004,2.35945 -1.957056,2.65684 -3.016934,3.27376 -0.874309,0.50824 -1.10935,0.55759 -0.948465,0.19711 0.178832,-0.40077 0.497876,-1.29323 0.587283,-1.6427 0.100427,-0.39258 0.431163,-0.92451 0.655319,-1.05393 0.0839,-0.0484 0.153975,-0.13457 0.155704,-0.19107 8.32e-4,-0.0566 0.09427,-0.19008 0.205577,-0.29635 0.288016,-0.27509 1.312708,-1.53491 1.259883,-1.54906 -0.0242,-0.006 -0.262776,0.23788 -0.530093,0.54303 -0.902135,1.02993 -1.150541,1.20452 -2.814184,1.97798 -2.006047,0.93268 -4.016136,2.09481 -4.818203,2.78525 -0.891956,0.76833 -1.677431,1.72314 -2.679345,3.25701 -0.977006,1.49565 -1.414855,1.94925 -2.706024,2.80332 -2.477285,1.63862 -3.595169,3.10299 -4.669782,6.11716 -1.038272,2.9123 -1.966828,4.34524 -4.120688,6.359 -1.021856,0.9554 -1.316558,1.39505 -1.865312,2.78271 -0.490757,1.24099 -0.829194,1.78868 -1.572589,2.54484 -0.628274,0.63908 -0.705091,0.76274 -0.971094,1.5628 l -0.214142,0.64405 0.340682,-0.28012 c 0.561686,-0.46195 1.527823,-1.49762 1.927567,-2.06632 0.206242,-0.29344 0.635667,-1.05796 0.954261,-1.69899 l 0.579275,-1.16548 0.642553,-0.36582 c 0.496944,-0.28344 0.574884,-0.34918 0.343809,-0.29176 -0.274909,0.0685 -0.270302,0.0608 0.05863,-0.0958 0.381598,-0.18165 1.256697,-1.07657 1.180936,-1.20779 -0.02511,-0.0433 0.02728,-0.10789 0.116128,-0.14398 0.287625,-0.11594 0.64316,-0.51261 0.571208,-0.63724 -0.04216,-0.0729 0.01647,-0.17127 0.147497,-0.24684 0.125525,-0.0726 0.250908,-0.27215 0.296448,-0.47238 0.04349,-0.19068 0.09595,-0.31725 0.116818,-0.28115 0.02087,0.0362 0.06312,-0.004 0.09388,-0.0858 0.03085,-0.0834 0.265013,-0.47935 0.52047,-0.8803 0.255425,-0.40088 0.590302,-0.9734 0.744128,-1.27227 0.511356,-0.99338 0.576896,-1.09609 0.77256,-1.21082 0.156603,-0.092 0.160245,-0.11553 0.01838,-0.12279 -0.156345,-0.008 -0.162383,-0.0176 -0.05439,-0.0942 0.0667,-0.0471 0.158698,-0.0985 0.204279,-0.11436 0.04557,-0.0157 0.116594,-0.13497 0.158117,-0.26399 0.04158,-0.12908 0.155746,-0.2972 0.253728,-0.37381 0.09803,-0.0765 0.372059,-0.3359 0.608938,-0.57623 0.236946,-0.24024 0.604049,-0.58038 0.815847,-0.75575 0.211822,-0.17538 0.59895,-0.52507 0.860371,-0.77718 0.261387,-0.25214 0.55954,-0.53424 0.66252,-0.62695 0.102988,-0.0926 0.307459,-0.34073 0.454482,-0.55094 0.146989,-0.21026 0.352408,-0.4057 0.456502,-0.43421 0.12955,-0.0355 0.263774,-0.27058 0.425616,-0.74581 0.129999,-0.38161 0.291758,-0.72583 0.359468,-0.76494 0.06769,-0.0393 0.129035,-0.0608 0.13568,-0.0492 0.08726,0.15126 0.27624,1.9677 0.245303,2.35826 -0.07169,0.90503 -0.552538,2.29693 -1.03986,3.00997 -0.575125,0.84151 -0.842858,1.08853 -2.359562,2.17683 -1.429583,1.02584 -2.275992,1.80504 -3.001515,2.76321 -1.179582,1.55784 -1.628017,2.76207 -1.609073,4.32089 0.01514,1.23583 -0.08716,1.39057 -1.524205,2.30712 -1.212672,0.77336 -1.037341,0.53931 -1.860389,2.48303 -0.45044,1.06371 -0.995801,1.98026 -1.524172,2.5616 -0.217494,0.2394 -0.316066,0.39532 -0.218974,0.34658 l 0.176728,-0.0882 -0.130349,0.16851 c -0.166441,0.21508 -0.239499,0.58519 -0.17252,0.87417 0.04773,0.20583 0.08183,0.20993 0.383328,0.0464 l 0.331144,-0.17909 -0.25589,0.24688 c -0.140777,0.13575 -0.473119,0.42601 -0.738656,0.64482 -0.265495,0.21893 -0.579349,0.53845 -0.697381,0.71016 -0.199997,0.29097 -0.23095,0.30867 -0.454873,0.26091 -0.367668,-0.0791 -0.689115,0.1587 -0.753757,0.55763 -0.126373,0.77969 -0.39211,1.5477 -0.666911,1.92753 -0.392659,0.54269 -1.1149233,0.9756 -1.4103483,0.84535 -0.118456,-0.0524 -0.22517,-0.0584 -0.237121,-0.0137 -0.04166,0.15555 0.48541,0.42513 0.8849883,0.45267 0.76283,0.0526 1.395595,-0.53045 2.143805,-1.97557 0.582468,-1.12503 1.004292,-1.74443 1.307011,-1.91918 0.142399,-0.0823 0.646495,-0.29209 1.120112,-0.46652 1.382854,-0.50903 1.525644,-0.60763 1.905712,-1.31597 l 0.333838,-0.62217 0.912888,-0.0669 c 0.781817,-0.0573 0.993198,-0.1132 1.472296,-0.38998 1.045299,-0.60368 1.695478,-1.97379 1.644849,-3.46626 -0.02686,-0.79321 -0.06462,-0.96189 -0.549886,-2.45909 -0.205103,-0.63287 -0.395976,-1.41909 -0.424143,-1.74717 -0.07668,-0.89275 0.31555,-2.18731 0.950618,-3.13792 0.670163,-1.00311 1.042938,-1.3615 3.066973,-2.94889 3.207841,-2.51578 3.777877,-3.27952 5.197672,-6.96388 0.871789,-2.26228 0.982345,-2.5108 1.382813,-3.10827 0.386821,-0.5771 0.459804,-0.63954 1.34776,-1.15297 1.024068,-0.59199 1.289813,-0.64586 2.756145,-0.55761 0.82166,0.0494 1.630828,-0.1842 2.288924,-0.66088 0.917271,-0.66449 1.454125,-1.40146 2.744445,-3.76765 1.539191,-2.8225 2.096195,-3.44551 5.401835,-6.0416 1.859853,-1.46061 1.999964,-1.59129 3.255548,-3.03646 2.270295,-2.61308 2.583866,-2.91626 3.830584,-3.70364 0.938494,-0.59278 1.116262,-0.67902 1.178026,-0.57202 0.196546,0.34042 -0.387577,1.09036 -1.759005,2.25826 -1.031453,0.87841 -2.008551,1.93848 -2.977066,3.22985 -0.887749,1.18366 -1.346555,1.62858 -2.510135,2.43415 -2.917053,2.01951 -3.743577,3.0042 -6.013507,7.16408 -1.295709,2.37453 -1.815672,2.89101 -4.085427,4.058 -3.798658,1.95312 -4.179641,2.30467 -5.683946,5.24385 -1.235649,2.41433 -1.812462,3.1192 -4.371788,5.34215 -3.500755,3.04066 -3.889621,3.48735 -4.400229,5.05501 -0.654212,2.00844 0.627126,4.6767 2.586852,5.38693 1.622387,0.58799 4.813562,0.10495 8.043217,-1.21743 0.920523,-0.37689 2.38787,-1.29454 3.934953,-2.46062 1.534177,-1.15642 1.888756,-1.53465 2.879276,-3.07146 1.010113,-1.56716 1.504637,-2.14452 2.491348,-2.90863 2.48423,-1.92372 2.870294,-2.25189 3.540623,-3.00959 0.738822,-0.83511 1.360306,-1.72548 2.225609,-3.18838 0.887898,-1.5011 2.136621,-3.05559 3.567543,-4.44106 1.317231,-1.27538 1.843199,-2.18286 2.081417,-3.5911 0.132602,-0.78379 0.245994,-1.10398 0.552139,-1.55902 0.55752,-0.82867 1.0177,-1.19766 2.82362,-2.26424 1.37961,-0.8148 1.69569,-1.0372 2.18552,-1.53802 1.06768,-1.09167 1.76285,-2.31408 2.60324,-4.57758 0.46645,-1.25634 0.82299,-1.84952 1.4756,-2.45496 1.57922,-1.46518 2.25546,-2.48873 2.67381,-4.0471 0.53792,-2.00374 0.50239,-3.52069 -0.10783,-4.6057 -0.38005,-0.67563 -0.58882,-0.88953 -0.98754,-1.01165 l -0.30352,-0.0928 0.012,0.27738 c 0.009,0.22173 -0.0413,0.29636 -0.25117,0.37213 -0.14449,0.052 -0.35664,0.0765 -0.47171,0.0541 -0.11503,-0.0224 -0.38049,0.006 -0.58987,0.0626 -0.20938,0.0568 -0.75462,0.12183 -1.21161,0.14439 -0.45701,0.0225 -1.04956,0.10533 -1.31683,0.18381 -0.26725,0.0785 -0.54158,0.13064 -0.60962,0.11574 -0.0681,-0.0157 -0.20441,0.0195 -0.30301,0.0765 -0.0986,0.0569 -0.23735,0.0879 -0.30828,0.0691 -0.0708,-0.0197 -0.29839,0.0482 -0.50545,0.14967 -0.26027,0.12732 -0.40109,0.14577 -0.45648,0.0594 -0.0542,-0.0843 -0.0703,-0.0598 -0.0496,0.0767 0.0292,0.19283 0.0203,0.19643 -0.21444,0.0871 -0.3124,-0.14575 -0.30957,-0.0771 0.0328,0.79598 0.55655,1.41911 1.57498,2.21059 2.7695,2.15235 l 0.43679,-0.0211 -0.16457,0.25996 c -0.0905,0.14301 -0.39031,0.46177 -0.66615,0.70844 -1.01202,0.90496 -1.71022,1.85769 -2.4947,3.40416 -0.64771,1.27685 -1.32002,2.26644 -1.68162,2.47522 -0.34647,0.20002 -1.04204,0.79355 -1.23342,1.05244 -0.0703,0.0952 -0.25637,0.30517 -0.41342,0.46692 -0.576475,0.59345 -1.434227,1.70834 -1.613275,2.09689 -0.07809,0.1693 -0.17672,0.29854 -0.219332,0.28709 -0.04266,-0.0118 -0.09734,0.11692 -0.1215,0.2854 -0.04142,0.28745 -0.242493,0.52442 -0.325081,0.38303 -0.07776,-0.13319 -0.959143,0.0888 -1.849386,0.46589 -0.804162,0.34061 -1.005382,0.46268 -1.540447,0.93411 -0.338471,0.29832 -0.739171,0.61461 -0.890418,0.70287 -0.151322,0.0881 -0.396717,0.30455 -0.545436,0.48073 -0.148769,0.17616 -0.409732,0.40288 -0.579965,0.50393 -0.170666,0.10025 -0.459821,0.39796 -0.643448,0.65998 -0.183655,0.26199 -0.397765,0.51362 -0.475763,0.55926 -0.07809,0.0455 -0.131712,0.14124 -0.119354,0.21225 0.0173,0.0998 -0.0153,0.12044 -0.143762,0.0898 -0.128578,-0.0303 -0.177835,0.004 -0.21821,0.15556 -0.02869,0.10711 -0.09896,0.19322 -0.156262,0.19147 -0.05721,-8.3e-4 -0.164652,0.0936 -0.238359,0.21207 -0.126473,0.20288 -0.132211,0.20171 -0.09915,-0.0198 0.03252,-0.21808 0.02603,-0.21356 -0.0915,0.0631 -0.333555,0.78332 -0.528596,1.29404 -0.968623,2.53633 -1.067437,3.01358 -2.104562,4.55073 -4.602214,6.82106 -2.884581,2.62203 -3.632318,3.41486 -4.444571,4.71257 -0.446182,0.71287 -1.04164,2.72713 -1.103363,3.73237 -0.02578,0.42036 -0.08175,0.78439 -0.124228,0.80894 -0.0425,0.0245 -0.233412,0.0298 -0.424186,0.0117 -0.702038,-0.0671 -1.221827,0.8016 -1.228347,2.05279 -8.32e-4,0.35128 -0.03401,0.67322 -0.07135,0.71543 -0.122091,0.1377 -0.505178,-0.14947 -0.847823,-0.63564 -0.311617,-0.44219 -0.328657,-0.50432 -0.238243,-0.87323 0.07169,-0.29204 0.283592,-0.59779 0.800803,-1.15506 0.882825,-0.95114 1.037357,-1.18884 1.018022,-1.56605 -0.03984,-0.77795 -1.149469,-0.84271 -2.369517,-0.13831 -0.760019,0.4388 -1.056817,0.82178 -1.799488,2.32211 -0.630969,1.27466 -1.499432,2.65601 -1.766956,2.81046 -0.195066,0.1126 -0.33413,-0.0235 -0.378663,-0.37076 -0.04599,-0.35707 0.531423,-2.91252 0.824553,-3.65005 0.258236,-0.6497 0.181785,-0.58618 3.113985,-2.58816 2.61615,-1.78623 5.360362,-4.09045 7.562871,-6.35033 1.708967,-1.75347 2.086898,-2.35816 4.181929,-6.69141 1.925895,-3.98345 2.270611,-4.62294 2.995553,-5.55704 0.849493,-1.09459 1.815594,-1.86692 4.439503,-3.54898 0.475771,-0.3049 0.751354,-0.58872 1.514301,-1.55943 l 0.932731,-1.18659 1.262178,-0.72949 c 1.851971,-1.07079 2.396521,-1.55118 3.390561,-2.99279 0.38232,-0.55447 0.58845,-1.0098 0.84029,-1.8561 0.37895,-1.27343 0.42151,-2.07492 0.20111,-3.78751 -0.15283,-1.18772 -0.24049,-1.518 -0.29235,-1.10171 -0.0163,0.13104 -0.0506,0.20199 -0.0762,0.15772 -0.0255,-0.0441 -0.34789,0.0938 -0.7163,0.30649 -0.36839,0.2127 -0.74846,0.37495 -0.84457,0.36067 -0.096,-0.0157 -0.28322,0.008 -0.41574,0.0494 -0.1325,0.0416 -0.54481,0.17027 -0.91623,0.28603 -0.371386,0.11574 -0.886925,0.3319 -1.145618,0.4803 -0.258626,0.1485 -0.539274,0.26697 -0.623533,0.26346 -0.26261,-0.01 -1.287917,0.69693 -1.701425,1.17476 z M 12.69343,41.401893 c -0.228821,0.18242 0.652133,-0.28653 2.133352,-1.13549 2.234244,-1.28133 4.1427,-2.27746 6.296901,-3.28933 0.369373,-0.17362 0.640466,-0.32507 0.60212,-0.33729 -0.09783,-0.03 -1.561088,0.59556 -3.241048,1.38573 -1.464894,0.6889 -5.02121,2.76183 -5.791608,3.37588 z m -0.696442,0.61336 c 0.04474,0.0117 0.120061,-0.0274 0.167372,-0.0878 0.05239,-0.0667 0.02038,-0.0751 -0.08133,-0.0219 -0.0923,0.0481 -0.130939,0.0975 -0.08617,0.10946 z m 10.095127,-5.48032 c 0.07235,-0.01 0.168437,-0.0657 0.213453,-0.12319 0.04499,-0.0576 -0.01455,-0.0489 -0.131571,0.0196 -0.117342,0.0677 -0.154191,0.11496 -0.08191,0.10476 z m -8.953036,5.54022 c -0.296332,0.21583 0.434731,-0.17538 1.696002,-0.90714 1.219366,-0.70748 3.344743,-1.90605 4.723148,-2.66336 2.618529,-1.43876 2.687628,-1.51043 0.24937,-0.25814 -1.789492,0.919 -5.963803,3.31557 -6.66852,3.82864 z m -0.876696,0.70341 c 0.07135,-0.01 0.187348,-0.0753 0.258377,-0.14398 0.07052,-0.0694 0.01239,-0.0614 -0.129592,0.0176 -0.141617,0.08 -0.199631,0.13654 -0.128294,0.12653 z m 4.472506,-0.88315 c 0.50605,-0.20787 1.104153,-0.43121 1.329123,-0.4962 0.447538,-0.12947 0.746872,-0.27646 0.627409,-0.30853 -0.174491,-0.0469 -1.813402,0.55845 -2.324043,0.85828 -0.541402,0.31776 -0.53381,0.31683 0.367477,-0.0536 z M 71.143543,10.913542 c 0.089,0.0823 0.21717,0.15185 0.28478,0.15498 0.083,0.004 0.11203,0.0698 0.0891,0.2034 -0.0187,0.10866 -0.072,0.19651 -0.11891,0.19518 -0.0468,-8.3e-4 -0.12115,0.11495 -0.16516,0.25872 -0.0441,0.14419 -0.13208,0.24815 -0.19626,0.23215 -0.1355,-0.0338 -1.38658,0.3444 -1.95407,0.59095 -0.58025,0.25209 -0.88962,0.56076 -1.12323,1.12065 -0.11517,0.27613 -0.2775,0.576611 -0.36067,0.667751 -0.0832,0.091 -0.19756,0.3155 -0.25416,0.4987 -0.0567,0.18322 -0.14851,0.33167 -0.20422,0.32999 -0.0557,-8.3e-4 -0.0807,0.0327 -0.0547,0.0777 0.0257,0.0444 0.22646,0.0661 0.44632,0.0484 0.33952,-0.0275 0.54381,-0.12633 1.35649,-0.65726 0.52623,-0.34372 1.08045,-0.726051 1.23162,-0.849591 0.25354,-0.20718 0.34419,-0.20908 1.16409,-0.0326 0.48909,0.10554 1.04784,0.17165 1.24171,0.14673 0.76819,-0.0987 1.41969,-0.71188 1.80146,-1.69549 l 0.18507,-0.47678 0.62801,-0.16929 c 0.77339,-0.20839 1.18006,-0.42985 1.08658,-0.59176 -0.15148,-0.26236 -1.74691,-0.46889 -1.80978,-0.23426 -0.0105,0.0406 0.10515,0.0619 0.25781,0.0471 0.15266,-0.0157 0.32542,0.0117 0.38385,0.0594 0.0585,0.0473 -0.0872,0.072 -0.32374,0.0547 -0.80025,-0.0582 -1.189,0.18675 -1.36056,0.85738 -0.0556,0.21769 -0.14091,0.41873 -0.1895,0.44675 -0.0486,0.028 -0.0633,0.0944 -0.0326,0.14752 0.0863,0.14949 -0.53343,0.34665 -0.9433,0.30012 l -0.35607,-0.0404 0.15311,-0.50515 c 0.0842,-0.27781 0.11666,-0.68897 0.0718,-0.91366 -0.0767,-0.38643 -0.0603,-0.42414 0.30369,-0.69813 0.21162,-0.15928 0.36198,-0.28483 0.33416,-0.27877 -0.0279,0.006 -0.32179,0.0482 -0.65317,0.0938 -0.74624,0.10261 -1.16771,0.38279 -0.91993,0.61127 z M 14.192595,43.686103 c 0.06354,0.0176 3.663819,-1.36605 3.87827,-1.48985 0.393332,-0.22711 -0.180121,-0.0644 -1.55357,0.44137 -1.36268,0.50156 -2.481902,1.00634 -2.3247,1.04848 z m 4.684644,-2.56962 c 0.04474,0.0117 0.120053,-0.0275 0.167372,-0.0879 0.05239,-0.0665 0.02038,-0.0751 -0.08133,-0.0219 -0.0923,0.0482 -0.13093,0.0975 -0.08618,0.10947 z m -0.472636,0.95587 c 0.04474,0.0117 0.120061,-0.0274 0.167381,-0.0879 0.05231,-0.0667 0.02037,-0.0751 -0.08133,-0.0219 -0.0923,0.0481 -0.130939,0.0975 -0.08617,0.10945 z m -4.824132,2.83755 c 0.256547,-0.0979 0.893536,-0.36977 1.415554,-0.60424 0.522051,-0.2344 1.442939,-0.63568 2.046431,-0.89166 1.253138,-0.53162 1.494483,-0.66186 0.998038,-0.53875 -0.759221,0.18833 -3.267286,1.24429 -4.075007,1.7157 -0.732684,0.42822 -0.786482,0.47222 -0.385066,0.31888 z m -2.097966,2.00611 c -0.553686,0.38512 -1.205636,0.88801 -1.448869,1.11733 -0.2714083,0.25584 -0.3197343,0.32451 -0.1251433,0.17754 1.2925163,-0.97594 5.4524893,-3.24661 7.9198293,-4.32306 0.275026,-0.12005 0.464702,-0.22908 0.421707,-0.24191 -0.138431,-0.0424 -2.712709,1.01922 -3.855283,1.58987 -1.662155,0.8301 -1.823665,0.92335 -2.912042,1.68047 z m -1.299676,2.04497 c -0.3056133,0.27246 -0.5641063,0.53453 -0.5745013,0.58225 -0.01048,0.0477 0.100335,-0.0176 0.246326,-0.14379 0.6893483,-0.60249 2.5097113,-1.72551 4.2807673,-2.64094 1.036717,-0.53585 2.300799,-1.22991 2.80902,-1.54251 l 0.924082,-0.56825 -1.790109,0.84275 c -2.174284,1.02358 -5.047855,2.7157 -5.895136,3.47143 z m 0.294253,0.80102 c -0.457309,0.38684 -0.8404793,0.74353 -0.8514483,0.79266 -0.01098,0.0492 0.120277,-0.0225 0.2916,-0.15968 1.2097023,-0.96601 2.0880283,-1.5312 4.3520953,-2.80046 1.368924,-0.76737 2.425085,-1.39491 2.347669,-1.39341 -0.268365,0.004 -2.622529,1.21111 -3.963262,2.03286 -0.81479,0.49943 -1.673132,1.10191 -2.176787,1.52785 z M 77.523473,11.833642 c 0.0994,0.17361 0.12818,0.29022 0.0642,0.25887 -0.13089,-0.064 -0.89401,0.0615 -1.32379,0.218 -0.15523,0.0563 -0.21968,0.0954 -0.14343,0.0864 0.21125,-0.0247 0.0167,0.36477 -0.26592,0.5323 -0.29263,0.1742 -0.9125,1.19528 -0.96611,1.592931 -0.0492,0.36494 0.0463,0.73957 0.18962,0.74387 0.16799,0.004 0.19034,0.11789 0.0944,0.47596 -0.0705,0.2637 -0.20309,0.41572 -0.61916,0.71067 -0.60084,0.42601 -1.75596,0.9411 -2.60184,1.16052 -0.79741,0.20675 -0.91787,0.0989 -0.2262,-0.20247 0.43775,-0.19067 0.63258,-0.33499 0.94609,-0.70028 0.21716,-0.25302 0.41235,-0.53427 0.43383,-0.62496 0.0694,-0.2932 -0.0516,-0.59126 -0.26308,-0.64791 -0.11009,-0.0294 -0.19047,-0.0991 -0.17862,-0.15479 0.012,-0.0557 -0.0105,-0.0467 -0.0488,0.0195 -0.0385,0.0665 -0.16318,0.12398 -0.27688,0.12751 -0.11385,0.004 -1.04047,0.47722 -2.06201,1.0537 -1.65298,0.93276 -1.87171,1.07891 -2.00735,1.33802 -0.19177,0.36699 -0.38165,0.97785 -0.33115,1.06533 0.021,0.0364 0.47688,0.0942 1.01283,0.12771 1.19938,0.0753 1.34565,0.10671 2.81348,0.60549 1.38106,0.46919 2.11511,0.56008 3.31277,0.4102 0.70661,-0.0884 1.07166,-0.0612 1.90463,0.14163 1.21662,0.29642 1.90616,0.22704 2.31666,-0.23313 0.47728,-0.53501 0.43131,-1.5295 -0.13387,-2.89605 -0.53164,-1.28535 -0.56163,-1.39013 -0.38956,-1.36076 0.29374,0.05 0.75727,0.59714 1.57506,1.8585 0.78967,1.21804 0.84418,1.28112 1.41374,1.63622 1.40844,0.87815 2.24397,0.556 2.15219,-0.82979 -0.0248,-0.3746 -0.11622,-0.85404 -0.20319,-1.06541 -0.26598,-0.64658 0.0685,-0.38233 0.63616,0.50266 0.50375,0.78529 0.51871,0.82549 0.42302,1.13642 -0.0944,0.30684 -0.11547,0.3231 -0.43611,0.33798 -0.71357,0.033 -0.60733,0.56614 0.21277,1.06757 0.81825,0.50027 1.39128,0.21362 1.39815,-0.69947 0.003,-0.34808 -0.0767,-0.53468 -0.62168,-1.46261 -0.34361,-0.58497 -0.79555,-1.2461 -1.00438,-1.46912 -0.4556,-0.48658 -1.1621,-1.0352 -1.26016,-0.97858 -0.0387,0.0224 -0.095,0.24693 -0.12474,0.49894 -0.0299,0.25204 -0.0814,0.49408 -0.11456,0.53791 -0.033,0.0437 -0.10695,0.29035 -0.16398,0.54783 -0.14254,0.64338 -0.32991,0.58007 -0.83032,-0.28055 -0.28488,-0.48951 -0.54364,-0.79804 -1.0201,-1.21513 -2.34467,-2.052271 -3.90365,-1.60341 -3.48236,1.00264 0.0232,0.1432 -0.0215,0.29735 -0.0993,0.34225 -0.12954,0.0747 -1.44788,-0.26144 -1.52084,-0.3878 -0.0173,-0.03 0.0816,-0.3243 0.22011,-0.65389 0.13836,-0.3296 0.25488,-0.81544 0.25886,-1.07968 0.004,-0.26424 0.0257,-0.69485 0.0483,-0.956961 l 0.0413,-0.47652 0.42686,0.055 c 0.6585,0.0848 1.30413,-0.39882 1.56734,-1.17398 0.092,-0.27071 -0.16523,-0.7356 -0.5396,-0.97555 -0.34993,-0.22426 -0.43868,-0.0791 -0.20326,0.33264 z M 9.3460917,50.831043 c 0.04474,0.0117 0.12012,-0.0273 0.167381,-0.0879 0.05231,-0.0667 0.02037,-0.0751 -0.08133,-0.0219 -0.0923,0.0483 -0.130922,0.0975 -0.08617,0.10947 z m 2.0664813,-0.80356 c -0.836886,0.61702 -2.0878873,1.66384 -2.0125173,1.68405 0.02861,0.008 0.41661,-0.27871 0.8624093,-0.63626 0.556613,-0.44658 1.723296,-1.19972 3.724719,-2.4048 1.629348,-0.98111 2.637989,-1.62459 2.287618,-1.45978 -1.086265,0.51109 -4.113494,2.26491 -4.861888,2.81737 z m -0.138199,1.04222 c -0.590992,0.44034 -1.253811,0.97802 -1.4729523,1.1949 -0.219141,0.21685 -0.275184,0.29722 -0.12461,0.17851 1.4797473,-1.16609 5.0927793,-3.57905 6.2438103,-4.16995 l 0.482948,-0.24792 -0.423004,0.15458 c -0.639576,0.23367 -3.491458,1.98488 -4.706192,2.88989 z m 0.02719,0.8357 c -0.620506,0.49762 -1.164686,0.97467 -1.209236,1.06017 -0.06345,0.12183 -0.0494,0.12497 0.06503,0.0137 0.572521,-0.55547 3.330596,-2.52237 4.999279,-3.56525 0.414082,-0.25874 -0.03002,-0.008 -0.987044,0.5578 -1.299434,0.7682 -2.025374,1.25743 -2.868048,1.93317 z m 1.659893,-0.37822 c -0.91125,0.64496 -2.624283,2.0895 -2.432203,2.05101 0.06911,-0.0137 0.385922,-0.25683 0.703993,-0.54011 0.550534,-0.49023 1.978121,-1.53631 4.027238,-2.95093 l 0.935958,-0.64625 -1.213404,0.75721 c -0.667401,0.41641 -1.577096,1.01451 -2.02154,1.32914 z M 79.326333,13.318892 c 0.0931,0.0942 0.1011,0.16929 0.0232,0.21426 -0.24179,0.13948 0.23699,0.730341 0.99128,1.223091 0.7564,0.49411 0.96789,0.54497 1.49523,0.35952 0.44017,-0.15479 0.51586,-0.44411 0.23977,-0.91655 -0.50238,-0.859691 -2.04365,-1.513721 -2.69044,-1.141651 -0.16024,0.0922 -0.17251,0.14635 -0.059,0.26133 z M 15.088036,50.823763 c 0.07235,-0.01 0.168436,-0.0657 0.213435,-0.1232 0.04499,-0.0576 -0.01455,-0.0488 -0.13157,0.0197 -0.117351,0.0677 -0.154192,0.11496 -0.08192,0.10477 z m -0.887674,0.63134 c 0.117442,-0.0406 0.290278,-0.14047 0.384193,-0.22181 0.09398,-0.0814 -0.0017,-0.0482 -0.213486,0.0739 -0.211298,0.12202 -0.288099,0.18852 -0.170707,0.14791 z m -0.719095,0.52899 c 0.117441,-0.0406 0.290277,-0.14046 0.384193,-0.22181 0.09398,-0.0814 -0.0017,-0.0482 -0.213486,0.0739 -0.211307,0.12201 -0.288099,0.18853 -0.170699,0.14792 z m -1.489594,1.11681 c -0.409158,0.38701 0.02753,0.10004 0.701615,-0.46071 l 0.615159,-0.5118 -0.529568,0.36431 c -0.291243,0.20044 -0.645514,0.47406 -0.787272,0.60806 z m -0.493517,0.47193 c 0.04474,0.0117 0.120053,-0.0275 0.167364,-0.0879 0.05239,-0.0667 0.02037,-0.0751 -0.08133,-0.0219 -0.0923,0.0482 -0.130939,0.0975 -0.08617,0.10946 z m 55.843917,-31.85043 c -0.76772,0.86547 -1.0678,1.5791 -0.83418,1.98374 0.30889,0.535 2.06814,0.65166 3.34024,0.22146 0.5109,-0.17263 0.56525,-0.21479 0.87434,-0.67408 0.39345,-0.58485 0.40354,-0.59205 0.60129,-0.42989 0.0853,0.0699 0.56051,0.24639 1.05595,0.39201 0.49541,0.14575 1.17645,0.38482 1.51341,0.53156 0.76643,0.33374 1.53897,0.5023 2.1536,0.46988 0.261,-0.0137 0.8591,8.3e-4 1.3292,0.0346 1.22502,0.0854 2.35265,-0.35067 2.8572,-1.10461 0.45648,-0.68219 0.31189,-1.70233 -0.30131,-2.12557 -0.50904,-0.35134 -1.44145,-0.10298 -1.61305,0.42971 -0.0926,0.2872 -0.15151,0.27383 -0.86551,-0.19597 -0.65904,-0.4336 -1.06361,-0.43383 -1.81422,-7.1e-4 -0.37461,0.21599 -0.72745,0.34919 -0.98137,0.37046 -0.48234,0.0404 -1.72418,-0.31787 -3.19222,-0.92094 -0.60193,-0.24724 -1.12956,-0.42418 -1.17254,-0.39316 -0.0426,0.0316 -0.14434,0.0305 -0.22517,-7.2e-4 -0.19458,-0.0759 -1.22231,0.21786 -1.70956,0.48884 -0.21779,0.12065 -0.66331,0.5263 -1.01609,0.92414 z m -56.136,32.1332 c 0.04474,0.0119 0.120062,-0.0274 0.167364,-0.0879 0.05239,-0.0667 0.02037,-0.0751 -0.08133,-0.0219 -0.0923,0.0481 -0.130923,0.0975 -0.08617,0.10947 z m 53.89918,-26.95972 c -0.29886,0.24146 -0.63384,0.50414 -0.74442,0.58369 -0.32444,0.23343 -0.33168,0.24364 -0.21614,0.3058 0.067,0.0362 0.0422,0.085 -0.0635,0.12497 -0.0956,0.0362 -0.20183,0.11809 -0.23579,0.18281 -0.18415,0.34829 -1.10732,1.49114 -1.19038,1.47364 -0.0536,-0.0117 -0.0416,0.0119 0.0259,0.0508 0.0798,0.0462 0.0573,0.15223 -0.0642,0.30086 -0.49415,0.60521 -0.51023,2.01565 -0.0362,3.16956 0.52512,1.27813 1.50079,2.18185 2.71909,2.51858 0.84504,0.23358 1.66501,0.20886 2.9617,-0.0892 0.97176,-0.2234 3.54629,-1.00978 3.81701,-1.16589 0.073,-0.0422 0.42909,-0.10103 0.79133,-0.13065 0.768,-0.063 1.4491,0.14712 2.63966,0.81394 1.05191,0.58916 1.5005,0.94697 2.82257,2.25139 0.60047,0.59245 1.27803,1.18357 1.50569,1.31361 0.49405,0.28217 1.23857,0.42424 1.60824,0.30687 0.40503,-0.1287 0.85742,-0.0253 1.37912,0.31524 0.68644,0.44794 0.89902,0.87892 1.0841,2.1977 0.16628,1.18499 0.49556,2.08007 0.80768,2.19558 0.10036,0.0371 0.3015,-8.3e-4 0.44711,-0.0854 0.38784,-0.22394 0.66874,-1.48635 0.58971,-2.6503 -0.14014,-2.06339 -1.30534,-3.68533 -2.9219,-4.0671 l -0.52773,-0.12458 0.37544,-0.40965 c 0.69537,-0.75875 1.05287,-0.84669 1.65499,-0.40699 0.21483,0.15693 0.41308,0.27226 0.44053,0.2564 0.0274,-0.0157 0.21999,-0.28626 0.42785,-0.60088 0.66302,-1.00362 0.80924,-2.24054 0.48948,-4.14058 -0.11307,-0.67171 -0.20437,-0.90698 -0.66784,-1.72035 -0.50399,-0.88429 -0.56619,-0.95882 -1.0146,-1.21305 -0.51163,-0.2901 -0.8874,-0.29356 -1.17921,-0.01 -0.38002,0.36811 -0.21002,0.89568 0.54561,1.69338 0.14959,0.15791 0.15955,0.20868 0.0447,0.22688 -0.19496,0.0309 -0.17906,0.71395 0.0327,1.4058 0.0895,0.29262 0.13671,0.58478 0.10469,0.64924 -0.10784,0.21732 -0.46659,0.35798 -1.1627,0.45592 -0.52841,0.0743 -0.84947,0.18557 -1.35435,0.46966 -0.64342,0.3611 -0.66564,0.38588 -0.80149,0.8506 l -0.1397,0.47833 -0.0167,-0.444 c -0.0351,-0.93497 -0.91281,-1.90103 -1.77623,-1.95526 -0.21388,-0.0137 -0.72504,0.0293 -1.13595,0.0952 -1.29788,0.20757 -4.55283,0.1481 -4.68779,-0.0857 -0.0491,-0.0849 0.0909,-0.21672 0.92197,-0.86769 0.77994,-0.61091 0.83435,-0.69887 0.75852,-1.22562 -0.0812,-0.56283 -0.21056,-0.76682 -0.63518,-1.00029 -0.83799,-0.46079 -2.06254,-0.47129 -3.58944,-0.0309 -1.66774,0.48113 -2.88071,0.5817 -2.96139,0.24551 -0.0153,-0.064 0.10873,-0.32302 0.2757,-0.57592 0.16698,-0.25288 0.37722,-0.62394 0.46728,-0.82448 0.09,-0.20055 0.21171,-0.34764 0.27033,-0.3269 0.0586,0.0209 0.33419,0.13202 0.61232,0.24688 0.67287,0.2782 1.17428,0.28661 3.17744,0.0531 2.35112,-0.27383 2.26067,-0.29094 2.72331,0.51458 0.20727,0.36128 0.47547,0.9585 0.59561,1.32736 0.57366,1.76125 1.21974,2.13745 2.38169,1.38699 0.49656,-0.3207 0.57801,-0.41178 0.63435,-0.71007 0.0831,-0.4404 -0.24946,-1.25791 -0.67874,-1.66789 -0.42204,-0.40307 -1.08931,-0.78374 -1.67586,-0.95608 -0.54832,-0.16105 -0.53599,-0.23192 0.0374,-0.21475 0.44836,0.0137 1.31215,0.37669 1.69363,0.71222 0.68332,0.60101 1.05938,1.73069 0.82957,2.49231 l -0.097,0.32163 0.73825,0.21663 c 0.40606,0.11927 1.02867,0.40719 1.38359,0.64006 0.74841,0.49106 0.90455,0.53284 1.35376,0.36236 0.27892,-0.10574 0.34713,-0.18655 0.43493,-0.51416 0.2605,-0.97213 -0.53383,-2.99034 -1.62546,-4.12991 -1.41056,-1.47246 -2.92365,-2.32507 -5.08042,-2.8627 -1.46137,-0.36434 -2.2102,-0.45224 -2.98996,-0.35112 -0.76454,0.0993 -3.099,0.70683 -3.61759,0.9417 -0.18897,0.0856 -0.77641,0.24885 -1.30539,0.36285 -1.35236,0.29144 -1.61734,0.40663 -2.41145,1.04811 z m 16.16369,-6.71772 c -0.17809,-0.096 -0.28329,0.0176 -0.13089,0.14005 0.10201,0.0826 0.0946,0.11791 -0.0284,0.13752 -0.19255,0.0303 -0.18045,0.52733 0.032,1.31557 0.22467,0.83337 0.27767,0.88873 1.88048,1.96426 0.28837,0.19343 0.49346,0.36965 0.45574,0.39142 -0.0377,0.0219 -0.47688,-0.1124 -0.97586,-0.29786 -0.99491,-0.37007 -1.18029,-0.39249 -1.53765,-0.18596 -0.28692,0.16576 -0.93471,1.10242 -1.07428,1.55334 -0.28664,0.92607 -0.0649,1.50735 0.65394,1.71392 0.64949,0.18675 2.00115,0.21683 2.55864,0.0571 0.38275,-0.10985 0.55464,-0.0912 0.99273,0.10671 1.20509,0.54428 1.77038,-0.33719 1.40751,-2.19466 -0.0921,-0.4715 -0.23416,-1.33688 -0.31567,-1.92308 -0.21353,-1.53573 -0.71927,-2.30388 -1.60027,-2.43066 l -0.32031,-0.0461 0.0396,0.23176 c 0.034,0.19828 0.0136,0.22339 -0.14225,0.174 -0.10007,-0.0318 -0.35319,-0.20068 -0.56249,-0.37541 -0.46328,-0.38677 -1.20828,-0.64482 -1.21498,-0.42083 -0.003,0.10554 -0.0378,0.13203 -0.11742,0.089 z m -24.45468,17.27296 c -0.27918,0.42324 -0.56611,0.80328 -0.6376,0.84456 -0.0715,0.0414 0.14007,0.0649 0.47019,0.0521 0.76385,-0.0293 1.11935,0.18637 1.55427,0.94184 0.48292,0.83875 0.51065,1.68801 0.11248,3.44102 -0.20221,0.89046 -0.36078,1.08408 -0.24515,0.29941 0.0393,-0.26729 0.0327,-0.49638 -0.015,-0.50909 -0.0473,-0.0117 -0.0414,-0.0488 0.0136,-0.0807 0.0547,-0.0316 0.0486,-0.14575 -0.0136,-0.25386 -0.0624,-0.10809 -0.0966,-0.25917 -0.076,-0.33596 0.095,-0.35438 -0.45092,-1.38754 -0.791,-1.49709 -0.29304,-0.0944 -1.00841,0.17694 -0.83559,0.31695 0.0688,0.0557 0.0471,0.094 -0.0634,0.11162 -0.0954,0.0157 -0.14355,0.069 -0.11055,0.12633 0.0316,0.0547 0.007,0.0981 -0.055,0.0962 -0.17859,-0.006 -0.43876,0.47586 -0.59519,1.10094 -0.0793,0.31681 -0.15764,1.21241 -0.17411,1.99022 -0.0179,0.84481 -0.12555,1.82361 -0.26736,2.43102 -0.32237,1.38068 -0.34504,2.15932 -0.0947,3.2487 0.1165,0.50681 0.18035,0.93965 0.1419,0.96186 -0.16807,0.0971 -0.69371,-0.51667 -1.20692,-1.40911 -0.457101,-0.79442 -0.548646,-1.02355 -0.592356,-1.47935 -0.05963,-0.62079 0.08597,-1.29988 0.467986,-2.18274 0.33954,-0.78478 0.34732,-0.85358 0.19613,-1.73371 -0.0946,-0.55051 -0.20348,-0.84961 -0.445266,-1.22277 l -0.320066,-0.49401 -0.594203,0.35342 c -0.327027,0.19401 -0.659576,0.45819 -0.739345,0.58647 -0.07967,0.12829 -0.422772,0.46464 -0.762348,0.74734 -0.339551,0.28275 -0.727112,0.63448 -0.861228,0.78175 -0.375452,0.41236 -0.974628,1.14811 -1.032451,1.26778 -0.02852,0.0589 -0.161334,0.20609 -0.295092,0.32686 -0.13375,0.12064 -0.223474,0.2537 -0.19939,0.29543 0.02412,0.0418 -0.02345,0.0867 -0.105441,0.0996 -0.08208,0.0137 -0.215249,0.17518 -0.2959,0.36048 -0.08765,0.20141 -0.217203,0.34803 -0.322187,0.36466 -0.127446,0.0203 -0.14185,0.0551 -0.05256,0.12751 0.0677,0.0547 0.09062,0.10672 0.05098,0.11555 -0.07144,0.0157 -0.419761,0.42025 -0.665714,0.77316 -0.07036,0.10102 -0.188695,0.20255 -0.262917,0.22571 -0.07418,0.0231 -0.104011,0.0999 -0.0662,0.17008 0.05821,0.10888 -0.445841,0.85238 -0.978844,1.44362 -0.374493,0.41541 -0.625551,0.99252 -0.716115,1.64614 -0.05564,0.40132 -0.225586,0.96957 -0.377756,1.26279 -0.274585,0.52916 -0.277878,0.53196 -0.444086,0.38023 -0.286619,-0.26161 -0.52349,-0.26224 -1.136387,-0.004 -0.745974,0.31565 -1.131988,0.60587 -1.782798,1.34118 -0.62538,0.70651 -0.845486,1.05378 -0.940507,1.48378 -0.06104,0.27672 -0.07851,0.29535 -0.114215,0.123 -0.03983,-0.19185 -0.04391,-0.18873 -0.07352,0.0545 -0.05447,0.45257 0.121774,1.32227 0.506666,2.50142 0.467479,1.43209 0.792502,2.73097 0.840495,3.35877 0.05106,0.66838 -0.243491,1.63972 -0.751079,2.47653 -0.488013,0.8045 -0.74886,1.57749 -0.718838,2.13016 0.01755,0.32781 0.627318,1.69869 1.314462,2.95655 0.124278,0.22721 0.06961,1.02132 -0.133742,1.94651 -0.238974,1.08743 -0.150382,1.99167 0.275766,2.81461 0.414872,0.80114 0.890526,1.28725 1.924607,1.96665 0.395295,0.25972 0.761857,0.54695 0.814599,0.63831 0.178316,0.30882 -0.139072,1.31249 -0.323626,1.0234 -0.02162,-0.0346 -0.32563,-0.15341 -0.674953,-0.26487 -0.349339,-0.11142 -0.803072,-0.3104 -1.008342,-0.44235 -0.205186,-0.13202 -0.7655,-0.35244 -1.245013,-0.49002 -0.994304,-0.28528 -1.938328,-0.2527 -3.009674,0.10397 -2.179748,0.72556 -3.110009,1.5605 -3.105784,2.78743 8.31e-4,0.4191 0.0637,0.5888 0.482183,1.31356 0.476943,0.82609 0.504936,0.91828 0.2589,0.85264 -0.07035,-0.0197 -0.360392,0.051 -0.644607,0.15517 -0.284215,0.10416 -0.814964,0.22673 -1.179431,0.27242 -0.364484,0.0456 -1.051952,0.20913 -1.527782,0.36315 -0.911665,0.2951 -2.409034,0.48183 -2.015378,0.25132 0.590785,-0.34629 0.372484,-0.45578 -1.285114,-0.6456 -0.502815,-0.0576 -1.281987,-0.21863 -1.731504,-0.35787 -0.449516,-0.13928 -1.268456,-0.38212 -1.819863,-0.5397 -0.551424,-0.15753 -1.02401,-0.32363 -1.050223,-0.36904 -0.0262,-0.0453 -0.102613,-0.31236 -0.169825,-0.59327 -0.231773,-0.96834 0.0484,-1.3268 1.886435,-2.41325 0.945978,-0.55996 1.047303,-0.64178 1.202592,-0.98259 0.319326,-0.70062 0.146091,-1.24077 -1.361515,-4.24498 -0.27525,-0.54825 -0.306287,-0.77673 -0.165626,-1.21601 0.171946,-0.537 0.547482,-0.85054 1.787306,-1.49224 1.740319,-0.9008 1.714048,-0.84885 1.450906,-2.8645 -0.118506,-0.90783 -0.10377,-1.02296 0.330969,-2.5841 0.25026,-0.89864 0.420668,-1.69339 0.378721,-1.76606 -0.08,-0.13869 -0.574834,-0.26074 -0.786391,-0.19402 -0.06803,0.0214 -0.328765,0.15029 -0.579366,0.28632 -1.016558,0.55185 -1.590452,2.18113 -1.360974,3.86415 0.07717,0.56581 0.06046,0.71429 -0.08529,0.75961 -0.416426,0.12947 -1.994196,1.10265 -2.23234,1.37691 -0.787313,0.90713 -0.691751,3.04319 0.270061,6.03697 l 0.239175,0.74447 -0.348142,0.14653 c -0.932772,0.39278 -2.057092,1.7767 -2.239841,2.7568 -0.09566,0.51316 0.02902,1.31255 0.269994,1.72983 0.07019,0.12142 0.373814,0.462 0.674704,0.75658 0.533984,0.52271 0.552621,0.55327 0.775995,1.27255 0.129999,0.4184 0.312116,0.82301 0.421674,0.93592 0.10604,0.10945 0.490424,0.27453 0.854209,0.3669 0.815896,0.20716 2.654379,0.32778 2.919551,0.19167 0.274925,-0.14145 0.612148,-0.0481 1.687985,0.46679 0.516096,0.24697 1.17524,0.49979 1.464794,0.56185 0.720467,0.15439 1.586868,0.0605 2.009041,-0.21752 0.29234,-0.19265 0.401341,-0.20375 0.82205,-0.0846 l 0.485036,0.13751 0.881669,-0.57866 c 0.798249,-0.52374 0.925961,-0.58088 1.349223,-0.60286 0.727711,-0.0378 1.206543,-0.27555 1.760453,-0.87426 0.675868,-0.73045 0.767005,-1.00029 0.487381,-1.4429 -0.28064,-0.44419 -0.984109,-0.74845 -1.258303,-0.54422 -0.162516,0.12104 -0.189385,0.1024 -0.306694,-0.207 -0.163938,-0.43205 -0.08706,-0.79071 0.20566,-0.95974 0.364825,-0.21064 1.580798,-0.066 2.887991,0.34359 1.375362,0.43091 3.334614,0.70773 4.419839,0.6245 0.957526,-0.0733 1.530398,-0.3062 2.025986,-0.8232 0.620207,-0.64695 0.74594,-1.0233 0.690205,-2.06603 -0.02744,-0.51403 -0.03859,-0.9776 -0.02453,-1.03013 0.01414,-0.0526 0.27377,0.33537 0.577146,0.86203 0.51677,0.89646 0.58913,0.98304 1.137784,1.35907 0.322345,0.22083 0.844512,0.52642 1.160404,0.67903 0.68786,0.33229 0.831472,0.52904 0.570651,0.78167 -0.597471,0.57878 -1.947743,0.84018 -2.190975,0.42412 -0.163331,-0.27991 -0.468104,-0.19538 -1.637731,0.45389 -1.540954,0.85529 -2.584104,1.29759 -3.545193,1.50299 l -0.869203,0.18576 0.307542,-0.44081 c 0.420726,-0.60306 0.597429,-1.19423 0.423329,-1.4164 -0.182558,-0.23303 -1.298661,-0.30645 -1.913979,-0.12595 -0.858092,0.25166 -1.802624,1.14403 -1.925696,1.81925 -0.079,0.43312 0.621912,1.6227 1.19905,2.03522 1.286952,0.91987 3.628118,0.79306 6.317431,-0.34219 0.827921,-0.34952 1.008442,-0.45959 1.565421,-0.95459 l 0.629529,-0.55953 0.931933,-0.12045 c 2.512297,-0.32447 3.63856,-0.97796 3.99791,-2.3203 0.24337,-0.90824 0.12168,-1.70971 -0.37397,-2.46354 -0.32156,-0.48905 -0.41704,-0.56438 -1.082952,-0.8546 -0.401657,-0.17497 -0.767646,-0.3119 -0.813335,-0.30411 -0.04574,0.008 -0.104551,0.164 -0.130955,0.34707 -0.07194,0.50014 -0.179215,0.19596 -0.248323,-0.70444 -0.03368,-0.43781 -0.0926,-0.85043 -0.13098,-0.91693 -0.09507,-0.16478 -1.12131,-0.61929 -1.675411,-0.74217 l -0.451846,-0.10024 0.07776,-0.6557 c 0.123014,-1.03713 0.10836,-1.43865 -0.07659,-2.09963 -0.191041,-0.68277 -0.760793,-1.78264 -1.143622,-2.20786 -0.34129,-0.379 -1.275027,-0.6113 -1.630977,-0.4058 -0.307867,0.17774 -0.439346,0.44754 -0.347402,0.71284 0.05655,0.16322 0.02345,0.16322 -0.237112,3.1e-4 -0.438947,-0.27458 -0.799439,-0.94483 -0.737924,-1.37205 0.0489,-0.33967 0.0568,-0.34669 0.735512,-0.64838 0.377348,-0.16773 0.924489,-0.43859 1.215915,-0.60167 0.469933,-0.26267 0.549602,-0.34823 0.704616,-0.75122 0.261754,-0.68041 0.227807,-1.07526 -0.160694,-1.86897 -0.286294,-0.58501 -0.452735,-0.80512 -1.055096,-1.38929 -1.030496,-1.00075 -1.331418,-1.63622 -1.428078,-3.01552 -0.08825,-1.25843 0.03676,-2.2982 0.442016,-3.6774 0.421283,-1.43382 0.758689,-2.0802 1.390131,-2.66298 1.714797,-1.58267 2.12946,-2.11217 2.211574,-2.82384 0.04882,-0.42389 -0.230808,-1.32821 -0.621147,-2.00809 -0.173359,-0.30166 -0.279982,-0.53926 -0.23732,-0.52778 0.184995,0.0494 1.168746,1.14267 1.606287,1.78488 0.761541,1.11776 0.798232,1.67724 0.243923,3.71871 l -0.323484,1.19137 -0.614885,0.13869 c -0.338213,0.0763 -0.75172,0.21767 -0.918926,0.31421 -0.725923,0.41911 -1.446889,2.17544 -1.404402,3.42123 0.05231,1.53262 1.377408,2.48057 2.817503,2.01557 1.21816,-0.39336 3.514054,-2.05337 5.072144,-3.66728 1.33725,-1.3852 2.2334,-2.8209 3.62162,-5.80204 0.22362,-0.48023 0.77076,-1.42444 1.21586,-2.09823 1.34915,-2.04236 2.46568,-3.88105 2.78208,-4.58152 0.86389,-1.91247 0.96936,-3.5602 0.38913,-6.07945 -0.17172,-0.74556 -0.28691,-1.01207 -0.90721,-2.09882 -0.80512,-1.41067 -0.7135,-1.33842 -2.10727,-1.66075 -0.99342,-0.22972 -1.49517,-0.12497 -2.57459,0.53744 -0.84706,0.51982 -0.90341,0.57307 -1.39045,1.31131 z m -12.24108,25.94598 c 0.08075,0.13987 0.202358,0.4866 0.270352,0.7705 0.169401,0.7077 -0.0033,1.22485 -0.622744,1.87236 -0.273429,0.28551 -0.670529,0.74389 -0.882443,1.01867 -0.211963,0.27472 -0.406779,0.49384 -0.432992,0.48681 -0.158349,-0.0426 0.27639,-1.12328 0.626685,-1.55823 0.795855,-0.98816 0.980466,-1.41508 0.935401,-2.16301 -0.03601,-0.59749 -0.02295,-0.65006 0.105749,-0.4271 z m -0.02262,9.83877 c 0.366297,0.16264 0.961938,0.3354 1.323615,0.38399 0.763063,0.10241 0.7735,0.13105 0.398289,1.08969 -0.183015,0.46765 -0.215149,0.72656 -0.136952,1.10356 l 0.102207,0.49257 -0.45052,-0.89221 c -0.418198,-0.82816 -0.999684,-1.57056 -1.849769,-2.3615 -0.157958,-0.14713 -0.07967,-0.12301 0.613097,0.18381 z m -16.372037,10.48144 c 0.584631,0.31606 0.614078,0.34421 0.396152,0.37873 -0.145551,0.023 -0.953696,-0.3755 -1.030264,-0.50813 -0.09873,-0.17105 0.185943,-0.11241 0.634112,0.12928 z m -15.36679,-20.40058 c -0.446348,0.62467 -1.036259,1.47786 -1.310886,1.89599 -0.274651,0.4181 -0.722863,1.04288 -0.996042,1.38836 -0.504803,0.6384 -1.1962473,1.90064 -1.2531553,2.28766 -0.03376,0.22985 -0.05173,0.25679 0.3891,-0.587 0.06703,-0.1281 0.358994,-0.53164 0.6490473,-0.89675 0.29007,-0.36512 0.824612,-1.08688 1.187873,-1.60393 0.363277,-0.51707 0.836429,-1.07276 1.051461,-1.2349 0.215016,-0.16223 0.452943,-0.42785 0.528687,-0.59045 0.07584,-0.16264 0.177718,-0.31873 0.226576,-0.34695 0.0489,-0.028 0.06769,-0.0775 0.04183,-0.10947 -0.123213,-0.15241 -0.09606,-0.21597 0.0795,-0.18596 0.105948,0.0176 0.202899,-0.006 0.215647,-0.0537 0.01272,-0.0476 -0.02004,-0.0614 -0.07376,-0.0305 -0.05339,0.0309 -0.108036,-0.0157 -0.121758,-0.10043 -0.01356,-0.0862 0.02819,-0.18695 0.09269,-0.22436 0.06462,-0.0373 0.177178,-0.25446 0.249969,-0.48248 0.201053,-0.62961 -0.03834,-0.41072 -0.956972,0.87492 z m 74.186747,-42.1899 c -0.22559,-0.24353 0.0541,0.4796 0.46617,1.20499 0.51507,0.9068 0.49024,0.98118 -0.15055,0.45142 -0.45298,-0.37448 -0.59086,-0.37982 -0.82889,-0.0319 -0.22328,0.32622 -0.11368,1.0282 0.26528,1.69863 0.28349,0.50149 0.2981,0.51182 0.95771,0.67563 0.36843,0.0916 0.76268,0.24199 0.87609,0.33443 0.33974,0.27692 0.64957,0.91555 0.92289,1.90233 0.14202,0.51276 0.35761,1.10543 0.47909,1.31705 0.33954,0.59198 0.83781,1.22477 0.88902,1.12964 0.0665,-0.1236 -0.11809,-0.7593 -0.50867,-1.7531 -0.18812,-0.47835 -0.37563,-1.17122 -0.41734,-1.54152 -0.071,-0.63141 -0.12181,-0.75429 -0.82782,-2.00289 -0.41359,-0.73164 -0.76203,-1.4269 -0.77425,-1.54506 -0.0284,-0.27427 -1.14472,-2.189 -1.43993,-2.46981 -0.21521,-0.20467 -0.2164,-0.19558 -0.0318,0.24599 0.10545,0.25213 0.16078,0.4251 0.12297,0.3843 z m -0.33632,5.80046 c -0.16304,0.39151 -0.41897,0.94795 -0.56869,1.23653 l -0.27226,0.52467 0.38276,1.23284 c 0.45907,1.47864 0.99958,2.50369 1.47271,2.79296 0.64488,0.39426 1.38992,0.0934 1.45494,-0.5878 0.0176,-0.19205 -0.0902,-0.70173 -0.24135,-1.1326 -0.15106,-0.43085 -0.28885,-1.03131 -0.30619,-1.33435 -0.0603,-1.05245 0.0842,-1.64953 0.18892,-0.78104 0.0402,0.33393 0.25647,0.78773 1.10182,2.31253 0.87952,1.58643 1.08197,2.01601 1.23611,2.62313 0.13417,0.52853 0.25249,0.80084 0.43486,1.0011 0.30463,0.33447 0.28633,0.29178 0.50895,1.18692 0.18792,0.75602 0.28502,1.8398 0.26459,2.95599 -0.0177,0.94755 0.064,0.92642 0.12869,-0.0335 0.0534,-0.79094 -0.0728,-2.929 -0.23845,-4.03848 -0.043,-0.28747 -0.2295,-1.05801 -0.41467,-1.71228 -0.18518,-0.65429 -0.35661,-1.39296 -0.38104,-1.64151 -0.0531,-0.5408 -0.0804,-0.60099 -0.20379,-0.44866 -0.14655,0.18086 -0.29394,1e-4 -1.00689,-1.23473 -0.4543,-0.78687 -0.73617,-1.38386 -0.894,-1.89351 -0.12692,-0.40939 -0.40442,-1.04551 -0.61695,-1.41364 -0.34667,-0.60044 -0.41689,-0.67412 -0.68216,-0.71604 -0.19144,-0.0303 -0.42887,0.0303 -0.67353,0.17146 -0.31936,0.18439 -0.42365,0.32835 -0.67427,0.92996 z m -71.382621,41.41198 c -0.374438,0.37301 -0.914735,0.8127 -1.20458,0.98005 -0.655859,0.37868 -1.188654,0.87982 -1.299609,1.2224 -0.04674,0.14399 -0.115904,0.25368 -0.153826,0.24356 -0.038,-0.01 -0.122448,0.2175 -0.187888,0.50585 -0.109749,0.48405 -0.153443,0.54427 -0.568696,0.78402 -0.520613,0.30056 -0.660408,0.54399 -0.502932,0.87528 0.181792,0.38248 -0.09477,0.30782 -0.502791,-0.13575 -0.308947,-0.33586 -0.387494,-0.37918 -0.43819,-0.24209 -0.117732,0.3181 0.144262,0.81372 0.692484,1.30981 0.675385,0.61126 0.887191,0.6529 0.879839,0.17302 -0.01514,-0.98994 -0.01414,-0.99419 0.349822,-1.25387 0.309613,-0.22105 0.428768,-0.24063 1.048842,-0.17203 0.771604,0.0854 1.15998,8.3e-4 1.549495,-0.33216 0.337905,-0.2899 0.359569,-0.649 0.06936,-1.15158 l -0.234767,-0.40662 0.375154,0.01 c 0.774714,0.0176 1.532505,-0.67475 1.911533,-1.74884 0.166615,-0.4721 0.212879,-1.02873 0.101524,-1.22161 -0.107404,-0.18596 -0.801351,-0.34855 -0.99956,-0.23412 -0.113458,0.0655 -0.511705,0.42359 -0.885153,0.79566 z m 52.908821,-30.4842 c -0.57999,0.5579 -1.05404,1.06936 -1.23809,1.33575 -0.10755,0.15556 -0.21508,0.29411 -0.23907,0.30796 -0.108,0.0624 -0.8315,1.41197 -0.92831,1.73159 -0.34133,1.1271 0.37323,2.82383 1.62018,3.84713 0.85347,0.70038 1.97646,1.23244 3.83912,1.81894 2.00608,0.63169 2.47795,0.8635 3.49959,1.71924 0.74604,0.62491 1.57875,1.70691 1.20277,1.56284 -0.12056,-0.0462 -0.24531,-0.0355 -0.2771,0.0235 -0.0827,0.1536 -0.1406,1.0687 -0.0827,1.30551 0.0268,0.10986 0.11277,0.53882 0.1911,0.95353 0.18488,0.97949 0.21834,1.02944 0.55898,0.83491 0.47934,-0.2733 0.58628,-0.21569 0.64712,0.35 0.0684,0.63604 -0.0857,1.07125 -0.59094,1.66966 -0.56957,0.67449 -1.05162,1.50282 -1.55151,2.66595 -0.36294,0.84453 -0.44845,0.97705 -0.54928,0.85148 -0.15822,-0.19701 -0.24049,-0.97287 -0.17062,-1.60884 0.0309,-0.28151 0.24374,-0.9924 0.47293,-1.5797 0.45342,-1.16202 0.5614,-1.97447 0.3872,-2.91358 -0.0879,-0.47339 -0.1998,-0.72521 -0.59175,-1.33074 -0.82002,-1.26682 -1.31858,-1.5294 -4.82848,-2.54306 -1.22145,-0.35275 -2.43926,-0.75293 -2.70624,-0.88931 -1.12585,-0.57507 -2.2406,-0.41384 -2.67114,0.38637 -0.17383,0.32311 -0.18581,0.54202 -0.0614,1.12072 0.0956,0.44415 0.5304,0.84644 2.07865,1.92308 1.79088,1.24532 2.23002,1.662 2.80958,2.66584 0.25469,0.44115 0.4798,0.79241 0.50021,0.78064 0.0205,-0.0117 0.10905,-0.10967 0.19682,-0.21746 0.0878,-0.1079 0.32452,-0.36983 0.52593,-0.58236 0.35398,-0.37363 0.3754,-0.38358 0.64152,-0.30216 0.17631,0.054 0.34375,0.2028 0.46557,0.41379 0.25357,0.43922 0.11636,0.89538 -0.38387,1.27629 -0.5659,0.43086 -0.98129,0.86303 -1.01404,1.05482 -0.0163,0.0956 -0.0743,0.1996 -0.12908,0.2312 -0.0547,0.0316 -0.2504,0.56717 -0.43478,1.19016 -0.37773,1.27616 -0.36659,1.71262 0.0636,2.49599 0.54755,0.99674 1.82265,1.5588 3.08723,1.36083 0.80518,-0.12614 2.35205,-0.93381 3.22371,-1.68337 1.32158,-1.13642 2.6276,-2.90218 3.27897,-4.4332 0.75502,-1.77468 0.83514,-3.7674 0.22329,-5.55243 -0.18306,-0.53397 -0.42898,-1.10741 -0.5465,-1.27433 -0.11758,-0.16695 -0.20228,-0.31012 -0.18822,-0.31821 0.0136,-0.008 0.24611,-8.3e-4 0.51576,0.0157 0.46177,0.028 0.54532,-8.3e-4 1.43435,-0.51816 0.99055,-0.57533 1.42475,-0.9915 2.09787,-2.01167 1.10867,-1.68036 1.22356,-4.38088 0.23366,-5.4926 -0.55148,-0.61936 -1.16186,-0.87846 -1.95659,-0.83058 -0.92649,0.0557 -1.258,0.18656 -1.70262,0.67102 -0.53222,0.58002 -0.67838,1.11876 -0.42335,1.5605 0.11084,0.19204 0.32608,0.442 0.47829,0.55559 0.34285,0.25588 1.15119,0.45397 1.73916,0.42624 0.53904,-0.0255 0.55092,-0.0332 -1.00307,0.65683 -2.23568,0.99266 -2.64571,0.99217 -4.16189,-0.004 -1.41161,-0.92846 -1.84023,-1.00133 -3.99735,-0.67964 -0.93111,0.13888 -1.7047,0.2321 -1.71906,0.2072 -0.0661,-0.11436 1.5538,-0.78224 2.54804,-1.05058 1.21878,-0.32893 1.54306,-0.3642 2.40823,-0.26189 l 0.58687,0.0694 0.5119,0.88665 c 0.58029,1.0051 0.96421,1.3554 1.36141,1.24219 0.30294,-0.0863 0.38339,-0.32724 0.52483,-1.56992 0.12668,-1.11386 0.0488,-2.47748 -0.18525,-3.2386 -0.20418,-0.66416 -0.78505,-1.50366 -1.31358,-1.89842 -0.59883,-0.44726 -1.86821,-1.03216 -2.67924,-1.23452 -1.05679,-0.2637 -1.88752,-0.20659 -2.88445,0.19826 -0.84776,0.34437 -2.28236,1.20841 -2.74499,1.65339 z m 4.52422,1.47641 c 0.66165,0.16359 0.91417,0.26654 0.80896,0.32977 -0.15719,0.0942 -1.47882,-0.17322 -1.78022,-0.36033 -0.34594,-0.21488 0.0262,-0.20317 0.97126,0.0305 z m -51.714982,26.36619 c -0.04349,0.13476 -0.151305,0.25643 -0.239715,0.27053 -0.186259,0.0294 -0.259408,0.4921 -0.238634,1.50873 0.02661,1.30123 -0.16837,1.69235 -1.081209,2.16888 -1.196005,0.62436 -1.828887,1.02602 -1.966944,1.24823 -0.07684,0.12379 -0.210301,0.28153 -0.296457,0.35021 -0.364916,0.29134 -0.418888,0.36637 -0.477908,0.6654 -0.102597,0.51953 0.02262,2.00007 0.237129,2.80195 0.150997,0.56466 0.364416,1.04145 0.855539,1.91131 0.62459,1.10577 0.678055,1.17487 1.172621,1.50652 0.28508,0.19107 0.718862,0.38755 0.963975,0.43646 0.811937,0.16204 2.134,-0.3445 2.338005,-0.89569 0.06187,-0.16714 -0.0058,-0.31216 -0.466781,-0.99667 -0.645763,-0.95965 -0.620639,-1.01095 0.414231,-0.84407 1.415496,0.22833 2.122159,-0.31303 2.052718,-1.57248 -0.0163,-0.295 -0.102123,-0.49453 -0.383752,-0.89171 -0.512703,-0.7232 -0.931467,-2.28161 -1.006654,-3.74627 -0.03127,-0.60935 -0.122057,-1.27848 -0.201718,-1.48694 -0.137866,-0.36053 -0.132644,-0.37846 0.104676,-0.36695 0.209286,0.01 0.291451,-0.0367 0.509984,-0.28927 0.339128,-0.3933 0.441093,-0.72254 0.387362,-1.25057 -0.05447,-0.53565 0.09319,-0.31658 0.331501,0.49161 0.244489,0.82935 0.512229,1.26106 0.845352,1.36309 0.235915,0.0723 0.305006,0.0502 0.480137,-0.15282 0.480437,-0.55694 0.532155,-2.43284 0.08825,-3.20168 -0.252547,-0.43743 -0.814616,-0.56695 -1.838209,-0.42358 -0.721657,0.10103 -0.863898,0.15557 -1.647095,0.63097 -0.680025,0.41284 -0.873527,0.57101 -0.93614,0.76532 z m -0.691968,5.6638 c 0.344608,-0.0452 0.682629,-0.11416 0.751146,-0.15399 0.103246,-0.0597 0.174824,0.0388 0.417599,0.57494 0.33699,0.74403 0.509668,1.61269 0.392642,1.97601 -0.07834,0.24334 -0.0842,0.24428 -0.205918,0.0335 -0.164877,-0.28559 -0.60725,-0.30622 -1.052517,-0.0492 -0.815015,0.47053 -1.075205,1.29321 -0.725017,2.29234 0.122315,0.34889 0.184462,0.68116 0.138149,0.73832 -0.100011,0.12359 -0.850749,0.33643 -0.966528,0.27417 -0.04441,-0.0239 0.04117,-0.0918 0.190101,-0.15105 l 0.270942,-0.10749 -0.291483,-0.19285 c -0.468702,-0.31005 -0.640466,-0.8963 -0.628923,-2.14672 0.01356,-1.46055 0.06753,-1.82216 0.345556,-2.31105 0.29397,-0.5169 0.567998,-0.67299 1.364135,-0.77721 z m 14.082648,-10.98789 c -0.459313,0.41301 -1.420361,1.55355 -1.611941,1.91282 -0.04516,0.0848 -0.139264,0.23204 -0.209153,0.32783 -0.06994,0.0958 -0.350687,0.50647 -0.623858,0.91273 -0.273188,0.40627 -0.591126,0.83014 -0.706547,0.94195 -0.389823,0.37758 -0.836828,1.09149 -0.955234,1.52547 -0.17435,0.6391 -0.118032,1.05447 0.243524,1.79567 0.306012,0.62756 0.359943,0.68836 0.928215,1.0491 0.482391,0.30622 0.704018,0.37962 1.105916,0.3663 1.246543,-0.0412 2.683944,-1.70986 2.198027,-2.55148 -0.09906,-0.17165 -0.07975,-0.23725 0.10056,-0.34339 0.300814,-0.17715 0.708875,-0.77065 0.790898,-1.15059 0.03667,-0.17026 -0.0042,-0.60136 -0.09151,-0.95779 -0.191082,-0.78176 -0.09526,-1.0293 0.763437,-1.97176 0.326562,-0.35832 0.669814,-0.80749 0.762847,-0.99803 0.221328,-0.45329 0.275758,-1.20929 0.118207,-1.64145 -0.111429,-0.30579 -0.162856,-0.34669 -0.455163,-0.36329 -0.297663,-0.0176 -0.882019,0.18852 -1.598345,0.5618 -0.144619,0.0747 -0.486299,0.33812 -0.759836,0.58413 z m -22.595457,14.98933 c 0.49321,0.70885 0.878817,0.98741 1.719063,1.24201 0.632474,0.19165 1.119006,0.13222 1.712526,-0.20933 0.810508,-0.46637 0.440344,-1.49353 -0.689855,-1.91414 -0.410206,-0.15262 -1.265122,-0.25768 -1.411155,-0.17341 -0.03094,0.0177 0.07352,0.2009 0.232829,0.40629 0.158557,0.20582 0.341631,0.44396 0.406738,0.52919 0.189444,0.24795 -0.07052,0.36968 -0.7003,0.32782 -0.482266,-0.0319 -0.670953,-0.10868 -1.10343,-0.44764 -0.286893,-0.22496 -0.537153,-0.40066 -0.556097,-0.39039 -0.01896,0.01 0.157135,0.29311 0.390338,0.62912 z m 26.732744,-14.53402 c -1.050771,1.41637 -1.570169,2.7699 -1.657955,4.32042 -0.03485,0.61683 -0.126897,1.26347 -0.204363,1.43696 -0.190674,0.42701 -0.978836,1.64012 -1.1176,1.72022 -0.227632,0.13142 -1.335228,1.91051 -1.475082,2.36935 -0.08954,0.29382 -0.102356,0.634 -0.03351,0.89197 0.127138,0.47659 0.514366,0.99261 0.778789,1.03782 0.09872,0.0176 0.207398,0.0791 0.241461,0.13791 0.09161,0.1587 -0.287184,0.60215 -0.606751,0.71026 -0.16595,0.056 -0.61486,0.42012 -1.112511,0.90203 -0.529444,0.51267 -1.050164,0.93101 -1.424901,1.14471 -0.476736,0.27179 -0.669331,0.44742 -0.999327,0.91033 -0.445916,0.62563 -0.690787,1.47359 -0.553162,1.91555 0.291924,0.93753 0.294145,0.98089 0.06129,1.19347 -0.125192,0.11416 -0.268713,0.19676 -0.318927,0.1834 -0.05023,-0.0137 -0.246692,-0.29356 -0.436551,-0.62239 -0.303268,-0.52531 -0.381108,-0.60359 -0.641048,-0.64487 -0.377216,-0.06 -0.596049,0.0689 -0.817801,0.4808 -0.168769,0.31365 -0.198874,0.33294 -0.663077,0.42479 -0.446731,0.0882 -0.503281,0.12084 -0.694172,0.39907 -0.408251,0.59389 0.08258,1.17561 1.385757,1.64223 0.904098,0.32374 1.804878,0.44481 2.786567,0.37453 0.620099,-0.0443 0.823364,-0.10672 1.369631,-0.4198 0.543707,-0.31219 0.671286,-0.42814 0.83746,-0.76541 0.293497,-0.59562 0.230984,-0.91509 -0.352399,-1.80067 -0.281272,-0.42702 -0.496362,-0.83577 -0.49731,-0.94842 -0.0017,-0.17322 0.06329,-0.17263 0.535315,0.006 0.674354,0.2544 1.137102,0.21966 1.744419,-0.13104 0.48437,-0.27965 1.042679,-0.8792 0.956964,-1.02768 -0.02603,-0.045 -0.135721,-0.13654 -0.243757,-0.20382 -0.181543,-0.11281 -0.176262,-0.12791 0.07085,-0.19825 0.147123,-0.0418 0.561977,-0.0628 0.921978,-0.0462 0.987219,0.0449 1.554868,-0.052 2.243068,-0.38248 0.73532,-0.35322 1.10876,-0.70389 1.45548,-1.36667 0.512679,-0.97993 0.431396,-2.10576 -0.303908,-4.20942 -0.391444,-1.11993 -0.417615,-1.43648 -0.152927,-1.84948 0.135995,-0.21222 0.143538,-0.39916 0.03401,-0.84535 -0.20833,-0.84877 -0.277696,-1.82161 -0.160295,-2.24789 0.05705,-0.20696 0.266351,-0.63426 0.465192,-0.94954 0.772378,-1.22458 0.917487,-2.99393 0.344458,-4.20014 -0.239657,-0.50452 -0.292914,-0.56537 -0.457492,-0.52314 -0.341372,0.0877 -0.809426,0.51084 -1.30741,1.18208 z m -1.292599,10.08918 c 0.221345,0.49257 0.438748,1.93655 0.285413,1.89545 -0.03268,-0.01 -0.12624,-0.36131 -0.207964,-0.78348 -0.08175,-0.4222 -0.201668,-0.85947 -0.266476,-0.97173 -0.06487,-0.11241 -0.103654,-0.31176 -0.08617,-0.44337 0.02877,-0.21743 0.05372,-0.18988 0.275317,0.3031 z m 50.781974,-36.91739 c -0.59355,0.85015 -1.30119,2.37502 -1.5196,3.2746 -0.19748,0.81346 -0.20363,1.2765 -0.0309,2.33475 0.0592,0.36265 0.15026,1.29894 0.20245,2.08068 0.1047,1.56809 0.26389,2.00063 0.88237,2.39703 0.41096,0.2634 0.51404,0.26848 0.90551,0.0446 0.31442,-0.17989 0.31667,-0.17929 0.3752,0.12731 0.0739,0.38866 -0.11024,0.86007 -0.40128,1.0268 -0.14438,0.0828 -0.49037,0.0785 -0.97531,-0.0117 -1.15652,-0.21563 -1.55588,-0.17047 -2.30891,0.26122 -0.55126,0.31653 -0.67935,0.43453 -0.91173,0.84441 -0.14868,0.26219 -0.2918,0.68424 -0.3181,0.93793 l -0.0478,0.46119 -0.48091,-0.10673 c -1.15535,-0.25618 -1.46644,0.43963 -2.53887,5.67887 -0.47974,2.34372 -0.82338,3.4692 -1.33147,4.36089 -0.10245,0.17969 -0.63057,0.74056 -1.17375,1.24633 -0.54315,0.50578 -1.16962,1.15097 -1.39212,1.43381 -0.42003,0.53381 -0.93437,1.1403 -1.62528,1.91645 -0.28142,0.31604 -0.6409,0.59018 -1.19005,0.90725 -0.90296,0.5213 -1.03456,0.52991 -2.22328,0.14516 -1.10903,-0.35885 -1.72298,-0.6485 -2.57079,-1.21275 -0.73231,-0.48745 -0.82384,-0.58052 -1.19475,-1.21504 -0.34766,-0.59467 -0.40961,-0.78246 -0.46044,-1.39513 -0.0323,-0.38938 -0.0163,-1.22446 0.0357,-1.8557 0.2356,-2.86706 -0.22393,-4.13055 -2.02286,-5.56186 -1.05652,-0.84062 -1.73558,-0.90373 -2.84323,-0.26424 -0.64966,0.37507 -0.68135,0.40891 -0.74656,0.77307 -0.0409,0.23028 7.2e-4,0.54399 0.10606,0.79256 0.0956,0.22629 0.24792,0.5865 0.33865,0.80051 0.22371,0.52772 0.1981,1.33981 -0.0794,2.52123 l -0.23206,0.98774 -0.0863,-0.57629 c -0.22847,-1.52599 -0.40489,-2.24423 -0.6612,-2.69176 -0.14809,-0.25883 -0.34,-0.50661 -0.42617,-0.55078 -0.0862,-0.0441 -0.13523,-0.0414 -0.1092,0.006 0.0262,0.0476 -0.088,0.1744 -0.25392,0.28201 -0.16575,0.1079 -0.39327,0.31222 -0.50537,0.45465 -0.21096,0.26827 -0.77202,1.33066 -1.06302,2.01308 -0.0915,0.21488 -0.23477,0.42998 -0.31813,0.47812 -0.0833,0.0482 -0.24045,0.23725 -0.34903,0.42035 -0.10861,0.18304 -0.44396,0.60306 -0.74523,0.93332 -0.47842,0.52444 -0.97992,1.20441 -1.49275,2.02402 -0.11477,0.18362 -0.24943,0.26906 -0.58297,0.37042 -0.78413,0.23841 -2.094614,1.15822 -2.864222,2.01043 -0.394338,0.43668 -0.716143,0.88531 -0.756834,1.0551 -0.03892,0.16243 -0.121691,0.35642 -0.183872,0.43101 -0.161285,0.19322 -0.319143,1.37063 -0.260381,1.94129 0.05472,0.53186 0.51875,1.45309 1.011336,2.00795 0.241237,0.27176 0.26103,0.32513 0.128585,0.3461 -0.175696,0.0279 -0.528454,0.59196 -0.784086,1.25394 -0.323052,0.8365 -0.02578,2.61942 0.624498,3.74579 0.385058,0.66693 0.963127,1.22761 1.623846,1.57509 0.58012,0.30502 1.77142,0.54332 2.47462,0.49503 0.53608,-0.0368 0.62425,-0.0694 0.79811,-0.296 0.32401,-0.42225 0.0306,-0.9766 -1.07332,-2.02809 -0.46492,-0.44281 -0.56636,-0.58055 -0.52845,-0.71742 0.0586,-0.21154 0.35142,-0.11261 1.24927,0.42237 0.52084,0.31028 0.68068,0.46243 0.937,0.89186 l 0.30899,0.51781 -0.34398,0.6858 c -0.32507,0.64817 -0.37696,0.70444 -0.94501,1.02492 -0.62251,0.35077 -1.02601,0.64454 -1.05968,0.77019 -0.0491,0.18322 0.29317,0.91346 0.57052,1.21712 0.52144,0.57096 1.29334,0.90839 2.7819,1.21613 0.95862,0.19816 1.22038,0.32177 0.68899,0.32536 -0.49295,0.004 -2.01755,0.44543 -2.34702,0.68058 -0.23602,0.16852 -0.24568,0.21613 -0.10464,0.51531 0.12884,0.2734 0.24169,0.35758 0.66052,0.49285 0.27778,0.0896 0.76534,0.17538 1.08345,0.1903 0.31812,0.0157 0.57719,0.0676 0.57571,0.1175 -8.3e-4,0.0498 -0.24667,0.26799 -0.54483,0.48503 -1.38662,1.00939 -1.24621,1.53962 0.38028,1.43611 0.87987,-0.056 0.95361,-0.0788 2.16655,-0.67089 1.36934,-0.66848 1.45607,-0.74463 1.74141,-1.53209 0.15281,-0.42163 0.20045,-1.17335 0.0764,-1.20654 -0.1035,-0.0277 -1.20822,1.03042 -1.52947,1.46492 -0.34403,0.46531 -0.34161,0.32054 0.003,-0.20828 0.35566,-0.54505 0.87763,-3.06419 0.80593,-3.88971 -0.0801,-0.9218 -0.29982,-1.09732 -1.15341,-0.92115 -0.52158,0.10769 -0.54163,0.11946 -0.56907,0.33892 -0.0266,0.2129 -0.0373,0.21258 -0.16604,-0.004 -0.10844,-0.18224 -0.0813,-0.37201 0.12579,-0.88779 0.75708,-1.8859 0.28326,-3.84112 -1.39592,-5.76027 -0.77372,-0.88427 -0.86097,-1.13469 -0.55049,-1.57999 0.22527,-0.32311 0.22388,-0.36101 -0.046,-1.25393 -0.70037,-2.31729 -0.75028,-3.33371 -0.20521,-4.1801 0.22069,-0.34269 0.47743,-0.56585 1.2536,-1.08967 1.12416,-0.75869 1.48055,-1.16329 2.37602,-2.69776 0.76051,-1.30324 2.10168,-2.74436 2.40305,-2.58221 0.15394,0.0828 -0.0868,1.06299 -0.57179,2.32736 -0.47752,1.24486 -0.61349,1.50588 -1.32821,2.5494 -1.32166,1.92973 -1.25993,1.85872 -1.84185,2.11822 -0.44861,0.2001 -0.58126,0.30656 -0.79767,0.64128 -0.14271,0.22078 -0.27177,0.49121 -0.28661,0.60108 -0.0149,0.10985 -0.0483,0.16379 -0.0742,0.11985 -0.0258,-0.044 -0.051,0.14909 -0.0555,0.42869 -0.0237,1.46135 1.62271,3.16137 3.92961,4.05743 0.51861,0.20145 1.03005,0.4212 1.13653,0.48831 0.24861,0.15674 0.24037,0.39656 -0.0186,0.54251 -0.24897,0.14026 -1.18266,0.25487 -1.51399,0.18577 -0.23688,-0.0494 -0.22472,-0.0211 0.47572,1.10418 0.64067,1.02937 0.70051,1.15701 0.55037,1.17443 -0.35301,0.041 -0.69422,0.2203 -0.88024,0.46279 -0.1062,0.13829 -0.15256,0.27355 -0.10292,0.30023 0.0497,0.0267 0.051,0.0712 0.003,0.0989 -0.14343,0.0828 0.11562,0.86145 0.42419,1.27504 0.53378,0.71524 1.88685,1.26566 3.12794,1.27239 0.4184,0.004 0.7549,0.0259 0.74776,0.0526 -0.0149,0.054 -0.5613,0.24428 -1.73092,0.60191 -0.81975,0.25073 -1.32085,0.5564 -1.21443,0.74072 0.0347,0.0602 0.0183,0.16458 -0.0367,0.23232 -0.0661,0.0817 -0.0319,0.24049 0.10111,0.47091 0.17043,0.29523 0.29616,0.37682 0.83114,0.5395 0.46291,0.14066 0.57643,0.20642 0.42739,0.24734 -0.24011,0.0659 -0.22771,0.0988 0.1445,0.38254 0.3575,0.27259 0.95002,0.35033 1.88212,0.24694 l 0.7301,-0.081 -0.4129,0.17204 c -0.22708,0.0948 -0.74256,0.26653 -1.1455,0.3819 -0.7857,0.22508 -0.86306,0.27962 -0.72815,0.51331 0.108,0.18696 0.52118,0.28718 1.19133,0.28894 l 0.51302,8.3e-4 -0.37546,0.13831 c -0.20653,0.0759 -0.61916,0.18616 -0.91694,0.24463 -0.49108,0.0964 -0.53904,0.12183 -0.51513,0.27288 0.0364,0.23004 0.2696,0.33505 0.86683,0.39041 0.46606,0.0432 0.58173,0.01 1.35262,-0.39856 0.81681,-0.43203 1.93858,-1.28367 1.79353,-1.36173 -0.0393,-0.0211 -0.3638,0.10122 -0.72105,0.27208 -1.01468,0.48496 -1.22515,0.45862 -0.39941,-0.05 0.79761,-0.49125 1.32363,-1.06451 1.48579,-1.61933 0.0571,-0.19499 0.16485,-0.54226 0.23964,-0.77178 0.11473,-0.3521 0.10337,-0.46425 -0.0729,-0.71777 -0.27224,-0.39157 -0.48928,-0.34216 -1.84232,0.41932 l -1.03122,0.57984 0.52511,-0.60213 c 0.55608,-0.63761 1.01359,-1.35926 1.17237,-1.84921 0.21085,-0.6506 -0.0195,-1.34934 -0.52466,-1.59151 -0.36514,-0.17498 -0.47593,-0.1736 -0.79763,0.01 -0.30814,0.17637 -0.35053,0.13831 -0.50229,-0.44912 -0.0699,-0.2703 -0.0247,-0.70749 0.14389,-1.39219 0.13506,-0.54897 0.25956,-1.17261 0.27651,-1.3859 0.0168,-0.21323 0.0633,-0.40642 0.10276,-0.42926 0.0993,-0.0575 0.83176,0.45069 0.95343,0.66143 0.0546,0.0946 0.10905,0.41843 0.12086,0.71962 0.0309,0.78606 0.28636,1.19451 0.99141,1.58463 0.31433,0.174 0.74026,0.34238 0.94652,0.37431 0.20624,0.0318 0.44575,0.0697 0.53221,0.084 0.25145,0.0412 0.24562,0.12437 -0.0414,0.58927 -0.63853,1.03418 0.13897,1.5555 1.63657,1.09735 0.66662,-0.20397 1.65813,-0.82159 2.43732,-1.51808 0.39796,-0.35584 1.22181,-1.00585 1.83072,-1.44458 0.9187,-0.66185 1.23328,-0.9483 1.84839,-1.68255 0.40772,-0.48667 1.11717,-1.28985 1.57655,-1.78487 0.71649,-0.77209 0.86006,-0.9832 1.00997,-1.48525 0.32757,-1.09706 -0.29411,-0.82573 -1.31275,0.57298 -0.68649,0.9426 -1.95656,2.05444 -3.24161,2.8377 -1.51874,0.92572 -1.5094,0.91809 -1.76845,1.43816 -0.18036,0.36203 -0.37406,0.58457 -0.72299,0.83052 l -0.47663,0.33598 -0.21235,-0.23265 c -0.16252,-0.17813 -0.28647,-0.21434 -0.52844,-0.15458 -0.17386,0.043 -0.24934,0.0349 -0.16776,-0.0177 0.23842,-0.15496 0.61751,-0.79854 0.79882,-1.35858 0.19964,-0.61676 0.16005,-1.06391 -0.14031,-1.58414 -0.21313,-0.36914 -0.61126,-0.73749 -0.72571,-0.67142 -0.0305,0.0176 -0.14374,0.33912 -0.25182,0.71454 -0.19087,0.66331 -0.38871,0.9415 -0.51504,0.72426 -0.0341,-0.0587 -0.0294,-0.53513 0.0105,-1.05893 0.0965,-1.27225 -0.21464,-2.43561 -0.71002,-2.65437 -0.29827,-0.13182 -1.54418,0.51101 -1.54034,0.79469 0.004,0.3433 -0.14539,0.17204 -0.34696,-0.39644 -0.40438,-1.1403 -0.87037,-1.34788 -3.29897,-1.46954 -1.61099,-0.0808 -1.72445,-0.103 -2.24695,-0.43856 -0.38303,-0.24605 -0.61883,-0.4735 -0.77566,-0.74815 -0.2371,-0.41518 -0.35625,-1.12987 -0.24038,-1.44145 0.0604,-0.16243 0.0894,-0.13675 0.2433,0.21597 0.0961,0.22024 0.30288,0.51472 0.4594,0.65445 0.74267,0.66254 2.63813,0.67378 4.12856,0.0245 l 0.51155,-0.22281 0.38192,0.56425 c 0.47127,0.69627 1.31823,1.29526 2.05462,1.45304 0.40443,0.0867 0.61128,0.0645 1.02421,-0.10986 0.39973,-0.16871 0.69377,-0.20476 1.29262,-0.1587 1.06633,0.0822 1.83064,-7.1e-4 2.25549,-0.24492 0.47421,-0.27222 0.59972,-0.18244 0.29193,0.20874 -0.20382,0.25914 -0.37312,0.3669 -0.93599,0.59567 -1.04788,0.42617 -1.23892,0.80234 -0.79649,1.56866 0.20733,0.35913 0.91509,0.57709 1.64901,0.50782 0.93998,-0.0886 2.15828,-1.00093 2.9579,-2.21477 0.61314,-0.93077 0.55197,-3.27098 -0.09,-3.443 -0.1074,-0.0289 -0.52202,0.16224 -1.23651,0.56932 -0.59154,0.33636 -1.17081,0.62399 -1.28805,0.63779 -0.16785,0.0198 -0.14133,-0.0176 0.1249,-0.17793 0.38948,-0.23349 0.93565,-1.01305 1.35122,-1.92633 0.35049,-0.77019 1.9311,-2.83612 3.07253,-4.01592 0.47052,-0.48632 1.0601,-1.13269 1.31018,-1.43631 1.26546,-1.53656 1.71593,-3.56917 1.09336,-4.93349 l -0.24825,-0.54401 0.67703,-0.4047 c 0.88365,-0.52814 1.16576,-0.90568 1.3931,-1.86427 0.19819,-0.83555 0.4657,-1.19346 0.88132,-1.17906 0.13312,0.004 0.27726,0.0693 0.32024,0.14379 0.17449,0.30226 -0.48418,1.65811 -1.44327,2.97084 -0.38774,0.53072 -0.77746,1.12365 -0.86608,1.31765 -0.23078,0.50527 -0.29755,2.05327 -0.10097,2.3408 0.203,0.29694 0.13283,0.59403 -0.38896,1.64698 -0.6155,1.24205 -1.01746,1.75672 -2.02638,2.59453 -0.97033,0.80579 -1.38209,1.23678 -1.8181,1.90299 -0.29069,0.44416 -0.44091,1.04459 -0.2941,1.17547 0.0476,0.0424 0.45345,-0.10751 0.93819,-0.34638 1.01729,-0.50133 1.32672,-0.60003 1.41307,-0.45044 0.0354,0.0614 -0.0693,0.46059 -0.23253,0.88719 -0.16331,0.42665 -0.33699,1.01959 -0.38598,1.31767 -0.0488,0.2981 -0.20643,0.76924 -0.34985,1.04697 -0.14343,0.27779 -0.30322,0.76328 -0.3551,1.07892 -0.0519,0.31566 -0.18991,0.69934 -0.30678,0.8526 -0.25252,0.3312 -1.90755,1.78386 -2.81939,2.47464 -0.92335,0.69959 -1.43259,1.70087 -0.98692,1.94067 0.22677,0.12202 0.83573,-0.0377 1.41186,-0.37033 0.75203,-0.43416 1.79123,-1.50228 2.66485,-2.73899 0.61742,-0.87405 0.69659,-0.95067 1.63284,-1.58029 1.14403,-0.76933 1.40364,-1.01779 1.97983,-1.8943 0.71034,-1.08054 0.89364,-1.54082 0.71131,-1.78615 -0.0953,-0.12809 -0.22441,-0.18792 -0.3282,-0.15163 -0.21505,0.0751 -1.06263,1.29412 -1.23983,1.78306 -0.19066,0.52608 -0.55562,1.05584 -0.83414,1.21076 -0.23325,0.12948 -0.23754,0.12693 -0.14389,-0.0936 0.46382,-1.09355 1.64759,-2.90621 2.33315,-3.5727 1.55521,-1.51188 2.53366,-3.24251 3.72608,-6.59023 0.44416,-1.24705 0.48794,-1.46867 0.44807,-2.26859 -0.0303,-0.60561 -0.13026,-1.11272 -0.31586,-1.60026 -0.25967,-0.6823 -0.26204,-0.72844 -0.0543,-1.04799 0.11947,-0.1838 0.3618,-0.48322 0.53843,-0.66527 0.17655,-0.18203 0.38797,-0.48146 0.46962,-0.66533 0.0817,-0.184 0.24605,-0.47588 0.36533,-0.64883 0.11926,-0.17302 0.16947,-0.22235 0.1116,-0.10985 -0.0578,0.11261 -0.20601,0.53447 -0.32905,0.93749 -0.19068,0.62479 -0.2039,0.90337 -0.0892,1.89083 0.0739,0.63692 0.0936,1.29395 0.0432,1.46005 -0.13477,0.44685 -0.0581,0.8686 0.18579,1.02001 0.2683,0.16654 0.45453,0.0371 0.74516,-0.51848 0.30855,-0.58976 0.42449,-1.29681 0.42399,-2.58535 -4.1e-4,-0.85 0.19636,-2.4909 0.38854,-3.24099 0.0269,-0.10475 0.0214,-0.53712 -0.0117,-0.96049 -0.0338,-0.42337 -0.0576,-1.04302 -0.0534,-1.377 0.004,-0.33399 -0.0311,-0.61773 -0.0791,-0.63053 -0.16478,-0.0441 -1.01908,1.0175 -1.23265,1.53207 -0.58363,1.40609 -2.38209,5.14086 -2.43303,5.0526 -0.0117,-0.0219 0.17047,-0.48115 0.40684,-1.02052 0.23642,-0.53937 0.55097,-1.46759 0.69904,-2.06272 0.31776,-1.27717 0.71212,-2.38414 1.01944,-2.86139 0.44976,-0.69848 0.47642,-1.70219 0.0697,-2.61736 -0.15733,-0.35405 -0.17302,-0.50098 -0.0683,-0.64356 0.0767,-0.10455 0.11495,-0.54649 0.0881,-1.01782 -0.0452,-0.79055 -0.0769,-0.89195 -0.62389,-1.98761 -0.45727,-0.91606 -0.58396,-1.25895 -0.61318,-1.6598 -0.0203,-0.27787 -0.004,-0.52493 0.039,-0.54899 0.0418,-0.0241 0.19422,0.0157 0.33888,0.089 0.14458,0.0729 0.30228,0.11005 0.35016,0.0824 0.19322,-0.11163 1.05131,-2.00549 1.08066,-2.385 0.0645,-0.83675 -0.7362,-1.98185 -1.33472,-1.90855 -0.44777,0.0547 -1.13177,0.5857 -1.57789,1.22472 z m 0.46917,4.87676 c 0.0361,0.78505 -0.0562,0.92763 -0.18853,0.29103 -0.0767,-0.36968 -0.0274,-0.95988 0.086,-1.02526 0.0368,-0.0214 0.083,0.30911 0.1026,0.73423 z m -32.01482,26.22858 c -0.0295,0.26018 -0.0831,0.35471 -0.18495,0.32635 -0.10129,-0.0283 -0.11208,-0.12241 -0.0368,-0.32098 0.15849,-0.41833 0.26903,-0.42103 0.22181,-0.006 z m -0.90932,3.46394 c 0.78693,0.11731 1.49106,0.46897 1.71484,0.85655 0.14374,0.24894 -0.0706,0.30794 -0.49113,0.13517 -0.20517,-0.0844 -0.63528,-0.23497 -0.95576,-0.33484 -0.32048,-0.0999 -0.68209,-0.26258 -0.80357,-0.36161 -0.19035,-0.15516 -0.19919,-0.19263 -0.064,-0.27063 0.0863,-0.0498 0.35614,-0.0608 0.59964,-0.0247 z m 32.51477,-14.91062 c 0.11142,0.38423 0.091,1.12277 -0.0426,1.54301 -0.0631,0.19848 -0.39682,0.84839 -0.74153,1.44422 -0.3447,0.59579 -0.87774,1.66886 -1.18451,2.38457 -0.30677,0.71571 -0.63088,1.44084 -0.72025,1.61139 -0.0893,0.17066 -0.26501,0.65466 -0.39031,1.07583 -0.18694,0.62835 -0.23048,0.70599 -0.24258,0.43275 -0.0179,-0.4015 0.28225,-1.46186 0.85027,-3.00512 0.23157,-0.62914 0.55937,-1.6173 0.72844,-2.19599 0.42061,-1.43932 1.20901,-3.29532 1.46186,-3.4413 0.17913,-0.10338 0.21284,-0.0854 0.28128,0.15066 z m -28.0303,23.18405 c -0.0446,0.10399 -0.0938,0.29891 -0.10949,0.43323 -0.0284,0.24301 -0.0291,0.24333 -0.13431,0.0671 -0.0652,-0.10868 -0.0443,-0.26303 0.0546,-0.40145 0.20916,-0.2933 0.29068,-0.33587 0.18938,-0.0991 z m 0.56383,3.0231 c 0.0494,0.0137 0.1237,0.0855 0.16521,0.16067 0.0618,0.1124 0.0433,0.11809 -0.10514,0.0332 -0.18321,-0.10496 -0.22441,-0.23791 -0.06,-0.19382 z m -45.107096,-1.05044 c 0.341689,1.13456 1.08407,2.14868 2.040759,2.78766 0.480853,0.32119 1.673008,0.90617 1.756037,0.86167 0.127105,-0.0683 -0.02536,-0.1787 -1.026579,-0.74284 -1.011411,-0.57006 -1.693183,-1.16524 -2.05982,-1.79818 l -0.172845,-0.29861 0.445475,0.31195 c 0.603584,0.42271 0.759945,0.43426 1.276973,0.0942 0.492536,-0.32391 0.494316,-0.27503 -0.04798,-1.37301 -0.375959,-0.76129 -0.853211,-1.1232 -1.168745,-0.88648 -0.103187,0.0773 -0.365173,0.26367 -0.58226,0.41406 -0.384027,0.26592 -0.396933,0.26698 -0.477476,0.0355 -0.16704,-0.48046 -0.152835,0.0314 0.01672,0.59397 z m 12.270876,-6.53134 c -0.170674,0.33836 -0.07651,1.35153 0.177518,1.90846 0.242634,0.53214 0.998454,1.08152 1.592607,1.15761 1.109883,0.14203 1.967742,-0.54022 2.353765,-1.87226 0.153027,-0.52805 0.306178,-0.85169 0.440127,-0.93018 0.27644,-0.16125 0.342512,-0.31208 0.287617,-0.65165 -0.07709,-0.4766 -0.542135,-0.98598 -0.969796,-1.06194 -0.641189,-0.11398 -1.110765,0.29046 -1.578843,1.35973 -0.17015,0.38872 -0.338579,0.69895 -0.374247,0.68939 -0.03576,-0.01 -0.03318,-0.19539 0.005,-0.41305 0.09655,-0.54292 -0.144686,-0.95077 -0.601762,-1.01834 -0.286885,-0.0422 -0.411254,-5.1e-4 -0.770298,0.25842 -0.235499,0.16987 -0.488246,0.42797 -0.561744,0.57359 z m 62.96014,-35.16809 c -0.10612,1.48662 0.0557,3.18164 0.42715,4.47412 0.26154,0.9103 0.26117,1.12694 -8.3e-4,1.08201 -0.25314,-0.0432 -0.25152,0.0812 0.008,0.63116 0.45007,0.9539 0.80665,1.09061 1.24914,0.47893 0.23357,-0.3229 0.2564,-0.47842 0.20418,-1.39042 -0.0683,-1.1925 -0.25762,-2.04998 -0.41085,-1.86078 -0.0524,0.0645 -0.11771,0.0783 -0.14458,0.0318 -0.0737,-0.1275 -0.10926,-1.00656 -0.0848,-2.10238 0.0394,-1.77831 -0.5042,-3.24902 -1.03392,-2.79681 -0.0638,0.0546 -0.1593,0.70799 -0.21248,1.45233 z m -72.275239,43.62949 c -0.295609,0.36498 0.990686,1.52597 1.644424,1.48421 0.181103,-0.0117 0.573736,-0.0205 0.87243,-0.0198 0.709349,8.4e-4 0.783322,-0.049 0.520554,-0.3558 -0.201943,-0.23579 -0.200978,-0.2431 0.01971,-0.1538 0.173967,0.0703 0.302452,0.23756 0.51509,0.67017 0.231698,0.47132 0.365248,0.63398 0.732351,0.89301 1.189361,0.83841 1.695769,0.33018 0.871266,-0.87443 -0.389507,-0.56906 -1.250186,-1.19585 -1.923967,-1.40102 -0.221668,-0.0675 -0.410214,-0.13516 -0.419021,-0.15047 -0.05863,-0.10141 -1.792919,-0.54622 -2.004242,-0.51397 -0.304873,0.0465 -0.678637,0.23669 -0.828537,0.42186 z m 2.602436,2.57139 c 0.03626,0.22857 0.546584,0.68886 0.967876,0.87269 0.246476,0.10751 0.448668,0.27989 0.56517,0.48169 0.150914,0.26141 0.385889,0.39974 1.398289,0.82365 1.171889,0.49059 1.456054,0.56096 1.679328,0.4158 0.13034,-0.084 0.12086,-0.10475 -0.311392,-0.68624 -0.351668,-0.47332 -0.550709,-0.59252 -0.966254,-0.57914 -0.183056,0.006 -1.038712,-0.31814 -2.286412,-0.86585 -0.188761,-0.0828 -0.393449,-0.23784 -0.455005,-0.34444 -0.164237,-0.28446 -0.35502,-0.41358 -0.493086,-0.33389 -0.06686,0.0387 -0.111204,0.13576 -0.09853,0.2158 z m 71.326743,-37.72767 c -0.12476,0.36826 -0.15124,1.14277 -0.0367,1.07664 0.0614,-0.0355 -0.0398,1.04196 -0.15948,1.69638 -0.26212,1.43304 -0.16027,1.38954 0.29531,-0.12614 0.41237,-1.37189 0.60609,-3.00582 0.4407,-3.71694 -0.0551,-0.23693 -0.062,-0.23048 -0.23184,0.21676 -0.0964,0.2535 -0.2349,0.63747 -0.308,0.85325 z m -66.001242,39.933 c 0.01472,0.0257 0.237727,0.15988 0.495347,0.29838 0.257662,0.13849 0.782291,0.43213 1.165843,0.65265 0.722355,0.41531 2.83159,1.21293 2.959377,1.11913 0.03983,-0.03 0.113018,-0.0841 0.162308,-0.12221 0.143305,-0.11005 -0.576539,-1.07849 -1.030804,-1.38686 -0.21875,-0.1485 -0.631068,-0.35237 -0.916165,-0.45297 -0.499223,-0.17616 -1.940424,-0.43348 -2.380477,-0.42497 -0.20334,0.004 -0.512054,0.21876 -0.455446,0.3168 z m 2.227491,1.77498 c 0.581828,0.37445 1.326421,0.7687 1.654654,0.87608 0.987377,0.32305 0.561811,-0.0371 -0.876305,-0.74151 -0.722771,-0.35402 -1.444095,-0.74344 -1.60296,-0.86534 -0.162241,-0.12457 -0.276656,-0.16223 -0.26103,-0.0859 0.0153,0.0745 0.503822,0.44214 1.085641,0.81661 z m 3.656809,-0.75906 c -0.488702,0.70804 0.123904,1.62936 1.364476,2.05209 0.589096,0.20073 2.094549,0.38209 3.059979,0.36861 1.233412,-0.0176 2.48892,-0.35553 2.498442,-0.67328 0.01056,-0.35585 -1.087005,-0.69793 -1.734157,-0.54044 -0.137176,0.0333 -0.606942,0.0432 -1.04376,0.0221 -0.436843,-0.0211 -0.812778,-0.028 -0.835415,-0.0157 -0.05073,0.0293 -0.879981,-0.0689 -1.75745,-0.20832 l -0.656275,-0.10416 0.190841,-0.22777 c 0.492728,-0.58814 0.596157,-0.73256 0.666853,-0.93134 0.04175,-0.11751 0.01455,-0.32 -0.06071,-0.45014 -0.158881,-0.27517 -0.26606,-0.2604 -0.98558,0.13615 -0.297479,0.16301 -0.588323,0.39909 -0.707286,0.5714 z m 3.035504,-0.38043 c 0.03668,0.38055 0.276756,0.75697 0.580755,0.91018 0.143048,0.0722 0.833785,0.18166 1.534784,0.24305 1.620083,0.14202 1.671112,0.15183 2.561438,0.48576 1.344616,0.50441 2.591509,0.48468 4.841197,-0.0765 1.5291,-0.38155 3.093722,-0.60436 4.96202,-0.70664 1.181153,-0.0645 2.285447,-0.29688 3.432537,-0.72178 1.057057,-0.39161 1.770587,-0.85818 2.411757,-1.577 1.05018,-1.17745 1.18612,-2.29748 0.34431,-2.83696 -0.27651,-0.17715 -0.30034,-0.17322 -0.67477,0.11474 -0.495,0.38062 -2.430387,1.49993 -2.846232,1.64674 -0.197219,0.0693 -0.538317,0.32929 -0.903008,0.68803 -0.863673,0.84966 -1.019752,0.91621 -1.713383,0.73034 -0.323443,-0.0867 -0.674504,-0.25535 -0.780153,-0.37487 -0.189543,-0.21431 -0.201128,-0.21253 -0.860479,0.13654 -0.367611,0.1946 -1.151822,0.53684 -1.742698,0.76048 -0.590859,0.22368 -1.298234,0.49959 -1.571912,0.61324 -0.588631,0.24435 -1.536356,0.43734 -2.656584,0.5409 -0.445758,0.0412 -0.979601,0.11063 -1.186292,0.15398 -0.42955,0.0904 -0.468145,0.0631 -1.112253,-0.78469 -0.643293,-0.84679 -1.151489,-1.07479 -2.230228,-1.00069 -0.572979,0.0394 -2.199557,0.52304 -2.341873,0.69635 -0.04092,0.05 -0.06287,0.21165 -0.04865,0.35944 z m -3.2357,2.38888 c 0.708816,0.3753 1.650595,0.7447 2.50853,0.98403 0.768361,0.21433 2.380776,0.38486 2.57555,0.2724 0.211324,-0.12202 -0.02927,-0.20139 -0.862799,-0.2849 -1.206301,-0.12064 -3.036976,-0.61578 -3.733676,-1.00951 -0.60844,-0.34389 -0.986187,-0.46102 -0.952291,-0.2953 0.01098,0.0538 0.220098,0.20381 0.464686,0.33328 z m 58.128248,-33.62425 c -0.10298,0.16065 -0.42551,0.86167 -0.7169,1.55811 -0.29141,0.69642 -0.70342,1.52008 -0.91558,1.83035 -0.60324,0.88224 -0.33017,0.95003 0.408,0.10122 0.36956,-0.42495 1.51214,-2.63352 1.79798,-3.47555 0.21163,-0.62336 -0.17696,-0.63301 -0.5735,-0.0157 z m -2.65949,5.70083 c -0.63813,0.86405 -1.30363,1.98108 -1.24293,2.08619 0.0868,0.15027 0.90642,-0.50776 1.26373,-1.01566 0.36962,-0.52436 0.95591,-1.84339 0.87879,-1.97701 -0.0687,-0.11888 -0.35677,0.17145 -0.89959,0.90648 z m -47.83687,28.50912 c -0.128394,0.0759 0.0227,0.10927 0.49904,0.10888 0.375461,-3.1e-4 0.733649,-0.0293 0.795962,-0.0645 0.06229,-0.0351 0.345996,-0.0455 0.630386,-0.023 0.765434,0.0606 3.323063,-0.11593 3.801894,-0.26239 0.557874,-0.17066 1.183969,-0.53159 1.048531,-0.6046 -0.125741,-0.0677 -1.974085,0.039 -2.861043,0.16499 -0.346512,0.0492 -1.134441,0.10417 -1.750898,0.12202 -1.080476,0.0311 -1.686005,0.14398 -1.885553,0.35065 -0.05214,0.0541 -0.177477,0.14751 -0.278469,0.20774 z m -0.352666,0.65176 c 0.560804,0.26141 1.545171,0.28607 2.999852,0.0751 0.446939,-0.0647 1.387728,-0.0926 2.090632,-0.0619 0.702912,0.0309 1.441946,0.0454 1.642317,0.0324 0.308474,-0.02 0.254527,-0.0476 -0.351864,-0.17969 -0.41374,-0.0902 -1.007702,-0.11966 -1.406448,-0.07 -0.379619,0.0472 -0.821875,0.0798 -0.982769,0.0721 -0.160811,-0.008 -0.762523,0.0157 -1.337032,0.05 -0.574493,0.0351 -1.403246,0.0195 -1.841669,-0.0353 -0.858534,-0.10671 -1.190517,-0.0589 -0.813019,0.11692 z m 46.343046,-25.26118 c -0.15429,0.27496 -0.59071,0.96082 -0.96983,1.52414 -0.37913,0.56329 -0.67163,1.05478 -0.65005,1.09218 0.0682,0.1181 0.96646,-0.56318 1.18745,-0.90077 0.25717,-0.39267 0.98914,-1.97963 1.08689,-2.35648 l 0.0706,-0.27207 -0.22226,0.20657 c -0.12219,0.11357 -0.34849,0.43147 -0.50276,0.70647 z m -1.53678,2.98691 c -0.19045,0.12751 -0.41126,0.43155 -0.60615,0.83434 -0.32564,0.67302 -0.75748,1.27958 -1.7066,2.397 -0.32218,0.37935 -0.60761,0.74069 -0.63427,0.80294 -0.0809,0.18892 -1.42409,1.59204 -1.9352,2.02152 -0.27957,0.23497 -0.61476,0.64022 -0.8044,0.9727 -0.53526,0.93841 -2.60585,2.90343 -3.87896,3.68127 -0.81538,0.49803 -0.90734,0.71086 -0.11608,0.2684 1.27015,-0.71017 3.1556,-2.45275 3.93927,-3.64056 0.18996,-0.28792 0.68674,-0.84708 1.10393,-1.24258 0.41722,-0.39545 0.9736,-0.96772 1.23641,-1.27159 0.26281,-0.30389 0.81818,-0.93898 1.23412,-1.41139 0.41598,-0.47236 1.11666,-1.38813 1.55708,-2.03502 0.44042,-0.64691 0.94512,-1.3476 1.12156,-1.55708 0.36686,-0.43561 0.38369,-0.58362 0.0282,-0.24709 -0.13162,0.12438 -0.37406,0.31667 -0.5388,0.42714 z m -36.026618,20.95869 c -0.05863,0.11182 -0.03776,0.16302 0.08478,0.20843 0.403104,0.14908 3.501154,-0.29014 4.918895,-0.69752 1.648833,-0.47377 3.054683,-1.66274 3.025863,-2.55884 -0.005,-0.16379 -0.10993,-0.12437 -1.01352,0.38236 -0.55391,0.31118 -1.529237,0.79 -2.166758,1.06506 -0.994072,0.42885 -1.314903,0.51899 -2.252823,0.63281 -0.601504,0.0729 -1.181519,0.15792 -1.288898,0.18891 -0.342994,0.0987 -1.226826,0.62521 -1.307427,0.77883 z m -0.625255,0.59278 c -0.09398,0.11555 -0.149883,0.24612 -0.124211,0.2906 0.08208,0.14222 1.366762,0.13319 1.617247,-0.0119 0.234068,-0.13516 0.218101,-0.14496 -0.522758,-0.32012 -0.420293,-0.0995 -0.772103,-0.17812 -0.781766,-0.17479 -0.0099,0.004 -0.09457,0.10044 -0.188504,0.21573 z m 2.879383,0.27266 c 0.137493,0.0444 0.345872,0.0589 0.463206,0.0324 0.11735,-0.0265 0.841319,-0.11378 1.608881,-0.19421 1.792003,-0.18754 3.315833,-0.59923 3.803243,-1.02756 0.21832,-0.19186 0.18132,-0.1948 -0.50748,-0.0406 -1.5716,0.35186 -3.424922,0.69655 -4.047109,0.75267 -0.765034,0.0689 -1.075894,0.13419 -1.361058,0.28557 -0.202832,0.10848 -0.202184,0.11318 0.04042,0.19166 z m 8.38194,-4.81808 c -0.18849,0.2641 -0.16759,0.31596 0.24079,0.59777 0.61591,0.42511 1.85097,0.16165 2.13902,-0.4564 0.16294,-0.34952 -0.0346,-0.44264 -1.03773,-0.48941 -0.94527,-0.0441 -1.0889,-0.008 -1.34203,0.34802 z m -2.50421,2.05603 c -0.76527,0.60986 -1.20088,1.09836 -1.11395,1.24892 0.0436,0.0753 1.33821,-0.29565 1.63267,-0.46794 0.40696,-0.23841 0.7558,-1.04507 0.67419,-1.55999 -0.018,-0.11298 -0.0719,-0.11554 -0.20406,-0.01 -0.0989,0.0791 -0.54384,0.43402 -0.98887,0.78878 z m 4.57887,-2.51703 c 0.0915,0.0338 0.36425,0.0592 0.60609,0.0565 0.24182,-0.004 0.44968,0.0432 0.46186,0.10239 0.012,0.059 -0.12535,0.33255 -0.30573,0.6078 -0.33036,0.50421 -0.86764,0.91497 -1.06081,0.81104 -0.0574,-0.031 -0.39842,-0.0397 -0.75788,-0.0195 -0.57387,0.0321 -0.64306,0.0551 -0.56767,0.18792 0.0472,0.0834 0.11187,0.24812 0.14343,0.36657 0.0483,0.18107 0.14405,0.2105 0.6006,0.18558 0.29867,-0.0157 0.8049,-0.10201 1.12501,-0.19048 0.32011,-0.0884 0.85406,-0.21368 1.18656,-0.27828 0.70495,-0.13692 1.5952,-0.6155 1.9003,-1.02166 0.22615,-0.30084 0.41072,-0.94938 0.28022,-0.98435 -0.19316,-0.0518 -0.74788,0.27014 -1.09289,0.63444 -0.40399,0.42632 -1.0983,0.87931 -0.86143,0.56194 0.0706,-0.0946 0.23807,-0.23883 0.37206,-0.32067 0.52463,-0.32017 1.49962,-2.07642 1.4795,-2.66512 -0.006,-0.17009 -0.15942,-0.0982 -1.84098,0.8594 -1.55407,0.88516 -1.80894,1.05476 -1.66824,1.10651 z m 15.75798,-8.65659 c -0.5792,0.62574 -1.77034,1.53186 -2.78385,2.11772 -0.76128,0.44003 -0.94604,0.57954 -0.8919,0.67332 0.0376,0.0651 0.25374,0.10672 0.48036,0.0926 0.33206,-0.0209 0.59333,-0.13261 1.34626,-0.57639 1.13261,-0.66774 2.12308,-1.61133 2.864,-2.72886 l 0.48676,-0.73419 -0.57744,0.39055 c -0.3176,0.21481 -0.73354,0.55907 -0.92421,0.76518 z m -17.13873,11.24197 c 0.0886,0.0327 0.15229,0.093 0.14133,0.1336 -0.0786,0.29306 1.7678,-0.0197 2.42931,-0.41026 0.3806,-0.22493 0.34581,-0.22625 -1.00487,-0.0332 -0.76942,0.11003 -1.43607,0.19007 -1.48142,0.17792 -0.16551,-0.0444 -0.24123,0.0739 -0.0845,0.13202 z m 11.17626,-5.21674 c -0.46839,0.42328 -1.85562,1.25003 -2.75319,1.64085 -0.86412,0.37626 -0.69206,0.48057 0.27377,0.16597 1.20964,-0.39396 2.93837,-1.53379 3.10717,-2.04874 0.0929,-0.2835 0.012,-0.42414 -0.13791,-0.2392 -0.064,0.0788 -0.2843,0.29541 -0.48987,0.48112 z"
       id="path1" />
  </g>
</svg>
