<?xml version="1.0" encoding="UTF-8" standalone="no"?>
<!-- Created with Inkscape (http://www.inkscape.org/) -->

<svg
   width="210mm"
   height="600mm"
   viewBox="0 0 210 600"
   version="1.1"
   id="svg1"
   inkscape:version="1.3.2 (091e20e, 2023-11-25, custom)"
   sodipodi:docname="einladung.svg"
   xmlns:inkscape="http://www.inkscape.org/namespaces/inkscape"
   xmlns:sodipodi="http://sodipodi.sourceforge.net/DTD/sodipodi-0.dtd"
   xmlns="http://www.w3.org/2000/svg"
   xmlns:svg="http://www.w3.org/2000/svg">
  <sodipodi:namedview
     id="namedview1"
     pagecolor="#ffffff"
     bordercolor="#666666"
     borderopacity="1.0"
     inkscape:showpageshadow="2"
     inkscape:pageopacity="0.0"
     inkscape:pagecheckerboard="0"
     inkscape:deskcolor="#d1d1d1"
     inkscape:document-units="mm"
     inkscape:zoom="0.27118408"
     inkscape:cx="656.38071"
     inkscape:cy="1133.9161"
     inkscape:window-width="1920"
     inkscape:window-height="1057"
     inkscape:window-x="-8"
     inkscape:window-y="-8"
     inkscape:window-maximized="1"
     inkscape:current-layer="layer1">
    <inkscape:page
       x="0"
       y="0"
       width="210"
       height="600"
       id="page10"
       margin="0"
       bleed="0" />
  </sodipodi:namedview>
  <defs
     id="defs1">
    <rect
       x="111.54785"
       y="607.52094"
       width="550.36414"
       height="293.15881"
       id="rect12" />
    <marker
       style="overflow:visible"
       id="ArrowTriangleStylized"
       refX="0"
       refY="0"
       orient="auto-start-reverse"
       inkscape:stockid="Stylized triangle arrow"
       markerWidth="1"
       markerHeight="1"
       viewBox="0 0 1 1"
       inkscape:isstock="true"
       inkscape:collect="always"
       preserveAspectRatio="xMidYMid">
      <path
         transform="scale(0.5)"
         style="fill:context-stroke;fill-rule:evenodd;stroke:context-stroke;stroke-width:1pt"
         d="m 6,0 c -3,1 -7,3 -9,5 0,0 0,-4 2,-5 -2,-1 -2,-5 -2,-5 2,2 6,4 9,5 z"
         id="path11" />
    </marker>
    <marker
       style="overflow:visible"
       id="marker4"
       refX="0"
       refY="0"
       orient="auto"
       inkscape:stockid="Dot"
       markerWidth="1"
       markerHeight="1"
       viewBox="0 0 1 1"
       inkscape:isstock="true"
       inkscape:collect="always"
       preserveAspectRatio="xMidYMid">
      <path
         transform="scale(0.5)"
         style="fill:context-stroke;fill-rule:evenodd;stroke:none"
         d="M 5,0 C 5,2.76 2.76,5 0,5 -2.76,5 -5,2.76 -5,0 c 0,-2.76 2.3,-5 5,-5 2.76,0 5,2.24 5,5 z"
         sodipodi:nodetypes="sssss"
         id="path4" />
    </marker>
    <marker
       style="overflow:visible"
       id="Dot"
       refX="0"
       refY="0"
       orient="auto"
       inkscape:stockid="Dot"
       markerWidth="1"
       markerHeight="1"
       viewBox="0 0 1 1"
       inkscape:isstock="true"
       inkscape:collect="always"
       preserveAspectRatio="xMidYMid">
      <path
         transform="scale(0.5)"
         style="fill:context-stroke;fill-rule:evenodd;stroke:none"
         d="M 5,0 C 5,2.76 2.76,5 0,5 -2.76,5 -5,2.76 -5,0 c 0,-2.76 2.3,-5 5,-5 2.76,0 5,2.24 5,5 z"
         sodipodi:nodetypes="sssss"
         id="path17" />
    </marker>
    <marker
       style="overflow:visible"
       id="Dot-1-7"
       refX="0"
       refY="0"
       orient="auto"
       inkscape:stockid="Dot"
       markerWidth="1"
       markerHeight="1"
       viewBox="0 0 1 1"
       inkscape:isstock="true"
       inkscape:collect="always"
       preserveAspectRatio="xMidYMid">
      <path
         transform="scale(0.5)"
         style="fill:context-stroke;fill-rule:evenodd;stroke:none"
         d="M 5,0 C 5,2.76 2.76,5 0,5 -2.76,5 -5,2.76 -5,0 c 0,-2.76 2.3,-5 5,-5 2.76,0 5,2.24 5,5 z"
         sodipodi:nodetypes="sssss"
         id="path17-6-6" />
    </marker>
    <marker
       style="overflow:visible"
       id="Dot-1-7-7"
       refX="0"
       refY="0"
       orient="auto"
       inkscape:stockid="Dot"
       markerWidth="1"
       markerHeight="1"
       viewBox="0 0 1 1"
       inkscape:isstock="true"
       inkscape:collect="always"
       preserveAspectRatio="xMidYMid">
      <path
         transform="scale(0.5)"
         style="fill:context-stroke;fill-rule:evenodd;stroke:none"
         d="M 5,0 C 5,2.76 2.76,5 0,5 -2.76,5 -5,2.76 -5,0 c 0,-2.76 2.3,-5 5,-5 2.76,0 5,2.24 5,5 z"
         sodipodi:nodetypes="sssss"
         id="path17-6-6-6" />
    </marker>
    <marker
       style="overflow:visible"
       id="Dot-1-7-7-7"
       refX="0"
       refY="0"
       orient="auto"
       inkscape:stockid="Dot"
       markerWidth="1"
       markerHeight="1"
       viewBox="0 0 1 1"
       inkscape:isstock="true"
       inkscape:collect="always"
       preserveAspectRatio="xMidYMid">
      <path
         transform="scale(0.5)"
         style="fill:context-stroke;fill-rule:evenodd;stroke:none"
         d="M 5,0 C 5,2.76 2.76,5 0,5 -2.76,5 -5,2.76 -5,0 c 0,-2.76 2.3,-5 5,-5 2.76,0 5,2.24 5,5 z"
         sodipodi:nodetypes="sssss"
         id="path17-6-6-6-0" />
    </marker>
  </defs>
  <g
     inkscape:label="Ebene 1"
     inkscape:groupmode="layer"
     id="layer1"
     transform="translate(-220.00001)">
    <text
       xml:space="preserve"
       style="font-size:10.5833px;line-height:1.25;font-family:'Lucida Console';-inkscape-font-specification:'Lucida Console';letter-spacing:0px;fill:#ffcc00;fill-opacity:1;stroke-width:0.264583"
       x="-36.247913"
       y="176.3954"
       id="text1-9-1-7"><tspan
         sodipodi:role="line"
         id="tspan1-9-1-9"
         style="fill:#ffcc00;fill-opacity:1;stroke-width:0.264583"
         x="-36.247913"
         y="176.3954">🤝 </tspan></text>
    <path
       d="m 282.16975,81.624383 q 0,0.474057 -0.17239,0.894244 -0.17238,0.420187 -0.50638,0.754182 l -3.26453,3.264529 q 0.19394,0.474057 0.19394,1.001984 0,1.120498 -0.79728,1.917776 l -3.83555,3.835553 q -0.44174,0.441735 -1.01276,0.667989 -0.56025,0.237029 -1.17437,0.237029 -0.40941,0 -0.80805,-0.09697 -0.43096,0.452509 -1.01276,0.678763 -0.5818,0.237029 -1.19592,0.237029 -0.48483,0 -0.86192,-0.118515 -0.36632,-0.10774 -0.67876,-0.301672 -0.31245,-0.193933 -0.60335,-0.463283 -0.2909,-0.258577 -0.59257,-0.571024 l -0.097,-0.09697 q -0.58179,-0.03232 -1.10972,-0.26935 -0.51715,-0.226255 -0.92657,-0.635668 l -3.82477,-3.824778 q -0.34477,-0.344769 -0.52793,-0.743408 -0.18316,-0.409413 -0.18316,-0.88347 0,-0.06464 0,-0.129288 0.0108,-0.07542 0.0215,-0.150837 -0.19393,-0.312446 -0.2909,-0.657215 -0.097,-0.355543 -0.097,-0.72186 0,-0.624893 0.28013,-1.185142 -0.30167,-0.290899 -0.60335,-0.560249 -0.30167,-0.280125 -0.54947,-0.581798 -0.23703,-0.312446 -0.39864,-0.667989 -0.15084,-0.366317 -0.15084,-0.8296 0,-0.484831 0.17239,-0.88347 0.18316,-0.409413 0.50638,-0.754182 l 4.0618,-4.374253 q 0.32322,-0.344769 0.76496,-0.527928 0.44173,-0.193932 0.91579,-0.193932 0.95889,0 1.63765,0.678764 l 1.9932,1.993194 q 0.48483,-0.549475 1.06662,-0.840374 0.59258,-0.290899 1.33598,-0.290899 0.37709,0 0.68954,0.07542 0.31245,0.06464 0.5818,0.204706 0.28012,0.140062 0.5387,0.333995 0.25858,0.193932 0.52793,0.441735 l 1.91777,-1.917776 q 0.334,-0.333995 0.75419,-0.50638 0.42018,-0.172384 0.89424,-0.172384 0.45251,0 0.88347,0.172384 0.44173,0.172385 0.75418,0.50638 l 4.148,4.460445 q 0.63567,0.689538 0.63567,1.594556 z m -6.18429,7.28324 q 0.14006,-0.140062 0.2909,-0.280125 0.16161,-0.150836 0.29089,-0.312446 0.12929,-0.172385 0.21549,-0.355543 0.0862,-0.183158 0.0862,-0.409413 0,-0.150836 -0.0539,-0.280125 -0.0431,-0.129288 -0.0754,-0.26935 -0.0539,-0.07542 -0.10774,-0.140062 -0.0431,-0.07542 -0.10774,-0.140063 l -5.24695,-5.246949 -2.09016,2.025516 q -0.47406,0.452509 -1.00199,0.678764 -0.52792,0.226254 -1.18514,0.226254 -0.40941,0 -0.87269,-0.129288 -0.46329,-0.140063 -0.86193,-0.398639 -0.38786,-0.258577 -0.64644,-0.624893 -0.25857,-0.377091 -0.25857,-0.851148 0,-0.635668 0.4525,-1.088177 l 2.09017,-2.111708 -2.54267,-2.54267 q -0.22626,-0.226255 -0.54948,-0.226255 -0.15084,0 -0.30167,0.05387 -0.14006,0.05387 -0.2478,0.172384 l -4.09413,4.428124 q -0.22626,0.247802 -0.22626,0.549475 0,0.312447 0.22626,0.538701 l 1.55146,1.519138 q 0.0646,-0.0431 0.16161,-0.07542 0.10774,-0.0431 0.22625,-0.06464 0.11851,-0.02155 0.22626,-0.03232 0.11851,-0.01077 0.19393,-0.01077 0.31244,0 0.60334,0.10774 0.30168,0.09697 0.54948,0.290899 0.2478,0.183158 0.43096,0.441735 0.18316,0.247803 0.26935,0.549475 0.5818,0.193933 0.93734,0.603346 0.36632,0.409412 0.54947,0.99121 0.28013,0.06464 0.54948,0.226254 0.26935,0.150837 0.49561,0.377091 0.22625,0.215481 0.37709,0.484831 0.16161,0.258577 0.21548,0.549475 0.37709,0.08619 0.68953,0.301673 0.32322,0.21548 0.54948,0.527927 0.22625,0.301673 0.35554,0.66799 0.12929,0.366316 0.12929,0.743407 0,0.678764 -0.34477,1.228239 -0.34477,0.549475 -0.94811,0.861922 0.17238,0.16161 0.34477,0.333995 0.17238,0.183158 0.36631,0.32322 0.19394,0.150837 0.40942,0.247803 0.22625,0.09697 0.48483,0.09697 0.42018,0 0.77573,-0.226254 0.36631,-0.215481 0.64644,-0.495605 l -1.37908,-1.368302 q -0.11851,-0.118514 -0.11851,-0.26935 0,-0.150836 0.11851,-0.269351 0.11852,-0.118514 0.26935,-0.118514 0.17239,0 0.34477,0.150836 0.17239,0.140063 0.35555,0.355543 0.19393,0.204707 0.40941,0.463283 0.21548,0.247803 0.46328,0.463283 0.25858,0.204707 0.57102,0.355543 0.31245,0.140062 0.68954,0.140062 0.22626,0 0.43096,-0.07542 0.20471,-0.08619 0.38787,-0.21548 0.18316,-0.129289 0.34477,-0.290899 0.16161,-0.16161 0.31244,-0.323221 l 0.0754,-0.08619 -1.907,-1.917776 q -0.11852,-0.118514 -0.11852,-0.269351 0,-0.16161 0.10775,-0.26935 0.11851,-0.118515 0.28012,-0.118515 0.16161,0 0.26935,0.107741 l 1.91778,1.917776 1.64842,-1.648426 -1.91777,-1.917776 q -0.11852,-0.118514 -0.11852,-0.269351 0,-0.16161 0.10774,-0.26935 0.11852,-0.118514 0.28013,-0.118514 0.17238,0 0.28012,0.10774 z m 0.76495,-3.178337 3.64162,-3.555428 q 0.22626,-0.226254 0.22626,-0.549475 0,-0.290899 -0.22626,-0.538701 l -4.09413,-4.428124 q -0.097,-0.10774 -0.25857,-0.16161 -0.15084,-0.06464 -0.2909,-0.06464 -0.32322,0 -0.54948,0.226255 l -3.01672,3.027501 -1.23902,-1.249787 q -0.21548,-0.215481 -0.50637,-0.333995 -0.28013,-0.118514 -0.59258,-0.118514 -0.31244,0 -0.57102,0.118514 -0.2478,0.10774 -0.47406,0.290899 -0.21548,0.172384 -0.42018,0.387865 -0.19394,0.21548 -0.38787,0.420187 l -2.62886,2.661183 q -0.22625,0.226255 -0.22625,0.549476 0,0.280124 0.19393,0.506379 0.2047,0.21548 0.48483,0.377091 0.28012,0.16161 0.59257,0.247802 0.31245,0.08619 0.5387,0.08619 0.51715,0 0.92657,-0.16161 0.42018,-0.16161 0.77573,-0.517153 0.66799,-0.66799 1.34675,-1.303657 0.68954,-0.646441 1.34675,-1.325205 z m -9.29798,4.600508 q 0,-0.301672 -0.12929,-0.571023 -0.11851,-0.280125 -0.33399,-0.484831 -0.20471,-0.204707 -0.48483,-0.323221 -0.26935,-0.129288 -0.56025,-0.129288 -0.0323,0 -0.0754,0.01077 -0.0323,0 -0.0646,0 l 0.0108,-0.129288 q 0,-0.301673 -0.12929,-0.581798 -0.11851,-0.280124 -0.33399,-0.484831 -0.20471,-0.204706 -0.48484,-0.32322 -0.26935,-0.129289 -0.57102,-0.129289 -0.0323,0 -0.0754,0.01077 -0.0323,0 -0.0646,0 0.0216,-0.08619 0.0216,-0.129288 0,-0.269351 -0.11852,-0.538701 -0.11851,-0.269351 -0.32322,-0.484831 -0.19393,-0.226255 -0.46328,-0.355543 -0.25858,-0.140062 -0.5387,-0.140062 h -0.0539 q 0,-0.258577 -0.0862,-0.484831 -0.0754,-0.226255 -0.22626,-0.398639 -0.14006,-0.172385 -0.35554,-0.269351 -0.21548,-0.10774 -0.48483,-0.10774 -0.22626,0 -0.44174,0.09697 -0.2047,0.08619 -0.36631,0.237029 -0.16161,0.150836 -0.25858,0.366316 -0.097,0.204707 -0.097,0.430961 0,0.387865 0.16161,0.624894 0.17239,0.226254 0.43096,0.474057 -0.0862,0.118514 -0.15083,0.247802 -0.0539,0.129289 -0.0539,0.280125 0,0.16161 0.0754,0.323221 0.0862,0.16161 0.2047,0.312446 0.11852,0.140063 0.2478,0.269351 0.14007,0.129288 0.24781,0.237028 l 3.28607,3.286078 q 0.21549,0.21548 0.48484,0.32322 0.28012,0.09697 0.57102,0.09697 0.34477,0 0.63567,-0.107741 0.2909,-0.118514 0.4956,-0.32322 0.21548,-0.215481 0.334,-0.495605 0.11851,-0.290899 0.11851,-0.635668 z"
       id="text1-9-1-7-1"
       style="-inkscape-font-specification:'Lucida Console';fill:#ffcc00;stroke-width:0.551633"
       aria-label="🤝 " />
    <text
       xml:space="preserve"
       style="font-size:4.19183px;line-height:1.25;font-family:'Lucida Console';-inkscape-font-specification:'Lucida Console';letter-spacing:0px;stroke-width:0.104796"
       x="-192.38028"
       y="173.00275"
       id="text2-4-0"><tspan
         sodipodi:role="line"
         id="tspan2-6-8"
         style="stroke-width:0.104796"
         x="-192.38028"
         y="173.00275">Ich zeige</tspan><tspan
         sodipodi:role="line"
         style="stroke-width:0.104796"
         x="-192.38028"
         y="178.24254"
         id="tspan3-7-5">Werte, Stärken, Fragen, Potenziale.</tspan></text>
    <path
       d="m -213.27715,49.213043 q 0.61664,0 1.18802,0.164059 0.57137,0.158403 1.06355,0.452577 0.49784,0.288519 0.90516,0.695838 0.41297,0.407321 0.70149,0.905156 0.29418,0.497835 0.45258,1.069214 0.1584,0.57138 0.1584,1.188016 0,0.910813 -0.32246,1.725452 -0.32246,0.808983 -0.92213,1.493505 -0.1584,0.181032 -0.33377,0.339434 -0.16972,0.152745 -0.33944,0.316804 -0.11314,0.107493 -0.20931,0.220632 -0.0962,0.107493 -0.16406,0.226289 -0.0679,0.118801 -0.10749,0.254575 -0.0396,0.135773 -0.0396,0.299832 v 2.234602 q 0,0.186688 -0.0679,0.356404 -0.0622,0.175375 -0.18103,0.311148 -0.11315,0.135773 -0.27721,0.226289 -0.1584,0.09051 -0.34509,0.113143 l -0.41863,0.418635 h -1.48785 l -0.41864,-0.418635 q -0.18668,-0.02263 -0.35074,-0.113143 -0.15841,-0.09051 -0.27721,-0.226289 -0.11314,-0.135773 -0.18103,-0.311148 -0.0622,-0.169716 -0.0622,-0.356404 v -2.234602 q 0,-0.164059 -0.0396,-0.299832 -0.0396,-0.135774 -0.10749,-0.254575 -0.0679,-0.118801 -0.16406,-0.226289 -0.0905,-0.113145 -0.20366,-0.220632 -0.16971,-0.164059 -0.34508,-0.316804 -0.16972,-0.158402 -0.32812,-0.339434 -0.59967,-0.684522 -0.92779,-1.493505 -0.32246,-0.814639 -0.32246,-1.725452 0,-0.616636 0.1584,-1.188016 0.16406,-0.571379 0.45258,-1.069214 0.29418,-0.497835 0.7015,-0.905156 0.40732,-0.407319 0.90515,-0.695838 0.49784,-0.294174 1.06922,-0.452577 0.57138,-0.164059 1.18801,-0.164059 z m 1.2163,9.351383 q 0,-0.260232 0.0566,-0.480863 0.0566,-0.226289 0.16406,-0.418635 0.10748,-0.198002 0.25458,-0.373376 0.15274,-0.181031 0.33943,-0.350748 0.36772,-0.339432 0.66755,-0.695838 0.29983,-0.356404 0.50915,-0.746753 0.21498,-0.396004 0.32812,-0.842925 0.1188,-0.44692 0.1188,-0.967385 0,-0.758067 -0.28852,-1.425619 -0.28286,-0.667552 -0.78069,-1.15973 -0.49784,-0.497835 -1.16539,-0.786354 -0.6619,-0.288518 -1.41996,-0.288518 -0.50915,0 -0.9787,0.130117 -0.46389,0.130115 -0.87121,0.367718 -0.40732,0.237604 -0.7411,0.57138 -0.33378,0.333776 -0.57138,0.741096 -0.2376,0.407319 -0.36772,0.876869 -0.13011,0.469549 -0.13011,0.973041 0,0.514807 0.11314,0.961727 0.1188,0.446921 0.32812,0.842926 0.21497,0.396006 0.51481,0.75241 0.29983,0.356406 0.66755,0.695838 0.18669,0.169717 0.33377,0.350748 0.15275,0.175374 0.25458,0.373376 0.10749,0.192346 0.16406,0.418635 0.0622,0.220631 0.0622,0.480863 h 0.40732 v -1.623622 q -0.16406,0 -0.28852,-0.118801 -0.1188,-0.118802 -0.1188,-0.288519 0,-0.169716 0.1188,-0.288518 0.1188,-0.118801 0.28852,-0.118801 0.16972,0 0.28852,0.118801 0.1188,0.118802 0.1188,0.288518 h 0.80898 q 0,-0.164059 0.1188,-0.28286 0.1188,-0.124459 0.28852,-0.124459 0.16972,0 0.28852,0.118801 0.1188,0.118802 0.1188,0.288518 0,0.169717 -0.12446,0.288519 -0.1188,0.118801 -0.28286,0.118801 v 1.623622 z m 0,2.234602 q 0,-0.135773 -0.0905,-0.169717 -0.0905,-0.02829 -0.198,-0.02829 h -0.1188 v -0.40732 h 0.1188 q 0.10749,0 0.198,-0.03395 0.0905,-0.02829 0.0905,-0.169717 0,-0.135773 -0.0849,-0.169717 -0.0848,-0.03394 -0.19234,-0.03394 h -0.13012 v -0.407321 h -1.62362 v 0.407321 h -0.1188 q -0.1075,0 -0.19801,0.02829 -0.0905,0.03395 -0.0905,0.175373 0,0.135774 0.0848,0.169717 0.0849,0.03395 0.19235,0.03395 h 0.13012 v 0.40732 h -0.0735 q -0.0566,0 -0.11881,0 -0.0566,0.0057 -0.10749,0.02263 -0.0453,0.02263 -0.0792,0.06222 -0.0283,0.0396 -0.0283,0.113145 0,0.135773 0.0848,0.169717 0.0849,0.03394 0.19235,0.03394 h 0.13011 l 0.40732,0.40732 h 0.80899 l 0.40732,-0.40732 h 0.1188 q 0.10749,0 0.198,-0.03394 0.0905,-0.02829 0.0905,-0.169717 z m -1.62362,-3.858224 v 1.623622 h 0.80898 v -1.623622 z"
       id="text1"
       style="font-size:10.5833px;line-height:1.25;font-family:'Lucida Console';-inkscape-font-specification:'Lucida Console';letter-spacing:0px;fill:#ffcc00;stroke-width:0.28965"
       aria-label="💡" />
    <path
       d="m -206.77418,115.4431 q 0,0.40732 -0.13577,0.79201 -0.13012,0.38469 -0.37903,0.70716 0.0566,0.18103 0.0792,0.36771 0.0283,0.18669 0.0283,0.37338 0,0.55441 -0.23195,1.06922 -0.22629,0.50914 -0.63361,0.88253 -0.20931,0.52612 -0.55441,0.95606 -0.34509,0.42995 -0.79201,0.72979 -0.44126,0.29982 -0.96738,0.46388 -0.52612,0.16407 -1.09184,0.16407 -0.39035,0 -0.76939,-0.0848 -0.37903,-0.0793 -0.72978,-0.2376 -0.35075,-0.1584 -0.66755,-0.39036 -0.31115,-0.22628 -0.57138,-0.52046 -0.45823,-0.0566 -0.87121,-0.26023 -0.41298,-0.20365 -0.73544,-0.53743 h -1.34642 q -0.54309,0 -1.02396,-0.20932 -0.48086,-0.20932 -0.84292,-0.56573 -0.35641,-0.36206 -0.56572,-0.84291 -0.20932,-0.48087 -0.20932,-1.02396 v -1.22196 q 0,-0.32247 0.0905,-0.6223 0.0905,-0.30549 0.26023,-0.56572 0.16972,-0.26589 0.40732,-0.4752 0.23761,-0.21498 0.52612,-0.35076 0.10749,-0.50349 0.36772,-0.91646 0.26589,-0.41864 0.63927,-0.71281 0.37903,-0.29984 0.84292,-0.45824 0.46955,-0.16405 0.97871,-0.16405 0.396,-0.39036 0.91081,-0.59967 0.52046,-0.21498 1.07487,-0.21498 0.45258,0 0.87687,0.14143 0.42995,0.13577 0.79201,0.40732 0.2376,-0.0736 0.48086,-0.1075 0.24326,-0.0339 0.49218,-0.0339 0.50349,0 0.9787,0.14143 0.47521,0.14143 0.88253,0.40732 0.41297,0.26023 0.73543,0.63361 0.32812,0.36772 0.5431,0.82596 0.26023,0.16971 0.46955,0.396 0.21497,0.22063 0.3564,0.48653 0.14709,0.26588 0.22629,0.56571 0.0792,0.29417 0.0792,0.60532 z m -0.96172,0.67321 q 0.0792,-0.1584 0.11314,-0.32812 0.034,-0.16971 0.034,-0.34509 0,-0.2376 -0.0679,-0.46389 -0.0679,-0.22629 -0.198,-0.41864 -0.12446,-0.19233 -0.29983,-0.34508 -0.17538,-0.1584 -0.39601,-0.25457 -0.14143,-0.39602 -0.39035,-0.71847 -0.24892,-0.32812 -0.57703,-0.56007 -0.32812,-0.23194 -0.71847,-0.36207 -0.39035,-0.13011 -0.80898,-0.13011 -0.59967,0 -1.14276,0.2659 l 0.0566,-0.0227 q -0.27155,0.12445 -0.46389,0.26024 -0.19235,0.13576 -0.34509,0.29982 -0.14709,0.16406 -0.27155,0.36773 -0.12446,0.19799 -0.26589,0.44691 -0.0622,0.11315 -0.1584,0.18103 -0.0905,0.0623 -0.22063,0.0623 -0.16406,0 -0.28287,-0.1188 -0.1188,-0.12446 -0.1188,-0.28852 0,-0.0679 0.0283,-0.15275 0.0848,-0.22628 0.22063,-0.44692 0.14144,-0.22628 0.31115,-0.42429 0.17538,-0.20366 0.37338,-0.37337 0.198,-0.17538 0.40166,-0.3055 l 0.0283,0.005 q -0.18669,-0.0793 -0.39035,-0.1188 -0.198,-0.0396 -0.40166,-0.0396 -0.49218,0 -0.92778,0.22628 -0.42995,0.22063 -0.71847,0.62229 -0.0962,-0.017 -0.19235,-0.0282 -0.0962,-0.0113 -0.19234,-0.0113 -0.40732,0 -0.7807,0.1584 -0.36772,0.15275 -0.65058,0.42429 -0.2772,0.27155 -0.44126,0.63928 -0.16406,0.36205 -0.16406,0.77503 v 0.0396 q 0,0.005 0,0.0113 0.006,0 0.006,0.005 -0.26023,0.0396 -0.48652,0.16406 -0.22064,0.12446 -0.38469,0.31115 -0.16406,0.18668 -0.26024,0.42428 -0.0905,0.23761 -0.0905,0.5035 v 1.22196 q 0,0.37903 0.14143,0.71281 0.14709,0.32812 0.39601,0.57703 0.24892,0.24892 0.57703,0.39601 0.33378,0.14143 0.71281,0.14143 h 0.75807 q 0.0396,-0.0396 0.0735,-0.0736 0.0339,-0.0396 0.0735,-0.0736 0.18669,-0.18103 0.35641,-0.35641 0.16972,-0.17538 0.29417,-0.36772 0.13012,-0.198 0.20367,-0.42995 0.0735,-0.23195 0.0735,-0.52611 0,-0.28852 -0.0735,-0.52048 -0.0679,-0.2376 -0.19801,-0.42995 -0.12446,-0.19799 -0.31115,-0.36205 -0.18668,-0.16407 -0.41297,-0.31681 -0.10183,-0.0679 -0.16406,-0.14709 -0.0566,-0.0848 -0.0566,-0.21497 0,-0.16972 0.1188,-0.28852 0.12446,-0.1188 0.29418,-0.1188 0.1188,0 0.26589,0.0905 0.15274,0.0848 0.29983,0.20933 0.15275,0.1188 0.28286,0.24891 0.13012,0.13012 0.20366,0.22064 0.23195,-0.0962 0.46955,-0.14709 0.24326,-0.0566 0.49784,-0.0566 0.16406,0 0.28286,0.12446 0.12446,0.1188 0.12446,0.28286 0,0.16972 -0.1188,0.28852 -0.11881,0.1188 -0.28852,0.1188 -0.29984,0 -0.57138,0.10181 0.16406,0.44692 0.16406,0.92212 0,0.30549 -0.0566,0.56007 -0.0566,0.25458 -0.16406,0.48652 -0.10183,0.23195 -0.26023,0.44693 -0.15275,0.20931 -0.35075,0.42995 0.25458,0.33942 0.63361,0.52612 0.38469,0.18668 0.80898,0.18668 0.31115,0 0.59967,-0.10181 0.29417,-0.1075 0.53743,-0.30548 h 0.0283 q 0.39035,-0.37339 0.75241,-0.75242 0.36772,-0.38468 0.75807,-0.75807 0.36206,-0.35074 0.76938,-0.53743 0.41298,-0.18668 0.92778,-0.18668 0.10184,0 0.19235,0.0227 0.0905,0.017 0.1584,0.0679 0.0735,0.0452 0.11315,0.12446 0.0453,0.0791 0.0453,0.19234 0,0.11315 -0.0453,0.19234 -0.0396,0.0793 -0.1075,0.13013 -0.0679,0.0452 -0.16406,0.0679 -0.0905,0.017 -0.19234,0.017 -0.33943,0 -0.61098,0.12446 -0.27155,0.12446 -0.50915,0.36206 l -0.9391,0.93345 h 1.75374 q 0.37903,0 0.70715,-0.14143 0.33378,-0.14709 0.5827,-0.39602 0.24891,-0.24891 0.39034,-0.57702 0.14709,-0.33378 0.14709,-0.71282 0,-0.24891 -0.0679,-0.48086 -0.0622,-0.2376 -0.18669,-0.44693 -0.1188,-0.19799 -0.28286,-0.36205 -0.16406,-0.16407 -0.36772,-0.28287 -0.198,-0.1188 -0.42429,-0.18669 -0.22063,-0.0679 -0.45823,-0.0679 -0.31681,0 -0.63361,0 -0.31115,-0.005 -0.62795,-0.005 -0.16406,0 -0.28852,-0.1188 -0.1188,-0.12446 -0.1188,-0.28852 0,-0.16406 0.1188,-0.28286 0.12446,-0.11881 0.28852,-0.11881 h 0.68451 q -0.034,-0.20365 -0.0566,-0.40732 -0.017,-0.20365 -0.017,-0.40732 0,-0.1697 0.1188,-0.2885 0.1188,-0.11881 0.28852,-0.11881 0.16972,0 0.28852,0.11881 0.1188,0.1188 0.1188,0.2885 0,0.20933 0.0226,0.41864 0.0226,0.20932 0.0679,0.41298 0.53743,0.0622 1.00698,0.33378 0.46955,0.26588 0.79767,0.69018 z"
       id="text1-9"
       style="font-size:10.5833px;line-height:1.25;font-family:'Lucida Console';-inkscape-font-specification:'Lucida Console';letter-spacing:0px;fill:#ffcc00;stroke-width:0.28965"
       aria-label="🧠" />
    <path
       d="m -210.46268,168.8849 q 0.50915,0 0.9787,0.13578 0.46954,0.13011 0.87686,0.37337 0.41298,0.23761 0.74676,0.57704 0.33943,0.33378 0.57703,0.74676 0.24326,0.40732 0.37338,0.87686 0.13577,0.46955 0.13577,0.9787 0,0.75241 -0.2772,1.4143 -0.27155,0.6619 -0.80333,1.19368 l -5.42527,5.42528 -5.42527,-5.42528 q -0.53178,-0.53178 -0.80899,-1.19368 -0.27154,-0.66189 -0.27154,-1.4143 0,-0.50915 0.13011,-0.9787 0.13578,-0.4752 0.37338,-0.88252 0.2376,-0.40732 0.57704,-0.74676 0.33943,-0.33943 0.74675,-0.57704 0.40732,-0.2376 0.87687,-0.36771 0.47521,-0.13578 0.98436,-0.13578 0.4356,0 0.82029,0.0905 0.38469,0.0848 0.72413,0.24892 0.34509,0.16405 0.65623,0.40732 0.31681,0.2376 0.61664,0.54309 0.29983,-0.30549 0.61098,-0.54309 0.31681,-0.24327 0.65624,-0.40732 0.34509,-0.16972 0.72978,-0.25458 0.38469,-0.0848 0.8203,-0.0848 z m -2.8173,10.57335 4.84824,-4.85389 q 0.40732,-0.40732 0.62229,-0.9278 0.22063,-0.52611 0.22063,-1.10315 0,-0.594 -0.22629,-1.11447 -0.22628,-0.52612 -0.61663,-0.91647 -0.39035,-0.39035 -0.91647,-0.61664 -0.52047,-0.22629 -1.11447,-0.22629 -0.4639,0 -0.82596,0.11315 -0.36206,0.11314 -0.66755,0.31115 -0.30549,0.19234 -0.58269,0.45823 -0.27155,0.26023 -0.56007,0.55441 l -0.18103,0.18668 -0.16406,-0.16971 q -0.28852,-0.29983 -0.56572,-0.56006 -0.2772,-0.26589 -0.58835,-0.4639 -0.30549,-0.198 -0.67321,-0.31115 -0.36206,-0.1188 -0.82595,-0.1188 -0.59401,0 -1.12013,0.22629 -0.52047,0.22629 -0.91082,0.61664 -0.39034,0.39035 -0.61663,0.91647 -0.22629,0.52047 -0.22629,1.11447 0,0.57704 0.21497,1.10315 0.22063,0.52048 0.62795,0.9278 z"
       id="text1-9-1"
       style="font-size:10.5833px;line-height:1.25;font-family:'Lucida Console';-inkscape-font-specification:'Lucida Console';letter-spacing:0px;fill:#ffcc00;stroke-width:0.28965"
       aria-label="❤️" />
    <path
       style="fill:none;stroke:#ffcc00;stroke-width:0.6;stroke-linecap:butt;stroke-linejoin:miter;stroke-dasharray:none;stroke-opacity:1;marker-start:url(#Dot)"
       d="M -213.27998,0.69306516 V 49.937167"
       id="path1" />
    <path
       style="fill:none;stroke:#ffcc00;stroke-width:0.6;stroke-linecap:butt;stroke-linejoin:miter;stroke-dasharray:none;stroke-opacity:1;marker-end:url(#marker4)"
       d="m -213.27998,237.48016 v 49.24411"
       id="path1-7" />
    <path
       style="fill:none;stroke:#ffcc00;stroke-width:0.6;stroke-linecap:butt;stroke-linejoin:miter;stroke-dasharray:none;stroke-opacity:1"
       d="M -213.27998,111.46876 V 62.224648"
       id="path1-8" />
    <path
       style="fill:none;stroke:#ffcc00;stroke-width:0.6;stroke-linecap:butt;stroke-linejoin:miter;stroke-dasharray:none;stroke-opacity:1"
       d="M -213.27998,170.35214 V 121.10805"
       id="path1-8-2" />
    <path
       style="fill:none;stroke:#ffcc00;stroke-width:0.6;stroke-linecap:butt;stroke-linejoin:miter;stroke-dasharray:none;stroke-opacity:1"
       d="M -213.27998,229.66377 V 179.75211"
       id="path1-8-2-5" />
    <text
       xml:space="preserve"
       style="font-size:4.19183px;line-height:1.25;font-family:'Lucida Console';-inkscape-font-specification:'Lucida Console';letter-spacing:0px;stroke-width:0.104796"
       x="-192.38028"
       y="233.36543"
       id="text2-4-0-1"><tspan
         sodipodi:role="line"
         id="tspan2-6-8-1"
         style="stroke-width:0.104796"
         x="-192.38028"
         y="233.36543">Ziel</tspan><tspan
         sodipodi:role="line"
         style="stroke-width:0.104796"
         x="-192.38028"
         y="238.60522"
         id="tspan3-7-5-6">Transparenz über mein Denken und Handeln.</tspan><tspan
         sodipodi:role="line"
         style="stroke-width:0.104796"
         x="-192.38028"
         y="243.845"
         id="tspan4">Offener Entwurf, kein Endprodukt.</tspan></text>
    <path
       d="m -208.61767,235.59642 3.38302,3.38302 q 0.26023,0.26023 0.396,0.594 0.14143,0.33378 0.14143,0.69584 0,0.37904 -0.14709,0.71281 -0.14143,0.33378 -0.39034,0.5827 -0.24892,0.24891 -0.5827,0.39034 -0.33377,0.14709 -0.71281,0.14709 -0.36772,0 -0.70149,-0.14143 -0.32812,-0.13577 -0.58835,-0.396 l -3.38302,-3.38303 v -0.62228 q -0.48086,0.2376 -0.99001,0.3564 -0.50915,0.1188 -1.04093,0.1188 -0.61664,0 -1.18802,-0.1584 -0.57138,-0.1584 -1.06921,-0.44692 -0.49784,-0.29418 -0.90516,-0.7015 -0.40732,-0.41297 -0.70149,-0.90516 -0.28852,-0.49783 -0.45258,-1.06921 -0.1584,-0.57138 -0.1584,-1.18801 0,-0.61664 0.1584,-1.18802 0.16406,-0.57138 0.45258,-1.06921 0.29417,-0.49784 0.70149,-0.90516 0.40732,-0.40732 0.90516,-0.69584 0.49783,-0.29418 1.06921,-0.45257 0.57138,-0.16406 1.18802,-0.16406 0.61663,0 1.18236,0.16406 0.57138,0.15839 1.06921,0.45257 0.49784,0.28852 0.90516,0.7015 0.40732,0.40731 0.69583,0.90516 0.29418,0.49217 0.45258,1.06355 0.16406,0.57138 0.16406,1.18802 0,0.53178 -0.12446,1.04092 -0.1188,0.50915 -0.3564,0.98436 z m -4.61629,1.62928 q 0.50349,0 0.96738,-0.13012 0.46955,-0.13012 0.87121,-0.36772 0.40732,-0.24325 0.7411,-0.57703 0.33943,-0.33378 0.57704,-0.7411 0.2376,-0.40732 0.36772,-0.87121 0.13011,-0.46955 0.13011,-0.97304 0,-0.5035 -0.13011,-0.96738 -0.13012,-0.46956 -0.36772,-0.87688 -0.23761,-0.40731 -0.57138,-0.74109 -0.33378,-0.33377 -0.7411,-0.57138 -0.40732,-0.24326 -0.87687,-0.37338 -0.46389,-0.13011 -0.96738,-0.13011 -0.50349,0 -0.97304,0.13011 -0.46955,0.13012 -0.87687,0.37338 -0.40167,0.23761 -0.73544,0.57138 -0.33378,0.33378 -0.57704,0.74109 -0.2376,0.40167 -0.36772,0.87122 -0.13011,0.46954 -0.13011,0.97304 0,0.75806 0.28851,1.42561 0.28852,0.66191 0.78636,1.15974 0.49783,0.49783 1.15973,0.78635 0.66755,0.28852 1.42562,0.28852 z m 5.98534,3.7677 0.71846,-0.71846 -3.13975,-3.14541 -0.71847,0.71846 z m 1.12578,-1.12578 0.31115,-0.31115 -3.13976,-3.14541 -0.31114,0.31115 z m -3.86388,-3.86388 q -0.17537,0.23194 -0.37903,0.43561 -0.198,0.20365 -0.42995,0.37337 l 0.40732,0.41298 0.80898,-0.81464 z"
       id="text1-9-1-5"
       style="font-size:10.5833px;line-height:1.25;font-family:'Lucida Console';-inkscape-font-specification:'Lucida Console';letter-spacing:0px;fill:#ffcc00;stroke-width:0.28965"
       aria-label="🔍" />
    <path
       d="m -176.44217,314.82582 5.91189,5.91189 q 0.45476,0.45475 0.69202,1.03802 0.24715,0.58329 0.24715,1.21599 0,0.66238 -0.25704,1.24565 -0.24715,0.58329 -0.68213,1.01828 -0.43499,0.43498 -1.01828,0.68213 -0.58326,0.25704 -1.24564,0.25704 -0.6426,0 -1.22587,-0.24715 -0.5734,-0.23726 -1.02815,-0.69202 l -5.91189,-5.9119 v -1.08745 q -0.84031,0.41521 -1.73006,0.62282 -0.88975,0.2076 -1.81905,0.2076 -1.07759,0 -2.07608,-0.27681 -0.9985,-0.2768 -1.86847,-0.781 -0.86998,-0.51408 -1.58178,-1.22588 -0.7118,-0.72167 -1.22587,-1.58178 -0.50419,-0.86997 -0.79089,-1.86847 -0.2768,-0.9985 -0.2768,-2.07607 0,-1.07759 0.2768,-2.07608 0.2867,-0.9985 0.79089,-1.86847 0.51407,-0.86998 1.22587,-1.58178 0.7118,-0.7118 1.58178,-1.21599 0.86997,-0.51409 1.86847,-0.79088 0.99849,-0.2867 2.07608,-0.2867 1.07758,0 2.0662,0.2867 0.9985,0.27679 1.86846,0.79088 0.86999,0.50419 1.58179,1.22588 0.7118,0.71178 1.21597,1.58178 0.51409,0.86008 0.79089,1.85858 0.2867,0.99849 0.2867,2.07608 0,0.9293 -0.21749,1.81903 -0.20761,0.88975 -0.62282,1.72019 z m -8.06705,2.84719 q 0.87986,0 1.69052,-0.22738 0.82055,-0.22739 1.52247,-0.6426 0.7118,-0.42509 1.29507,-1.00837 0.59316,-0.58329 1.00839,-1.29509 0.41521,-0.7118 0.64259,-1.52245 0.22737,-0.82055 0.22737,-1.70041 0,-0.87987 -0.22737,-1.69051 -0.22738,-0.82057 -0.64259,-1.53237 -0.41523,-0.71178 -0.9985,-1.29506 -0.58329,-0.58327 -1.29509,-0.9985 -0.71179,-0.4251 -1.53234,-0.65249 -0.81066,-0.22737 -1.69052,-0.22737 -0.87985,0 -1.7004,0.22737 -0.82055,0.22739 -1.53235,0.65249 -0.70191,0.41523 -1.28519,0.9985 -0.58329,0.58328 -1.00839,1.29506 -0.41521,0.70193 -0.6426,1.52248 -0.22737,0.82053 -0.22737,1.7004 0,1.32473 0.5042,2.49128 0.50417,1.1567 1.37416,2.02667 0.86997,0.86997 2.02665,1.37416 1.16655,0.50419 2.49129,0.50419 z m 10.45949,6.58413 1.25553,-1.25552 -5.48677,-5.49667 -1.25554,1.25553 z m 1.96732,-1.96732 0.54375,-0.54374 -5.48679,-5.49667 -0.54373,0.54375 z m -6.7522,-6.7522 q -0.30646,0.40532 -0.66236,0.76123 -0.34601,0.35588 -0.75134,0.65247 l 0.7118,0.72169 1.4137,-1.4236 z"
       id="text1-9-1-5-2"
       style="font-size:10.5833px;line-height:1.25;font-family:'Lucida Console';-inkscape-font-specification:'Lucida Console';letter-spacing:0px;fill:#ffcc00;stroke-width:0.506169"
       aria-label="🔍" />
    <text
       xml:space="preserve"
       style="font-size:4.19183px;line-height:1.25;font-family:'Lucida Console';-inkscape-font-specification:'Lucida Console';letter-spacing:0px;stroke-width:0.104796"
       x="-192.38028"
       y="114.80271"
       id="text2-4"><tspan
         sodipodi:role="line"
         id="tspan2-6"
         style="stroke-width:0.104796"
         x="-192.38028"
         y="114.80271">Ansatz</tspan><tspan
         sodipodi:role="line"
         style="stroke-width:0.104796"
         x="-192.38028"
         y="120.0425"
         id="tspan3-7">Design Thinking statt Standardbewerbung.</tspan></text>
    <text
       xml:space="preserve"
       style="font-size:4.19183px;line-height:1.25;font-family:'Lucida Console';-inkscape-font-specification:'Lucida Console';letter-spacing:0px;stroke-width:0.104796"
       x="-192.54813"
       y="54.285061"
       id="text2"><tspan
         sodipodi:role="line"
         id="tspan2"
         style="stroke-width:0.104796"
         x="-192.54813"
         y="54.285061">Mission</tspan><tspan
         sodipodi:role="line"
         style="stroke-width:0.104796"
         x="-192.54813"
         y="59.524849"
         id="tspan3">Ich denke Bewerbung neu.</tspan></text>
    <path
       style="fill:none;stroke:#ffcc00;stroke-width:0.6;stroke-linecap:butt;stroke-linejoin:miter;stroke-dasharray:none;stroke-opacity:1;marker-start:url(#Dot-1-7)"
       d="M -353.55998,355.35853 V 295.5311"
       id="path1-2-1"
       sodipodi:nodetypes="cc" />
    <path
       style="fill:none;stroke:#ffcc00;stroke-width:0.6;stroke-linecap:butt;stroke-linejoin:miter;stroke-dasharray:none;stroke-opacity:1;marker-start:url(#Dot-1-7-7)"
       d="m -353.55997,15.507532 v 59.82743"
       id="path1-2-1-3"
       sodipodi:nodetypes="cc" />
    <path
       style="fill:none;stroke:#ffcc00;stroke-width:0.6;stroke-linecap:butt;stroke-linejoin:miter;stroke-dasharray:none;stroke-opacity:1;marker-start:url(#Dot-1-7-7-7)"
       d="m 325.00001,5.246957 v 59.82743"
       id="path1-2-1-3-8"
       sodipodi:nodetypes="cc" />
    <path
       style="fill:none;stroke:#ffcc00;stroke-width:0.6;stroke-linecap:butt;stroke-linejoin:miter;stroke-dasharray:none;stroke-opacity:1"
       d="m 325.00001,102.35531 v 67.84702"
       id="path1-2-1-3-8-2"
       sodipodi:nodetypes="cc" />
    <path
       style="fill:none;stroke:#ffcc00;stroke-width:0.6;stroke-linecap:butt;stroke-linejoin:miter;stroke-dasharray:none;stroke-opacity:1"
       d="M -353.55998,136.21486 V 112.61588"
       id="path1-8-6"
       sodipodi:nodetypes="cc" />
    <path
       style="fill:none;stroke:#ffcc00;stroke-width:0.6;stroke-linecap:butt;stroke-linejoin:miter;stroke-dasharray:none;stroke-opacity:1"
       d="M -353.55998,196.82225 V 173.22327"
       id="path1-8-6-8"
       sodipodi:nodetypes="cc" />
    <path
       style="fill:none;stroke:#ffcc00;stroke-width:0.6;stroke-linecap:butt;stroke-linejoin:miter;stroke-dasharray:none;stroke-opacity:1"
       d="M -353.55998,257.69914 V 234.10016"
       id="path1-8-6-8-4"
       sodipodi:nodetypes="cc" />
    <g
       id="g6"
       transform="translate(-679.04781,54.872119)">
      <path
         d="m 266.21565,27.734297 q 1.07759,0 2.07609,0.286696 0.99847,0.276812 1.85857,0.790886 0.86998,0.504192 1.58178,1.21599 0.72167,0.711801 1.22587,1.581776 0.51408,0.869976 0.79089,1.868471 0.27681,0.998497 0.27681,2.07608 0,1.591662 -0.56351,3.015258 -0.5635,1.413713 -1.61144,2.609927 -0.2768,0.316357 -0.58327,0.593167 -0.29658,0.266925 -0.59317,0.553621 -0.19772,0.187846 -0.36578,0.385558 -0.16811,0.187846 -0.28669,0.395444 -0.11866,0.207607 -0.18785,0.444875 -0.0692,0.237266 -0.0692,0.523962 v 3.905007 q 0,0.326241 -0.11865,0.622823 -0.1087,0.306471 -0.31636,0.543736 -0.19773,0.237266 -0.48443,0.395445 -0.2768,0.158167 -0.60305,0.197719 l -0.73156,0.731572 h -2.60005 l -0.73158,-0.731572 q -0.32622,-0.03955 -0.61292,-0.197719 -0.27681,-0.158168 -0.48443,-0.395445 -0.19771,-0.237265 -0.31635,-0.543736 -0.1087,-0.296582 -0.1087,-0.622823 v -3.905007 q 0,-0.286696 -0.0692,-0.523962 -0.0692,-0.237268 -0.18784,-0.444875 -0.11866,-0.207606 -0.2867,-0.395444 -0.15815,-0.197723 -0.3559,-0.385558 -0.29657,-0.286696 -0.60303,-0.553621 -0.29659,-0.27681 -0.5734,-0.593167 -1.04793,-1.196214 -1.62133,-2.609927 -0.5635,-1.423596 -0.5635,-3.015258 0,-1.077583 0.2768,-2.07608 0.2867,-0.998495 0.7909,-1.868471 0.51408,-0.869975 1.22588,-1.581776 0.7118,-0.711798 1.58177,-1.21599 0.86998,-0.514074 1.86848,-0.790886 0.99849,-0.286696 2.07607,-0.286696 z m 2.1255,16.341711 q 0,-0.45476 0.0989,-0.840317 0.0989,-0.395444 0.2867,-0.731572 0.18783,-0.346012 0.44489,-0.652482 0.26691,-0.316355 0.59316,-0.612938 0.64259,-0.593164 1.16655,-1.21599 0.52396,-0.622822 0.88975,-1.304964 0.37568,-0.692024 0.5734,-1.473027 0.2076,-0.781 0.2076,-1.690522 0,-1.324736 -0.50419,-2.491295 -0.49431,-1.16656 -1.36427,-2.02665 -0.86999,-0.869975 -2.03654,-1.374167 -1.15669,-0.504191 -2.48141,-0.504191 -0.88975,0 -1.71029,0.227382 -0.81066,0.227378 -1.52246,0.642594 -0.7118,0.415217 -1.29509,0.998497 -0.58328,0.583279 -0.99849,1.295078 -0.41521,0.711798 -0.6426,1.532345 -0.22737,0.820545 -0.22737,1.700407 0,0.899634 0.19771,1.680635 0.20761,0.781002 0.5734,1.473028 0.37568,0.692028 0.89964,1.31485 0.52396,0.622826 1.16656,1.21599 0.32624,0.296583 0.58326,0.612938 0.26694,0.30647 0.44489,0.652482 0.18784,0.336128 0.2867,0.731572 0.10869,0.385557 0.10869,0.840317 h 0.7118 v -2.837309 q -0.2867,0 -0.50419,-0.207607 -0.20761,-0.207609 -0.20761,-0.504192 0,-0.296582 0.20761,-0.504191 0.2076,-0.207606 0.50419,-0.207606 0.29659,0 0.50419,0.207606 0.20761,0.207609 0.20761,0.504191 h 1.41371 q 0,-0.286696 0.2076,-0.494303 0.20761,-0.217494 0.5042,-0.217494 0.29658,0 0.50419,0.207606 0.2076,0.207609 0.2076,0.504191 0,0.296583 -0.21749,0.504192 -0.20761,0.207607 -0.4943,0.207607 v 2.837309 z m 0,3.905007 q 0,-0.237266 -0.15815,-0.296583 -0.15815,-0.04944 -0.346,-0.04944 h -0.20761 v -0.711799 h 0.20761 q 0.18784,0 0.346,-0.05933 0.15815,-0.04944 0.15815,-0.296583 0,-0.237266 -0.14818,-0.296584 -0.14837,-0.05931 -0.33612,-0.05931 h -0.22739 v -0.711801 h -2.8373 v 0.711801 h -0.20761 q -0.18786,0 -0.34603,0.04944 -0.15815,0.05933 -0.15815,0.306467 0,0.237268 0.14837,0.296584 0.14819,0.05933 0.33613,0.05933 h 0.22739 v 0.711799 h -0.12844 q -0.0989,0 -0.20762,0 -0.0989,0.01 -0.18785,0.03955 -0.0792,0.03955 -0.1384,0.108731 -0.0495,0.0692 -0.0495,0.197723 0,0.237265 0.14836,0.296583 0.14819,0.05931 0.33614,0.05931 h 0.22737 l 0.71179,0.711799 h 1.41373 l 0.7118,-0.711799 h 0.2076 q 0.18784,0 0.34601,-0.05931 0.15815,-0.04944 0.15815,-0.296583 z m -2.8373,-6.742316 v 2.837309 h 1.41371 v -2.837309 z"
         id="text1-97"
         style="font-size:10.5833px;line-height:1.25;font-family:'Lucida Console';-inkscape-font-specification:'Lucida Console';letter-spacing:0px;fill:#ffcc00;stroke-width:0.506169"
         aria-label="💡" />
      <text
         xml:space="preserve"
         style="font-size:4.19183px;line-height:1.25;font-family:'Lucida Console';-inkscape-font-specification:'Lucida Console';letter-spacing:0px;stroke-width:0.104796"
         x="286.87057"
         y="37.669525"
         id="text2-0"><tspan
           sodipodi:role="line"
           id="tspan2-1"
           style="stroke-width:0.104796"
           x="286.87057"
           y="37.669525">Mission</tspan><tspan
           sodipodi:role="line"
           style="stroke-width:0.104796"
           x="286.87057"
           y="42.909313"
           id="tspan3-6">Ich denke Bewerbung neu.</tspan></text>
      <rect
         style="fill:none;fill-opacity:1;stroke:#ffcc00;stroke-width:0.689854;stroke-linecap:round;stroke-linejoin:round;stroke-dasharray:none;stroke-opacity:1"
         id="rect6"
         width="149.12369"
         height="37.280922"
         x="250.92599"
         y="20.462843"
         ry="3.2719958" />
    </g>
    <text
       xml:space="preserve"
       style="font-size:4.19183px;line-height:1.25;font-family:'Lucida Console';-inkscape-font-specification:'Lucida Console';letter-spacing:0px;stroke-width:0.104796"
       x="286.38275"
       y="80.065414"
       id="text2-0-3"><tspan
         sodipodi:role="line"
         id="tspan2-1-9"
         style="stroke-width:0.104796"
         x="286.38275"
         y="80.065414">Einladung</tspan><tspan
         sodipodi:role="line"
         style="stroke-width:0.104796"
         x="286.38275"
         y="85.305199"
         id="tspan3-6-5">Lass uns gemeinsam herausfinden,</tspan><tspan
         sodipodi:role="line"
         style="stroke-width:0.104796"
         x="286.38275"
         y="90.544991"
         id="tspan11">wo ich wirksam sein kann.</tspan></text>
    <rect
       style="fill:none;fill-opacity:1;stroke:#ffcc00;stroke-width:0.689854;stroke-linecap:round;stroke-linejoin:round;stroke-dasharray:none;stroke-opacity:1"
       id="rect6-1"
       width="149.12369"
       height="37.280922"
       x="250.43816"
       y="65.074387"
       ry="3.2719958" />
    <g
       id="g7"
       transform="translate(-676.85259,51.860964)">
      <path
         d="m 277.57966,101.2148 q 0,0.71179 -0.23726,1.38405 -0.22739,0.67225 -0.66237,1.23577 0.0989,0.31636 0.13841,0.64258 0.0495,0.32625 0.0495,0.65249 0,0.96884 -0.40533,1.86848 -0.39545,0.88973 -1.10725,1.54224 -0.36577,0.9194 -0.96884,1.67073 -0.60305,0.75135 -1.38405,1.27532 -0.77111,0.52394 -1.69052,0.81064 -0.9194,0.28672 -1.90801,0.28672 -0.68214,0 -1.34452,-0.14819 -0.66236,-0.13858 -1.2753,-0.41521 -0.61293,-0.27681 -1.16656,-0.68216 -0.54372,-0.39543 -0.9985,-0.90952 -0.80076,-0.0989 -1.52245,-0.45475 -0.72169,-0.35589 -1.2852,-0.93917 h -2.35289 q -0.94906,0 -1.78939,-0.36579 -0.84031,-0.36579 -1.47302,-0.98863 -0.62283,-0.6327 -0.9886,-1.473 -0.36579,-0.84033 -0.36579,-1.78939 v -2.13539 q 0,-0.56353 0.15815,-1.08748 0.15815,-0.53385 0.45475,-0.98861 0.29659,-0.464646 0.7118,-0.830416 0.41523,-0.375681 0.91943,-0.612961 0.18782,-0.87986 0.64258,-1.60153 0.46464,-0.73158 1.11713,-1.24565 0.66236,-0.52397 1.47304,-0.80078 0.82053,-0.28668 1.71029,-0.28668 0.69202,-0.68216 1.59166,-1.04794 0.90951,-0.37568 1.87835,-0.37568 0.7909,0 1.53235,0.24715 0.75135,0.23726 1.38405,0.7118 0.41521,-0.12861 0.84031,-0.18785 0.4251,-0.0592 0.8601,-0.0592 0.87986,0 1.71029,0.24715 0.83044,0.24715 1.54224,0.7118 0.72167,0.45475 1.28518,1.10724 0.57339,0.6426 0.94907,1.44338 0.45476,0.29657 0.82055,0.69202 0.37567,0.38555 0.62282,0.850221 0.25704,0.46463 0.39544,0.988586 0.13841,0.51406 0.13841,1.0578 z m -1.68063,1.17644 q 0.13841,-0.2768 0.19772,-0.57339 0.0594,-0.29657 0.0594,-0.60305 0,-0.41521 -0.11865,-0.81066 -0.11866,-0.39545 -0.34601,-0.731576 -0.2175,-0.3361 -0.52396,-0.603031 -0.30648,-0.27681 -0.69203,-0.44487 -0.24716,-0.69205 -0.68215,-1.25554 -0.43499,-0.5734 -1.00837,-0.97873 -0.57339,-0.40532 -1.25554,-0.63273 -0.68214,-0.22737 -1.41371,-0.22737 -1.04793,0 -1.99699,0.46467 l 0.0989,-0.0397 q -0.47454,0.21748 -0.81066,0.45477 -0.33613,0.23725 -0.60305,0.52394 -0.25704,0.2867 -0.47454,0.64262 -0.21749,0.34599 -0.46464,0.78098 -0.1087,0.19773 -0.27681,0.31636 -0.15815,0.10887 -0.38555,0.10887 -0.2867,0 -0.49433,-0.20761 -0.2076,-0.21749 -0.2076,-0.50419 0,-0.11866 0.0495,-0.26694 0.14837,-0.39542 0.38556,-0.781 0.24717,-0.39543 0.54374,-0.74145 0.30648,-0.3559 0.65249,-0.65247 0.34601,-0.30648 0.70191,-0.53387 l 0.0494,0.009 q -0.32624,-0.13858 -0.68214,-0.2076 -0.34601,-0.0692 -0.70191,-0.0692 -0.86009,0 -1.62131,0.39542 -0.75135,0.38556 -1.25554,1.08747 -0.16811,-0.0297 -0.33614,-0.0493 -0.16811,-0.0197 -0.33612,-0.0197 -0.71179,0 -1.36428,0.2768 -0.6426,0.26694 -1.1369,0.74146 -0.48442,0.47454 -0.77111,1.11715 -0.2867,0.63269 -0.2867,1.354381 v 0.0692 q 0,0.009 0,0.0197 0.0105,0 0.0105,0.009 -0.45475,0.0692 -0.8502,0.286696 -0.38555,0.21749 -0.67225,0.54374 -0.2867,0.32622 -0.45478,0.74144 -0.15815,0.41522 -0.15815,0.87987 v 2.1354 q 0,0.66236 0.24716,1.24565 0.25704,0.57339 0.69203,1.00837 0.43499,0.43499 1.00837,0.69203 0.58329,0.24715 1.24565,0.24715 h 1.32474 q 0.0692,-0.0692 0.12862,-0.12861 0.0594,-0.0692 0.12862,-0.12862 0.32622,-0.31636 0.62281,-0.62284 0.29659,-0.30647 0.51409,-0.64259 0.22737,-0.34601 0.35589,-0.75135 0.12845,-0.40533 0.12845,-0.91938 0,-0.5042 -0.12845,-0.90955 -0.11865,-0.41521 -0.34602,-0.75135 -0.2175,-0.34599 -0.54372,-0.63269 -0.32625,-0.28671 -0.72169,-0.55363 -0.17795,-0.11865 -0.2867,-0.25704 -0.0989,-0.14819 -0.0989,-0.37566 0,-0.29659 0.20762,-0.5042 0.21748,-0.2076 0.51407,-0.2076 0.2076,0 0.46465,0.15815 0.26693,0.14819 0.52395,0.3658 0.26694,0.20761 0.49431,0.43498 0.22738,0.22739 0.3559,0.38557 0.40533,-0.16811 0.82054,-0.25704 0.42511,-0.0989 0.86999,-0.0989 0.2867,0 0.4943,0.2175 0.2175,0.2076 0.2175,0.4943 0,0.29659 -0.20761,0.50419 -0.2076,0.20761 -0.50419,0.20761 -0.52396,0 -0.9985,0.17791 0.2867,0.781 0.2867,1.61142 0,0.53385 -0.0989,0.97874 -0.0989,0.44488 -0.2867,0.8502 -0.17795,0.40534 -0.45475,0.78102 -0.26694,0.36577 -0.61295,0.75134 0.44489,0.59315 1.10725,0.91941 0.67225,0.32622 1.41371,0.32622 0.54374,0 1.04793,-0.17791 0.51407,-0.18786 0.93917,-0.53383 h 0.0495 q 0.68215,-0.65251 1.31485,-1.31487 0.6426,-0.67224 1.32474,-1.32474 0.63271,-0.61293 1.34451,-0.93917 0.72169,-0.32623 1.62133,-0.32623 0.17795,0 0.33612,0.0397 0.15815,0.0297 0.2768,0.11866 0.12845,0.079 0.19774,0.2175 0.0792,0.13822 0.0792,0.33611 0,0.19774 -0.0792,0.33612 -0.0692,0.13858 -0.18786,0.22741 -0.11866,0.079 -0.28668,0.11865 -0.15815,0.0297 -0.33614,0.0297 -0.59316,0 -1.0677,0.2175 -0.47453,0.21749 -0.88975,0.6327 l -1.64109,1.63123 h 3.06469 q 0.66236,0 1.23576,-0.24716 0.58329,-0.25704 1.01828,-0.69205 0.43497,-0.43497 0.68213,-1.00835 0.25704,-0.58329 0.25704,-1.24567 0,-0.43497 -0.11866,-0.84031 -0.10869,-0.41521 -0.32624,-0.78102 -0.20761,-0.34599 -0.49431,-0.63269 -0.28669,-0.28671 -0.64259,-0.49432 -0.34601,-0.2076 -0.74146,-0.32624 -0.38555,-0.11866 -0.80076,-0.11866 -0.55363,0 -1.10725,0 -0.54374,-0.009 -1.09735,-0.009 -0.2867,0 -0.5042,-0.2076 -0.2076,-0.2175 -0.2076,-0.5042 0,-0.28669 0.2076,-0.4943 0.2175,-0.20762 0.5042,-0.20762 h 1.19619 q -0.0594,-0.35588 -0.0989,-0.711796 -0.0297,-0.35588 -0.0297,-0.711801 0,-0.29655 0.20761,-0.50416 0.20761,-0.20762 0.50419,-0.20762 0.29659,0 0.5042,0.20762 0.2076,0.20761 0.2076,0.50416 0,0.365811 0.0395,0.731581 0.0395,0.365786 0.11865,0.721686 0.93917,0.1087 1.75972,0.58329 0.82055,0.46463 1.39394,1.2061 z"
         id="text1-9-7"
         style="font-size:10.5833px;line-height:1.25;font-family:'Lucida Console';-inkscape-font-specification:'Lucida Console';letter-spacing:0px;fill:#ffcc00;stroke-width:0.506169"
         aria-label="🧠" />
      <text
         xml:space="preserve"
         style="font-size:4.19183px;line-height:1.25;font-family:'Lucida Console';-inkscape-font-specification:'Lucida Console';letter-spacing:0px;stroke-width:0.104796"
         x="287.03842"
         y="101.26994"
         id="text2-4-1"><tspan
           sodipodi:role="line"
           id="tspan2-6-4"
           style="stroke-width:0.104796"
           x="287.03842"
           y="101.26994">Ansatz</tspan><tspan
           sodipodi:role="line"
           style="stroke-width:0.104796"
           x="287.03842"
           y="106.50973"
           id="tspan3-7-7">Design Thinking statt Standardbewerbung.</tspan></text>
      <rect
         style="fill:none;fill-opacity:1;stroke:#ffcc00;stroke-width:0.689854;stroke-linecap:round;stroke-linejoin:round;stroke-dasharray:none;stroke-opacity:1"
         id="rect6-8"
         width="149.12369"
         height="37.280922"
         x="248.73077"
         y="84.353897"
         ry="3.2719958" />
    </g>
    <g
       id="g8"
       transform="translate(-675.9956,51.539355)">
      <text
         xml:space="preserve"
         style="font-size:4.19183px;line-height:1.25;font-family:'Lucida Console';-inkscape-font-specification:'Lucida Console';letter-spacing:0px;stroke-width:0.104796"
         x="287.03021"
         y="163.35362"
         id="text2-4-0-16"><tspan
           sodipodi:role="line"
           id="tspan2-6-8-6"
           style="stroke-width:0.104796"
           x="287.03021"
           y="163.35362">Ich zeige</tspan><tspan
           sodipodi:role="line"
           style="stroke-width:0.104796"
           x="287.03021"
           y="168.59341"
           id="tspan3-7-5-2">Werte, Stärken, Fragen, Potenziale.</tspan></text>
      <path
         d="m 271.134,153.95387 q 0.88974,0 1.71029,0.23728 0.82053,0.22737 1.53233,0.65247 0.72169,0.41522 1.30498,1.00838 0.59316,0.58329 1.00837,1.30498 0.4251,0.7118 0.65249,1.53233 0.23726,0.82055 0.23726,1.7103 0,1.31485 -0.48442,2.47151 -0.47453,1.15668 -1.40383,2.08598 l -9.48076,9.48077 -9.48075,-9.48077 q -0.9293,-0.9293 -1.41371,-2.08598 -0.47454,-1.15666 -0.47454,-2.47151 0,-0.88975 0.22739,-1.7103 0.23726,-0.83042 0.65247,-1.54222 0.41521,-0.7118 1.00839,-1.30498 0.59316,-0.59316 1.30495,-1.00838 0.7118,-0.41521 1.53235,-0.64258 0.83044,-0.23728 1.72019,-0.23728 0.76122,0 1.43347,0.15815 0.67225,0.14819 1.26543,0.43499 0.60305,0.28668 1.14679,0.7118 0.55361,0.41521 1.07757,0.94906 0.52396,-0.53385 1.0677,-0.94906 0.55363,-0.42512 1.14679,-0.7118 0.60305,-0.29659 1.27531,-0.44488 0.67225,-0.14819 1.43349,-0.14819 z m -4.92329,18.47712 8.47239,-8.48226 q 0.7118,-0.7118 1.08746,-1.62135 0.38556,-0.91939 0.38556,-1.92777 0,-1.03803 -0.39545,-1.94756 -0.39543,-0.9194 -1.07757,-1.60155 -0.68214,-0.68214 -1.60155,-1.07759 -0.90953,-0.39544 -1.94755,-0.39544 -0.81068,0 -1.44338,0.19773 -0.63271,0.19771 -1.16656,0.54374 -0.53385,0.33612 -1.01826,0.80076 -0.47454,0.45476 -0.97873,0.96884 l -0.31636,0.32623 -0.28669,-0.29657 q -0.5042,-0.52396 -0.98861,-0.97871 -0.48441,-0.46465 -1.02815,-0.81068 -0.53385,-0.34601 -1.17645,-0.54374 -0.63271,-0.2076 -1.44336,-0.2076 -1.03805,0 -1.95745,0.39544 -0.90953,0.39545 -1.59167,1.07759 -0.68213,0.68215 -1.07758,1.60155 -0.39544,0.90953 -0.39544,1.94756 0,1.00838 0.37566,1.92777 0.38557,0.90955 1.09736,1.62135 z"
         id="text1-9-1-9"
         style="font-size:10.5833px;line-height:1.25;font-family:'Lucida Console';-inkscape-font-specification:'Lucida Console';letter-spacing:0px;fill:#ffcc00;stroke-width:0.506169"
         aria-label="❤️" />
      <rect
         style="fill:none;fill-opacity:1;stroke:#ffcc00;stroke-width:0.689854;stroke-linecap:round;stroke-linejoin:round;stroke-dasharray:none;stroke-opacity:1"
         id="rect6-8-4"
         width="149.12369"
         height="37.280922"
         x="247.87378"
         y="145.5554"
         ry="3.2719958" />
    </g>
    <g
       id="g9"
       transform="translate(-675.94305,54.872119)">
      <text
         xml:space="preserve"
         style="font-size:4.19183px;line-height:1.25;font-family:'Lucida Console';-inkscape-font-specification:'Lucida Console';letter-spacing:0px;stroke-width:0.104796"
         x="287.01181"
         y="217.97226"
         id="text2-4-0-1-8"><tspan
           sodipodi:role="line"
           id="tspan2-6-8-1-9"
           style="stroke-width:0.104796"
           x="287.01181"
           y="217.97226">Ziel</tspan><tspan
           sodipodi:role="line"
           style="stroke-width:0.104796"
           x="287.01181"
           y="223.21205"
           id="tspan3-7-5-6-8">Transparenz über mein Denken und Handeln.</tspan><tspan
           sodipodi:role="line"
           style="stroke-width:0.104796"
           x="287.01181"
           y="228.45183"
           id="tspan4-2">Offener Entwurf, kein Endprodukt.</tspan></text>
      <path
         d="m 270.72865,221.74301 5.91189,5.91189 q 0.45476,0.45475 0.69202,1.03802 0.24715,0.58329 0.24715,1.21599 0,0.66238 -0.25704,1.24565 -0.24715,0.58329 -0.68213,1.01828 -0.43499,0.43498 -1.01828,0.68213 -0.58326,0.25704 -1.24564,0.25704 -0.6426,0 -1.22587,-0.24715 -0.5734,-0.23726 -1.02815,-0.69202 l -5.91189,-5.9119 v -1.08745 q -0.84031,0.41521 -1.73006,0.62282 -0.88975,0.2076 -1.81905,0.2076 -1.07759,0 -2.07608,-0.27681 -0.9985,-0.2768 -1.86847,-0.781 -0.86998,-0.51408 -1.58178,-1.22588 -0.7118,-0.72167 -1.22587,-1.58178 -0.50419,-0.86997 -0.79089,-1.86847 -0.27679,-0.9985 -0.27679,-2.07607 0,-1.07759 0.27679,-2.07608 0.2867,-0.9985 0.79089,-1.86847 0.51407,-0.86998 1.22587,-1.58178 0.7118,-0.7118 1.58178,-1.21599 0.86997,-0.51409 1.86847,-0.79088 0.99849,-0.2867 2.07608,-0.2867 1.07758,0 2.0662,0.2867 0.9985,0.27679 1.86846,0.79088 0.86999,0.50419 1.58179,1.22588 0.7118,0.71178 1.21597,1.58178 0.51409,0.86008 0.79089,1.85858 0.2867,0.99849 0.2867,2.07608 0,0.9293 -0.21749,1.81903 -0.20761,0.88975 -0.62282,1.72019 z m -8.06705,2.84719 q 0.87986,0 1.69052,-0.22738 0.82055,-0.22739 1.52247,-0.6426 0.7118,-0.42509 1.29507,-1.00837 0.59316,-0.58329 1.00839,-1.29509 0.41521,-0.7118 0.64259,-1.52245 0.22737,-0.82055 0.22737,-1.70041 0,-0.87987 -0.22737,-1.69051 -0.22738,-0.82057 -0.64259,-1.53237 -0.41523,-0.71178 -0.9985,-1.29506 -0.58329,-0.58327 -1.29509,-0.9985 -0.71179,-0.4251 -1.53234,-0.65249 -0.81066,-0.22737 -1.69052,-0.22737 -0.87985,0 -1.7004,0.22737 -0.82055,0.22739 -1.53235,0.65249 -0.70191,0.41523 -1.28519,0.9985 -0.58329,0.58328 -1.00839,1.29506 -0.41521,0.70193 -0.6426,1.52248 -0.22737,0.82053 -0.22737,1.7004 0,1.32473 0.5042,2.49128 0.50417,1.1567 1.37416,2.02667 0.86997,0.86997 2.02665,1.37416 1.16655,0.50419 2.49129,0.50419 z m 10.45949,6.58413 1.25553,-1.25552 -5.48677,-5.49667 -1.25554,1.25553 z m 1.96732,-1.96732 0.54375,-0.54374 -5.48679,-5.49667 -0.54373,0.54375 z m -6.7522,-6.7522 q -0.30646,0.40532 -0.66236,0.76123 -0.34601,0.35588 -0.75134,0.65247 l 0.7118,0.72169 1.4137,-1.4236 z"
         id="text1-9-1-5-2-2"
         style="font-size:10.5833px;line-height:1.25;font-family:'Lucida Console';-inkscape-font-specification:'Lucida Console';letter-spacing:0px;fill:#ffcc00;stroke-width:0.506169"
         aria-label="🔍" />
      <rect
         style="fill:none;fill-opacity:1;stroke:#ffcc00;stroke-width:0.689854;stroke-linecap:round;stroke-linejoin:round;stroke-dasharray:none;stroke-opacity:1"
         id="rect6-8-4-9"
         width="149.12369"
         height="37.280922"
         x="247.82123"
         y="203.10254"
         ry="3.2719958" />
    </g>
    <path
       style="fill:none;stroke:#ffcc00;stroke-width:0.6;stroke-linecap:butt;stroke-linejoin:miter;stroke-dasharray:none;stroke-opacity:1;marker-start:url(#ArrowTriangleStylized)"
       d="m 325.00001,590.55922 0,-308.88779"
       id="path1-2-1-3-8-5"
       sodipodi:nodetypes="cc" />
    <g
       id="g14"
       transform="translate(-1.0472209e-5)">
      <rect
         style="fill:none;fill-opacity:1;stroke:#ffcc00;stroke-width:0.600001;stroke-linecap:round;stroke-linejoin:round;stroke-dasharray:none;stroke-opacity:1"
         id="rect11"
         width="189.52187"
         height="111.4691"
         x="230.23909"
         y="170.20233" />
      <text
         xml:space="preserve"
         transform="matrix(0.26458333,0,0,0.26458333,213.95763,21.843358)"
         id="text11"
         style="font-size:26.6667px;line-height:1.25;font-family:'Lucida Console';-inkscape-font-specification:'Lucida Console';letter-spacing:0px;white-space:pre;shape-inside:url(#rect12);display:inline;fill:#000000"><tspan
           x="111.54688"
           y="631.98792"
           id="tspan1">&gt; co-creation initialized
</tspan><tspan
           x="111.54688"
           y="665.32129"
           id="tspan5">&gt; empathy_protocol activated
</tspan><tspan
           x="111.54688"
           y="698.65467"
           id="tspan6">&gt; transmitting values...
</tspan><tspan
           x="111.54688"
           y="731.98804"
           id="tspan7">&gt; parsing potential...
</tspan><tspan
           x="111.54688"
           y="765.32141"
           id="tspan8">&gt; prototyping in progress </tspan><tspan
           x="111.54688"
           y="798.65479"
           id="tspan9">█▒▒▒▒▒▒▒▒▒
</tspan><tspan
           x="111.54688"
           y="831.98816"
           id="tspan10">&gt; awaiting collaboration signal _</tspan></text>
    </g>
  </g>
</svg>
