<?xml version="1.0" encoding="UTF-8" standalone="no"?>
<!-- Created with Inkscape (http://www.inkscape.org/) -->

<svg
   width="100mm"
   height="100mm"
   viewBox="0 0 100 100"
   version="1.1"
   id="svg1"
   xml:space="preserve"
   sodipodi:docname="hand.svg"
   inkscape:version="1.3.2 (091e20e, 2023-11-25, custom)"
   xmlns:inkscape="http://www.inkscape.org/namespaces/inkscape"
   xmlns:sodipodi="http://sodipodi.sourceforge.net/DTD/sodipodi-0.dtd"
   xmlns="http://www.w3.org/2000/svg"
   xmlns:svg="http://www.w3.org/2000/svg"><sodipodi:namedview
     id="namedview1"
     pagecolor="#ffffff"
     bordercolor="#666666"
     borderopacity="1.0"
     inkscape:showpageshadow="2"
     inkscape:pageopacity="0.0"
     inkscape:pagecheckerboard="0"
     inkscape:deskcolor="#d1d1d1"
     inkscape:document-units="mm"
     inkscape:zoom="1.0847363"
     inkscape:cx="-47.016034"
     inkscape:cy="237.38488"
     inkscape:window-width="1920"
     inkscape:window-height="1057"
     inkscape:window-x="-8"
     inkscape:window-y="-8"
     inkscape:window-maximized="1"
     inkscape:current-layer="layer1" /><defs
     id="defs1"><marker
       style="overflow:visible"
       id="Dot"
       refX="0"
       refY="0"
       orient="auto"
       inkscape:stockid="Dot"
       markerWidth="1"
       markerHeight="1"
       viewBox="0 0 1 1"
       inkscape:isstock="true"
       inkscape:collect="always"
       preserveAspectRatio="xMidYMid"><path
         transform="scale(0.5)"
         style="fill:context-stroke;fill-rule:evenodd;stroke:none"
         d="M 5,0 C 5,2.76 2.76,5 0,5 -2.76,5 -5,2.76 -5,0 c 0,-2.76 2.3,-5 5,-5 2.76,0 5,2.24 5,5 z"
         sodipodi:nodetypes="sssss"
         id="path17" /></marker></defs><g
     inkscape:label="Ebene 1"
     inkscape:groupmode="layer"
     id="layer1"><path
       style="fill:#000000"
       id="path2"
       d="" /><path
       style="fill:#ffcc00;fill-opacity:1;stroke-width:0.678112"
       d="m 51.47024,92.497329 c 0,-0.381079 0.813403,-0.967097 3.785262,-2.72711 1.556403,-0.921745 2.941421,-1.606923 3.077816,-1.522627 0.136396,0.0843 0.214243,0.02733 0.172987,-0.126631 -0.04123,-0.153945 0.539201,-0.788455 1.289905,-1.410026 1.640592,-1.358375 4.731096,-4.338021 6.396418,-6.166958 0.665357,-0.730734 1.31941,-1.294856 1.453446,-1.253599 0.134035,0.04123 0.176072,-0.03445 0.0934,-0.168179 -0.08266,-0.133751 0.399578,-0.825317 1.071641,-1.536806 0.672064,-0.711489 1.221939,-1.386923 1.221939,-1.500968 0,-0.114045 0.366567,-0.62324 0.814589,-1.131546 0.448022,-0.5083 0.816549,-1.068821 0.818943,-1.245598 0.0027,-0.176777 0.288991,-0.545304 0.636876,-0.818949 0.347879,-0.273639 0.645455,-0.595831 0.661282,-0.715978 0.08537,-0.648228 2.164148,-3.448941 2.473896,-3.333059 0.198565,0.07429 0.277728,0.0073 0.179382,-0.151836 -0.09681,-0.156644 0.449602,-1.331609 1.214248,-2.611024 0.76464,-1.279422 1.390259,-2.501116 1.390259,-2.714878 0,-0.213761 0.113082,-0.388653 0.251295,-0.388653 0.138213,0 0.337904,-0.399239 0.443771,-0.887195 0.10586,-0.487956 0.304045,-0.958437 0.440406,-1.045507 0.343485,-0.219335 -0.02183,-1.070109 -0.459468,-1.070109 -0.196639,0 -0.399897,-0.127125 -0.451691,-0.282501 -0.18189,-0.545677 -2.79661,1.08936 -4.237063,2.649527 -0.795792,0.861929 -1.446902,1.671941 -1.446902,1.800029 0,0.128089 -0.12284,0.15697 -0.272981,0.06415 -0.150141,-0.09279 -0.274514,-0.0079 -0.276385,0.188624 -0.002,0.196537 -0.493239,0.88476 -1.091931,1.529381 -0.598692,0.64462 -1.088526,1.24618 -1.088526,1.336796 0,0.129425 -1.516185,2.127551 -2.135519,2.814323 -0.06767,0.07507 -0.178181,-0.01783 -0.245524,-0.206438 -0.06734,-0.18861 -0.209937,-0.288849 -0.316889,-0.222746 -0.106952,0.06612 -0.360118,0.01777 -0.562596,-0.107345 -0.291473,-0.180141 -0.195818,-0.503289 0.45932,-1.551644 0.455108,-0.728258 0.973586,-1.290353 1.152174,-1.249103 0.178588,0.04123 0.254984,-0.03777 0.169772,-0.175672 -0.08522,-0.13788 0.462825,-0.908691 1.217863,-1.712905 0.755044,-0.804221 1.365223,-1.523644 1.355947,-1.598711 -0.0093,-0.07507 0.692692,-1.054323 1.559916,-2.176117 2.115738,-2.736808 3.624138,-4.840814 3.624138,-5.055159 0,-0.09662 0.298261,-0.566726 0.662801,-1.044659 0.364539,-0.477941 0.673114,-0.991828 0.68572,-1.141962 0.05032,-0.599322 0.339131,-1.229879 0.513766,-1.121672 0.144966,0.08983 0.185016,-1.291472 0.06713,-2.315042 -0.05466,-0.474462 -1.296782,-0.687762 -2.065911,-0.354768 -0.450415,0.195018 -0.658142,0.360111 -0.461604,0.366886 0.196537,0.0068 0.276242,0.143529 0.177123,0.303902 -0.09912,0.160381 -0.350578,0.226219 -0.558799,0.146317 -0.208228,-0.0799 -0.34935,-0.04164 -0.31362,0.085 0.03574,0.126651 -0.247586,0.522906 -0.629607,0.88057 -0.382015,0.357657 -1.261282,1.346053 -1.953927,2.196433 -0.692651,0.85038 -1.332118,1.473389 -1.421039,1.384462 -0.08893,-0.08892 -0.161682,0.04204 -0.161682,0.290978 0,0.248962 -0.245687,0.60609 -0.545969,0.793615 -0.300281,0.187532 -0.545962,0.49568 -0.545962,0.684771 0,0.189092 -0.156332,0.34381 -0.347397,0.34381 -0.191071,0 -0.58875,0.448165 -0.883743,0.99593 -0.294985,0.547759 -0.863576,1.346237 -1.263527,1.77439 -0.399957,0.428147 -0.669541,0.778453 -0.599078,0.778453 0.209638,0 -0.935924,1.518707 -1.672971,2.217909 -0.375925,0.356626 -0.685626,0.751877 -0.688223,0.878332 -0.0081,0.395922 -1.015379,1.534731 -1.196896,1.353214 -0.095,-0.095 -0.172729,-0.02658 -0.172729,0.152046 0,0.217783 -0.226435,0.176404 -0.687368,-0.125607 -0.677353,-0.443817 -0.680337,-0.461503 -0.204743,-1.213244 0.736464,-1.164069 3.686599,-5.248069 4.181641,-5.788823 0.241076,-0.263338 0.920111,-1.151984 1.508957,-1.974778 0.615054,-0.859399 1.22187,-1.441077 1.426043,-1.36696 0.195473,0.07097 0.277728,0.0034 0.182785,-0.150283 -0.09494,-0.153619 0.267204,-0.732131 0.80477,-1.285586 0.537567,-0.553448 0.977391,-1.167262 0.977391,-1.364023 0,-0.196768 0.179584,-0.426675 0.399083,-0.510903 0.219491,-0.08423 0.474021,-0.389257 0.56562,-0.677848 0.09159,-0.288591 0.260056,-0.466915 0.374366,-0.396269 0.114309,0.07065 0.207834,-0.03146 0.207834,-0.226923 0,-0.195453 0.452077,-1.484877 1.00461,-2.865378 0.791649,-1.977912 0.943933,-2.623407 0.718352,-3.044908 -0.157444,-0.294185 -0.496921,-0.533695 -0.75438,-0.532237 -0.498033,0.0027 -2.561685,1.529564 -3.470925,2.56789 -0.300282,0.342908 -1.405863,1.577791 -2.456842,2.744172 -1.050986,1.16638 -2.125042,2.443917 -2.3868,2.838958 -0.261758,0.395041 -0.476727,0.615102 -0.477717,0.489014 -0.002,-0.271686 -2.20141,2.384413 -2.593237,3.131889 -0.149097,0.284421 -0.41923,0.460283 -0.600306,0.390797 -0.181076,-0.06948 -0.27334,0.02095 -0.205034,0.200992 0.06831,0.180032 -0.306473,0.810297 -0.832844,1.400601 -0.526378,0.590297 -0.958356,1.143087 -0.959963,1.228421 -0.0088,0.470515 -2.47387,2.748484 -2.974188,2.748484 -0.982442,0 -0.46924,-1.404771 1.421439,-3.8909 0.94162,-1.238166 2.014665,-2.711026 2.384549,-3.273032 0.369883,-0.561999 0.764653,-1.022655 0.877253,-1.023685 0.112608,-0.0014 0.204736,-0.118548 0.204736,-0.261162 0,-0.321744 1.6723,-2.846377 1.96797,-2.970993 0.118745,-0.05004 0.215891,-0.206045 0.215891,-0.346651 0,-0.140614 0.288252,-0.713877 0.640552,-1.273923 0.3523,-0.560039 0.79826,-1.509627 0.991014,-2.110191 0.192753,-0.600563 0.472339,-1.245482 0.6213,-1.433156 0.148954,-0.187675 0.179327,-0.341227 0.06747,-0.341227 -0.111834,0 -0.05357,-0.180479 0.129506,-0.401056 0.267,-0.32171 0.233108,-0.524228 -0.171312,-1.023685 -0.524845,-0.648181 -1.459596,-0.910949 -1.459596,-0.410312 0,0.158481 -0.06934,0.218806 -0.154094,0.134056 -0.150514,-0.150521 -0.714934,0.306541 -2.774755,2.246959 -0.557829,0.52549 -1.105357,0.9262 -1.21673,0.89047 -0.111373,-0.03574 -0.146547,0.0871 -0.07817,0.272981 0.06837,0.185878 -0.57112,1.075005 -1.421107,1.97585 -0.84998,0.900846 -1.52972,1.699316 -1.510529,1.774383 0.04557,0.178113 -1.005851,1.591076 -1.772382,2.381924 -0.330994,0.341491 -0.517841,0.620887 -0.415215,0.620887 0.102625,0 -0.08804,0.276399 -0.423689,0.614214 -0.335652,0.337815 -1.070116,1.238335 -1.632149,2.001164 -1.664502,2.259152 -2.175866,2.844275 -2.485757,2.844275 -0.161357,0 -0.236641,0.153551 -0.167297,0.341226 0.06934,0.187681 -0.361802,0.865766 -0.958095,1.506867 -0.596292,0.641101 -1.056787,1.193885 -1.023322,1.228421 0.189681,0.195724 -1.62958,2.354522 -1.901402,2.25627 -0.203362,-0.0735 -0.264927,0.04428 -0.162563,0.311057 0.100232,0.261196 -0.03886,0.548763 -0.355131,0.734233 -0.655428,0.384348 -1.475332,0.451108 -1.475332,0.120128 0,-0.138505 -0.117477,-0.179218 -0.26106,-0.09048 -0.367403,0.227066 -0.0337,0.962811 0.436685,0.962811 0.88363,0 4.192097,3.955017 4.192097,5.011326 0,0.209808 0.163458,0.517135 0.363241,0.682934 0.199783,0.165805 0.348902,0.733636 0.331376,1.261852 -0.01753,0.528209 0.05131,0.960383 0.152979,0.960383 0.286882,0 0.02738,1.964044 -0.30318,2.294604 -0.377894,0.377892 -0.872973,-0.317947 -0.710014,-0.997938 0.06297,-0.262748 0.02858,-0.477723 -0.07641,-0.477723 -0.104992,0 -0.42659,-0.706342 -0.714663,-1.569647 -0.288072,-0.863305 -0.595804,-1.631071 -0.683848,-1.706138 -0.08804,-0.07507 -0.489044,-0.706118 -0.891111,-1.402323 -0.402067,-0.696211 -1.163933,-1.52125 -1.693035,-1.833426 -0.529102,-0.312183 -0.962004,-0.701833 -0.962004,-0.865895 0,-0.16407 -0.130583,-0.2176 -0.290184,-0.118961 -0.33397,0.20641 -1.400731,-0.659431 -1.204214,-0.977405 0.199507,-0.322808 0.507862,-4.498658 0.513184,-6.949716 0.0059,-2.706374 -0.178992,-4.503291 -0.463359,-4.503813 -0.118883,-2.24e-4 -0.479862,-0.246087 -0.802175,-0.546369 -0.639817,-0.596081 -1.029043,-0.69933 -1.029043,-0.27298 0,0.15014 -0.191512,0.27298 -0.425584,0.27298 -0.234071,0 -0.358266,0.108926 -0.275988,0.242053 0.08228,0.133127 -0.03587,0.39597 -0.262544,0.584099 -0.226676,0.188122 -0.546628,0.876148 -0.711004,1.528947 -0.175599,0.697364 -0.415837,1.114599 -0.582472,1.011614 -0.161364,-0.09972 -0.202138,-0.04347 -0.0946,0.130544 0.171938,0.278209 -0.489539,3.083526 -0.881111,3.736786 -0.09,0.150141 -0.194842,0.395821 -0.23299,0.545962 -0.03815,0.150141 -0.258689,0.948618 -0.490089,1.774389 -0.2314,0.825772 -0.472474,1.747089 -0.535718,2.047371 -0.419265,1.990633 -0.856001,3.412282 -1.048267,3.412282 -0.12347,0 -0.161891,0.10129 -0.08538,0.225086 0.07651,0.123796 -0.0084,0.891562 -0.188626,1.706138 -0.599334,2.708401 -0.197618,7.821003 0.792023,10.080005 0.230212,0.525497 0.527595,1.201127 0.66085,1.501409 0.133257,0.300282 0.42933,1.0151 0.657942,1.588499 0.386459,0.9693 0.382524,1.035274 -0.05601,0.939226 -0.259416,-0.05683 -0.440956,-0.249566 -0.403421,-0.428323 0.03753,-0.178764 -0.07401,-0.294307 -0.247868,-0.256774 -0.173863,0.03757 -0.511679,-0.300282 -0.750703,-0.750697 -0.239023,-0.450423 -0.55743,-0.9092 -0.70757,-1.019509 -0.155692,-0.114384 -0.162597,-0.202348 -0.01607,-0.204735 0.141301,-0.002 0.05948,-0.157736 -0.181819,-0.34541 -0.772831,-0.601079 -2.277757,-7.599193 -1.535542,-7.140477 0.127615,0.07887 0.232027,0.01329 0.232027,-0.145699 0,-0.158997 -0.111972,-0.289093 -0.248828,-0.289093 -0.282955,0 -0.248676,-0.516966 0.06788,-1.023678 0.117244,-0.187682 0.102554,-0.341233 -0.03264,-0.341233 -0.141221,0 -0.155001,-0.551733 -0.03239,-1.296667 0.117387,-0.713164 0.220755,-1.450218 0.229705,-1.637892 0.009,-0.187681 0.231247,-0.35093 0.493992,-0.362783 0.285387,-0.01289 0.340339,-0.07699 0.136491,-0.159242 -0.414655,-0.167317 -0.452579,-1.509539 -0.05392,-1.908201 0.158022,-0.158021 0.319267,-0.587029 0.358322,-0.953338 0.03905,-0.366316 0.165217,-0.818461 0.280361,-1.004766 0.115142,-0.186305 0.261517,-0.733894 0.325277,-1.216873 0.211386,-1.601234 0.865214,-3.337873 1.224094,-3.251332 0.266921,0.06435 0.273848,-0.0041 0.03005,-0.298098 -0.174252,-0.209964 -0.232438,-0.466135 -0.129301,-0.569269 0.103137,-0.103141 0.211848,-0.353276 0.241582,-0.555855 0.305316,-2.080259 2.14659,-6.534814 3.015494,-7.295337 0.709175,-0.620711 1.883153,-0.970101 1.582628,-0.471004 -0.185881,0.308697 -0.148972,0.310413 0.221347,0.01031 0.351934,-0.285214 0.575885,-0.292118 1.076086,-0.03316 0.943661,0.488519 1.592993,1.11839 1.428061,1.385262 -0.08039,0.130075 0.0044,0.236498 0.188426,0.236498 0.184024,0 0.257017,0.07757 0.162206,0.172383 -0.09481,0.09481 -0.02906,0.432629 0.146111,0.750704 0.526527,0.956058 0.556781,1.240329 0.576257,5.414593 0.01794,3.843717 0.03988,3.998198 0.507831,3.57471 0.268997,-0.243442 0.489086,-0.60784 0.489086,-0.809782 0,-0.201941 0.103498,-0.367164 0.229996,-0.367164 0.126498,0 0.457491,-0.422436 0.735541,-0.938745 0.278051,-0.516308 0.6045,-0.877585 0.725444,-0.802837 0.120944,0.07475 0.219897,0.01458 0.219897,-0.13369 0,-0.148276 0.156194,-0.431917 0.347098,-0.630319 0.190904,-0.198402 0.934163,-1.189911 1.651688,-2.203357 0.717525,-1.013452 1.421225,-1.842635 1.563778,-1.842635 0.142552,0 0.259337,-0.153552 0.25952,-0.341226 1.83e-4,-0.187681 0.317953,-0.70976 0.706152,-1.160176 0.388193,-0.450422 0.905898,-1.156765 1.150452,-1.569654 0.244554,-0.412882 0.548247,-0.750704 0.674878,-0.750704 0.126631,0 0.142587,0.141827 0.03547,0.315166 -0.117944,0.190841 -0.07516,0.241232 0.108464,0.12775 0.166775,-0.10308 0.23498,-0.365293 0.151552,-0.582702 -0.09042,-0.235617 0.296043,-0.838574 0.956701,-1.492668 0.609613,-0.603554 1.021058,-1.101275 0.91431,-1.106049 -0.106742,-0.0047 -0.002,-0.158332 0.232307,-0.341233 0.234519,-0.1829 0.510043,-0.555306 0.612289,-0.827568 0.102239,-0.272262 0.309599,-0.418565 0.460797,-0.325114 0.151206,0.09344 0.274914,-0.03472 0.274914,-0.284889 0,-0.307138 0.143617,-0.39968 0.442373,-0.285031 0.343959,0.131988 0.409119,0.04258 0.292897,-0.401836 -0.108891,-0.416395 -0.04462,-0.531342 0.236811,-0.423352 0.212452,0.08152 0.373206,0.06056 0.357229,-0.04665 -0.08324,-0.558507 0.07851,-0.877369 0.445073,-0.877369 0.225214,0 0.382157,-0.09214 0.348766,-0.204743 -0.105026,-0.354219 0.927557,-1.708755 1.1825,-1.551196 0.133717,0.08265 0.243123,-0.04387 0.243123,-0.281172 0,-0.237292 0.307104,-0.571364 0.68246,-0.742391 0.375348,-0.17102 0.682452,-0.41253 0.682452,-0.536685 0,-0.124156 0.502936,-0.543229 1.117638,-0.931272 2.175839,-1.373554 4.417522,-0.148297 4.209572,2.300855 -0.04631,0.545142 -0.09685,1.213388 -0.112349,1.484992 -0.01553,0.271604 -0.142546,0.423156 -0.282312,0.336778 -0.139766,-0.08638 -0.34301,-0.01322 -0.45165,0.162557 -0.123369,0.199609 -0.0792,0.24648 0.117625,0.124834 0.414964,-0.256462 0.405885,0.18349 -0.01241,0.601791 -0.180168,0.180167 -0.226551,0.327582 -0.103066,0.327582 0.123484,0 0.07159,0.184264 -0.11532,0.409472 -0.227046,0.273577 -0.240228,0.409471 -0.03974,0.409471 0.16506,0 0.500644,-0.306046 0.745741,-0.680113 0.245097,-0.37406 0.574015,-0.600767 0.730931,-0.503783 0.156915,0.09698 0.207794,0.05093 0.113068,-0.102355 -0.218793,-0.354008 0.737461,-1.241793 1.040984,-0.966452 0.124495,0.112933 0.140756,0.05628 0.03614,-0.125939 -0.185572,-0.323189 -0.04069,-0.500427 1.685313,-2.061896 0.834743,-0.75516 3.331058,-1.480408 3.331058,-0.967755 0,0.139617 0.104985,0.188963 0.233298,0.109658 0.336805,-0.208153 1.303624,0.943112 1.50349,1.790319 0.108668,0.460641 -0.06754,1.355512 -0.485779,2.466593 -0.628407,1.669526 -0.634137,1.743678 -0.134714,1.743678 0.286876,0 0.521597,-0.09652 0.521597,-0.214487 0,-0.323094 1.790882,-0.257452 2.562045,0.09391 1.043066,0.475255 1.505721,2.179785 0.870588,3.207451 -0.131832,0.213314 -0.10388,0.442909 0.06673,0.548369 0.17159,0.10605 0.198795,0.33473 0.06551,0.550424 -0.139814,0.226225 -0.371884,0.28238 -0.599798,0.14513 -0.286583,-0.17258 -0.305374,-0.13369 -0.08202,0.169758 0.159349,0.216501 0.266837,0.547183 0.238858,0.734864 -0.02801,0.187674 -0.06625,0.471315 -0.085,0.630319 -0.01878,0.159004 -0.155559,0.21404 -0.303977,0.122311 -0.154745,-0.09563 -0.200511,0.01397 -0.107284,0.256876 0.108172,0.281898 0.0054,0.423651 -0.307951,0.423651 -0.336229,0 -0.429741,0.155932 -0.327644,0.546341 0.07858,0.300486 0.03146,0.4775 -0.104653,0.39336 -0.136138,-0.08413 -0.247525,0.0613 -0.247525,0.323263 0,0.261928 -0.276398,0.780351 -0.614214,1.152059 -0.337815,0.3717 -0.460655,0.58734 -0.272981,0.479201 0.191384,-0.110281 0.341227,-0.05499 0.341227,0.125899 0,0.240343 0.104334,0.235929 0.409478,-0.01729 0.330112,-0.273978 0.410278,-0.267231 0.413648,0.03479 0.0034,0.284984 0.05527,0.294192 0.217742,0.03845 0.175475,-0.276256 1.358327,-0.286686 1.541316,-0.01356 0.02828,0.04225 0.334954,0.486993 0.681435,0.988335 0.57506,0.832071 0.601235,1.01055 0.300323,2.047371 -0.445012,1.533314 -1.37349,3.456189 -1.668849,3.456189 -0.132035,0 -0.178479,0.160483 -0.103208,0.356627 0.07526,0.196144 -0.167277,0.710566 -0.538991,1.143148 -0.371714,0.432588 -0.622792,0.872351 -0.557965,0.977255 0.06483,0.104897 -0.12642,0.254618 -0.425013,0.332695 -0.325847,0.08521 -0.542897,0.372644 -0.542897,0.718922 0,0.317316 -0.337816,1.082389 -0.750705,1.700163 -0.412882,0.617767 -0.945431,1.413573 -1.183428,1.76845 -0.238004,0.354883 -0.534095,0.553333 -0.657979,0.44101 -0.123885,-0.112323 -0.126461,-0.03384 -0.0054,0.174458 0.145211,0.250495 -0.0014,0.558839 -0.433951,0.910881 -0.359407,0.292707 -0.475757,0.437932 -0.258558,0.322728 0.454349,-0.240995 -0.540544,1.241183 -1.20112,1.789409 -0.23222,0.192727 -0.422213,0.515779 -0.422213,0.717891 0,0.233298 -0.174445,0.304893 -0.477724,0.196063 -0.262741,-0.09428 -0.389216,-0.07358 -0.281043,0.04598 0.288808,0.319275 -0.87998,1.838532 -1.292611,1.680193 -0.208452,-0.07999 -0.325549,0.04265 -0.287601,0.301197 0.0705,0.480368 -0.681687,1.413525 -1.001932,1.24298 -0.110885,-0.05906 -0.120724,0.103432 -0.02183,0.361068 0.11536,0.300634 0.07379,0.402948 -0.116052,0.285614 -0.168104,-0.103894 -0.448843,0.16291 -0.650283,0.617984 -0.194957,0.440448 -0.426404,0.756353 -0.514314,0.702016 -0.08792,-0.05432 -0.33825,0.01404 -0.55629,0.151999 -0.296138,0.187342 -0.306032,0.251851 -0.03913,0.25497 0.196537,0.002 0.284733,0.12166 0.195995,0.265244 -0.08874,0.143583 -0.346699,0.189932 -0.573243,0.102998 -0.258883,-0.09934 -0.382394,-0.01885 -0.332485,0.216664 0.04367,0.206092 -0.115089,0.361068 -0.352815,0.344386 -0.237719,-0.01668 -0.432222,0.109943 -0.432222,0.281396 0,0.614296 -0.991,1.823608 -1.373971,1.676647 -0.210798,-0.08089 -0.315682,-0.0377 -0.233074,0.09595 0.2184,0.353378 -1.776472,2.259552 -2.196142,2.098514 -0.236139,-0.09062 -0.297908,0.012 -0.184758,0.306839 0.128712,0.335415 0.0556,0.399076 -0.301062,0.262206 -0.27983,-0.107379 -0.40347,-0.07142 -0.304574,0.08859 0.243008,0.393197 -1.283084,1.65395 -1.844635,1.523915 -0.262952,-0.06089 -0.409255,6.78e-4 -0.325115,0.136816 0.08414,0.136138 0.0417,0.247525 -0.09434,0.247525 -0.13603,0 -0.52766,0.24313 -0.870297,0.540299 -0.34263,0.297163 -0.729954,0.474177 -0.860714,0.39336 -0.130761,-0.08082 -0.237746,-0.01682 -0.237746,0.142159 0,0.158997 -0.184264,0.289093 -0.409479,0.289093 -0.225208,0 -0.409471,0.0995 -0.409471,0.221119 0,0.219268 -3.202885,1.416774 -3.789344,1.416774 -0.167962,0 -0.305395,-0.103799 -0.305395,-0.230674 z m 3.548777,-40.869314 c 0,-0.234071 -0.124845,-0.348427 -0.277434,-0.254122 -0.152588,0.0943 -0.206763,0.285817 -0.120385,0.425583 0.234017,0.378638 0.397819,0.308039 0.397819,-0.171461 z m 6.685524,19.190765 c -2.530044,-1.637072 -3.955701,-2.761986 -3.955701,-3.121229 0,-0.196314 -0.175489,-0.356925 -0.389976,-0.356925 -0.214487,0 -0.552302,-0.15503 -0.750704,-0.344501 -0.752841,-0.718983 -3.967349,-2.65831 -4.406243,-2.65831 -0.293854,0 -0.458499,-0.220732 -0.458147,-0.614213 6.78e-4,-0.952728 1.329881,-0.900208 3.209812,0.126841 1.36956,0.748222 7.520908,5.197562 8.459361,6.11875 0.50691,0.497586 0.551109,1.566521 0.06853,1.657348 -0.225208,0.04238 -1.024831,-0.321107 -1.776932,-0.807761 z"
       id="path1" /><path
       sodipodi:type="spiral"
       style="fill:none;fill-rule:evenodd;stroke:#ffcc00;stroke-width:2.4853;stroke-dasharray:none;stroke-opacity:1;marker-start:url(#Dot)"
       id="path3"
       sodipodi:cx="55.368675"
       sodipodi:cy="90.492424"
       sodipodi:expansion="1"
       sodipodi:revolution="3"
       sodipodi:radius="56.775608"
       sodipodi:argument="-18.064157"
       sodipodi:t0="0"
       d="m 55.368675,90.492424 c 2.012877,2.012878 -1.720237,3.706401 -3.345535,3.345534 -4.40446,-0.977928 -5.112503,-6.619491 -3.345533,-10.036605 3.160696,-6.112416 11.368334,-6.828482 16.727675,-3.345531 7.86505,5.111371 8.595321,16.181598 3.345529,23.418748 -6.997148,9.64598 -21.017731,10.38383 -30.109814,3.34552 C 27.199538,98.363107 26.457448,81.355331 35.295472,70.41921 45.999503,57.174102 66.013407,56.429451 78.787425,67.073687 93.841164,79.617551 94.587469,102.64862 82.132946,117.25671 67.753707,134.12233 41.69846,134.86976 25.258854,120.60223 6.5791291,104.39056 5.8309006,75.306395 21.913336,57.037067 39.955399,36.541642 72.071827,35.792828 92.169568,53.691551 114.48187,73.562527 115.23113,108.71368 95.515082,130.63885"
       transform="matrix(0.49973749,0,0,0.49973749,15.896444,-13.219069)" /></g></svg>
