<?xml version="1.0" encoding="UTF-8" standalone="no"?>
<!-- Created with Inkscape (http://www.inkscape.org/) -->

<svg
   width="100mm"
   height="100mm"
   viewBox="0 0 100 100"
   version="1.1"
   id="svg1"
   inkscape:version="1.3.2 (091e20e, 2023-11-25, custom)"
   sodipodi:docname="hero.svg"
   xmlns:inkscape="http://www.inkscape.org/namespaces/inkscape"
   xmlns:sodipodi="http://sodipodi.sourceforge.net/DTD/sodipodi-0.dtd"
   xmlns="http://www.w3.org/2000/svg"
   xmlns:svg="http://www.w3.org/2000/svg">
  <sodipodi:namedview
     id="namedview1"
     pagecolor="#ffffff"
     bordercolor="#666666"
     borderopacity="1.0"
     inkscape:showpageshadow="2"
     inkscape:pageopacity="0.0"
     inkscape:pagecheckerboard="0"
     inkscape:deskcolor="#d1d1d1"
     inkscape:document-units="mm"
     inkscape:zoom="0.76702441"
     inkscape:cx="292.03764"
     inkscape:cy="168.83426"
     inkscape:window-width="1920"
     inkscape:window-height="1057"
     inkscape:window-x="-8"
     inkscape:window-y="-8"
     inkscape:window-maximized="1"
     inkscape:current-layer="layer1" />
  <defs
     id="defs1" />
  <g
     inkscape:label="Ebene 1"
     inkscape:groupmode="layer"
     id="layer1">
    <path
       d="m 70.83202,56.575295 q 3.13402,1.99717 5.6228,4.67031 2.48878,2.64241 4.20941,5.77643 1.75137,3.13401 2.64241,6.63674 0.92177,3.53346 0.92177,7.25126 v 4.4245 H 15.77159 v -11.70648 q 0,-3.62563 1.321204,-6.97473 1.321205,-3.37983 3.748534,-6.02224 0.522336,-0.55306 1.044673,-0.98322 0.522336,-0.46088 1.044673,-0.98322 l 5.960783,-5.930058 q -1.075399,-1.474833 -1.812816,-2.980391 -0.70669,-1.505559 -1.13685,-3.072569 -0.430159,-1.56701 -0.614514,-3.226196 -0.184354,-1.659187 -0.184354,-3.472003 -1.013947,-0.583788 -1.843541,-1.413381 -0.798867,-0.829594 -1.382655,-1.812816 -0.553063,-1.013947 -0.86032,-2.120072 -0.307256,-1.13685 -0.307256,-2.304426 v -6.636748 h 6.483119 q 1.259753,-2.550232 3.13402,-4.578127 1.874266,-2.058621 4.178693,-3.472002 2.335152,-1.444107 5.008286,-2.212249 2.673135,-0.768142 5.499901,-0.768142 3.07257,0 5.9915,0.92177 2.91894,0.921771 5.43845,2.70386 2.36588,-1.413381 5.10046,-1.413381 2.05863,0 3.87144,0.798868 1.81282,0.768142 3.16475,2.120072 1.35193,1.35193 2.12007,3.164745 0.79887,1.78209 0.79887,3.840711 v 14.37962 h 4.42449 v 5.499897 q 0,2.980392 -1.35193,5.592075 -1.35193,2.580953 -3.77925,4.301593 z M 31.226609,80.910035 H 57.74287 v -19.41863 q -3.3491,1.56701 -6.63674,3.13402 -3.28765,1.56701 -6.636751,3.04184 l 8.849001,-8.81827 H 35.651107 l 8.818272,8.81827 q -3.3491,-1.56701 -6.636748,-3.10329 -3.256923,-1.56701 -6.606022,-3.07257 z M 45.02244,56.636745 q 2.55023,0 4.91611,-0.79886 2.3966,-0.8296 4.36305,-2.30443 1.96644,-1.474833 3.41055,-3.502728 1.47483,-2.058621 2.18152,-4.516676 h -9.52496 q -0.52234,0 -0.9525,-0.215079 -0.43016,-0.21508 -0.82959,-0.522337 -0.36871,-0.337983 -0.70669,-0.706691 -0.33798,-0.368708 -0.61451,-0.675965 0,0.921771 -0.64524,1.56701 -0.64524,0.614514 -1.56701,0.614514 -0.921774,0 -1.567013,-0.64524 -0.64524,-0.645239 -0.64524,-1.56701 -0.307256,0.337983 -0.675965,0.737417 -0.337982,0.368708 -0.737416,0.706691 -0.368708,0.307256 -0.798868,0.553062 -0.430159,0.21508 -0.92177,0.21508 h -9.494237 q 0.737417,2.458054 2.181524,4.48595 1.444107,2.027895 3.379825,3.502728 1.966444,1.444104 4.301596,2.273704 2.365877,0.79886 4.946834,0.79886 z m 34.78148,24.27329 q 0,-3.13402 -0.76815,-6.05296 -0.76814,-2.91894 -2.18152,-5.49989 -1.38266,-2.61169 -3.37983,-4.79321 -1.96644,-2.18152 -4.42449,-3.80998 -2.42733,-1.65919 -5.28482,-2.67314 -2.82676,-1.04467 -5.93006,-1.35193 l 2.98039,1.35193 q 2.1508,0.98322 3.90216,2.3966 1.78209,1.41339 3.07257,3.2262 1.32121,1.78209 2.12007,3.90216 0.79887,2.12008 1.01395,4.48595 v 8.81827 z m -11.03053,0 v -6.60602 H 59.9244 v 6.60602 z m -39.75903,0 v -6.60602 h -8.818272 v 6.60602 z M 58.29594,34.544982 52.76531,29.014359 q -1.38265,1.689913 -3.07257,3.103294 -1.68991,1.413382 -3.62563,2.427329 z m -4.4245,4.424499 q 0,-0.921771 -0.64524,-1.56701 -0.64524,-0.64524 -1.56701,-0.64524 -0.92177,0 -1.56701,0.64524 -0.64524,0.645239 -0.64524,1.56701 v 2.212249 q 0,0.891045 0.64524,1.536284 0.67596,0.645239 1.56701,0.645239 0.89104,0 1.53628,-0.645239 0.67597,-0.645239 0.67597,-1.536284 z M 36.20417,41.18173 q 0,0.891045 0.645239,1.536284 0.675965,0.645239 1.56701,0.645239 0.891045,0 1.536284,-0.645239 0.675965,-0.645239 0.675965,-1.536284 v -2.212249 q 0,-0.891045 -0.675965,-1.536285 -0.645239,-0.675965 -1.536284,-0.675965 -0.921771,0 -1.56701,0.64524 -0.645239,0.645239 -0.645239,1.56701 z m 8.81827,8.879723 q 0.73742,0 1.22903,-0.21508 0.52234,-0.21508 0.89104,-0.460885 0.39944,-0.245806 0.67597,-0.460886 0.30726,-0.215079 0.58379,-0.215079 0.43016,0 0.73741,0.307256 0.30726,0.307257 0.30726,0.737417 0,0.583788 -0.52234,1.044673 -0.52233,0.43016 -1.22902,0.768142 -0.70669,0.307257 -1.47484,0.491611 -0.73741,0.153628 -1.1983,0.153628 -0.460884,0 -1.198301,-0.153628 -0.737416,-0.184354 -1.474833,-0.491611 -0.70669,-0.337982 -1.229027,-0.798868 -0.522337,-0.460885 -0.522337,-1.013947 0,-0.43016 0.307257,-0.737417 0.337983,-0.307256 0.768142,-0.307256 0.276532,0 0.553063,0.215079 0.307257,0.21508 0.675965,0.460886 0.368708,0.245805 0.860319,0.460885 0.522336,0.21508 1.259752,0.21508 z"
       id="text1"
       style="font-size:62.9262px;line-height:1.25;font-family:'Mal de Ojo';-inkscape-font-specification:'Mal de Ojo';letter-spacing:0px;fill:#ffcc00;fill-opacity:1;stroke-width:1.57316"
       aria-label=" 🦸" />
  </g>
</svg>
