<?xml version="1.0" encoding="UTF-8" standalone="no"?>
<!-- Created with Inkscape (http://www.inkscape.org/) -->

<svg
   width="210mm"
   height="350mm"
   viewBox="0 0 210 350"
   version="1.1"
   id="svg1"
   inkscape:version="1.3.2 (091e20e, 2023-11-25, custom)"
   sodipodi:docname="mission.svg"
   xmlns:inkscape="http://www.inkscape.org/namespaces/inkscape"
   xmlns:sodipodi="http://sodipodi.sourceforge.net/DTD/sodipodi-0.dtd"
   xmlns="http://www.w3.org/2000/svg"
   xmlns:svg="http://www.w3.org/2000/svg">
  <sodipodi:namedview
     id="namedview1"
     pagecolor="#ffffff"
     bordercolor="#666666"
     borderopacity="1.0"
     inkscape:showpageshadow="2"
     inkscape:pageopacity="0.0"
     inkscape:pagecheckerboard="0"
     inkscape:deskcolor="#d1d1d1"
     inkscape:document-units="mm"
     inkscape:zoom="0.76702441"
     inkscape:cx="132.98143"
     inkscape:cy="486.94669"
     inkscape:window-width="1920"
     inkscape:window-height="1057"
     inkscape:window-x="-8"
     inkscape:window-y="-8"
     inkscape:window-maximized="1"
     inkscape:current-layer="layer1">
    <inkscape:page
       x="0"
       y="0"
       width="210"
       height="350"
       id="page5"
       margin="0"
       bleed="0" />
    <inkscape:page
       x="220"
       y="0"
       width="210"
       height="350"
       id="page10"
       margin="0"
       bleed="0" />
  </sodipodi:namedview>
  <defs
     id="defs1">
    <marker
       style="overflow:visible"
       id="ArrowTriangleStylized"
       refX="0"
       refY="0"
       orient="auto-start-reverse"
       inkscape:stockid="Stylized triangle arrow"
       markerWidth="1"
       markerHeight="1"
       viewBox="0 0 1 1"
       inkscape:isstock="true"
       inkscape:collect="always"
       preserveAspectRatio="xMidYMid">
      <path
         transform="scale(0.5)"
         style="fill:context-stroke;fill-rule:evenodd;stroke:context-stroke;stroke-width:1pt"
         d="m 6,0 c -3,1 -7,3 -9,5 0,0 0,-4 2,-5 -2,-1 -2,-5 -2,-5 2,2 6,4 9,5 z"
         id="path11" />
    </marker>
    <marker
       style="overflow:visible"
       id="marker4"
       refX="0"
       refY="0"
       orient="auto"
       inkscape:stockid="Dot"
       markerWidth="1"
       markerHeight="1"
       viewBox="0 0 1 1"
       inkscape:isstock="true"
       inkscape:collect="always"
       preserveAspectRatio="xMidYMid">
      <path
         transform="scale(0.5)"
         style="fill:context-stroke;fill-rule:evenodd;stroke:none"
         d="M 5,0 C 5,2.76 2.76,5 0,5 -2.76,5 -5,2.76 -5,0 c 0,-2.76 2.3,-5 5,-5 2.76,0 5,2.24 5,5 z"
         sodipodi:nodetypes="sssss"
         id="path4" />
    </marker>
    <marker
       style="overflow:visible"
       id="Dot"
       refX="0"
       refY="0"
       orient="auto"
       inkscape:stockid="Dot"
       markerWidth="1"
       markerHeight="1"
       viewBox="0 0 1 1"
       inkscape:isstock="true"
       inkscape:collect="always"
       preserveAspectRatio="xMidYMid">
      <path
         transform="scale(0.5)"
         style="fill:context-stroke;fill-rule:evenodd;stroke:none"
         d="M 5,0 C 5,2.76 2.76,5 0,5 -2.76,5 -5,2.76 -5,0 c 0,-2.76 2.3,-5 5,-5 2.76,0 5,2.24 5,5 z"
         sodipodi:nodetypes="sssss"
         id="path17" />
    </marker>
    <marker
       style="overflow:visible"
       id="Dot-1-7"
       refX="0"
       refY="0"
       orient="auto"
       inkscape:stockid="Dot"
       markerWidth="1"
       markerHeight="1"
       viewBox="0 0 1 1"
       inkscape:isstock="true"
       inkscape:collect="always"
       preserveAspectRatio="xMidYMid">
      <path
         transform="scale(0.5)"
         style="fill:context-stroke;fill-rule:evenodd;stroke:none"
         d="M 5,0 C 5,2.76 2.76,5 0,5 -2.76,5 -5,2.76 -5,0 c 0,-2.76 2.3,-5 5,-5 2.76,0 5,2.24 5,5 z"
         sodipodi:nodetypes="sssss"
         id="path17-6-6" />
    </marker>
    <marker
       style="overflow:visible"
       id="Dot-1-7-7"
       refX="0"
       refY="0"
       orient="auto"
       inkscape:stockid="Dot"
       markerWidth="1"
       markerHeight="1"
       viewBox="0 0 1 1"
       inkscape:isstock="true"
       inkscape:collect="always"
       preserveAspectRatio="xMidYMid">
      <path
         transform="scale(0.5)"
         style="fill:context-stroke;fill-rule:evenodd;stroke:none"
         d="M 5,0 C 5,2.76 2.76,5 0,5 -2.76,5 -5,2.76 -5,0 c 0,-2.76 2.3,-5 5,-5 2.76,0 5,2.24 5,5 z"
         sodipodi:nodetypes="sssss"
         id="path17-6-6-6" />
    </marker>
    <marker
       style="overflow:visible"
       id="Dot-1-7-7-7"
       refX="0"
       refY="0"
       orient="auto"
       inkscape:stockid="Dot"
       markerWidth="1"
       markerHeight="1"
       viewBox="0 0 1 1"
       inkscape:isstock="true"
       inkscape:collect="always"
       preserveAspectRatio="xMidYMid">
      <path
         transform="scale(0.5)"
         style="fill:context-stroke;fill-rule:evenodd;stroke:none"
         d="M 5,0 C 5,2.76 2.76,5 0,5 -2.76,5 -5,2.76 -5,0 c 0,-2.76 2.3,-5 5,-5 2.76,0 5,2.24 5,5 z"
         sodipodi:nodetypes="sssss"
         id="path17-6-6-6-0" />
    </marker>
  </defs>
  <g
     inkscape:label="Ebene 1"
     inkscape:groupmode="layer"
     id="layer1">
    <text
       xml:space="preserve"
       style="font-size:10.5833px;line-height:1.25;font-family:'Lucida Console';-inkscape-font-specification:'Lucida Console';letter-spacing:0px;fill:#ffcc00;fill-opacity:1;stroke-width:0.264583"
       x="-36.247913"
       y="176.3954"
       id="text1-9-1-7"><tspan
         sodipodi:role="line"
         id="tspan1-9-1-9"
         style="fill:#ffcc00;fill-opacity:1;stroke-width:0.264583"
         x="-36.247913"
         y="176.3954">❤️</tspan></text>
    <text
       xml:space="preserve"
       style="font-size:4.19183px;line-height:1.25;font-family:'Lucida Console';-inkscape-font-specification:'Lucida Console';letter-spacing:0px;stroke-width:0.104796"
       x="-192.38028"
       y="173.00275"
       id="text2-4-0"><tspan
         sodipodi:role="line"
         id="tspan2-6-8"
         style="stroke-width:0.104796"
         x="-192.38028"
         y="173.00275">Ich zeige</tspan><tspan
         sodipodi:role="line"
         style="stroke-width:0.104796"
         x="-192.38028"
         y="178.24254"
         id="tspan3-7-5">Werte, Stärken, Fragen, Potenziale.</tspan></text>
    <path
       d="m -213.27715,49.213043 q 0.61664,0 1.18802,0.164059 0.57137,0.158403 1.06355,0.452577 0.49784,0.288519 0.90516,0.695838 0.41297,0.407321 0.70149,0.905156 0.29418,0.497835 0.45258,1.069214 0.1584,0.57138 0.1584,1.188016 0,0.910813 -0.32246,1.725452 -0.32246,0.808983 -0.92213,1.493505 -0.1584,0.181032 -0.33377,0.339434 -0.16972,0.152745 -0.33944,0.316804 -0.11314,0.107493 -0.20931,0.220632 -0.0962,0.107493 -0.16406,0.226289 -0.0679,0.118801 -0.10749,0.254575 -0.0396,0.135773 -0.0396,0.299832 v 2.234602 q 0,0.186688 -0.0679,0.356404 -0.0622,0.175375 -0.18103,0.311148 -0.11315,0.135773 -0.27721,0.226289 -0.1584,0.09051 -0.34509,0.113143 l -0.41863,0.418635 h -1.48785 l -0.41864,-0.418635 q -0.18668,-0.02263 -0.35074,-0.113143 -0.15841,-0.09051 -0.27721,-0.226289 -0.11314,-0.135773 -0.18103,-0.311148 -0.0622,-0.169716 -0.0622,-0.356404 v -2.234602 q 0,-0.164059 -0.0396,-0.299832 -0.0396,-0.135774 -0.10749,-0.254575 -0.0679,-0.118801 -0.16406,-0.226289 -0.0905,-0.113145 -0.20366,-0.220632 -0.16971,-0.164059 -0.34508,-0.316804 -0.16972,-0.158402 -0.32812,-0.339434 -0.59967,-0.684522 -0.92779,-1.493505 -0.32246,-0.814639 -0.32246,-1.725452 0,-0.616636 0.1584,-1.188016 0.16406,-0.571379 0.45258,-1.069214 0.29418,-0.497835 0.7015,-0.905156 0.40732,-0.407319 0.90515,-0.695838 0.49784,-0.294174 1.06922,-0.452577 0.57138,-0.164059 1.18801,-0.164059 z m 1.2163,9.351383 q 0,-0.260232 0.0566,-0.480863 0.0566,-0.226289 0.16406,-0.418635 0.10748,-0.198002 0.25458,-0.373376 0.15274,-0.181031 0.33943,-0.350748 0.36772,-0.339432 0.66755,-0.695838 0.29983,-0.356404 0.50915,-0.746753 0.21498,-0.396004 0.32812,-0.842925 0.1188,-0.44692 0.1188,-0.967385 0,-0.758067 -0.28852,-1.425619 -0.28286,-0.667552 -0.78069,-1.15973 -0.49784,-0.497835 -1.16539,-0.786354 -0.6619,-0.288518 -1.41996,-0.288518 -0.50915,0 -0.9787,0.130117 -0.46389,0.130115 -0.87121,0.367718 -0.40732,0.237604 -0.7411,0.57138 -0.33378,0.333776 -0.57138,0.741096 -0.2376,0.407319 -0.36772,0.876869 -0.13011,0.469549 -0.13011,0.973041 0,0.514807 0.11314,0.961727 0.1188,0.446921 0.32812,0.842926 0.21497,0.396006 0.51481,0.75241 0.29983,0.356406 0.66755,0.695838 0.18669,0.169717 0.33377,0.350748 0.15275,0.175374 0.25458,0.373376 0.10749,0.192346 0.16406,0.418635 0.0622,0.220631 0.0622,0.480863 h 0.40732 v -1.623622 q -0.16406,0 -0.28852,-0.118801 -0.1188,-0.118802 -0.1188,-0.288519 0,-0.169716 0.1188,-0.288518 0.1188,-0.118801 0.28852,-0.118801 0.16972,0 0.28852,0.118801 0.1188,0.118802 0.1188,0.288518 h 0.80898 q 0,-0.164059 0.1188,-0.28286 0.1188,-0.124459 0.28852,-0.124459 0.16972,0 0.28852,0.118801 0.1188,0.118802 0.1188,0.288518 0,0.169717 -0.12446,0.288519 -0.1188,0.118801 -0.28286,0.118801 v 1.623622 z m 0,2.234602 q 0,-0.135773 -0.0905,-0.169717 -0.0905,-0.02829 -0.198,-0.02829 h -0.1188 v -0.40732 h 0.1188 q 0.10749,0 0.198,-0.03395 0.0905,-0.02829 0.0905,-0.169717 0,-0.135773 -0.0849,-0.169717 -0.0848,-0.03394 -0.19234,-0.03394 h -0.13012 v -0.407321 h -1.62362 v 0.407321 h -0.1188 q -0.1075,0 -0.19801,0.02829 -0.0905,0.03395 -0.0905,0.175373 0,0.135774 0.0848,0.169717 0.0849,0.03395 0.19235,0.03395 h 0.13012 v 0.40732 h -0.0735 q -0.0566,0 -0.11881,0 -0.0566,0.0057 -0.10749,0.02263 -0.0453,0.02263 -0.0792,0.06222 -0.0283,0.0396 -0.0283,0.113145 0,0.135773 0.0848,0.169717 0.0849,0.03394 0.19235,0.03394 h 0.13011 l 0.40732,0.40732 h 0.80899 l 0.40732,-0.40732 h 0.1188 q 0.10749,0 0.198,-0.03394 0.0905,-0.02829 0.0905,-0.169717 z m -1.62362,-3.858224 v 1.623622 h 0.80898 v -1.623622 z"
       id="text1"
       style="font-size:10.5833px;line-height:1.25;font-family:'Lucida Console';-inkscape-font-specification:'Lucida Console';letter-spacing:0px;fill:#ffcc00;stroke-width:0.28965"
       aria-label="💡" />
    <path
       d="m -206.77418,115.4431 q 0,0.40732 -0.13577,0.79201 -0.13012,0.38469 -0.37903,0.70716 0.0566,0.18103 0.0792,0.36771 0.0283,0.18669 0.0283,0.37338 0,0.55441 -0.23195,1.06922 -0.22629,0.50914 -0.63361,0.88253 -0.20931,0.52612 -0.55441,0.95606 -0.34509,0.42995 -0.79201,0.72979 -0.44126,0.29982 -0.96738,0.46388 -0.52612,0.16407 -1.09184,0.16407 -0.39035,0 -0.76939,-0.0848 -0.37903,-0.0793 -0.72978,-0.2376 -0.35075,-0.1584 -0.66755,-0.39036 -0.31115,-0.22628 -0.57138,-0.52046 -0.45823,-0.0566 -0.87121,-0.26023 -0.41298,-0.20365 -0.73544,-0.53743 h -1.34642 q -0.54309,0 -1.02396,-0.20932 -0.48086,-0.20932 -0.84292,-0.56573 -0.35641,-0.36206 -0.56572,-0.84291 -0.20932,-0.48087 -0.20932,-1.02396 v -1.22196 q 0,-0.32247 0.0905,-0.6223 0.0905,-0.30549 0.26023,-0.56572 0.16972,-0.26589 0.40732,-0.4752 0.23761,-0.21498 0.52612,-0.35076 0.10749,-0.50349 0.36772,-0.91646 0.26589,-0.41864 0.63927,-0.71281 0.37903,-0.29984 0.84292,-0.45824 0.46955,-0.16405 0.97871,-0.16405 0.396,-0.39036 0.91081,-0.59967 0.52046,-0.21498 1.07487,-0.21498 0.45258,0 0.87687,0.14143 0.42995,0.13577 0.79201,0.40732 0.2376,-0.0736 0.48086,-0.1075 0.24326,-0.0339 0.49218,-0.0339 0.50349,0 0.9787,0.14143 0.47521,0.14143 0.88253,0.40732 0.41297,0.26023 0.73543,0.63361 0.32812,0.36772 0.5431,0.82596 0.26023,0.16971 0.46955,0.396 0.21497,0.22063 0.3564,0.48653 0.14709,0.26588 0.22629,0.56571 0.0792,0.29417 0.0792,0.60532 z m -0.96172,0.67321 q 0.0792,-0.1584 0.11314,-0.32812 0.034,-0.16971 0.034,-0.34509 0,-0.2376 -0.0679,-0.46389 -0.0679,-0.22629 -0.198,-0.41864 -0.12446,-0.19233 -0.29983,-0.34508 -0.17538,-0.1584 -0.39601,-0.25457 -0.14143,-0.39602 -0.39035,-0.71847 -0.24892,-0.32812 -0.57703,-0.56007 -0.32812,-0.23194 -0.71847,-0.36207 -0.39035,-0.13011 -0.80898,-0.13011 -0.59967,0 -1.14276,0.2659 l 0.0566,-0.0227 q -0.27155,0.12445 -0.46389,0.26024 -0.19235,0.13576 -0.34509,0.29982 -0.14709,0.16406 -0.27155,0.36773 -0.12446,0.19799 -0.26589,0.44691 -0.0622,0.11315 -0.1584,0.18103 -0.0905,0.0623 -0.22063,0.0623 -0.16406,0 -0.28287,-0.1188 -0.1188,-0.12446 -0.1188,-0.28852 0,-0.0679 0.0283,-0.15275 0.0848,-0.22628 0.22063,-0.44692 0.14144,-0.22628 0.31115,-0.42429 0.17538,-0.20366 0.37338,-0.37337 0.198,-0.17538 0.40166,-0.3055 l 0.0283,0.005 q -0.18669,-0.0793 -0.39035,-0.1188 -0.198,-0.0396 -0.40166,-0.0396 -0.49218,0 -0.92778,0.22628 -0.42995,0.22063 -0.71847,0.62229 -0.0962,-0.017 -0.19235,-0.0282 -0.0962,-0.0113 -0.19234,-0.0113 -0.40732,0 -0.7807,0.1584 -0.36772,0.15275 -0.65058,0.42429 -0.2772,0.27155 -0.44126,0.63928 -0.16406,0.36205 -0.16406,0.77503 v 0.0396 q 0,0.005 0,0.0113 0.006,0 0.006,0.005 -0.26023,0.0396 -0.48652,0.16406 -0.22064,0.12446 -0.38469,0.31115 -0.16406,0.18668 -0.26024,0.42428 -0.0905,0.23761 -0.0905,0.5035 v 1.22196 q 0,0.37903 0.14143,0.71281 0.14709,0.32812 0.39601,0.57703 0.24892,0.24892 0.57703,0.39601 0.33378,0.14143 0.71281,0.14143 h 0.75807 q 0.0396,-0.0396 0.0735,-0.0736 0.0339,-0.0396 0.0735,-0.0736 0.18669,-0.18103 0.35641,-0.35641 0.16972,-0.17538 0.29417,-0.36772 0.13012,-0.198 0.20367,-0.42995 0.0735,-0.23195 0.0735,-0.52611 0,-0.28852 -0.0735,-0.52048 -0.0679,-0.2376 -0.19801,-0.42995 -0.12446,-0.19799 -0.31115,-0.36205 -0.18668,-0.16407 -0.41297,-0.31681 -0.10183,-0.0679 -0.16406,-0.14709 -0.0566,-0.0848 -0.0566,-0.21497 0,-0.16972 0.1188,-0.28852 0.12446,-0.1188 0.29418,-0.1188 0.1188,0 0.26589,0.0905 0.15274,0.0848 0.29983,0.20933 0.15275,0.1188 0.28286,0.24891 0.13012,0.13012 0.20366,0.22064 0.23195,-0.0962 0.46955,-0.14709 0.24326,-0.0566 0.49784,-0.0566 0.16406,0 0.28286,0.12446 0.12446,0.1188 0.12446,0.28286 0,0.16972 -0.1188,0.28852 -0.11881,0.1188 -0.28852,0.1188 -0.29984,0 -0.57138,0.10181 0.16406,0.44692 0.16406,0.92212 0,0.30549 -0.0566,0.56007 -0.0566,0.25458 -0.16406,0.48652 -0.10183,0.23195 -0.26023,0.44693 -0.15275,0.20931 -0.35075,0.42995 0.25458,0.33942 0.63361,0.52612 0.38469,0.18668 0.80898,0.18668 0.31115,0 0.59967,-0.10181 0.29417,-0.1075 0.53743,-0.30548 h 0.0283 q 0.39035,-0.37339 0.75241,-0.75242 0.36772,-0.38468 0.75807,-0.75807 0.36206,-0.35074 0.76938,-0.53743 0.41298,-0.18668 0.92778,-0.18668 0.10184,0 0.19235,0.0227 0.0905,0.017 0.1584,0.0679 0.0735,0.0452 0.11315,0.12446 0.0453,0.0791 0.0453,0.19234 0,0.11315 -0.0453,0.19234 -0.0396,0.0793 -0.1075,0.13013 -0.0679,0.0452 -0.16406,0.0679 -0.0905,0.017 -0.19234,0.017 -0.33943,0 -0.61098,0.12446 -0.27155,0.12446 -0.50915,0.36206 l -0.9391,0.93345 h 1.75374 q 0.37903,0 0.70715,-0.14143 0.33378,-0.14709 0.5827,-0.39602 0.24891,-0.24891 0.39034,-0.57702 0.14709,-0.33378 0.14709,-0.71282 0,-0.24891 -0.0679,-0.48086 -0.0622,-0.2376 -0.18669,-0.44693 -0.1188,-0.19799 -0.28286,-0.36205 -0.16406,-0.16407 -0.36772,-0.28287 -0.198,-0.1188 -0.42429,-0.18669 -0.22063,-0.0679 -0.45823,-0.0679 -0.31681,0 -0.63361,0 -0.31115,-0.005 -0.62795,-0.005 -0.16406,0 -0.28852,-0.1188 -0.1188,-0.12446 -0.1188,-0.28852 0,-0.16406 0.1188,-0.28286 0.12446,-0.11881 0.28852,-0.11881 h 0.68451 q -0.034,-0.20365 -0.0566,-0.40732 -0.017,-0.20365 -0.017,-0.40732 0,-0.1697 0.1188,-0.2885 0.1188,-0.11881 0.28852,-0.11881 0.16972,0 0.28852,0.11881 0.1188,0.1188 0.1188,0.2885 0,0.20933 0.0226,0.41864 0.0226,0.20932 0.0679,0.41298 0.53743,0.0622 1.00698,0.33378 0.46955,0.26588 0.79767,0.69018 z"
       id="text1-9"
       style="font-size:10.5833px;line-height:1.25;font-family:'Lucida Console';-inkscape-font-specification:'Lucida Console';letter-spacing:0px;fill:#ffcc00;stroke-width:0.28965"
       aria-label="🧠" />
    <path
       d="m -210.46268,168.8849 q 0.50915,0 0.9787,0.13578 0.46954,0.13011 0.87686,0.37337 0.41298,0.23761 0.74676,0.57704 0.33943,0.33378 0.57703,0.74676 0.24326,0.40732 0.37338,0.87686 0.13577,0.46955 0.13577,0.9787 0,0.75241 -0.2772,1.4143 -0.27155,0.6619 -0.80333,1.19368 l -5.42527,5.42528 -5.42527,-5.42528 q -0.53178,-0.53178 -0.80899,-1.19368 -0.27154,-0.66189 -0.27154,-1.4143 0,-0.50915 0.13011,-0.9787 0.13578,-0.4752 0.37338,-0.88252 0.2376,-0.40732 0.57704,-0.74676 0.33943,-0.33943 0.74675,-0.57704 0.40732,-0.2376 0.87687,-0.36771 0.47521,-0.13578 0.98436,-0.13578 0.4356,0 0.82029,0.0905 0.38469,0.0848 0.72413,0.24892 0.34509,0.16405 0.65623,0.40732 0.31681,0.2376 0.61664,0.54309 0.29983,-0.30549 0.61098,-0.54309 0.31681,-0.24327 0.65624,-0.40732 0.34509,-0.16972 0.72978,-0.25458 0.38469,-0.0848 0.8203,-0.0848 z m -2.8173,10.57335 4.84824,-4.85389 q 0.40732,-0.40732 0.62229,-0.9278 0.22063,-0.52611 0.22063,-1.10315 0,-0.594 -0.22629,-1.11447 -0.22628,-0.52612 -0.61663,-0.91647 -0.39035,-0.39035 -0.91647,-0.61664 -0.52047,-0.22629 -1.11447,-0.22629 -0.4639,0 -0.82596,0.11315 -0.36206,0.11314 -0.66755,0.31115 -0.30549,0.19234 -0.58269,0.45823 -0.27155,0.26023 -0.56007,0.55441 l -0.18103,0.18668 -0.16406,-0.16971 q -0.28852,-0.29983 -0.56572,-0.56006 -0.2772,-0.26589 -0.58835,-0.4639 -0.30549,-0.198 -0.67321,-0.31115 -0.36206,-0.1188 -0.82595,-0.1188 -0.59401,0 -1.12013,0.22629 -0.52047,0.22629 -0.91082,0.61664 -0.39034,0.39035 -0.61663,0.91647 -0.22629,0.52047 -0.22629,1.11447 0,0.57704 0.21497,1.10315 0.22063,0.52048 0.62795,0.9278 z"
       id="text1-9-1"
       style="font-size:10.5833px;line-height:1.25;font-family:'Lucida Console';-inkscape-font-specification:'Lucida Console';letter-spacing:0px;fill:#ffcc00;stroke-width:0.28965"
       aria-label="❤️" />
    <path
       style="fill:none;stroke:#ffcc00;stroke-width:0.6;stroke-linecap:butt;stroke-linejoin:miter;stroke-dasharray:none;stroke-opacity:1;marker-start:url(#Dot)"
       d="M -213.27998,0.69306516 V 49.937167"
       id="path1" />
    <path
       style="fill:none;stroke:#ffcc00;stroke-width:0.6;stroke-linecap:butt;stroke-linejoin:miter;stroke-dasharray:none;stroke-opacity:1;marker-end:url(#marker4)"
       d="m -213.27998,237.48016 v 49.24411"
       id="path1-7" />
    <path
       style="fill:none;stroke:#ffcc00;stroke-width:0.6;stroke-linecap:butt;stroke-linejoin:miter;stroke-dasharray:none;stroke-opacity:1"
       d="M -213.27998,111.46876 V 62.224648"
       id="path1-8" />
    <path
       style="fill:none;stroke:#ffcc00;stroke-width:0.6;stroke-linecap:butt;stroke-linejoin:miter;stroke-dasharray:none;stroke-opacity:1"
       d="M -213.27998,170.35214 V 121.10805"
       id="path1-8-2" />
    <path
       style="fill:none;stroke:#ffcc00;stroke-width:0.6;stroke-linecap:butt;stroke-linejoin:miter;stroke-dasharray:none;stroke-opacity:1"
       d="M -213.27998,229.66377 V 179.75211"
       id="path1-8-2-5" />
    <text
       xml:space="preserve"
       style="font-size:4.19183px;line-height:1.25;font-family:'Lucida Console';-inkscape-font-specification:'Lucida Console';letter-spacing:0px;stroke-width:0.104796"
       x="-192.38028"
       y="233.36543"
       id="text2-4-0-1"><tspan
         sodipodi:role="line"
         id="tspan2-6-8-1"
         style="stroke-width:0.104796"
         x="-192.38028"
         y="233.36543">Ziel</tspan><tspan
         sodipodi:role="line"
         style="stroke-width:0.104796"
         x="-192.38028"
         y="238.60522"
         id="tspan3-7-5-6">Transparenz über mein Denken und Handeln.</tspan><tspan
         sodipodi:role="line"
         style="stroke-width:0.104796"
         x="-192.38028"
         y="243.845"
         id="tspan4">Offener Entwurf, kein Endprodukt.</tspan></text>
    <path
       d="m -208.61767,235.59642 3.38302,3.38302 q 0.26023,0.26023 0.396,0.594 0.14143,0.33378 0.14143,0.69584 0,0.37904 -0.14709,0.71281 -0.14143,0.33378 -0.39034,0.5827 -0.24892,0.24891 -0.5827,0.39034 -0.33377,0.14709 -0.71281,0.14709 -0.36772,0 -0.70149,-0.14143 -0.32812,-0.13577 -0.58835,-0.396 l -3.38302,-3.38303 v -0.62228 q -0.48086,0.2376 -0.99001,0.3564 -0.50915,0.1188 -1.04093,0.1188 -0.61664,0 -1.18802,-0.1584 -0.57138,-0.1584 -1.06921,-0.44692 -0.49784,-0.29418 -0.90516,-0.7015 -0.40732,-0.41297 -0.70149,-0.90516 -0.28852,-0.49783 -0.45258,-1.06921 -0.1584,-0.57138 -0.1584,-1.18801 0,-0.61664 0.1584,-1.18802 0.16406,-0.57138 0.45258,-1.06921 0.29417,-0.49784 0.70149,-0.90516 0.40732,-0.40732 0.90516,-0.69584 0.49783,-0.29418 1.06921,-0.45257 0.57138,-0.16406 1.18802,-0.16406 0.61663,0 1.18236,0.16406 0.57138,0.15839 1.06921,0.45257 0.49784,0.28852 0.90516,0.7015 0.40732,0.40731 0.69583,0.90516 0.29418,0.49217 0.45258,1.06355 0.16406,0.57138 0.16406,1.18802 0,0.53178 -0.12446,1.04092 -0.1188,0.50915 -0.3564,0.98436 z m -4.61629,1.62928 q 0.50349,0 0.96738,-0.13012 0.46955,-0.13012 0.87121,-0.36772 0.40732,-0.24325 0.7411,-0.57703 0.33943,-0.33378 0.57704,-0.7411 0.2376,-0.40732 0.36772,-0.87121 0.13011,-0.46955 0.13011,-0.97304 0,-0.5035 -0.13011,-0.96738 -0.13012,-0.46956 -0.36772,-0.87688 -0.23761,-0.40731 -0.57138,-0.74109 -0.33378,-0.33377 -0.7411,-0.57138 -0.40732,-0.24326 -0.87687,-0.37338 -0.46389,-0.13011 -0.96738,-0.13011 -0.50349,0 -0.97304,0.13011 -0.46955,0.13012 -0.87687,0.37338 -0.40167,0.23761 -0.73544,0.57138 -0.33378,0.33378 -0.57704,0.74109 -0.2376,0.40167 -0.36772,0.87122 -0.13011,0.46954 -0.13011,0.97304 0,0.75806 0.28851,1.42561 0.28852,0.66191 0.78636,1.15974 0.49783,0.49783 1.15973,0.78635 0.66755,0.28852 1.42562,0.28852 z m 5.98534,3.7677 0.71846,-0.71846 -3.13975,-3.14541 -0.71847,0.71846 z m 1.12578,-1.12578 0.31115,-0.31115 -3.13976,-3.14541 -0.31114,0.31115 z m -3.86388,-3.86388 q -0.17537,0.23194 -0.37903,0.43561 -0.198,0.20365 -0.42995,0.37337 l 0.40732,0.41298 0.80898,-0.81464 z"
       id="text1-9-1-5"
       style="font-size:10.5833px;line-height:1.25;font-family:'Lucida Console';-inkscape-font-specification:'Lucida Console';letter-spacing:0px;fill:#ffcc00;stroke-width:0.28965"
       aria-label="🔍" />
    <path
       d="m -176.44217,314.82582 5.91189,5.91189 q 0.45476,0.45475 0.69202,1.03802 0.24715,0.58329 0.24715,1.21599 0,0.66238 -0.25704,1.24565 -0.24715,0.58329 -0.68213,1.01828 -0.43499,0.43498 -1.01828,0.68213 -0.58326,0.25704 -1.24564,0.25704 -0.6426,0 -1.22587,-0.24715 -0.5734,-0.23726 -1.02815,-0.69202 l -5.91189,-5.9119 v -1.08745 q -0.84031,0.41521 -1.73006,0.62282 -0.88975,0.2076 -1.81905,0.2076 -1.07759,0 -2.07608,-0.27681 -0.9985,-0.2768 -1.86847,-0.781 -0.86998,-0.51408 -1.58178,-1.22588 -0.7118,-0.72167 -1.22587,-1.58178 -0.50419,-0.86997 -0.79089,-1.86847 -0.2768,-0.9985 -0.2768,-2.07607 0,-1.07759 0.2768,-2.07608 0.2867,-0.9985 0.79089,-1.86847 0.51407,-0.86998 1.22587,-1.58178 0.7118,-0.7118 1.58178,-1.21599 0.86997,-0.51409 1.86847,-0.79088 0.99849,-0.2867 2.07608,-0.2867 1.07758,0 2.0662,0.2867 0.9985,0.27679 1.86846,0.79088 0.86999,0.50419 1.58179,1.22588 0.7118,0.71178 1.21597,1.58178 0.51409,0.86008 0.79089,1.85858 0.2867,0.99849 0.2867,2.07608 0,0.9293 -0.21749,1.81903 -0.20761,0.88975 -0.62282,1.72019 z m -8.06705,2.84719 q 0.87986,0 1.69052,-0.22738 0.82055,-0.22739 1.52247,-0.6426 0.7118,-0.42509 1.29507,-1.00837 0.59316,-0.58329 1.00839,-1.29509 0.41521,-0.7118 0.64259,-1.52245 0.22737,-0.82055 0.22737,-1.70041 0,-0.87987 -0.22737,-1.69051 -0.22738,-0.82057 -0.64259,-1.53237 -0.41523,-0.71178 -0.9985,-1.29506 -0.58329,-0.58327 -1.29509,-0.9985 -0.71179,-0.4251 -1.53234,-0.65249 -0.81066,-0.22737 -1.69052,-0.22737 -0.87985,0 -1.7004,0.22737 -0.82055,0.22739 -1.53235,0.65249 -0.70191,0.41523 -1.28519,0.9985 -0.58329,0.58328 -1.00839,1.29506 -0.41521,0.70193 -0.6426,1.52248 -0.22737,0.82053 -0.22737,1.7004 0,1.32473 0.5042,2.49128 0.50417,1.1567 1.37416,2.02667 0.86997,0.86997 2.02665,1.37416 1.16655,0.50419 2.49129,0.50419 z m 10.45949,6.58413 1.25553,-1.25552 -5.48677,-5.49667 -1.25554,1.25553 z m 1.96732,-1.96732 0.54375,-0.54374 -5.48679,-5.49667 -0.54373,0.54375 z m -6.7522,-6.7522 q -0.30646,0.40532 -0.66236,0.76123 -0.34601,0.35588 -0.75134,0.65247 l 0.7118,0.72169 1.4137,-1.4236 z"
       id="text1-9-1-5-2"
       style="font-size:10.5833px;line-height:1.25;font-family:'Lucida Console';-inkscape-font-specification:'Lucida Console';letter-spacing:0px;fill:#ffcc00;stroke-width:0.506169"
       aria-label="🔍" />
    <text
       xml:space="preserve"
       style="font-size:4.19183px;line-height:1.25;font-family:'Lucida Console';-inkscape-font-specification:'Lucida Console';letter-spacing:0px;stroke-width:0.104796"
       x="-192.38028"
       y="114.80271"
       id="text2-4"><tspan
         sodipodi:role="line"
         id="tspan2-6"
         style="stroke-width:0.104796"
         x="-192.38028"
         y="114.80271">Ansatz</tspan><tspan
         sodipodi:role="line"
         style="stroke-width:0.104796"
         x="-192.38028"
         y="120.0425"
         id="tspan3-7">Design Thinking statt Standardbewerbung.</tspan></text>
    <text
       xml:space="preserve"
       style="font-size:4.19183px;line-height:1.25;font-family:'Lucida Console';-inkscape-font-specification:'Lucida Console';letter-spacing:0px;stroke-width:0.104796"
       x="-192.54813"
       y="54.285061"
       id="text2"><tspan
         sodipodi:role="line"
         id="tspan2"
         style="stroke-width:0.104796"
         x="-192.54813"
         y="54.285061">Mission</tspan><tspan
         sodipodi:role="line"
         style="stroke-width:0.104796"
         x="-192.54813"
         y="59.524849"
         id="tspan3">Ich denke Bewerbung neu.</tspan></text>
    <path
       style="fill:none;stroke:#ffcc00;stroke-width:0.6;stroke-linecap:butt;stroke-linejoin:miter;stroke-dasharray:none;stroke-opacity:1;marker-start:url(#Dot-1-7)"
       d="M 105,345.09796 V 285.27053"
       id="path1-2-1"
       sodipodi:nodetypes="cc" />
    <path
       style="fill:none;stroke:#ffcc00;stroke-width:0.6;stroke-linecap:butt;stroke-linejoin:miter;stroke-dasharray:none;stroke-opacity:1;marker-start:url(#Dot-1-7-7)"
       d="m 105.00001,5.246957 v 59.82743"
       id="path1-2-1-3"
       sodipodi:nodetypes="cc" />
    <path
       style="fill:none;stroke:#ffcc00;stroke-width:0.6;stroke-linecap:butt;stroke-linejoin:miter;stroke-dasharray:none;stroke-opacity:1;marker-start:url(#Dot-1-7-7-7)"
       d="m 325.00001,5.246957 v 59.82743"
       id="path1-2-1-3-8"
       sodipodi:nodetypes="cc" />
    <path
       style="fill:none;stroke:#ffcc00;stroke-width:0.6;stroke-linecap:butt;stroke-linejoin:miter;stroke-dasharray:none;stroke-opacity:1;marker-start:url(#ArrowTriangleStylized)"
       d="m 325.00001,334.87448 0,-232.51917"
       id="path1-2-1-3-8-5"
       sodipodi:nodetypes="cc" />
    <path
       style="fill:none;stroke:#ffcc00;stroke-width:0.6;stroke-linecap:butt;stroke-linejoin:miter;stroke-dasharray:none;stroke-opacity:1"
       d="M 105,125.95429 V 102.35531"
       id="path1-8-6"
       sodipodi:nodetypes="cc" />
    <path
       style="fill:none;stroke:#ffcc00;stroke-width:0.6;stroke-linecap:butt;stroke-linejoin:miter;stroke-dasharray:none;stroke-opacity:1"
       d="M 105,186.56168 V 162.9627"
       id="path1-8-6-8"
       sodipodi:nodetypes="cc" />
    <path
       style="fill:none;stroke:#ffcc00;stroke-width:0.6;stroke-linecap:butt;stroke-linejoin:miter;stroke-dasharray:none;stroke-opacity:1"
       d="M 105,247.43857 V 223.83959"
       id="path1-8-6-8-4"
       sodipodi:nodetypes="cc" />
    <path
       d="m 48.37781,72.345841 q 1.07759,0 2.07609,0.286696 0.99847,0.276812 1.85857,0.790886 0.86998,0.504192 1.58178,1.21599 0.72167,0.711801 1.22587,1.581776 0.51408,0.869976 0.79089,1.868471 0.27681,0.998497 0.27681,2.07608 0,1.591662 -0.56351,3.015258 -0.5635,1.413713 -1.61144,2.609927 -0.2768,0.316357 -0.58327,0.593167 -0.29658,0.266925 -0.59317,0.553621 -0.19772,0.187846 -0.36578,0.385558 -0.16811,0.187846 -0.28669,0.395444 -0.11866,0.207607 -0.18785,0.444875 -0.0692,0.237266 -0.0692,0.523962 v 3.905007 q 0,0.326241 -0.11865,0.622823 -0.1087,0.306471 -0.31636,0.543736 -0.19773,0.237266 -0.48443,0.395445 -0.2768,0.158167 -0.60305,0.197719 l -0.73156,0.731572 h -2.60005 l -0.73158,-0.731572 q -0.32622,-0.03955 -0.61292,-0.197719 -0.27681,-0.158168 -0.48443,-0.395445 -0.19771,-0.237265 -0.31635,-0.543736 -0.1087,-0.296582 -0.1087,-0.622823 v -3.905007 q 0,-0.286696 -0.0692,-0.523962 -0.0692,-0.237268 -0.18784,-0.444875 -0.11866,-0.207606 -0.2867,-0.395444 -0.15815,-0.197723 -0.3559,-0.385558 -0.29657,-0.286696 -0.60303,-0.553621 -0.29659,-0.27681 -0.5734,-0.593167 -1.04793,-1.196214 -1.62133,-2.609927 -0.5635,-1.423596 -0.5635,-3.015258 0,-1.077583 0.2768,-2.07608 0.2867,-0.998495 0.7909,-1.868471 0.51408,-0.869975 1.22588,-1.581776 0.7118,-0.711798 1.58177,-1.21599 0.86998,-0.514074 1.86848,-0.790886 0.99849,-0.286696 2.07607,-0.286696 z m 2.1255,16.341711 q 0,-0.45476 0.0989,-0.840317 0.0989,-0.395444 0.2867,-0.731572 0.18783,-0.346012 0.44489,-0.652482 0.26691,-0.316355 0.59316,-0.612938 0.64259,-0.593164 1.16655,-1.21599 0.52396,-0.622822 0.88975,-1.304964 0.37568,-0.692024 0.5734,-1.473027 0.2076,-0.781 0.2076,-1.690522 0,-1.324736 -0.50419,-2.491295 -0.49431,-1.16656 -1.36427,-2.02665 -0.86999,-0.869975 -2.03654,-1.374167 -1.15669,-0.504191 -2.48141,-0.504191 -0.88975,0 -1.71029,0.227382 -0.81066,0.227378 -1.52246,0.642594 -0.7118,0.415217 -1.29509,0.998497 -0.58328,0.583279 -0.99849,1.295078 -0.41521,0.711798 -0.6426,1.532345 -0.22737,0.820545 -0.22737,1.700407 0,0.899634 0.19771,1.680635 0.20761,0.781002 0.5734,1.473028 0.37568,0.692028 0.89964,1.31485 0.52396,0.622826 1.16656,1.21599 0.32624,0.296583 0.58326,0.612938 0.26694,0.30647 0.44489,0.652482 0.18784,0.336128 0.2867,0.731572 0.10869,0.385557 0.10869,0.840317 h 0.7118 v -2.837309 q -0.2867,0 -0.50419,-0.207607 -0.20761,-0.207609 -0.20761,-0.504192 0,-0.296582 0.20761,-0.504191 0.2076,-0.207606 0.50419,-0.207606 0.29659,0 0.50419,0.207606 0.20761,0.207609 0.20761,0.504191 h 1.41371 q 0,-0.286696 0.2076,-0.494303 0.20761,-0.217494 0.5042,-0.217494 0.29658,0 0.50419,0.207606 0.2076,0.207609 0.2076,0.504191 0,0.296583 -0.21749,0.504192 -0.20761,0.207607 -0.4943,0.207607 v 2.837309 z m 0,3.905007 q 0,-0.237266 -0.15815,-0.296583 -0.15815,-0.04944 -0.346,-0.04944 h -0.20761 v -0.711799 h 0.20761 q 0.18784,0 0.346,-0.05933 0.15815,-0.04944 0.15815,-0.296583 0,-0.237266 -0.14818,-0.296584 -0.14837,-0.05931 -0.33612,-0.05931 h -0.22739 v -0.711801 h -2.8373 v 0.711801 h -0.20761 q -0.18786,0 -0.34603,0.04944 -0.15815,0.05933 -0.15815,0.306467 0,0.237268 0.14837,0.296584 0.14819,0.05933 0.33613,0.05933 h 0.22739 v 0.711799 h -0.12844 q -0.0989,0 -0.20762,0 -0.0989,0.01 -0.18785,0.03955 -0.0792,0.03955 -0.1384,0.108731 -0.0495,0.0692 -0.0495,0.197723 0,0.237265 0.14836,0.296583 0.14819,0.05931 0.33614,0.05931 h 0.22737 l 0.71179,0.711799 H 49.08 l 0.7118,-0.711799 h 0.2076 q 0.18784,0 0.34601,-0.05931 0.15815,-0.04944 0.15815,-0.296583 z m -2.8373,-6.742316 v 2.837309 h 1.41371 v -2.837309 z"
       id="text1-97"
       style="font-size:10.5833px;line-height:1.25;font-family:'Lucida Console';-inkscape-font-specification:'Lucida Console';letter-spacing:0px;fill:#ffcc00;stroke-width:0.506169"
       aria-label="💡" />
    <text
       xml:space="preserve"
       style="font-size:4.19183px;line-height:1.25;font-family:'Lucida Console';-inkscape-font-specification:'Lucida Console';letter-spacing:0px;stroke-width:0.104796"
       x="66.382744"
       y="82.281067"
       id="text2-0"><tspan
         sodipodi:role="line"
         id="tspan2-1"
         style="stroke-width:0.104796"
         x="66.382744"
         y="82.281067">Mission</tspan><tspan
         sodipodi:role="line"
         style="stroke-width:0.104796"
         x="66.382744"
         y="87.520859"
         id="tspan3-6">Ich denke Bewerbung neu.</tspan></text>
    <rect
       style="fill:none;fill-opacity:1;stroke:#ffcc00;stroke-width:0.689854;stroke-linecap:round;stroke-linejoin:round;stroke-dasharray:none;stroke-opacity:1"
       id="rect6"
       width="149.12369"
       height="37.280922"
       x="30.438166"
       y="65.074387"
       ry="3.2719958" />
    <path
       d="m 265.72782,72.345841 q 1.07759,0 2.07609,0.286696 0.99847,0.276812 1.85857,0.790886 0.86998,0.504192 1.58178,1.21599 0.72167,0.711801 1.22587,1.581776 0.51408,0.869976 0.79089,1.868471 0.27681,0.998497 0.27681,2.07608 0,1.591662 -0.56351,3.015258 -0.5635,1.413713 -1.61144,2.609927 -0.2768,0.316357 -0.58327,0.593167 -0.29658,0.266925 -0.59317,0.553621 -0.19772,0.187846 -0.36578,0.385558 -0.16811,0.187846 -0.28669,0.395444 -0.11866,0.207607 -0.18785,0.444875 -0.0692,0.237266 -0.0692,0.523962 v 3.905007 q 0,0.326241 -0.11865,0.622823 -0.1087,0.306471 -0.31636,0.543736 -0.19773,0.237266 -0.48443,0.395445 -0.2768,0.158167 -0.60305,0.197719 l -0.73156,0.731572 h -2.60005 l -0.73158,-0.731572 q -0.32622,-0.03955 -0.61292,-0.197719 -0.27681,-0.158168 -0.48443,-0.395445 -0.19771,-0.237265 -0.31635,-0.543736 -0.1087,-0.296582 -0.1087,-0.622823 v -3.905007 q 0,-0.286696 -0.0692,-0.523962 -0.0692,-0.237268 -0.18784,-0.444875 -0.11866,-0.207606 -0.2867,-0.395444 -0.15815,-0.197723 -0.3559,-0.385558 -0.29657,-0.286696 -0.60303,-0.553621 -0.29659,-0.27681 -0.5734,-0.593167 -1.04793,-1.196214 -1.62133,-2.609927 -0.5635,-1.423596 -0.5635,-3.015258 0,-1.077583 0.2768,-2.07608 0.2867,-0.998495 0.7909,-1.868471 0.51408,-0.869975 1.22588,-1.581776 0.7118,-0.711798 1.58177,-1.21599 0.86998,-0.514074 1.86848,-0.790886 0.99849,-0.286696 2.07607,-0.286696 z m 2.1255,16.341711 q 0,-0.45476 0.0989,-0.840317 0.0989,-0.395444 0.2867,-0.731572 0.18783,-0.346012 0.44489,-0.652482 0.26691,-0.316355 0.59316,-0.612938 0.64259,-0.593164 1.16655,-1.21599 0.52396,-0.622822 0.88975,-1.304964 0.37568,-0.692024 0.5734,-1.473027 0.2076,-0.781 0.2076,-1.690522 0,-1.324736 -0.50419,-2.491295 -0.49431,-1.16656 -1.36427,-2.02665 -0.86999,-0.869975 -2.03654,-1.374167 -1.15669,-0.504191 -2.48141,-0.504191 -0.88975,0 -1.71029,0.227382 -0.81066,0.227378 -1.52246,0.642594 -0.7118,0.415217 -1.29509,0.998497 -0.58328,0.583279 -0.99849,1.295078 -0.41521,0.711798 -0.6426,1.532345 -0.22737,0.820545 -0.22737,1.700407 0,0.899634 0.19771,1.680635 0.20761,0.781002 0.5734,1.473028 0.37568,0.692028 0.89964,1.31485 0.52396,0.622826 1.16656,1.21599 0.32624,0.296583 0.58326,0.612938 0.26694,0.30647 0.44489,0.652482 0.18784,0.336128 0.2867,0.731572 0.10869,0.385557 0.10869,0.840317 h 0.7118 v -2.837309 q -0.2867,0 -0.50419,-0.207607 -0.20761,-0.207609 -0.20761,-0.504192 0,-0.296582 0.20761,-0.504191 0.2076,-0.207606 0.50419,-0.207606 0.29659,0 0.50419,0.207606 0.20761,0.207609 0.20761,0.504191 h 1.41371 q 0,-0.286696 0.2076,-0.494303 0.20761,-0.217494 0.5042,-0.217494 0.29658,0 0.50419,0.207606 0.2076,0.207609 0.2076,0.504191 0,0.296583 -0.21749,0.504192 -0.20761,0.207607 -0.4943,0.207607 v 2.837309 z m 0,3.905007 q 0,-0.237266 -0.15815,-0.296583 -0.15815,-0.04944 -0.346,-0.04944 h -0.20761 v -0.711799 h 0.20761 q 0.18784,0 0.346,-0.05933 0.15815,-0.04944 0.15815,-0.296583 0,-0.237266 -0.14818,-0.296584 -0.14837,-0.05931 -0.33612,-0.05931 h -0.22739 v -0.711801 h -2.8373 v 0.711801 h -0.20761 q -0.18786,0 -0.34603,0.04944 -0.15815,0.05933 -0.15815,0.306467 0,0.237268 0.14837,0.296584 0.14819,0.05933 0.33613,0.05933 h 0.22739 v 0.711799 h -0.12844 q -0.0989,0 -0.20762,0 -0.0989,0.01 -0.18785,0.03955 -0.0792,0.03955 -0.1384,0.108731 -0.0495,0.0692 -0.0495,0.197723 0,0.237265 0.14836,0.296583 0.14819,0.05931 0.33614,0.05931 h 0.22737 l 0.71179,0.711799 h 1.41373 l 0.7118,-0.711799 h 0.2076 q 0.18784,0 0.34601,-0.05931 0.15815,-0.04944 0.15815,-0.296583 z m -2.8373,-6.742316 v 2.837309 h 1.41371 v -2.837309 z"
       id="text1-97-1"
       style="font-size:10.5833px;line-height:1.25;font-family:'Lucida Console';-inkscape-font-specification:'Lucida Console';letter-spacing:0px;fill:#ffcc00;stroke-width:0.506169"
       aria-label="💡" />
    <text
       xml:space="preserve"
       style="font-size:4.19183px;line-height:1.25;font-family:'Lucida Console';-inkscape-font-specification:'Lucida Console';letter-spacing:0px;stroke-width:0.104796"
       x="286.38275"
       y="80.065414"
       id="text2-0-3"><tspan
         sodipodi:role="line"
         id="tspan2-1-9"
         style="stroke-width:0.104796"
         x="286.38275"
         y="80.065414">Einladung</tspan><tspan
         sodipodi:role="line"
         style="stroke-width:0.104796"
         x="286.38275"
         y="85.305199"
         id="tspan3-6-5">Lass uns gemeinsam herausfinden,</tspan><tspan
         sodipodi:role="line"
         style="stroke-width:0.104796"
         x="286.38275"
         y="90.544991"
         id="tspan11">wo ich wirksam sein kann.</tspan></text>
    <rect
       style="fill:none;fill-opacity:1;stroke:#ffcc00;stroke-width:0.689854;stroke-linecap:round;stroke-linejoin:round;stroke-dasharray:none;stroke-opacity:1"
       id="rect6-1"
       width="149.12369"
       height="37.280922"
       x="250.43816"
       y="65.074387"
       ry="3.2719958" />
    <path
       d="m 59.74182,142.81519 q 0,0.71179 -0.23726,1.38405 -0.22739,0.67225 -0.66237,1.23577 0.0989,0.31636 0.13841,0.64258 0.0495,0.32625 0.0495,0.65249 0,0.96884 -0.40533,1.86848 -0.39545,0.88973 -1.10725,1.54224 -0.36577,0.9194 -0.96884,1.67073 -0.60305,0.75135 -1.38405,1.27532 -0.77111,0.52394 -1.69052,0.81064 -0.9194,0.28672 -1.90801,0.28672 -0.68214,0 -1.34452,-0.14819 -0.66236,-0.13858 -1.2753,-0.41521 -0.61293,-0.27681 -1.16656,-0.68216 -0.54372,-0.39543 -0.9985,-0.90952 -0.80076,-0.0989 -1.52245,-0.45475 -0.72169,-0.35589 -1.2852,-0.93917 h -2.35289 q -0.94906,0 -1.78939,-0.36579 -0.84031,-0.36579 -1.47302,-0.98863 -0.62283,-0.6327 -0.9886,-1.473 -0.36579,-0.84033 -0.36579,-1.78939 v -2.13539 q 0,-0.56353 0.15815,-1.08748 0.15815,-0.53385 0.45475,-0.98861 0.29659,-0.46465 0.7118,-0.83042 0.41523,-0.37568 0.91943,-0.61296 0.18782,-0.87986 0.64258,-1.60153 0.46464,-0.73158 1.11713,-1.24565 0.66236,-0.52397 1.47304,-0.80078 0.82053,-0.28668 1.71029,-0.28668 0.69202,-0.68216 1.59166,-1.04794 0.90951,-0.37568 1.87835,-0.37568 0.7909,0 1.53235,0.24715 0.75135,0.23726 1.38405,0.7118 0.41521,-0.12861 0.84031,-0.18785 0.4251,-0.0592 0.8601,-0.0592 0.87986,0 1.71029,0.24715 0.83044,0.24715 1.54224,0.7118 0.72167,0.45475 1.28518,1.10724 0.57339,0.6426 0.94907,1.44338 0.45476,0.29657 0.82055,0.69202 0.37567,0.38555 0.62282,0.85022 0.25704,0.46463 0.39544,0.98859 0.13841,0.51406 0.13841,1.0578 z m -1.68063,1.17644 q 0.13841,-0.2768 0.19772,-0.57339 0.0594,-0.29657 0.0594,-0.60305 0,-0.41521 -0.11865,-0.81066 -0.11866,-0.39545 -0.34601,-0.73158 -0.2175,-0.3361 -0.52396,-0.60303 -0.30648,-0.27681 -0.69203,-0.44487 -0.24716,-0.69205 -0.68215,-1.25554 -0.43499,-0.5734 -1.00837,-0.97873 -0.57339,-0.40532 -1.25554,-0.63273 -0.68214,-0.22737 -1.41371,-0.22737 -1.04793,0 -1.99699,0.46467 l 0.0989,-0.0397 q -0.47454,0.21748 -0.81066,0.45477 -0.33613,0.23725 -0.60305,0.52394 -0.25704,0.2867 -0.47454,0.64262 -0.21749,0.34599 -0.46464,0.78098 -0.1087,0.19773 -0.27681,0.31636 -0.15815,0.10887 -0.38555,0.10887 -0.2867,0 -0.49433,-0.20761 -0.2076,-0.21749 -0.2076,-0.50419 0,-0.11866 0.0495,-0.26694 0.14837,-0.39542 0.38556,-0.781 0.24717,-0.39543 0.54374,-0.74145 0.30648,-0.3559 0.65249,-0.65247 0.34601,-0.30648 0.70191,-0.53387 l 0.0494,0.009 q -0.32624,-0.13858 -0.68214,-0.2076 -0.34601,-0.0692 -0.70191,-0.0692 -0.86009,0 -1.62131,0.39542 -0.75135,0.38556 -1.25554,1.08747 -0.16811,-0.0297 -0.33614,-0.0493 -0.16811,-0.0197 -0.33612,-0.0197 -0.71179,0 -1.36428,0.2768 -0.6426,0.26694 -1.1369,0.74146 -0.48442,0.47454 -0.77111,1.11715 -0.2867,0.63269 -0.2867,1.35438 v 0.0692 q 0,0.009 0,0.0197 0.0105,0 0.0105,0.009 -0.45475,0.0692 -0.8502,0.2867 -0.38555,0.21749 -0.67225,0.54374 -0.2867,0.32622 -0.45478,0.74144 -0.15815,0.41522 -0.15815,0.87987 v 2.1354 q 0,0.66236 0.24716,1.24565 0.25704,0.57339 0.69203,1.00837 0.43499,0.43499 1.00837,0.69203 0.58329,0.24715 1.24565,0.24715 h 1.32474 q 0.0692,-0.0692 0.12862,-0.12861 0.0594,-0.0692 0.12862,-0.12862 0.32622,-0.31636 0.62281,-0.62284 0.29659,-0.30647 0.51409,-0.64259 0.22737,-0.34601 0.35589,-0.75135 0.12845,-0.40533 0.12845,-0.91938 0,-0.5042 -0.12845,-0.90955 -0.11865,-0.41521 -0.34602,-0.75135 -0.2175,-0.34599 -0.54372,-0.63269 -0.32625,-0.28671 -0.72169,-0.55363 -0.17795,-0.11865 -0.2867,-0.25704 -0.0989,-0.14819 -0.0989,-0.37566 0,-0.29659 0.20762,-0.5042 0.21748,-0.2076 0.51407,-0.2076 0.2076,0 0.46465,0.15815 0.26693,0.14819 0.52395,0.3658 0.26694,0.20761 0.49431,0.43498 0.22738,0.22739 0.3559,0.38557 0.40533,-0.16811 0.82054,-0.25704 0.42511,-0.0989 0.86999,-0.0989 0.2867,0 0.4943,0.2175 0.2175,0.2076 0.2175,0.4943 0,0.29659 -0.20761,0.50419 -0.2076,0.20761 -0.50419,0.20761 -0.52396,0 -0.9985,0.17791 0.2867,0.781 0.2867,1.61142 0,0.53385 -0.0989,0.97874 -0.0989,0.44488 -0.2867,0.8502 -0.17795,0.40534 -0.45475,0.78102 -0.26694,0.36577 -0.61295,0.75134 0.44489,0.59315 1.10725,0.91941 0.67225,0.32622 1.41371,0.32622 0.54374,0 1.04793,-0.17791 0.51407,-0.18786 0.93917,-0.53383 h 0.0495 q 0.68215,-0.65251 1.31485,-1.31487 0.6426,-0.67224 1.32474,-1.32474 0.63271,-0.61293 1.34451,-0.93917 0.72169,-0.32623 1.62133,-0.32623 0.17795,0 0.33612,0.0397 0.15815,0.0297 0.2768,0.11866 0.12845,0.079 0.19774,0.2175 0.0792,0.13822 0.0792,0.33611 0,0.19774 -0.0792,0.33612 -0.0692,0.13858 -0.18786,0.22741 -0.11866,0.079 -0.28668,0.11865 -0.15815,0.0297 -0.33614,0.0297 -0.59316,0 -1.0677,0.2175 -0.47453,0.21749 -0.88975,0.6327 l -1.64109,1.63123 h 3.06469 q 0.66236,0 1.23576,-0.24716 0.58329,-0.25704 1.01828,-0.69205 0.43497,-0.43497 0.68213,-1.00835 0.25704,-0.58329 0.25704,-1.24567 0,-0.43497 -0.11866,-0.84031 -0.10869,-0.41521 -0.32624,-0.78102 -0.20761,-0.34599 -0.49431,-0.63269 -0.28669,-0.28671 -0.64259,-0.49432 -0.34601,-0.2076 -0.74146,-0.32624 -0.38555,-0.11866 -0.80076,-0.11866 -0.55363,0 -1.10725,0 -0.54374,-0.009 -1.09735,-0.009 -0.2867,0 -0.5042,-0.2076 -0.2076,-0.2175 -0.2076,-0.5042 0,-0.28669 0.2076,-0.4943 0.2175,-0.20762 0.5042,-0.20762 h 1.19619 q -0.0594,-0.35588 -0.0989,-0.7118 -0.0297,-0.35588 -0.0297,-0.7118 0,-0.29655 0.20761,-0.50416 0.20761,-0.20762 0.50419,-0.20762 0.29659,0 0.5042,0.20762 0.2076,0.20761 0.2076,0.50416 0,0.36581 0.0395,0.73158 0.0395,0.36579 0.11865,0.72169 0.93917,0.1087 1.75972,0.58329 0.82055,0.46463 1.39394,1.2061 z"
       id="text1-9-7"
       style="font-size:10.5833px;line-height:1.25;font-family:'Lucida Console';-inkscape-font-specification:'Lucida Console';letter-spacing:0px;fill:#ffcc00;stroke-width:0.506169"
       aria-label="🧠" />
    <text
       xml:space="preserve"
       style="font-size:4.19183px;line-height:1.25;font-family:'Lucida Console';-inkscape-font-specification:'Lucida Console';letter-spacing:0px;stroke-width:0.104796"
       x="68.745811"
       y="142.87033"
       id="text2-4-1"><tspan
         sodipodi:role="line"
         id="tspan2-6-4"
         style="stroke-width:0.104796"
         x="68.745811"
         y="142.87033">Ansatz</tspan><tspan
         sodipodi:role="line"
         style="stroke-width:0.104796"
         x="68.745811"
         y="148.11012"
         id="tspan3-7-7">Design Thinking statt Standardbewerbung.</tspan></text>
    <rect
       style="fill:none;fill-opacity:1;stroke:#ffcc00;stroke-width:0.689854;stroke-linecap:round;stroke-linejoin:round;stroke-dasharray:none;stroke-opacity:1"
       id="rect6-8"
       width="149.12369"
       height="37.280922"
       x="30.438164"
       y="125.95428"
       ry="3.2719958" />
    <text
       xml:space="preserve"
       style="font-size:4.19183px;line-height:1.25;font-family:'Lucida Console';-inkscape-font-specification:'Lucida Console';letter-spacing:0px;stroke-width:0.104796"
       x="69.594589"
       y="204.6324"
       id="text2-4-0-16"><tspan
         sodipodi:role="line"
         id="tspan2-6-8-6"
         style="stroke-width:0.104796"
         x="69.594589"
         y="204.6324">Ich zeige</tspan><tspan
         sodipodi:role="line"
         style="stroke-width:0.104796"
         x="69.594589"
         y="209.87219"
         id="tspan3-7-5-2">Werte, Stärken, Fragen, Potenziale.</tspan></text>
    <path
       d="m 52.925045,196.77672 q 0.822672,0 1.581369,0.2194 0.758679,0.21023 1.416824,0.60328 0.667289,0.38393 1.206611,0.93237 0.548448,0.53933 0.93236,1.20661 0.393056,0.65815 0.603306,1.41683 0.219375,0.7587 0.219375,1.58138 0,1.21573 -0.447905,2.28521 -0.43876,1.06949 -1.29801,1.92874 l -8.766105,8.76611 -8.766095,-8.76611 q -0.85925,-0.85925 -1.307146,-1.92874 -0.438769,-1.06948 -0.438769,-2.28521 0,-0.82268 0.210249,-1.58138 0.219376,-0.76782 0.603288,-1.42597 0.383911,-0.65814 0.932378,-1.20661 0.548448,-0.54845 1.206583,-0.93237 0.658145,-0.38391 1.416842,-0.59414 0.767842,-0.2194 1.590523,-0.2194 0.70384,0 1.325416,0.14623 0.621576,0.13702 1.170043,0.4022 0.557592,0.26507 1.060345,0.65815 0.511879,0.38391 0.996343,0.87752 0.484465,-0.49361 0.987218,-0.87752 0.511897,-0.39308 1.060345,-0.65815 0.557593,-0.27423 1.179178,-0.41134 0.621576,-0.13702 1.325434,-0.13702 z m -4.552175,17.08433 7.833746,-7.84287 q 0.658145,-0.65815 1.005488,-1.49914 0.356496,-0.85008 0.356496,-1.78245 0,-0.95979 -0.365641,-1.80076 -0.365623,-0.85009 -0.996343,-1.48082 -0.630721,-0.63072 -1.480826,-0.99636 -0.84097,-0.36564 -1.800745,-0.36564 -0.749571,0 -1.334579,0.18283 -0.585016,0.18281 -1.078625,0.50275 -0.493608,0.31079 -0.941504,0.7404 -0.438769,0.42048 -0.904954,0.89581 l -0.292513,0.30164 -0.265079,-0.27422 q -0.466194,-0.48446 -0.914089,-0.90493 -0.447896,-0.42963 -0.950649,-0.74957 -0.493608,-0.31993 -1.087769,-0.50276 -0.585017,-0.19195 -1.334561,-0.19195 -0.959802,0 -1.809898,0.36564 -0.84097,0.36564 -1.471691,0.99636 -0.630711,0.63073 -0.996352,1.48082 -0.365632,0.84097 -0.365632,1.80076 0,0.93237 0.347343,1.78245 0.356506,0.84099 1.014641,1.49914 z"
       id="text1-9-1-9"
       style="font-size:10.5833px;line-height:1.25;font-family:'Lucida Console';-inkscape-font-specification:'Lucida Console';letter-spacing:0px;fill:#ffcc00;stroke-width:0.468014"
       aria-label="❤️" />
    <rect
       style="fill:none;fill-opacity:1;stroke:#ffcc00;stroke-width:0.689854;stroke-linecap:round;stroke-linejoin:round;stroke-dasharray:none;stroke-opacity:1"
       id="rect6-8-4"
       width="149.12369"
       height="37.280922"
       x="30.43816"
       y="186.83418"
       ry="3.2719958" />
    <text
       xml:space="preserve"
       style="font-size:4.19183px;line-height:1.25;font-family:'Lucida Console';-inkscape-font-specification:'Lucida Console';letter-spacing:0px;stroke-width:0.104796"
       x="69.628738"
       y="262.5838"
       id="text2-4-0-1-8"><tspan
         sodipodi:role="line"
         id="tspan2-6-8-1-9"
         style="stroke-width:0.104796"
         x="69.628738"
         y="262.5838">Ziel</tspan><tspan
         sodipodi:role="line"
         style="stroke-width:0.104796"
         x="69.628738"
         y="267.82361"
         id="tspan3-7-5-6-8">Transparenz über mein Denken und Handeln.</tspan><tspan
         sodipodi:role="line"
         style="stroke-width:0.104796"
         x="69.628738"
         y="273.06339"
         id="tspan4-2">Offener Entwurf, kein Endprodukt.</tspan></text>
    <path
       d="m 52.710089,265.89978 5.675409,5.67541 q 0.436569,0.43656 0.664338,0.9965 0.237264,0.55995 0.237264,1.16735 0,0.63588 -0.246758,1.19582 -0.237264,0.55996 -0.654844,0.97755 -0.41759,0.41758 -0.977548,0.65484 -0.559929,0.24676 -1.195814,0.24676 -0.616895,0 -1.176834,-0.23726 -0.550463,-0.22777 -0.987023,-0.66434 l -5.675409,-5.67542 v -1.04395 q -0.806697,0.3986 -1.660856,0.5979 -0.854159,0.1993 -1.746286,0.1993 -1.034486,0 -1.993035,-0.26574 -0.958559,-0.26573 -1.79373,-0.74976 -0.83518,-0.49351 -1.518507,-1.17684 -0.683327,-0.6928 -1.176834,-1.51851 -0.484022,-0.83517 -0.759254,-1.79373 -0.265718,-0.95856 -0.265718,-1.99302 0,-1.03449 0.265718,-1.99304 0.275232,-0.95856 0.759254,-1.79373 0.493507,-0.83518 1.176834,-1.5185 0.683327,-0.68333 1.518507,-1.16735 0.835171,-0.49353 1.79373,-0.75925 0.958549,-0.27523 1.993035,-0.27523 1.034476,0 1.98355,0.27523 0.958559,0.26572 1.79372,0.75925 0.835189,0.48402 1.518517,1.17684 0.683327,0.68331 1.16733,1.51851 0.493526,0.82567 0.759254,1.78423 0.275231,0.95855 0.275231,1.99304 0,0.89212 -0.20879,1.74626 -0.199305,0.85416 -0.597906,1.65139 z m -7.744361,2.7333 q 0.844665,0 1.622897,-0.21829 0.787728,-0.21829 1.46157,-0.61689 0.683328,-0.40809 1.243266,-0.96804 0.569433,-0.55995 0.968054,-1.24328 0.398601,-0.68333 0.616886,-1.46155 0.218275,-0.78773 0.218275,-1.63239 0,-0.84468 -0.218275,-1.62289 -0.218285,-0.78775 -0.616886,-1.47107 -0.398621,-0.68331 -0.958559,-1.24326 -0.559958,-0.55994 -1.243286,-0.95856 -0.683317,-0.4081 -1.471045,-0.62639 -0.778232,-0.21828 -1.622897,-0.21828 -0.844655,0 -1.632383,0.21828 -0.787727,0.21829 -1.471054,0.62639 -0.673833,0.39862 -1.233782,0.95856 -0.559957,0.55995 -0.968053,1.24326 -0.398601,0.67385 -0.616895,1.46157 -0.218275,0.78771 -0.218275,1.63239 0,1.27174 0.484031,2.39162 0.484003,1.11043 1.319192,1.9456 0.835171,0.83518 1.945583,1.3192 1.119887,0.48402 2.391636,0.48402 z m 10.041101,6.32076 1.205307,-1.2053 -5.267294,-5.2768 -1.205317,1.20531 z m 1.888625,-1.88863 0.522,-0.52199 -5.267314,-5.2768 -0.52198,0.522 z m -6.482106,-6.4821 q -0.294201,0.3891 -0.635865,0.73078 -0.332169,0.34164 -0.721285,0.62637 l 0.683327,0.69282 1.357151,-1.36666 z"
       id="text1-9-1-5-2-2"
       style="font-size:10.5833px;line-height:1.25;font-family:'Lucida Console';-inkscape-font-specification:'Lucida Console';letter-spacing:0px;fill:#ffcc00;stroke-width:0.485922"
       aria-label="🔍" />
    <rect
       style="fill:none;fill-opacity:1;stroke:#ffcc00;stroke-width:0.689854;stroke-linecap:round;stroke-linejoin:round;stroke-dasharray:none;stroke-opacity:1"
       id="rect6-8-4-9"
       width="149.12369"
       height="37.280922"
       x="30.438158"
       y="247.71408"
       ry="3.2719958" />
  </g>
</svg>
