<?xml version="1.0" encoding="UTF-8" standalone="no"?>
<!-- Created with Inkscape (http://www.inkscape.org/) -->

<svg
   width="210mm"
   height="20mm"
   viewBox="0 0 210 20"
   version="1.1"
   id="svg1"
   inkscape:version="1.3.2 (091e20e, 2023-11-25, custom)"
   sodipodi:docname="tools.svg"
   xmlns:inkscape="http://www.inkscape.org/namespaces/inkscape"
   xmlns:sodipodi="http://sodipodi.sourceforge.net/DTD/sodipodi-0.dtd"
   xmlns="http://www.w3.org/2000/svg"
   xmlns:svg="http://www.w3.org/2000/svg">
  <sodipodi:namedview
     id="namedview1"
     pagecolor="#ffffff"
     bordercolor="#666666"
     borderopacity="1.0"
     inkscape:showpageshadow="2"
     inkscape:pageopacity="0.0"
     inkscape:pagecheckerboard="0"
     inkscape:deskcolor="#d1d1d1"
     inkscape:document-units="mm"
     inkscape:zoom="1.5661195"
     inkscape:cx="346.71683"
     inkscape:cy="133.1316"
     inkscape:window-width="1920"
     inkscape:window-height="1057"
     inkscape:window-x="-8"
     inkscape:window-y="-8"
     inkscape:window-maximized="1"
     inkscape:current-layer="layer1" />
  <defs
     id="defs1" />
  <g
     inkscape:label="Ebene 1"
     inkscape:groupmode="layer"
     id="layer1">
    <g
       id="g5"
       transform="translate(0,-10.612679)">
      <g
         id="g4"
         transform="translate(2.1323007)">
        <g
           id="g2"
           transform="translate(-64.508411,-146.21358)">
          <path
             fill="#0074bd"
             d="m 88.75807,171.28832 c 0,0 -0.6234,0.36277 0.44424,0.48518 1.29363,0.14778 1.95469,0.12658 3.37988,-0.14281 0,0 0.37545,0.23474 0.89881,0.43822 -3.196,1.36922 -7.23289,-0.0794 -4.72293,-0.78059 z m -0.39075,-1.78704 c 0,0 -0.69939,0.51774 0.36917,0.62838 1.3819,0.14267 2.47295,0.15431 4.36187,-0.20925 0,0 0.26063,0.26482 0.67113,0.40947 -3.86335,1.12988 -8.16636,0.0889 -5.40217,-0.8286 z"
             id="path1-5"
             style="fill:#ffcc00;fill-opacity:1;stroke-width:0.130775" />
          <path
             fill="#ea2d2e"
             d="m 91.65931,166.4694 c 0.78792,0.90692 -0.20662,1.72231 -0.20662,1.72231 0,0 1.99941,-1.03195 1.08137,-2.32479 -0.85775,-1.20509 -1.51528,-1.80365 2.04467,-3.86832 0,1.3e-4 -5.58814,1.39537 -2.91942,4.4708 z"
             id="path2-3"
             style="fill:#ffcc00;fill-opacity:1;stroke-width:0.130775" />
          <path
             fill="#0074bd"
             d="m 95.88608,172.61032 c 0,0 0.4615,0.38056 -0.50845,0.67467 -1.84419,0.55867 -7.67726,0.7271 -9.2973,0.0224 -0.58208,-0.25345 0.50989,-0.60483 0.85343,-0.67899 0.3582,-0.0776 0.56273,-0.0634 0.56273,-0.0634 -0.64773,-0.45601 -4.18649,0.89582 -1.79724,1.28356 6.51533,1.05613 11.87657,-0.47563 10.18683,-1.23818 z m -6.82788,-4.96094 c 0,0 -2.96676,0.70474 -1.05051,0.96094 0.80923,0.10827 2.42168,0.0834 3.92468,-0.0426 1.22797,-0.10319 2.46026,-0.32353 2.46026,-0.32353 0,0 -0.4326,0.18556 -0.74594,0.39924 -3.01331,0.79263 -8.83305,0.42346 -7.15743,-0.38683 1.41655,-0.68512 2.56894,-0.60719 2.56894,-0.60719 z m 5.32214,2.97474 c 3.06288,-1.59114 1.64659,-3.12029 0.65806,-2.91431 -0.24167,0.0504 -0.35009,0.0942 -0.35009,0.0942 0,0 0.09,-0.14112 0.26155,-0.2018 1.95548,-0.68721 3.45913,2.0274 -0.63072,3.10264 0,-2.7e-4 0.0469,-0.0428 0.0612,-0.0807 z"
             id="path3"
             style="fill:#ffcc00;fill-opacity:1;stroke-width:0.130775" />
          <path
             fill="#ea2d2e"
             d="m 92.53406,158.66424 c 0,0 1.69589,1.69693 -1.60892,4.3055 -2.65028,2.09318 -0.60431,3.28636 -9.2e-4,4.65021 -1.54719,-1.39575 -2.68205,-2.62465 -1.92081,-3.76827 1.11786,-1.67836 4.21473,-2.49244 3.53065,-5.18744 z"
             id="path4"
             style="fill:#ffcc00;fill-opacity:1;stroke-width:0.130775" />
          <path
             fill="#0074bd"
             d="m 89.35924,174.93707 c 2.9393,0.18793 7.45416,-0.10463 7.56101,-1.49554 0,0 -0.20545,0.52728 -2.42941,0.94563 -2.50904,0.47235 -5.60422,0.4173 -7.43938,0.1143 0,1.3e-4 0.37598,0.31137 2.30778,0.43561 z"
             id="path5"
             style="fill:#ffcc00;fill-opacity:1;stroke-width:0.130775" />
        </g>
        <g
           id="g1"
           transform="translate(-29.26594,-125.56536)">
          <path
             d="m 187.18944,146.9439 c 0.0305,-0.53861 0.29546,-1.0141 0.69643,-1.3502 0.39285,-0.33038 0.92028,-0.53239 1.49939,-0.53239 0.57606,0 1.10337,0.20188 1.49571,0.53239 0.40161,0.3361 0.66494,0.81159 0.69643,1.3502 0.0305,0.55232 -0.19337,1.06783 -0.5847,1.44962 -0.40097,0.38726 -0.9684,0.63194 -1.60744,0.63194 -0.63955,0 -1.20952,-0.24316 -1.60795,-0.63194 -0.39285,-0.38168 -0.61619,-0.89438 -0.58482,-1.44708 z m 0,0"
             fill="#235785"
             id="path1-0"
             style="fill:#ffcc00;fill-opacity:1;stroke-width:0.12697" />
          <path
             d="m 183.7502,148.08283 c 0.004,0.21076 0.0716,0.62088 0.17268,0.94008 0.21356,0.67751 0.57606,1.30436 1.07797,1.85364 0.51576,0.56693 1.15213,1.02274 1.88551,1.34715 0.77109,0.33902 1.60808,0.51258 2.47655,0.51258 0.86848,-9.9e-4 1.70547,-0.17775 2.47643,-0.52082 0.73338,-0.32784 1.37001,-0.78317 1.88551,-1.35312 0.50458,-0.55537 0.86594,-1.18172 1.0781,-1.85974 a 4.6978978,4.6978978 0 0 0 0.20252,-1.03646 c 0.0264,-0.34154 0.0152,-0.68627 -0.0334,-1.03099 a 4.7658268,4.7658268 0 0 0 -0.6878,-1.86824 c -0.32682,-0.52693 -0.75116,-0.98529 -1.25574,-1.37293 l 0.002,-5.1e-4 -5.0731,-3.87335 c -0.005,-0.004 -0.009,-0.007 -0.0132,-0.0102 -0.33254,-0.25419 -0.89438,-0.25318 -1.25828,0.001 -0.36999,0.25787 -0.41265,0.68373 -0.0833,0.95176 l -0.002,0.001 2.11811,1.71207 -6.44869,0.006 h -0.009 c -0.53289,5.1e-4 -1.04611,0.34777 -1.14654,0.78887 -0.10412,0.44706 0.25838,0.82023 0.81413,0.82023 l -0.001,0.002 3.2677,-0.006 -5.84698,4.44269 c -0.007,0.006 -0.0152,0.0112 -0.0223,0.0168 -0.55042,0.41824 -0.72805,1.11607 -0.38142,1.55462 0.35272,0.44719 1.10032,0.45024 1.65658,0.003 l 3.18162,-2.59146 c 0,0 -0.0467,0.35018 -0.0427,0.55829 z m 8.19719,1.17053 c -0.65618,0.6638 -1.57646,1.04242 -2.56822,1.04242 -0.99431,0.002 -1.91459,-0.37049 -2.5709,-1.03379 -0.32072,-0.32491 -0.55575,-0.69491 -0.70189,-1.0908 a 2.8189926,2.8189926 0 0 1 -0.16138,-1.21917 2.8499733,2.8499733 0 0 1 0.35273,-1.14768 c 0.19134,-0.3446 0.45582,-0.65771 0.77959,-0.92269 0.63904,-0.51525 1.45,-0.79738 2.29816,-0.79738 0.85185,-0.001 1.66293,0.27604 2.30197,0.79179 0.32378,0.26346 0.58724,0.57505 0.7796,0.91965 a 2.8316896,2.8316896 0 0 1 0.35222,1.14819 2.8330863,2.8330863 0 0 1 -0.16138,1.21866 c -0.14564,0.39894 -0.38117,0.76893 -0.70253,1.09385 z m 0,0"
             fill="#e87500"
             id="path2-9"
             style="fill:#ffcc00;fill-opacity:1;stroke-width:0.12697" />
        </g>
        <path
           fill="#dc514a"
           d="m 119.10812,16.82093 c -0.86973,0.0148 -1.69685,0.27245 -2.4112,0.93247 -1.59346,1.47463 -1.64114,3.99879 -0.10163,5.52775 0.26698,0.26522 0.58262,0.50992 0.92855,0.66588 v 0.007 c 2.02384,1.07299 4.60272,-0.0747 5.3286,-2.18077 0.6094,-1.76818 -0.32444,-4.26655 -2.27868,-4.75868 v -0.0237 c -0.4339,-0.0993 -0.86699,-0.16163 -1.29131,-0.16945 a 4.8071508,4.8071508 0 0 0 -0.17433,-3.9e-4 z m -8.33942,1.03449 a 0.26326363,0.26326363 0 0 0 -0.0638,0.0164 c -0.26523,0.10358 -0.19526,0.79898 0.15167,0.67213 0.28495,-0.10436 0.21557,-0.72607 -0.0879,-0.68855 z m -11.363148,0.0733 v 4.16043 c 0,0.49213 0.14092,1.26061 -0.18899,1.67339 -0.31095,0.3903 -0.76849,0.24665 -1.18831,0.22867 0,0.0879 -0.0297,0.24098 0.0254,0.31486 0.10261,0.13779 0.43877,0.0913 0.58634,0.0913 0.48,-7.8e-4 0.92894,-0.22281 1.06751,-0.71005 0.17707,-0.6262 0.0801,-1.35892 0.0801,-2.00428 v -3.75449 h -0.3821 z m 1.733588,0 v 2.71433 c 0,0.55526 -0.0473,1.1369 0.21401,1.64877 0.62054,1.21645 2.78802,1.19612 3.44236,0.0248 0.28379,-0.50874 0.24588,-1.11129 0.24588,-1.67359 V 17.9287 h -0.4077 v 2.73994 c 0,0.49447 0.0622,1.02041 -0.18665,1.47072 -0.53357,0.96666 -2.23764,0.93266 -2.73935,-0.0502 -0.23863,-0.46751 -0.18587,-1.01534 -0.18587,-1.52252 v -2.63791 h -0.38248 z m 16.73123,0 h 2.66332 v 0.72412 h -1.96383 l -0.10162,1.26844 c 0.43584,-0.0342 0.83923,-0.11121 1.27468,-0.008 0.29864,0.0696 0.57852,0.21049 0.78627,0.43935 0.57852,0.63774 0.46418,1.83445 -0.20013,2.3727 -0.18801,0.15245 -0.4032,0.25212 -0.63089,0.31623 a 2.1086498,2.1086498 0 0 1 -0.62113,0.095 c -0.0758,0.004 -0.15186,0.007 -0.2271,0.007 A 3.6157216,3.6157216 0 0 1 117.88073,23.013 c -0.0758,-0.0213 -0.19075,-0.0518 -0.26913,-0.10495 l -0.002,-0.0215 c -0.007,-0.007 -0.014,-0.0145 -0.0197,-0.0227 -0.10104,-0.1503 -0.0264,-0.54471 -0.0264,-0.72354 0.63715,0.11278 1.15508,0.46281 1.83659,0.25975 0.66647,-0.19935 0.94478,-1.15996 0.35689,-1.61593 -0.35493,-0.27461 -0.88205,-0.23727 -1.30069,-0.18665 -0.25075,0.0303 -0.56542,0.12293 -0.73859,-0.14463 -0.1028,-0.15714 0.003,-0.54373 0.0203,-0.72198 l 0.0153,-0.1544 c 0.0445,-0.54724 0.11668,-1.09976 0.11668,-1.64681 z m -5.22873,0.40613 c -0.42548,0.002 -0.19603,0.58321 -0.40124,0.82673 -0.19701,0.23395 -0.54138,0.0168 -0.54216,0.4163 h 0.56111 v 2.2822 c 0,0.37115 -0.0108,0.80993 0.28183,1.08824 0.34692,0.3305 0.90218,0.24176 1.32453,0.1546 V 22.799 c -0.29454,0.0127 -0.64848,0.13564 -0.91761,-0.0426 -0.30568,-0.20326 -0.30665,-0.59572 -0.30665,-0.92074 v -2.25797 h 1.12244 v -0.32971 h -1.12244 v -0.91312 z m -4.69048,0.82712 c -0.51421,0.009 -1.02451,0.21616 -1.22602,0.61878 h -0.026 l -0.0512,-0.53278 h -0.33108 v 3.85533 h 0.38248 v -1.80062 c 0,-0.42158 -0.0137,-0.8625 0.19935,-1.24303 0.33812,-0.60646 1.49789,-0.77435 1.92728,-0.17707 0.21225,0.29629 0.19427,0.74269 0.19427,1.09038 v 2.13034 h 0.35689 v -2.13034 c 0,-0.41454 0.0345,-0.8664 -0.17551,-1.24303 -0.21753,-0.38893 -0.73585,-0.57714 -1.25026,-0.56796 z m 3.03292,0.0856 -0.38288,3.9e-4 v 3.85534 h 0.38308 v -3.85573 z"
           id="path1-3"
           style="fill:#ffcc00;fill-opacity:1;stroke-width:0.195444" />
        <g
           id="g8"
           transform="translate(-339.3835,-129.52018)">
          <path
             d="m 401.50725,154.28548 v -0.55839 c 0.31236,-0.0428 0.6008,-0.11428 0.94231,-0.12222 v -4.31038 c -0.38445,-0.006 -0.74633,-0.0909 -0.92831,-0.15357 V 148.605 l 1.92974,-0.0162 v 5.02223 c 0.26734,-0.0193 0.62817,0.0736 0.95505,0.12588 v 0.55034 z"
             fill="#ffffff"
             id="path32"
             style="fill:#ffcc00;fill-opacity:1;stroke-width:0.104469" />
          <path
             d="m 403.58179,147.26832 0.0418,-1.24077 c 0.58785,-0.33712 2.66103,-0.57813 2.88219,0.83146 0.0745,0.47492 0.12515,1.26376 -1.04051,1.86299 0.90261,0.24383 1.20432,0.82457 1.21476,1.39602 0.0247,1.34179 -1.27796,2.16229 -2.45041,2.03128 l 0.009,-0.67716 c 1.03811,0.11909 1.54227,-0.55745 1.56473,-1.19303 0.023,-0.65147 -0.54752,-1.10079 -1.56473,-1.08084 l -0.0157,-0.63684 c 1.27337,-0.0944 1.63212,-0.97615 1.47353,-1.4658 -0.21708,-0.67058 -0.90992,-0.79438 -1.52242,-0.55848 l -0.10478,0.74695 z"
             fill="#ffffff"
             id="path35"
             style="fill:#ffcc00;fill-opacity:1;stroke-width:0.104469" />
          <circle
             cx="403.81662"
             cy="150.13286"
             r="6.4076877"
             fill="none"
             stroke="url(#processing-original-a)"
             stroke-width="0.556609"
             id="circle75"
             style="fill:none;fill-opacity:1;stroke:#ffcc00;stroke-opacity:1" />
        </g>
        <path
           fill="#ed225d"
           d="m 81.554954,17.236065 -0.0853,2.75712 c 0.084,-0.0414 0.17076,-0.0773 0.25971,-0.10702 a 3.9974284,3.9974284 0 0 1 0.2994,-0.089 c 0.10299,-0.0265 0.2077,-0.0467 0.31333,-0.0606 0.10011,-0.0135 0.20137,-0.0207 0.30251,-0.0212 0.13797,0 0.27328,0.0153 0.40619,0.0464 a 0.97335192,0.97335192 0 0 1 0.36016,0.16352 c 0.10701,0.0782 0.19331,0.18169 0.25982,0.31021 0.0665,0.12806 0.0998,0.28939 0.0998,0.48408 0,0.1519 -0.0247,0.28893 -0.0747,0.40987 -0.0498,0.12095 -0.11771,0.22208 -0.20309,0.30262 a 0.87508468,0.87508468 0 0 1 -0.29894,0.18549 1.0351429,1.0351429 0 0 1 -0.36362,0.0644 c -0.22783,0 -0.42529,-0.0608 -0.59109,-0.18215 -0.16627,-0.12082 -0.28537,-0.28134 -0.35649,-0.48097 l -0.009,0.003 -0.61894,0.57983 a 1.6569652,1.6569652 0 0 0 0.48593,0.51054 c 0.2895,0.19688 0.64588,0.29538 1.0684,0.29538 0.25222,0 0.48949,-0.0405 0.7125,-0.12094 0.22334,-0.0809 0.41803,-0.19733 0.5843,-0.34922 0.16628,-0.15189 0.29802,-0.33853 0.39548,-0.55923 0.0976,-0.22115 0.14614,-0.47143 0.14614,-0.75196 0,-0.25614 -0.0441,-0.4827 -0.13175,-0.68005 -0.088,-0.19687 -0.21034,-0.36315 -0.36718,-0.49893 -0.15649,-0.13531 -0.34071,-0.23864 -0.55197,-0.30964 -0.21127,-0.0715 -0.44048,-0.10701 -0.6873,-0.10701 -0.0903,0 -0.19147,0.005 -0.30286,0.0144 -0.11196,0.009 -0.20816,0.026 -0.28859,0.0499 l 0.0498,-1.09049 h 2.05913 v -0.76911 z m 5.9989,1.46089 v 3.82553 c 0,0.0998 -0.005,0.19329 -0.014,0.28134 -0.01,0.0877 -0.031,0.16499 -0.0644,0.23197 a 0.38558959,0.38558959 0 0 1 -0.14234,0.15648 c -0.0621,0.0381 -0.14303,0.057 -0.24233,0.057 a 1.0612631,1.0612631 0 0 1 -0.23509,-0.0287 l -0.0714,0.72687 c 0.0431,0.01 0.0996,0.0193 0.17065,0.0288 0.0716,0.01 0.14302,0.0138 0.21402,0.0138 0.2566,0 0.46429,-0.0399 0.62343,-0.12082 0.15914,-0.0809 0.28491,-0.18871 0.378,-0.32415 0.0926,-0.13578 0.15511,-0.29434 0.18836,-0.47729 a 3.2448901,3.2448901 0 0 0 0.0503,-0.58074 v -3.78997 z m -8.26964,0.0637 c -0.15683,0 -0.29802,0.0176 -0.42379,0.053 -0.11736,0.0328 -0.23105,0.0782 -0.33852,0.13578 -0.0998,0.0549 -0.18423,0.11598 -0.25304,0.18525 a 1.2299514,1.2299514 0 0 0 -0.16719,0.2031 h -0.0215 v -0.4773 h -0.81951 v 5.12946 h 0.8554 v -2.16615 h 0.0139 c 0.10932,0.17133 0.26466,0.30665 0.46706,0.40642 0.20183,0.0998 0.42345,0.14959 0.66567,0.14959 0.2612,0 0.49536,-0.0489 0.70202,-0.14614 0.20678,-0.097 0.3826,-0.22783 0.52724,-0.3918 0.14475,-0.16363 0.25671,-0.35602 0.33485,-0.57718 0.0782,-0.2207 0.11782,-0.45715 0.11782,-0.70881 0,-0.25176 -0.0404,-0.48674 -0.1214,-0.70525 -0.0809,-0.2184 -0.19458,-0.40849 -0.34198,-0.56993 a 1.5985111,1.5985111 0 0 0 -0.52724,-0.38121 c -0.20413,-0.0925 -0.42747,-0.13889 -0.66968,-0.13889 z m 11.31213,0 a 1.9423314,1.9423314 0 0 0 -0.49893,0.0639 1.3917356,1.3917356 0 0 0 -0.43461,0.19596 1.0120145,1.0120145 0 0 0 -0.31022,0.33851 c -0.0782,0.13797 -0.11737,0.30149 -0.11737,0.49169 0,0.16132 0.0283,0.29665 0.0855,0.40585 a 0.82042788,0.82042788 0 0 0 0.22783,0.27466 1.227535,1.227535 0 0 0 0.32449,0.17801 2.8341008,2.8341008 0 0 0 0.37396,0.11046 c 0.2612,0.0617 0.45728,0.1237 0.58799,0.18526 0.13038,0.0616 0.19562,0.16363 0.19562,0.30654 0,0.0759 -0.0167,0.13981 -0.0495,0.19239 -0.0334,0.0518 -0.0782,0.0943 -0.1322,0.1245 a 0.63252343,0.63252343 0 0 1 -0.17802,0.0674 0.83596193,0.83596193 0 0 1 -0.1887,0.0216 c -0.18526,0 -0.35372,-0.0405 -0.50618,-0.12093 -0.1519,-0.0809 -0.27502,-0.18297 -0.37029,-0.30655 l -0.5628,0.52724 c 0.16628,0.18066 0.37535,0.31955 0.62712,0.41654 0.24716,0.0966 0.51055,0.14614 0.77612,0.14614 0.18573,0 0.365,-0.0201 0.53806,-0.0606 0.17352,-0.0401 0.32542,-0.10564 0.45625,-0.19562 a 0.99912695,0.99912695 0 0 0 0.31378,-0.35279 c 0.0782,-0.14465 0.11725,-0.32173 0.11725,-0.53081 0,-0.16627 -0.0333,-0.30745 -0.0998,-0.42379 a 0.93158258,0.93158258 0 0 0 -0.26028,-0.29227 1.4017465,1.4017465 0 0 0 -0.35601,-0.18871 3.1512255,3.1512255 0 0 0 -0.38836,-0.11415 c -0.24221,-0.0571 -0.42655,-0.11276 -0.55232,-0.16719 -0.12589,-0.0549 -0.18837,-0.14878 -0.18837,-0.28191 0,-0.13256 0.0566,-0.22784 0.17076,-0.28445 0.11415,-0.0571 0.23957,-0.0858 0.37753,-0.0858 0.15696,0 0.30171,0.0368 0.43473,0.11046 0.13301,0.0738 0.23726,0.16006 0.31368,0.25982 l 0.55565,-0.49133 c -0.13807,-0.17559 -0.32449,-0.30642 -0.55969,-0.3918 a 2.0988225,2.0988225 0 0 0 -0.72273,-0.12819 z m -11.5044,0.69811 c 0.16627,0 0.31102,0.0319 0.4346,0.0962 a 0.92237721,0.92237721 0 0 1 0.30654,0.25303 1.1224788,1.1224788 0 0 1 0.18158,0.35234 1.3451335,1.3451335 0 0 1 0.0602,0.3956 1.3796536,1.3796536 0 0 1 -0.0602,0.39916 1.1011914,1.1011914 0 0 1 -0.18158,0.35637 c -0.0809,0.10436 -0.18341,0.18974 -0.30654,0.25624 -0.12358,0.0665 -0.26833,0.0998 -0.4346,0.0998 -0.15695,0 -0.29711,-0.0319 -0.42034,-0.0962 a 1.0243266,1.0243266 0 0 1 -0.3169,-0.25316 1.1013065,1.1013065 0 0 1 -0.19998,-0.35232 1.2108502,1.2108502 0 0 1 -0.0675,-0.39549 1.2438745,1.2438745 0 0 1 0.0675,-0.39916 1.0815149,1.0815149 0 0 1 0.51688,-0.61262 c 0.12311,-0.0665 0.2635,-0.0998 0.42034,-0.0998 z m 6.83877,1.5672 v 0.53094 l -0.51319,-0.16582 -0.0999,0.30838 0.51101,0.18422 -0.31505,0.43105 0.25752,0.19642 0.32276,-0.4269 0.33174,0.43817 0.26557,-0.19239 -0.31505,-0.44635 0.50699,-0.17306 -0.0998,-0.30746 -0.50916,0.15374 v -0.53082 z m 0,0"
           id="path1-2"
           style="fill:#ffcc00;fill-opacity:1;stroke-width:0.115066" />
        <g
           fill="#181616"
           id="g2-0"
           transform="matrix(0.1080684,0,0,0.1080684,38.163051,13.696309)"
           style="fill:#ffcc00;fill-opacity:1">
          <path
             fill-rule="evenodd"
             clip-rule="evenodd"
             d="m 64,5.103 c -33.347,0 -60.388,27.035 -60.388,60.388 0,26.682 17.303,49.317 41.297,57.303 3.017,0.56 4.125,-1.31 4.125,-2.905 0,-1.44 -0.056,-6.197 -0.082,-11.243 -16.8,3.653 -20.345,-7.125 -20.345,-7.125 -2.747,-6.98 -6.705,-8.836 -6.705,-8.836 -5.48,-3.748 0.413,-3.67 0.413,-3.67 6.063,0.425 9.257,6.223 9.257,6.223 5.386,9.23 14.127,6.562 17.573,5.02 0.542,-3.903 2.107,-6.568 3.834,-8.076 -13.413,-1.525 -27.514,-6.704 -27.514,-29.843 0,-6.593 2.36,-11.98 6.223,-16.21 -0.628,-1.52 -2.695,-7.662 0.584,-15.98 0,0 5.07,-1.623 16.61,6.19 C 53.7,35 58.867,34.327 64,34.304 c 5.13,0.023 10.3,0.694 15.127,2.033 11.526,-7.813 16.59,-6.19 16.59,-6.19 3.287,8.317 1.22,14.46 0.593,15.98 3.872,4.23 6.215,9.617 6.215,16.21 0,23.194 -14.127,28.3 -27.574,29.796 2.167,1.874 4.097,5.55 4.097,11.183 0,8.08 -0.07,14.583 -0.07,16.572 0,1.607 1.088,3.49 4.148,2.897 23.98,-7.994 41.263,-30.622 41.263,-57.294 C 124.388,32.14 97.35,5.104 64,5.104 Z"
             id="path1-6"
             style="fill:#ffcc00;fill-opacity:1" />
          <path
             d="m 26.484,91.806 c -0.133,0.3 -0.605,0.39 -1.035,0.185 -0.44,-0.196 -0.685,-0.605 -0.543,-0.906 0.13,-0.31 0.603,-0.395 1.04,-0.188 0.44,0.197 0.69,0.61 0.537,0.91 z m 2.446,2.729 c -0.287,0.267 -0.85,0.143 -1.232,-0.28 -0.396,-0.42 -0.47,-0.983 -0.177,-1.254 0.298,-0.266 0.844,-0.14 1.24,0.28 0.394,0.426 0.472,0.984 0.17,1.255 z m 2.382,3.477 c -0.37,0.258 -0.976,0.017 -1.35,-0.52 -0.37,-0.538 -0.37,-1.183 0.01,-1.44 0.373,-0.258 0.97,-0.025 1.35,0.507 0.368,0.545 0.368,1.19 -0.01,1.452 z m 3.261,3.361 c -0.33,0.365 -1.036,0.267 -1.552,-0.23 -0.527,-0.487 -0.674,-1.18 -0.343,-1.544 0.336,-0.366 1.045,-0.264 1.564,0.23 0.527,0.486 0.686,1.18 0.333,1.543 z m 4.5,1.951 c -0.147,0.473 -0.825,0.688 -1.51,0.486 -0.683,-0.207 -1.13,-0.76 -0.99,-1.238 0.14,-0.477 0.823,-0.7 1.512,-0.485 0.683,0.206 1.13,0.756 0.988,1.237 z m 4.943,0.361 c 0.017,0.498 -0.563,0.91 -1.28,0.92 -0.723,0.017 -1.308,-0.387 -1.315,-0.877 0,-0.503 0.568,-0.91 1.29,-0.924 0.717,-0.013 1.306,0.387 1.306,0.88 z m 4.598,-0.782 c 0.086,0.485 -0.413,0.984 -1.126,1.117 -0.7,0.13 -1.35,-0.172 -1.44,-0.653 -0.086,-0.498 0.422,-0.997 1.122,-1.126 0.714,-0.123 1.354,0.17 1.444,0.663 z m 0,0"
             id="path2-2"
             style="fill:#ffcc00;fill-opacity:1" />
        </g>
        <g
           id="g3"
           transform="translate(0.39571337,-167.87344)">
          <path
             d="m 134.62812,181.97984 -5.22503,5.34166 c -1.97104,1.97104 1.28293,1.80776 2.4609,2.55419 0.54816,0.34989 -1.74945,0.80476 -1.28293,1.28293 0.45485,0.46652 2.75247,0.89805 3.20732,1.35291 0.45486,0.46652 -0.92137,0.95637 -0.46652,1.43455 0.4432,0.46652 1.50453,0.0233 1.69114,1.08467 0.13995,0.78141 1.94772,0.39653 2.76413,-0.27992 0.50151,-0.43153 -0.87473,-0.43153 -0.41987,-0.89805 1.14297,-1.15464 2.15765,-0.52484 2.56586,-1.58617 0.23326,-0.57149 -1.72612,-0.97969 -1.20129,-1.34125 1.23628,-0.87472 5.79651,-1.31792 3.69717,-3.41726 l -5.39997,-5.52826 c -0.67645,-0.62979 -1.77277,-0.62979 -2.39091,0 z m 5.98312,10.28677 c 0,0.26825 2.06435,0.41987 1.94772,-0.0583 -0.16328,-0.80474 -1.72613,-0.74643 -1.94772,0.0583 z m -8.7939,1.41122 c 0.46652,0.40821 1.17796,-0.0933 1.39956,-0.65313 -0.45486,-0.60647 -2.13433,0.035 -1.39956,0.65313 z m 8.53731,-0.8514 c -0.58315,0.5365 0.10497,1.08466 0.67645,0.72311 0.15162,-0.10497 -0.0117,-0.59482 -0.67645,-0.72311 z"
             id="path3-5"
             style="fill:#ffcc00;fill-opacity:1;stroke-width:0.11663" />
          <path
             fill="url(#inkscape-original-e)"
             d="m 136.70413,182.36473 2.06435,2.09933 c 0.18661,0.18662 0.18661,0.58315 0.0816,0.69979 l -1.02634,-0.83974 -0.19827,1.22462 -0.8514,-0.45486 -1.37623,0.87473 -0.45486,-1.83109 -0.73477,1.59783 -1.85442,-0.0233 c -0.34989,0 -0.30323,-0.36155 0.0583,-0.73477 0.7231,-0.79308 2.12266,-2.15765 2.56586,-2.62417 0.46652,-0.46652 1.2596,-0.4432 1.72612,0.0117 z"
             id="path9"
             style="fill:#ffffff;stroke-width:0.11663" />
        </g>
        <g
           id="g10"
           transform="matrix(0.89877257,0,0,0.89877257,-303.08738,-124.69064)">
          <path
             fill="#2c2255"
             d="m 532.60285,163.6046 h -2.29752 c 0.30423,1.0439 0.86864,1.97922 1.69528,2.80539 1.31757,1.31793 2.90203,1.976 4.75443,1.976 0.37055,0 0.72941,-0.0274 1.07801,-0.0802 1.39571,-0.21068 2.6176,-0.84167 3.66436,-1.8957 0.83177,-0.82641 1.40037,-1.76161 1.70697,-2.80551 z m -1.26663,-3.12058 h -1.20054 a 7.0256926,7.0256926 0 0 0 -0.0876,0.8091 h 13.41491 a 7.0188924,7.0188924 0 0 0 -0.088,-0.8091 m -13.32686,1.56023 a 7.0555181,7.0555181 0 0 0 0.0876,0.80911 h 13.23978 c 0.0447,-0.26796 0.0739,-0.53781 0.088,-0.80911 m -0.25864,-2.31195 c -0.30661,-1.04616 -0.8752,-1.98614 -1.70757,-2.81839 -1.04389,-1.04437 -2.26244,-1.6707 -3.65351,-1.8814 a 7.2730059,7.2730059 0 0 0 -1.08827,-0.0816 c -1.85275,0 -3.43733,0.65484 -4.75478,1.96288 -0.82676,0.83236 -1.39201,1.77234 -1.69588,2.8185"
             id="path6-1"
             style="fill:#ffcc00;fill-opacity:1;stroke-width:0.119301" />
          <path
             fill="#f7941e"
             d="m 529.64917,161.66869 c 0,-3.54363 2.66151,-6.488 6.12401,-7.00577 -0.0858,-0.003 -0.1724,-0.007 -0.25912,-0.007 -3.88519,4.6e-4 -7.03512,3.14003 -7.03512,7.01269 0,3.87314 3.14993,7.01269 7.03523,7.01269 0.0871,0 0.17324,-0.003 0.25948,-0.006 -3.46297,-0.51778 -6.12448,-3.46214 -6.12448,-7.00625 z m 0,0"
             id="path7"
             style="fill:#ffcc00;fill-opacity:1;stroke-width:0.119301" />
          <path
             fill="url(#a)"
             d="m 541.32072,161.29253 a 4.5827462,4.5827462 0 0 0 -0.13886,-0.80887 h -8.85257 a 4.5827462,4.5827462 0 0 0 -0.13887,0.80887 z m 0,0"
             id="path8"
             style="fill:#ffffff;fill-opacity:1;stroke-width:0.119301" />
          <path
             fill="url(#b)"
             d="m 541.32072,162.04425 h -9.1303 c 0.0218,0.2732 0.0685,0.5439 0.13887,0.80911 h 8.85257 a 4.5871605,4.5871605 0 0 0 0.13886,-0.80911 z m 0,0"
             id="path9-3"
             style="fill:#ffffff;fill-opacity:1;stroke-width:0.119301" />
          <path
             fill="url(#c)"
             d="m 536.75551,166.25072 c 1.83845,0 3.42349,-1.08362 4.15278,-2.64612 h -8.30544 c 0.72977,1.5625 2.31422,2.64612 4.15266,2.64612 z m 0,0"
             id="path10-0"
             style="fill:#ffffff;fill-opacity:1;stroke-width:0.119301" />
          <path
             fill="#ffffff"
             d="m 531.51374,162.04425 h 11.93998 a 6.6343822,6.6343822 0 0 0 0.01,-0.36113 c 0,-0.13099 -0.005,-0.26091 -0.0122,-0.39047 h -13.4031 a 7.239243,7.239243 0 0 0 -0.0122,0.39047 c 0,0.12122 0.003,0.24136 0.01,0.36113 z m 1.0625,-2.31195 h -2.27139 c -0.0746,0.24469 -0.12299,0.49594 -0.16917,0.75172 h 13.19683 a 6.6075394,6.6075394 0 0 0 -0.18074,-0.7516 m -0.68241,3.12094 h -12.33355 c 0.0447,0.25531 0.096,0.50655 0.16964,0.75124 h 12.89058 a 6.6872329,6.6872329 0 0 0 0.17776,-0.75124 z m 0,0"
             id="path11"
             style="stroke:none;stroke-width:0.119301" />
        </g>
      </g>
    </g>
  </g>
</svg>
