<svg xmlns="http://www.w3.org/2000/svg" role="img" viewBox="0 0 24 24" fill="currentColor">
  <path d="M12 .3a12 12 0 0 0-3.8 23.4c.6.1.8-.2.8-.6v-2.3c-3.3.7-4-1.5-4-1.5a3.1 3.1 0 0 0-1.3-1.7c-1-.7.1-.7.1-.7a2.5 2.5 0 0 1 1.8 1.2 2.5 2.5 0 0 0 3.5 1 2.5 2.5 0 0 1 .7-1.6c-2.6-.3-5.4-1.3-5.4-5.7a4.5 4.5 0 0 1 1.2-3.2 4.2 4.2 0 0 1 .1-3.2s1-.3 3.3 1.2a11.3 11.3 0 0 1 6 0c2.2-1.5 3.3-1.2 3.3-1.2a4.2 4.2 0 0 1 .1 3.2 4.5 4.5 0 0 1 1.2 3.2c0 4.4-2.8 5.4-5.4 5.7a2.8 2.8 0 0 1 .8 2.2v3.2c0 .4.2.7.8.6A12 12 0 0 0 12 .3"></path>
</svg>
