<svg xmlns="http://www.w3.org/2000/svg" role="img" viewBox="0 0 24 24" fill="currentColor">
  <path d="M20.45 20.45h-3.555v-5.4c0-1.286-.023-2.94-1.795-2.94-1.797 0-2.072 1.402-2.072 2.846v5.493H9.473V9h3.413v1.56h.05c.475-.9 1.635-1.847 3.363-1.847 3.594 0 4.257 2.365 4.257 5.442v6.29zM5.337 7.433a2.063 2.063 0 1 1 0-4.126 2.063 2.063 0 0 1 0 4.126zM6.97 20.45H3.703V9h3.267zM22.225 0H1.771C.792 0 0 .774 0 1.729v20.542C0 23.225.792 24 1.771 24h20.451C23.206 24 24 23.225 24 22.271V1.729C24 .774 23.206 0 22.225 0z"></path>
</svg>
